<?xml version="1.0" encoding="utf-8" standalone="no"?>
<!DOCTYPE svg PUBLIC "-//W3C//DTD SVG 1.1//EN"
  "http://www.w3.org/Graphics/SVG/1.1/DTD/svg11.dtd">
<svg xmlns:xlink="http://www.w3.org/1999/xlink" width="144pt" height="432pt" viewBox="0 0 144 432" xmlns="http://www.w3.org/2000/svg" version="1.1">
 <metadata>
  <rdf:RDF xmlns:dc="http://purl.org/dc/elements/1.1/" xmlns:cc="http://creativecommons.org/ns#" xmlns:rdf="http://www.w3.org/1999/02/22-rdf-syntax-ns#">
   <cc:Work>
    <dc:type rdf:resource="http://purl.org/dc/dcmitype/StillImage"/>
    <dc:date>2022-06-07T14:22:37.660029</dc:date>
    <dc:format>image/svg+xml</dc:format>
    <dc:creator>
     <cc:Agent>
      <dc:title>Matplotlib v3.5.1, https://matplotlib.org/</dc:title>
     </cc:Agent>
    </dc:creator>
   </cc:Work>
  </rdf:RDF>
 </metadata>
 <defs>
  <style type="text/css">*{stroke-linejoin: round; stroke-linecap: butt}</style>
 </defs>
 <g id="figure_1">
  <g id="patch_1">
   <path d="M 0 432 
L 144 432 
L 144 0 
L 0 0 
L 0 432 
z
" style="fill: none"/>
  </g>
  <g id="axes_1">
   <g id="patch_2">
    <path d="M 18 378 
L 129.6 378 
L 129.6 51.84 
L 18 51.84 
z
" style="fill: #ffffff"/>
   </g>
   <g id="matplotlib.axis_1">
    <g id="xtick_1">
     <g id="line2d_1">
      <defs>
       <path id="m910910618f" d="M 0 0 
L 0 9 
" style="stroke: #000000; stroke-width: 1.875"/>
      </defs>
      <g>
       <use xlink:href="#m910910618f" x="73.8" y="378" style="stroke: #000000; stroke-width: 1.875"/>
      </g>
     </g>
    </g>
   </g>
   <g id="matplotlib.axis_2">
    <g id="ytick_1">
     <g id="line2d_2">
      <defs>
       <path id="m9c6155eecf" d="M 0 0 
L -9 0 
" style="stroke: #000000; stroke-width: 1.875"/>
      </defs>
      <g>
       <use xlink:href="#m9c6155eecf" x="18" y="363.174545" style="stroke: #000000; stroke-width: 1.875"/>
      </g>
     </g>
     <g id="text_1">
      <!-- 0.5 -->
      <g transform="translate(-20.740156 369.443256)scale(0.165 -0.165)">
       <defs>
        <path id="DejaVuSans-30" d="M 2034 4250 
Q 1547 4250 1301 3770 
Q 1056 3291 1056 2328 
Q 1056 1369 1301 889 
Q 1547 409 2034 409 
Q 2525 409 2770 889 
Q 3016 1369 3016 2328 
Q 3016 3291 2770 3770 
Q 2525 4250 2034 4250 
z
M 2034 4750 
Q 2819 4750 3233 4129 
Q 3647 3509 3647 2328 
Q 3647 1150 3233 529 
Q 2819 -91 2034 -91 
Q 1250 -91 836 529 
Q 422 1150 422 2328 
Q 422 3509 836 4129 
Q 1250 4750 2034 4750 
z
" transform="scale(0.015625)"/>
        <path id="DejaVuSans-2e" d="M 684 794 
L 1344 794 
L 1344 0 
L 684 0 
L 684 794 
z
" transform="scale(0.015625)"/>
        <path id="DejaVuSans-35" d="M 691 4666 
L 3169 4666 
L 3169 4134 
L 1269 4134 
L 1269 2991 
Q 1406 3038 1543 3061 
Q 1681 3084 1819 3084 
Q 2600 3084 3056 2656 
Q 3513 2228 3513 1497 
Q 3513 744 3044 326 
Q 2575 -91 1722 -91 
Q 1428 -91 1123 -41 
Q 819 9 494 109 
L 494 744 
Q 775 591 1075 516 
Q 1375 441 1709 441 
Q 2250 441 2565 725 
Q 2881 1009 2881 1497 
Q 2881 1984 2565 2268 
Q 2250 2553 1709 2553 
Q 1456 2553 1204 2497 
Q 953 2441 691 2322 
L 691 4666 
z
" transform="scale(0.015625)"/>
       </defs>
       <use xlink:href="#DejaVuSans-30"/>
       <use xlink:href="#DejaVuSans-2e" x="63.623047"/>
       <use xlink:href="#DejaVuSans-35" x="95.410156"/>
      </g>
     </g>
    </g>
    <g id="ytick_2">
     <g id="line2d_3">
      <g>
       <use xlink:href="#m9c6155eecf" x="18" y="303.495009" style="stroke: #000000; stroke-width: 1.875"/>
      </g>
     </g>
     <g id="text_2">
      <!-- 0.6 -->
      <g transform="translate(-20.740156 309.76372)scale(0.165 -0.165)">
       <defs>
        <path id="DejaVuSans-36" d="M 2113 2584 
Q 1688 2584 1439 2293 
Q 1191 2003 1191 1497 
Q 1191 994 1439 701 
Q 1688 409 2113 409 
Q 2538 409 2786 701 
Q 3034 994 3034 1497 
Q 3034 2003 2786 2293 
Q 2538 2584 2113 2584 
z
M 3366 4563 
L 3366 3988 
Q 3128 4100 2886 4159 
Q 2644 4219 2406 4219 
Q 1781 4219 1451 3797 
Q 1122 3375 1075 2522 
Q 1259 2794 1537 2939 
Q 1816 3084 2150 3084 
Q 2853 3084 3261 2657 
Q 3669 2231 3669 1497 
Q 3669 778 3244 343 
Q 2819 -91 2113 -91 
Q 1303 -91 875 529 
Q 447 1150 447 2328 
Q 447 3434 972 4092 
Q 1497 4750 2381 4750 
Q 2619 4750 2861 4703 
Q 3103 4656 3366 4563 
z
" transform="scale(0.015625)"/>
       </defs>
       <use xlink:href="#DejaVuSans-30"/>
       <use xlink:href="#DejaVuSans-2e" x="63.623047"/>
       <use xlink:href="#DejaVuSans-36" x="95.410156"/>
      </g>
     </g>
    </g>
    <g id="ytick_3">
     <g id="line2d_4">
      <g>
       <use xlink:href="#m9c6155eecf" x="18" y="243.815472" style="stroke: #000000; stroke-width: 1.875"/>
      </g>
     </g>
     <g id="text_3">
      <!-- 0.7 -->
      <g transform="translate(-20.740156 250.084183)scale(0.165 -0.165)">
       <defs>
        <path id="DejaVuSans-37" d="M 525 4666 
L 3525 4666 
L 3525 4397 
L 1831 0 
L 1172 0 
L 2766 4134 
L 525 4134 
L 525 4666 
z
" transform="scale(0.015625)"/>
       </defs>
       <use xlink:href="#DejaVuSans-30"/>
       <use xlink:href="#DejaVuSans-2e" x="63.623047"/>
       <use xlink:href="#DejaVuSans-37" x="95.410156"/>
      </g>
     </g>
    </g>
    <g id="ytick_4">
     <g id="line2d_5">
      <g>
       <use xlink:href="#m9c6155eecf" x="18" y="184.135935" style="stroke: #000000; stroke-width: 1.875"/>
      </g>
     </g>
     <g id="text_4">
      <!-- 0.8 -->
      <g transform="translate(-20.740156 190.404646)scale(0.165 -0.165)">
       <defs>
        <path id="DejaVuSans-38" d="M 2034 2216 
Q 1584 2216 1326 1975 
Q 1069 1734 1069 1313 
Q 1069 891 1326 650 
Q 1584 409 2034 409 
Q 2484 409 2743 651 
Q 3003 894 3003 1313 
Q 3003 1734 2745 1975 
Q 2488 2216 2034 2216 
z
M 1403 2484 
Q 997 2584 770 2862 
Q 544 3141 544 3541 
Q 544 4100 942 4425 
Q 1341 4750 2034 4750 
Q 2731 4750 3128 4425 
Q 3525 4100 3525 3541 
Q 3525 3141 3298 2862 
Q 3072 2584 2669 2484 
Q 3125 2378 3379 2068 
Q 3634 1759 3634 1313 
Q 3634 634 3220 271 
Q 2806 -91 2034 -91 
Q 1263 -91 848 271 
Q 434 634 434 1313 
Q 434 1759 690 2068 
Q 947 2378 1403 2484 
z
M 1172 3481 
Q 1172 3119 1398 2916 
Q 1625 2713 2034 2713 
Q 2441 2713 2670 2916 
Q 2900 3119 2900 3481 
Q 2900 3844 2670 4047 
Q 2441 4250 2034 4250 
Q 1625 4250 1398 4047 
Q 1172 3844 1172 3481 
z
" transform="scale(0.015625)"/>
       </defs>
       <use xlink:href="#DejaVuSans-30"/>
       <use xlink:href="#DejaVuSans-2e" x="63.623047"/>
       <use xlink:href="#DejaVuSans-38" x="95.410156"/>
      </g>
     </g>
    </g>
    <g id="ytick_5">
     <g id="line2d_6">
      <g>
       <use xlink:href="#m9c6155eecf" x="18" y="124.456398" style="stroke: #000000; stroke-width: 1.875"/>
      </g>
     </g>
     <g id="text_5">
      <!-- 0.9 -->
      <g transform="translate(-20.740156 130.725109)scale(0.165 -0.165)">
       <defs>
        <path id="DejaVuSans-39" d="M 703 97 
L 703 672 
Q 941 559 1184 500 
Q 1428 441 1663 441 
Q 2288 441 2617 861 
Q 2947 1281 2994 2138 
Q 2813 1869 2534 1725 
Q 2256 1581 1919 1581 
Q 1219 1581 811 2004 
Q 403 2428 403 3163 
Q 403 3881 828 4315 
Q 1253 4750 1959 4750 
Q 2769 4750 3195 4129 
Q 3622 3509 3622 2328 
Q 3622 1225 3098 567 
Q 2575 -91 1691 -91 
Q 1453 -91 1209 -44 
Q 966 3 703 97 
z
M 1959 2075 
Q 2384 2075 2632 2365 
Q 2881 2656 2881 3163 
Q 2881 3666 2632 3958 
Q 2384 4250 1959 4250 
Q 1534 4250 1286 3958 
Q 1038 3666 1038 3163 
Q 1038 2656 1286 2365 
Q 1534 2075 1959 2075 
z
" transform="scale(0.015625)"/>
       </defs>
       <use xlink:href="#DejaVuSans-30"/>
       <use xlink:href="#DejaVuSans-2e" x="63.623047"/>
       <use xlink:href="#DejaVuSans-39" x="95.410156"/>
      </g>
     </g>
    </g>
    <g id="ytick_6">
     <g id="line2d_7">
      <g>
       <use xlink:href="#m9c6155eecf" x="18" y="64.776862" style="stroke: #000000; stroke-width: 1.875"/>
      </g>
     </g>
     <g id="text_6">
      <!-- 1.0 -->
      <g transform="translate(-20.740156 71.045573)scale(0.165 -0.165)">
       <defs>
        <path id="DejaVuSans-31" d="M 794 531 
L 1825 531 
L 1825 4091 
L 703 3866 
L 703 4441 
L 1819 4666 
L 2450 4666 
L 2450 531 
L 3481 531 
L 3481 0 
L 794 0 
L 794 531 
z
" transform="scale(0.015625)"/>
       </defs>
       <use xlink:href="#DejaVuSans-31"/>
       <use xlink:href="#DejaVuSans-2e" x="63.623047"/>
       <use xlink:href="#DejaVuSans-30" x="95.410156"/>
      </g>
     </g>
    </g>
    <g id="text_7">
     <!-- AUC -->
     <g transform="translate(-29.939375 241.347734)rotate(-90)scale(0.25 -0.25)">
      <defs>
       <path id="DejaVuSans-41" d="M 2188 4044 
L 1331 1722 
L 3047 1722 
L 2188 4044 
z
M 1831 4666 
L 2547 4666 
L 4325 0 
L 3669 0 
L 3244 1197 
L 1141 1197 
L 716 0 
L 50 0 
L 1831 4666 
z
" transform="scale(0.015625)"/>
       <path id="DejaVuSans-55" d="M 556 4666 
L 1191 4666 
L 1191 1831 
Q 1191 1081 1462 751 
Q 1734 422 2344 422 
Q 2950 422 3222 751 
Q 3494 1081 3494 1831 
L 3494 4666 
L 4128 4666 
L 4128 1753 
Q 4128 841 3676 375 
Q 3225 -91 2344 -91 
Q 1459 -91 1007 375 
Q 556 841 556 1753 
L 556 4666 
z
" transform="scale(0.015625)"/>
       <path id="DejaVuSans-43" d="M 4122 4306 
L 4122 3641 
Q 3803 3938 3442 4084 
Q 3081 4231 2675 4231 
Q 1875 4231 1450 3742 
Q 1025 3253 1025 2328 
Q 1025 1406 1450 917 
Q 1875 428 2675 428 
Q 3081 428 3442 575 
Q 3803 722 4122 1019 
L 4122 359 
Q 3791 134 3420 21 
Q 3050 -91 2638 -91 
Q 1578 -91 968 557 
Q 359 1206 359 2328 
Q 359 3453 968 4101 
Q 1578 4750 2638 4750 
Q 3056 4750 3426 4639 
Q 3797 4528 4122 4306 
z
" transform="scale(0.015625)"/>
      </defs>
      <use xlink:href="#DejaVuSans-41"/>
      <use xlink:href="#DejaVuSans-55" x="68.408203"/>
      <use xlink:href="#DejaVuSans-43" x="141.601562"/>
     </g>
    </g>
   </g>
   <g id="line2d_8">
    <path d="M 18 363.174545 
L 129.6 363.174545 
" clip-path="url(#pad6da79677)" style="fill: none; stroke-dasharray: 8.325,3.6; stroke-dashoffset: 0; stroke: #ff0000; stroke-width: 2.25"/>
   </g>
   <g id="patch_3">
    <path d="M 18 378 
L 18 51.84 
" style="fill: none; stroke: #000000; stroke-width: 1.875; stroke-linejoin: miter; stroke-linecap: square"/>
   </g>
   <g id="patch_4">
    <path d="M 129.6 378 
L 129.6 51.84 
" style="fill: none; stroke: #000000; stroke-width: 1.875; stroke-linejoin: miter; stroke-linecap: square"/>
   </g>
   <g id="patch_5">
    <path d="M 18 378 
L 129.6 378 
" style="fill: none; stroke: #000000; stroke-width: 1.875; stroke-linejoin: miter; stroke-linecap: square"/>
   </g>
   <g id="patch_6">
    <path d="M 18 51.84 
L 129.6 51.84 
" style="fill: none; stroke: #000000; stroke-width: 1.875; stroke-linejoin: miter; stroke-linecap: square"/>
   </g>
   <g id="PathCollection_1">
    <defs>
     <path id="C0_0_9709dbfdd3" d="M 0 4 
C 1.060812 4 2.078319 3.578535 2.828427 2.828427 
C 3.578535 2.078319 4 1.060812 4 -0 
C 4 -1.060812 3.578535 -2.078319 2.828427 -2.828427 
C 2.078319 -3.578535 1.060812 -4 0 -4 
C -1.060812 -4 -2.078319 -3.578535 -2.828427 -2.828427 
C -3.578535 -2.078319 -4 -1.060812 -4 0 
C -4 1.060812 -3.578535 2.078319 -2.828427 2.828427 
C -2.078319 3.578535 -1.060812 4 0 4 
z
"/>
    </defs>
    <g clip-path="url(#pad6da79677)">
     <use xlink:href="#C0_0_9709dbfdd3" x="91.087574" y="316.040678" style="fill: #1f77b4; fill-opacity: 0.7; stroke: #3f3f3f; stroke-opacity: 0.7; stroke-width: 1.5"/>
    </g>
    <g clip-path="url(#pad6da79677)">
     <use xlink:href="#C0_0_9709dbfdd3" x="61.87457" y="274.971701" style="fill: #1f77b4; fill-opacity: 0.7; stroke: #3f3f3f; stroke-opacity: 0.7; stroke-width: 1.5"/>
    </g>
    <g clip-path="url(#pad6da79677)">
     <use xlink:href="#C0_0_9709dbfdd3" x="87.007897" y="297.982736" style="fill: #1f77b4; fill-opacity: 0.7; stroke: #3f3f3f; stroke-opacity: 0.7; stroke-width: 1.5"/>
    </g>
    <g clip-path="url(#pad6da79677)">
     <use xlink:href="#C0_0_9709dbfdd3" x="94.01995" y="309.970501" style="fill: #1f77b4; fill-opacity: 0.7; stroke: #3f3f3f; stroke-opacity: 0.7; stroke-width: 1.5"/>
    </g>
    <g clip-path="url(#pad6da79677)">
     <use xlink:href="#C0_0_9709dbfdd3" x="94.841909" y="269.370468" style="fill: #1f77b4; fill-opacity: 0.7; stroke: #3f3f3f; stroke-opacity: 0.7; stroke-width: 1.5"/>
    </g>
    <g clip-path="url(#pad6da79677)">
     <use xlink:href="#C0_0_9709dbfdd3" x="92.628428" y="307.153524" style="fill: #1f77b4; fill-opacity: 0.7; stroke: #3f3f3f; stroke-opacity: 0.7; stroke-width: 1.5"/>
    </g>
    <g clip-path="url(#pad6da79677)">
     <use xlink:href="#C0_0_9709dbfdd3" x="71.586494" y="313.515661" style="fill: #1f77b4; fill-opacity: 0.7; stroke: #3f3f3f; stroke-opacity: 0.7; stroke-width: 1.5"/>
    </g>
    <g clip-path="url(#pad6da79677)">
     <use xlink:href="#C0_0_9709dbfdd3" x="82.757567" y="301.008361" style="fill: #1f77b4; fill-opacity: 0.7; stroke: #3f3f3f; stroke-opacity: 0.7; stroke-width: 1.5"/>
    </g>
    <g clip-path="url(#pad6da79677)">
     <use xlink:href="#C0_0_9709dbfdd3" x="70.915634" y="306.992202" style="fill: #1f77b4; fill-opacity: 0.7; stroke: #3f3f3f; stroke-opacity: 0.7; stroke-width: 1.5"/>
    </g>
    <g clip-path="url(#pad6da79677)">
     <use xlink:href="#C0_0_9709dbfdd3" x="94.599031" y="202.961024" style="fill: #1f77b4; fill-opacity: 0.7; stroke: #3f3f3f; stroke-opacity: 0.7; stroke-width: 1.5"/>
    </g>
    <g clip-path="url(#pad6da79677)">
     <use xlink:href="#C0_0_9709dbfdd3" x="56.219496" y="319.706879" style="fill: #1f77b4; fill-opacity: 0.7; stroke: #3f3f3f; stroke-opacity: 0.7; stroke-width: 1.5"/>
    </g>
    <g clip-path="url(#pad6da79677)">
     <use xlink:href="#C0_0_9709dbfdd3" x="70.23576" y="239.914675" style="fill: #1f77b4; fill-opacity: 0.7; stroke: #3f3f3f; stroke-opacity: 0.7; stroke-width: 1.5"/>
    </g>
    <g clip-path="url(#pad6da79677)">
     <use xlink:href="#C0_0_9709dbfdd3" x="75.671444" y="302.142809" style="fill: #1f77b4; fill-opacity: 0.7; stroke: #3f3f3f; stroke-opacity: 0.7; stroke-width: 1.5"/>
    </g>
    <g clip-path="url(#pad6da79677)">
     <use xlink:href="#C0_0_9709dbfdd3" x="74.7776" y="320.587412" style="fill: #1f77b4; fill-opacity: 0.7; stroke: #3f3f3f; stroke-opacity: 0.7; stroke-width: 1.5"/>
    </g>
    <g clip-path="url(#pad6da79677)">
     <use xlink:href="#C0_0_9709dbfdd3" x="63.921794" y="326.567463" style="fill: #1f77b4; fill-opacity: 0.7; stroke: #3f3f3f; stroke-opacity: 0.7; stroke-width: 1.5"/>
    </g>
    <g clip-path="url(#pad6da79677)">
     <use xlink:href="#C0_0_9709dbfdd3" x="83.007481" y="291.83349" style="fill: #1f77b4; fill-opacity: 0.7; stroke: #3f3f3f; stroke-opacity: 0.7; stroke-width: 1.5"/>
    </g>
    <g clip-path="url(#pad6da79677)">
     <use xlink:href="#C0_0_9709dbfdd3" x="66.794996" y="300.873948" style="fill: #1f77b4; fill-opacity: 0.7; stroke: #3f3f3f; stroke-opacity: 0.7; stroke-width: 1.5"/>
    </g>
    <g clip-path="url(#pad6da79677)">
     <use xlink:href="#C0_0_9709dbfdd3" x="77.745833" y="288.350427" style="fill: #1f77b4; fill-opacity: 0.7; stroke: #3f3f3f; stroke-opacity: 0.7; stroke-width: 1.5"/>
    </g>
    <g clip-path="url(#pad6da79677)">
     <use xlink:href="#C0_0_9709dbfdd3" x="60.584998" y="311.491286" style="fill: #1f77b4; fill-opacity: 0.7; stroke: #3f3f3f; stroke-opacity: 0.7; stroke-width: 1.5"/>
    </g>
    <g clip-path="url(#pad6da79677)">
     <use xlink:href="#C0_0_9709dbfdd3" x="51.84972" y="296.411457" style="fill: #1f77b4; fill-opacity: 0.7; stroke: #3f3f3f; stroke-opacity: 0.7; stroke-width: 1.5"/>
    </g>
    <g clip-path="url(#pad6da79677)">
     <use xlink:href="#C0_0_9709dbfdd3" x="61.633134" y="66.665455" style="fill: #1f77b4; fill-opacity: 0.7; stroke: #3f3f3f; stroke-opacity: 0.7; stroke-width: 1.5"/>
    </g>
    <g clip-path="url(#pad6da79677)">
     <use xlink:href="#C0_0_9709dbfdd3" x="69.330111" y="277.977147" style="fill: #1f77b4; fill-opacity: 0.7; stroke: #3f3f3f; stroke-opacity: 0.7; stroke-width: 1.5"/>
    </g>
    <g clip-path="url(#pad6da79677)">
     <use xlink:href="#C0_0_9709dbfdd3" x="78.502665" y="315.099363" style="fill: #1f77b4; fill-opacity: 0.7; stroke: #3f3f3f; stroke-opacity: 0.7; stroke-width: 1.5"/>
    </g>
    <g clip-path="url(#pad6da79677)">
     <use xlink:href="#C0_0_9709dbfdd3" x="59.092032" y="320.763929" style="fill: #1f77b4; fill-opacity: 0.7; stroke: #3f3f3f; stroke-opacity: 0.7; stroke-width: 1.5"/>
    </g>
   </g>
  </g>
 </g>
 <defs>
  <clipPath id="pad6da79677">
   <rect x="18" y="51.84" width="111.6" height="326.16"/>
  </clipPath>
 </defs>
</svg>
