<?xml version="1.0" encoding="utf-8" standalone="no"?>
<!DOCTYPE svg PUBLIC "-//W3C//DTD SVG 1.1//EN"
  "http://www.w3.org/Graphics/SVG/1.1/DTD/svg11.dtd">
<!-- Created with matplotlib (https://matplotlib.org/) -->
<svg height="432pt" version="1.1" viewBox="0 0 864 432" width="864pt" xmlns="http://www.w3.org/2000/svg" xmlns:xlink="http://www.w3.org/1999/xlink">
 <defs>
  <style type="text/css">
*{stroke-linecap:butt;stroke-linejoin:round;}
  </style>
 </defs>
 <g id="figure_1">
  <g id="patch_1">
   <path d="M 0 432 
L 864 432 
L 864 0 
L 0 0 
z
" style="fill:#ffffff;"/>
  </g>
  <g id="axes_1">
   <g id="patch_2">
    <path d="M 108 378 
L 777.6 378 
L 777.6 51.84 
L 108 51.84 
z
" style="fill:#ffffff;"/>
   </g>
   <g id="matplotlib.axis_1">
    <g id="xtick_1">
     <g id="line2d_1">
      <defs>
       <path d="M 0 0 
L 0 9 
" id="mdc697d71fe" style="stroke:#262626;stroke-width:1.875;"/>
      </defs>
      <g>
       <use style="fill:#262626;stroke:#262626;stroke-width:1.875;" x="138.436364" xlink:href="#mdc697d71fe" y="388"/>
      </g>
     </g>
     <g id="text_1">
      <!-- −0.2 -->
      <defs>
       <path d="M 52.828125 31.203125 
L 5.5625 31.203125 
L 5.5625 39.40625 
L 52.828125 39.40625 
z
" id="ArialMT-8722"/>
       <path d="M 4.15625 35.296875 
Q 4.15625 48 6.765625 55.734375 
Q 9.375 63.484375 14.515625 67.671875 
Q 19.671875 71.875 27.484375 71.875 
Q 33.25 71.875 37.59375 69.546875 
Q 41.9375 67.234375 44.765625 62.859375 
Q 47.609375 58.5 49.21875 52.21875 
Q 50.828125 45.953125 50.828125 35.296875 
Q 50.828125 22.703125 48.234375 14.96875 
Q 45.65625 7.234375 40.5 3 
Q 35.359375 -1.21875 27.484375 -1.21875 
Q 17.140625 -1.21875 11.234375 6.203125 
Q 4.15625 15.140625 4.15625 35.296875 
z
M 13.1875 35.296875 
Q 13.1875 17.671875 17.3125 11.828125 
Q 21.4375 6 27.484375 6 
Q 33.546875 6 37.671875 11.859375 
Q 41.796875 17.71875 41.796875 35.296875 
Q 41.796875 52.984375 37.671875 58.78125 
Q 33.546875 64.59375 27.390625 64.59375 
Q 21.34375 64.59375 17.71875 59.46875 
Q 13.1875 52.9375 13.1875 35.296875 
z
" id="ArialMT-48"/>
       <path d="M 9.078125 0 
L 9.078125 10.015625 
L 19.09375 10.015625 
L 19.09375 0 
z
" id="ArialMT-46"/>
       <path d="M 50.34375 8.453125 
L 50.34375 0 
L 3.03125 0 
Q 2.9375 3.171875 4.046875 6.109375 
Q 5.859375 10.9375 9.828125 15.625 
Q 13.8125 20.3125 21.34375 26.46875 
Q 33.015625 36.03125 37.109375 41.625 
Q 41.21875 47.21875 41.21875 52.203125 
Q 41.21875 57.421875 37.46875 61 
Q 33.734375 64.59375 27.734375 64.59375 
Q 21.390625 64.59375 17.578125 60.78125 
Q 13.765625 56.984375 13.71875 50.25 
L 4.6875 51.171875 
Q 5.609375 61.28125 11.65625 66.578125 
Q 17.71875 71.875 27.9375 71.875 
Q 38.234375 71.875 44.234375 66.15625 
Q 50.25 60.453125 50.25 52 
Q 50.25 47.703125 48.484375 43.546875 
Q 46.734375 39.40625 42.65625 34.8125 
Q 38.578125 30.21875 29.109375 22.21875 
Q 21.1875 15.578125 18.9375 13.203125 
Q 16.703125 10.84375 15.234375 8.453125 
z
" id="ArialMT-50"/>
      </defs>
      <g style="fill:#262626;" transform="translate(115.635942 417.034547)scale(0.231 -0.231)">
       <use xlink:href="#ArialMT-8722"/>
       <use x="58.398438" xlink:href="#ArialMT-48"/>
       <use x="114.013672" xlink:href="#ArialMT-46"/>
       <use x="141.796875" xlink:href="#ArialMT-50"/>
      </g>
     </g>
    </g>
    <g id="xtick_2">
     <g id="line2d_2">
      <g>
       <use style="fill:#262626;stroke:#262626;stroke-width:1.875;" x="210.051337" xlink:href="#mdc697d71fe" y="388"/>
      </g>
     </g>
     <g id="text_2">
      <!-- 0.0 -->
      <g style="fill:#262626;" transform="translate(193.996837 417.034547)scale(0.231 -0.231)">
       <use xlink:href="#ArialMT-48"/>
       <use x="55.615234" xlink:href="#ArialMT-46"/>
       <use x="83.398438" xlink:href="#ArialMT-48"/>
      </g>
     </g>
    </g>
    <g id="xtick_3">
     <g id="line2d_3">
      <g>
       <use style="fill:#262626;stroke:#262626;stroke-width:1.875;" x="281.66631" xlink:href="#mdc697d71fe" y="388"/>
      </g>
     </g>
     <g id="text_3">
      <!-- 0.2 -->
      <g style="fill:#262626;" transform="translate(265.61181 417.034547)scale(0.231 -0.231)">
       <use xlink:href="#ArialMT-48"/>
       <use x="55.615234" xlink:href="#ArialMT-46"/>
       <use x="83.398438" xlink:href="#ArialMT-50"/>
      </g>
     </g>
    </g>
    <g id="xtick_4">
     <g id="line2d_4">
      <g>
       <use style="fill:#262626;stroke:#262626;stroke-width:1.875;" x="353.281283" xlink:href="#mdc697d71fe" y="388"/>
      </g>
     </g>
     <g id="text_4">
      <!-- 0.4 -->
      <defs>
       <path d="M 32.328125 0 
L 32.328125 17.140625 
L 1.265625 17.140625 
L 1.265625 25.203125 
L 33.9375 71.578125 
L 41.109375 71.578125 
L 41.109375 25.203125 
L 50.78125 25.203125 
L 50.78125 17.140625 
L 41.109375 17.140625 
L 41.109375 0 
z
M 32.328125 25.203125 
L 32.328125 57.46875 
L 9.90625 25.203125 
z
" id="ArialMT-52"/>
      </defs>
      <g style="fill:#262626;" transform="translate(337.226783 417.034547)scale(0.231 -0.231)">
       <use xlink:href="#ArialMT-48"/>
       <use x="55.615234" xlink:href="#ArialMT-46"/>
       <use x="83.398438" xlink:href="#ArialMT-52"/>
      </g>
     </g>
    </g>
    <g id="xtick_5">
     <g id="line2d_5">
      <g>
       <use style="fill:#262626;stroke:#262626;stroke-width:1.875;" x="424.896257" xlink:href="#mdc697d71fe" y="388"/>
      </g>
     </g>
     <g id="text_5">
      <!-- 0.6 -->
      <defs>
       <path d="M 49.75 54.046875 
L 41.015625 53.375 
Q 39.84375 58.546875 37.703125 60.890625 
Q 34.125 64.65625 28.90625 64.65625 
Q 24.703125 64.65625 21.53125 62.3125 
Q 17.390625 59.28125 14.984375 53.46875 
Q 12.59375 47.65625 12.5 36.921875 
Q 15.671875 41.75 20.265625 44.09375 
Q 24.859375 46.4375 29.890625 46.4375 
Q 38.671875 46.4375 44.84375 39.96875 
Q 51.03125 33.5 51.03125 23.25 
Q 51.03125 16.5 48.125 10.71875 
Q 45.21875 4.9375 40.140625 1.859375 
Q 35.0625 -1.21875 28.609375 -1.21875 
Q 17.625 -1.21875 10.6875 6.859375 
Q 3.765625 14.9375 3.765625 33.5 
Q 3.765625 54.25 11.421875 63.671875 
Q 18.109375 71.875 29.4375 71.875 
Q 37.890625 71.875 43.28125 67.140625 
Q 48.6875 62.40625 49.75 54.046875 
z
M 13.875 23.1875 
Q 13.875 18.65625 15.796875 14.5 
Q 17.71875 10.359375 21.1875 8.171875 
Q 24.65625 6 28.46875 6 
Q 34.03125 6 38.03125 10.484375 
Q 42.046875 14.984375 42.046875 22.703125 
Q 42.046875 30.125 38.078125 34.390625 
Q 34.125 38.671875 28.125 38.671875 
Q 22.171875 38.671875 18.015625 34.390625 
Q 13.875 30.125 13.875 23.1875 
z
" id="ArialMT-54"/>
      </defs>
      <g style="fill:#262626;" transform="translate(408.841757 417.034547)scale(0.231 -0.231)">
       <use xlink:href="#ArialMT-48"/>
       <use x="55.615234" xlink:href="#ArialMT-46"/>
       <use x="83.398438" xlink:href="#ArialMT-54"/>
      </g>
     </g>
    </g>
    <g id="xtick_6">
     <g id="line2d_6">
      <g>
       <use style="fill:#262626;stroke:#262626;stroke-width:1.875;" x="496.51123" xlink:href="#mdc697d71fe" y="388"/>
      </g>
     </g>
     <g id="text_6">
      <!-- 0.8 -->
      <defs>
       <path d="M 17.671875 38.8125 
Q 12.203125 40.828125 9.5625 44.53125 
Q 6.9375 48.25 6.9375 53.421875 
Q 6.9375 61.234375 12.546875 66.546875 
Q 18.171875 71.875 27.484375 71.875 
Q 36.859375 71.875 42.578125 66.421875 
Q 48.296875 60.984375 48.296875 53.171875 
Q 48.296875 48.1875 45.671875 44.5 
Q 43.0625 40.828125 37.75 38.8125 
Q 44.34375 36.671875 47.78125 31.875 
Q 51.21875 27.09375 51.21875 20.453125 
Q 51.21875 11.28125 44.71875 5.03125 
Q 38.234375 -1.21875 27.640625 -1.21875 
Q 17.046875 -1.21875 10.546875 5.046875 
Q 4.046875 11.328125 4.046875 20.703125 
Q 4.046875 27.6875 7.59375 32.390625 
Q 11.140625 37.109375 17.671875 38.8125 
z
M 15.921875 53.71875 
Q 15.921875 48.640625 19.1875 45.40625 
Q 22.46875 42.1875 27.6875 42.1875 
Q 32.765625 42.1875 36.015625 45.375 
Q 39.265625 48.578125 39.265625 53.21875 
Q 39.265625 58.0625 35.90625 61.359375 
Q 32.5625 64.65625 27.59375 64.65625 
Q 22.5625 64.65625 19.234375 61.421875 
Q 15.921875 58.203125 15.921875 53.71875 
z
M 13.09375 20.65625 
Q 13.09375 16.890625 14.875 13.375 
Q 16.65625 9.859375 20.171875 7.921875 
Q 23.6875 6 27.734375 6 
Q 34.03125 6 38.125 10.046875 
Q 42.234375 14.109375 42.234375 20.359375 
Q 42.234375 26.703125 38.015625 30.859375 
Q 33.796875 35.015625 27.4375 35.015625 
Q 21.234375 35.015625 17.15625 30.90625 
Q 13.09375 26.8125 13.09375 20.65625 
z
" id="ArialMT-56"/>
      </defs>
      <g style="fill:#262626;" transform="translate(480.45673 417.034547)scale(0.231 -0.231)">
       <use xlink:href="#ArialMT-48"/>
       <use x="55.615234" xlink:href="#ArialMT-46"/>
       <use x="83.398438" xlink:href="#ArialMT-56"/>
      </g>
     </g>
    </g>
    <g id="xtick_7">
     <g id="line2d_7">
      <g>
       <use style="fill:#262626;stroke:#262626;stroke-width:1.875;" x="568.126203" xlink:href="#mdc697d71fe" y="388"/>
      </g>
     </g>
     <g id="text_7">
      <!-- 1.0 -->
      <defs>
       <path d="M 37.25 0 
L 28.46875 0 
L 28.46875 56 
Q 25.296875 52.984375 20.140625 49.953125 
Q 14.984375 46.921875 10.890625 45.40625 
L 10.890625 53.90625 
Q 18.265625 57.375 23.78125 62.296875 
Q 29.296875 67.234375 31.59375 71.875 
L 37.25 71.875 
z
" id="ArialMT-49"/>
      </defs>
      <g style="fill:#262626;" transform="translate(552.071703 417.034547)scale(0.231 -0.231)">
       <use xlink:href="#ArialMT-49"/>
       <use x="55.615234" xlink:href="#ArialMT-46"/>
       <use x="83.398438" xlink:href="#ArialMT-48"/>
      </g>
     </g>
    </g>
    <g id="xtick_8">
     <g id="line2d_8">
      <g>
       <use style="fill:#262626;stroke:#262626;stroke-width:1.875;" x="639.741176" xlink:href="#mdc697d71fe" y="388"/>
      </g>
     </g>
     <g id="text_8">
      <!-- 1.2 -->
      <g style="fill:#262626;" transform="translate(623.686676 417.034547)scale(0.231 -0.231)">
       <use xlink:href="#ArialMT-49"/>
       <use x="55.615234" xlink:href="#ArialMT-46"/>
       <use x="83.398438" xlink:href="#ArialMT-50"/>
      </g>
     </g>
    </g>
    <g id="xtick_9">
     <g id="line2d_9">
      <g>
       <use style="fill:#262626;stroke:#262626;stroke-width:1.875;" x="711.35615" xlink:href="#mdc697d71fe" y="388"/>
      </g>
     </g>
     <g id="text_9">
      <!-- 1.4 -->
      <g style="fill:#262626;" transform="translate(695.30165 417.034547)scale(0.231 -0.231)">
       <use xlink:href="#ArialMT-49"/>
       <use x="55.615234" xlink:href="#ArialMT-46"/>
       <use x="83.398438" xlink:href="#ArialMT-52"/>
      </g>
     </g>
    </g>
    <g id="text_10">
     <!-- Time (s) -->
     <defs>
      <path d="M 25.921875 0 
L 25.921875 63.140625 
L 2.34375 63.140625 
L 2.34375 71.578125 
L 59.078125 71.578125 
L 59.078125 63.140625 
L 35.40625 63.140625 
L 35.40625 0 
z
" id="ArialMT-84"/>
      <path d="M 6.640625 61.46875 
L 6.640625 71.578125 
L 15.4375 71.578125 
L 15.4375 61.46875 
z
M 6.640625 0 
L 6.640625 51.859375 
L 15.4375 51.859375 
L 15.4375 0 
z
" id="ArialMT-105"/>
      <path d="M 6.59375 0 
L 6.59375 51.859375 
L 14.453125 51.859375 
L 14.453125 44.578125 
Q 16.890625 48.390625 20.9375 50.703125 
Q 25 53.03125 30.171875 53.03125 
Q 35.9375 53.03125 39.625 50.640625 
Q 43.3125 48.25 44.828125 43.953125 
Q 50.984375 53.03125 60.84375 53.03125 
Q 68.5625 53.03125 72.703125 48.75 
Q 76.859375 44.484375 76.859375 35.59375 
L 76.859375 0 
L 68.109375 0 
L 68.109375 32.671875 
Q 68.109375 37.9375 67.25 40.25 
Q 66.40625 42.578125 64.15625 43.984375 
Q 61.921875 45.40625 58.890625 45.40625 
Q 53.421875 45.40625 49.796875 41.765625 
Q 46.1875 38.140625 46.1875 30.125 
L 46.1875 0 
L 37.40625 0 
L 37.40625 33.6875 
Q 37.40625 39.546875 35.25 42.46875 
Q 33.109375 45.40625 28.21875 45.40625 
Q 24.515625 45.40625 21.359375 43.453125 
Q 18.21875 41.5 16.796875 37.734375 
Q 15.375 33.984375 15.375 26.90625 
L 15.375 0 
z
" id="ArialMT-109"/>
      <path d="M 42.09375 16.703125 
L 51.171875 15.578125 
Q 49.03125 7.625 43.21875 3.21875 
Q 37.40625 -1.171875 28.375 -1.171875 
Q 17 -1.171875 10.328125 5.828125 
Q 3.65625 12.84375 3.65625 25.484375 
Q 3.65625 38.578125 10.390625 45.796875 
Q 17.140625 53.03125 27.875 53.03125 
Q 38.28125 53.03125 44.875 45.953125 
Q 51.46875 38.875 51.46875 26.03125 
Q 51.46875 25.25 51.421875 23.6875 
L 12.75 23.6875 
Q 13.234375 15.140625 17.578125 10.59375 
Q 21.921875 6.0625 28.421875 6.0625 
Q 33.25 6.0625 36.671875 8.59375 
Q 40.09375 11.140625 42.09375 16.703125 
z
M 13.234375 30.90625 
L 42.1875 30.90625 
Q 41.609375 37.453125 38.875 40.71875 
Q 34.671875 45.796875 27.984375 45.796875 
Q 21.921875 45.796875 17.796875 41.75 
Q 13.671875 37.703125 13.234375 30.90625 
z
" id="ArialMT-101"/>
      <path id="ArialMT-32"/>
      <path d="M 23.390625 -21.046875 
Q 16.109375 -11.859375 11.078125 0.4375 
Q 6.0625 12.75 6.0625 25.921875 
Q 6.0625 37.546875 9.8125 48.1875 
Q 14.203125 60.546875 23.390625 72.796875 
L 29.6875 72.796875 
Q 23.78125 62.640625 21.875 58.296875 
Q 18.890625 51.5625 17.1875 44.234375 
Q 15.09375 35.109375 15.09375 25.875 
Q 15.09375 2.390625 29.6875 -21.046875 
z
" id="ArialMT-40"/>
      <path d="M 3.078125 15.484375 
L 11.765625 16.84375 
Q 12.5 11.625 15.84375 8.84375 
Q 19.1875 6.0625 25.203125 6.0625 
Q 31.25 6.0625 34.171875 8.515625 
Q 37.109375 10.984375 37.109375 14.3125 
Q 37.109375 17.28125 34.515625 19 
Q 32.71875 20.171875 25.53125 21.96875 
Q 15.875 24.421875 12.140625 26.203125 
Q 8.40625 27.984375 6.46875 31.125 
Q 4.546875 34.28125 4.546875 38.09375 
Q 4.546875 41.546875 6.125 44.5 
Q 7.71875 47.46875 10.453125 49.421875 
Q 12.5 50.921875 16.03125 51.96875 
Q 19.578125 53.03125 23.640625 53.03125 
Q 29.734375 53.03125 34.34375 51.265625 
Q 38.96875 49.515625 41.15625 46.5 
Q 43.359375 43.5 44.1875 38.484375 
L 35.59375 37.3125 
Q 35.015625 41.3125 32.203125 43.546875 
Q 29.390625 45.796875 24.265625 45.796875 
Q 18.21875 45.796875 15.625 43.796875 
Q 13.03125 41.796875 13.03125 39.109375 
Q 13.03125 37.40625 14.109375 36.03125 
Q 15.1875 34.625 17.484375 33.6875 
Q 18.796875 33.203125 25.25 31.453125 
Q 34.578125 28.953125 38.25 27.359375 
Q 41.9375 25.78125 44.03125 22.75 
Q 46.140625 19.734375 46.140625 15.234375 
Q 46.140625 10.84375 43.578125 6.953125 
Q 41.015625 3.078125 36.171875 0.953125 
Q 31.34375 -1.171875 25.25 -1.171875 
Q 15.140625 -1.171875 9.84375 3.03125 
Q 4.546875 7.234375 3.078125 15.484375 
z
" id="ArialMT-115"/>
      <path d="M 12.359375 -21.046875 
L 6.0625 -21.046875 
Q 20.65625 2.390625 20.65625 25.875 
Q 20.65625 35.0625 18.5625 44.09375 
Q 16.890625 51.421875 13.921875 58.15625 
Q 12.015625 62.546875 6.0625 72.796875 
L 12.359375 72.796875 
Q 21.53125 60.546875 25.921875 48.1875 
Q 29.6875 37.546875 29.6875 25.921875 
Q 29.6875 12.75 24.625 0.4375 
Q 19.578125 -11.859375 12.359375 -21.046875 
z
" id="ArialMT-41"/>
     </defs>
     <g style="fill:#262626;" transform="translate(387.820312 447.464734)scale(0.3 -0.3)">
      <use xlink:href="#ArialMT-84"/>
      <use x="61.037109" xlink:href="#ArialMT-105"/>
      <use x="83.253906" xlink:href="#ArialMT-109"/>
      <use x="166.554688" xlink:href="#ArialMT-101"/>
      <use x="222.169922" xlink:href="#ArialMT-32"/>
      <use x="249.953125" xlink:href="#ArialMT-40"/>
      <use x="283.253906" xlink:href="#ArialMT-115"/>
      <use x="333.253906" xlink:href="#ArialMT-41"/>
     </g>
    </g>
   </g>
   <g id="matplotlib.axis_2">
    <g id="ytick_1">
     <g id="line2d_10">
      <defs>
       <path d="M 0 0 
L -9 0 
" id="mdbc25146a0" style="stroke:#262626;stroke-width:1.875;"/>
      </defs>
      <g>
       <use style="fill:#262626;stroke:#262626;stroke-width:1.875;" x="98" xlink:href="#mdbc25146a0" y="327.516012"/>
      </g>
     </g>
     <g id="text_11">
      <!-- 0.50 -->
      <defs>
       <path d="M 4.15625 18.75 
L 13.375 19.53125 
Q 14.40625 12.796875 18.140625 9.390625 
Q 21.875 6 27.15625 6 
Q 33.5 6 37.890625 10.78125 
Q 42.28125 15.578125 42.28125 23.484375 
Q 42.28125 31 38.0625 35.34375 
Q 33.84375 39.703125 27 39.703125 
Q 22.75 39.703125 19.328125 37.765625 
Q 15.921875 35.84375 13.96875 32.765625 
L 5.71875 33.84375 
L 12.640625 70.609375 
L 48.25 70.609375 
L 48.25 62.203125 
L 19.671875 62.203125 
L 15.828125 42.96875 
Q 22.265625 47.46875 29.34375 47.46875 
Q 38.71875 47.46875 45.15625 40.96875 
Q 51.609375 34.46875 51.609375 24.265625 
Q 51.609375 14.546875 45.953125 7.46875 
Q 39.0625 -1.21875 27.15625 -1.21875 
Q 17.390625 -1.21875 11.203125 4.25 
Q 5.03125 9.71875 4.15625 18.75 
z
" id="ArialMT-53"/>
      </defs>
      <g style="fill:#262626;" transform="translate(40.545234 335.783285)scale(0.231 -0.231)">
       <use xlink:href="#ArialMT-48"/>
       <use x="55.615234" xlink:href="#ArialMT-46"/>
       <use x="83.398438" xlink:href="#ArialMT-53"/>
       <use x="139.013672" xlink:href="#ArialMT-48"/>
      </g>
     </g>
    </g>
    <g id="ytick_2">
     <g id="line2d_11">
      <g>
       <use style="fill:#262626;stroke:#262626;stroke-width:1.875;" x="98" xlink:href="#mdbc25146a0" y="263.779807"/>
      </g>
     </g>
     <g id="text_12">
      <!-- 0.55 -->
      <g style="fill:#262626;" transform="translate(40.545234 272.04708)scale(0.231 -0.231)">
       <use xlink:href="#ArialMT-48"/>
       <use x="55.615234" xlink:href="#ArialMT-46"/>
       <use x="83.398438" xlink:href="#ArialMT-53"/>
       <use x="139.013672" xlink:href="#ArialMT-53"/>
      </g>
     </g>
    </g>
    <g id="ytick_3">
     <g id="line2d_12">
      <g>
       <use style="fill:#262626;stroke:#262626;stroke-width:1.875;" x="98" xlink:href="#mdbc25146a0" y="200.043602"/>
      </g>
     </g>
     <g id="text_13">
      <!-- 0.60 -->
      <g style="fill:#262626;" transform="translate(40.545234 208.310875)scale(0.231 -0.231)">
       <use xlink:href="#ArialMT-48"/>
       <use x="55.615234" xlink:href="#ArialMT-46"/>
       <use x="83.398438" xlink:href="#ArialMT-54"/>
       <use x="139.013672" xlink:href="#ArialMT-48"/>
      </g>
     </g>
    </g>
    <g id="ytick_4">
     <g id="line2d_13">
      <g>
       <use style="fill:#262626;stroke:#262626;stroke-width:1.875;" x="98" xlink:href="#mdbc25146a0" y="136.307396"/>
      </g>
     </g>
     <g id="text_14">
      <!-- 0.65 -->
      <g style="fill:#262626;" transform="translate(40.545234 144.57467)scale(0.231 -0.231)">
       <use xlink:href="#ArialMT-48"/>
       <use x="55.615234" xlink:href="#ArialMT-46"/>
       <use x="83.398438" xlink:href="#ArialMT-54"/>
       <use x="139.013672" xlink:href="#ArialMT-53"/>
      </g>
     </g>
    </g>
    <g id="ytick_5">
     <g id="line2d_14">
      <g>
       <use style="fill:#262626;stroke:#262626;stroke-width:1.875;" x="98" xlink:href="#mdbc25146a0" y="72.571191"/>
      </g>
     </g>
     <g id="text_15">
      <!-- 0.70 -->
      <defs>
       <path d="M 4.734375 62.203125 
L 4.734375 70.65625 
L 51.078125 70.65625 
L 51.078125 63.8125 
Q 44.234375 56.546875 37.515625 44.484375 
Q 30.8125 32.421875 27.15625 19.671875 
Q 24.515625 10.6875 23.78125 0 
L 14.75 0 
Q 14.890625 8.453125 18.0625 20.40625 
Q 21.234375 32.375 27.171875 43.484375 
Q 33.109375 54.59375 39.796875 62.203125 
z
" id="ArialMT-55"/>
      </defs>
      <g style="fill:#262626;" transform="translate(40.545234 80.838465)scale(0.231 -0.231)">
       <use xlink:href="#ArialMT-48"/>
       <use x="55.615234" xlink:href="#ArialMT-46"/>
       <use x="83.398438" xlink:href="#ArialMT-55"/>
       <use x="139.013672" xlink:href="#ArialMT-48"/>
      </g>
     </g>
    </g>
    <g id="text_16">
     <!-- AUC -->
     <defs>
      <path d="M -0.140625 0 
L 27.34375 71.578125 
L 37.546875 71.578125 
L 66.84375 0 
L 56.0625 0 
L 47.703125 21.6875 
L 17.78125 21.6875 
L 9.90625 0 
z
M 20.515625 29.390625 
L 44.78125 29.390625 
L 37.3125 49.21875 
Q 33.890625 58.25 32.234375 64.0625 
Q 30.859375 57.171875 28.375 50.390625 
z
" id="ArialMT-65"/>
      <path d="M 54.6875 71.578125 
L 64.15625 71.578125 
L 64.15625 30.21875 
Q 64.15625 19.4375 61.71875 13.078125 
Q 59.28125 6.734375 52.90625 2.75 
Q 46.53125 -1.21875 36.1875 -1.21875 
Q 26.125 -1.21875 19.71875 2.25 
Q 13.328125 5.71875 10.59375 12.28125 
Q 7.859375 18.84375 7.859375 30.21875 
L 7.859375 71.578125 
L 17.328125 71.578125 
L 17.328125 30.28125 
Q 17.328125 20.953125 19.0625 16.53125 
Q 20.796875 12.109375 25.015625 9.71875 
Q 29.25 7.328125 35.359375 7.328125 
Q 45.796875 7.328125 50.234375 12.0625 
Q 54.6875 16.796875 54.6875 30.28125 
z
" id="ArialMT-85"/>
      <path d="M 58.796875 25.09375 
L 68.265625 22.703125 
Q 65.28125 11.03125 57.546875 4.90625 
Q 49.8125 -1.21875 38.625 -1.21875 
Q 27.046875 -1.21875 19.796875 3.484375 
Q 12.546875 8.203125 8.765625 17.140625 
Q 4.984375 26.078125 4.984375 36.328125 
Q 4.984375 47.515625 9.25 55.828125 
Q 13.53125 64.15625 21.40625 68.46875 
Q 29.296875 72.796875 38.765625 72.796875 
Q 49.515625 72.796875 56.828125 67.328125 
Q 64.15625 61.859375 67.046875 51.953125 
L 57.71875 49.75 
Q 55.21875 57.5625 50.484375 61.125 
Q 45.75 64.703125 38.578125 64.703125 
Q 30.328125 64.703125 24.78125 60.734375 
Q 19.234375 56.78125 16.984375 50.109375 
Q 14.75 43.453125 14.75 36.375 
Q 14.75 27.25 17.40625 20.4375 
Q 20.0625 13.625 25.671875 10.25 
Q 31.296875 6.890625 37.84375 6.890625 
Q 45.796875 6.890625 51.3125 11.46875 
Q 56.84375 16.0625 58.796875 25.09375 
z
" id="ArialMT-67"/>
     </defs>
     <g style="fill:#262626;" transform="translate(30.582734 246.591094)rotate(-90)scale(0.3 -0.3)">
      <use xlink:href="#ArialMT-65"/>
      <use x="66.699219" xlink:href="#ArialMT-85"/>
      <use x="138.916016" xlink:href="#ArialMT-67"/>
     </g>
    </g>
   </g>
   <g id="PolyCollection_1">
    <defs>
     <path d="M 138.436364 -100.945632 
L 138.436364 -79.130534 
L 142.017112 -72.257739 
L 145.597861 -83.750895 
L 149.17861 -93.734414 
L 152.759358 -89.023577 
L 156.340107 -103.203209 
L 159.920856 -92.23023 
L 163.501604 -94.207642 
L 167.082353 -92.409042 
L 170.663102 -80.224844 
L 174.24385 -68.825455 
L 177.824599 -93.408575 
L 181.405348 -95.662041 
L 184.986096 -95.756335 
L 188.566845 -93.647803 
L 192.147594 -83.301709 
L 195.728342 -97.329208 
L 199.309091 -107.397755 
L 202.88984 -101.425745 
L 206.470588 -92.526354 
L 210.051337 -99.339873 
L 213.632086 -86.654612 
L 217.212834 -114.575418 
L 220.793583 -84.609589 
L 224.374332 -100.462581 
L 227.95508 -98.049295 
L 231.535829 -113.482483 
L 235.116578 -96.443137 
L 238.697326 -120.461457 
L 242.278075 -94.768671 
L 245.858824 -97.137418 
L 249.439572 -99.010603 
L 253.020321 -115.707734 
L 256.60107 -107.561902 
L 260.181818 -97.824142 
L 263.762567 -116.864632 
L 267.343316 -131.057676 
L 270.924064 -120.232276 
L 274.504813 -129.904309 
L 278.085561 -154.377599 
L 281.66631 -155.346162 
L 285.247059 -141.747431 
L 288.827807 -135.146669 
L 292.408556 -148.166733 
L 295.989305 -114.045879 
L 299.570053 -148.710564 
L 303.150802 -155.845446 
L 306.731551 -142.841797 
L 310.312299 -178.589759 
L 313.893048 -230.976576 
L 317.473797 -282.18252 
L 321.054545 -328.122353 
L 324.635294 -321.199767 
L 328.216043 -296.32402 
L 331.796791 -269.523681 
L 335.37754 -251.662282 
L 338.958289 -217.788828 
L 342.539037 -205.280987 
L 346.119786 -194.45087 
L 349.700535 -180.274701 
L 353.281283 -191.012641 
L 356.862032 -192.013993 
L 360.442781 -191.638547 
L 364.023529 -199.584738 
L 367.604278 -197.852477 
L 371.185027 -190.557315 
L 374.765775 -170.136448 
L 378.346524 -158.185956 
L 381.927273 -162.62088 
L 385.508021 -199.343893 
L 389.08877 -178.321366 
L 392.669519 -179.732645 
L 396.250267 -167.373818 
L 399.831016 -173.109514 
L 403.411765 -170.563261 
L 406.992513 -148.60198 
L 410.573262 -137.587993 
L 414.154011 -139.758782 
L 417.734759 -121.171861 
L 421.315508 -134.79529 
L 424.896257 -143.987861 
L 428.477005 -137.48716 
L 432.057754 -137.686272 
L 435.638503 -136.730706 
L 439.219251 -119.425267 
L 442.8 -125.812069 
L 446.380749 -134.558911 
L 449.961497 -140.624971 
L 453.542246 -132.621976 
L 457.122995 -122.553016 
L 460.703743 -127.081664 
L 464.284492 -152.883253 
L 467.865241 -135.491042 
L 471.445989 -121.487146 
L 475.026738 -153.46058 
L 478.607487 -131.45409 
L 482.188235 -128.82211 
L 485.768984 -121.138536 
L 489.349733 -140.363006 
L 492.930481 -103.965291 
L 496.51123 -104.783835 
L 500.091979 -117.994928 
L 503.672727 -109.518621 
L 507.253476 -116.31626 
L 510.834225 -147.180998 
L 514.414973 -147.706512 
L 517.995722 -115.25322 
L 521.576471 -131.078488 
L 525.157219 -144.330725 
L 528.737968 -134.622144 
L 532.318717 -126.267113 
L 535.899465 -126.509046 
L 539.480214 -151.293721 
L 543.060963 -125.193138 
L 546.641711 -121.096282 
L 550.22246 -110.576387 
L 553.803209 -135.760655 
L 557.383957 -136.989316 
L 560.964706 -118.652558 
L 564.545455 -124.376735 
L 568.126203 -131.100951 
L 571.706952 -126.890907 
L 575.287701 -101.188535 
L 578.868449 -111.594149 
L 582.449198 -116.375733 
L 586.029947 -109.706776 
L 589.610695 -116.276269 
L 593.191444 -135.499306 
L 596.772193 -138.083465 
L 600.352941 -130.329085 
L 603.93369 -106.80621 
L 607.514439 -120.909333 
L 611.095187 -114.319962 
L 614.675936 -94.441264 
L 618.256684 -100.124597 
L 621.837433 -96.605188 
L 625.418182 -114.963814 
L 628.99893 -105.953455 
L 632.579679 -107.654157 
L 636.160428 -111.875738 
L 639.741176 -101.851343 
L 643.321925 -113.515989 
L 646.902674 -122.960357 
L 650.483422 -136.355954 
L 654.064171 -134.798641 
L 657.64492 -124.747403 
L 661.225668 -99.153974 
L 664.806417 -92.133778 
L 668.387166 -124.561395 
L 671.967914 -119.419338 
L 675.548663 -104.893339 
L 679.129412 -109.159927 
L 682.71016 -115.421936 
L 686.290909 -94.154804 
L 689.871658 -118.329959 
L 693.452406 -114.05142 
L 697.033155 -113.255836 
L 700.613904 -115.47747 
L 704.194652 -123.321083 
L 707.775401 -107.86198 
L 711.35615 -99.254949 
L 714.936898 -106.376345 
L 718.517647 -108.894991 
L 722.098396 -102.050639 
L 725.679144 -92.429541 
L 729.259893 -99.180144 
L 732.840642 -106.943738 
L 736.42139 -90.812207 
L 740.002139 -104.016292 
L 743.582888 -114.077291 
L 747.163636 -124.345477 
L 747.163636 -148.607212 
L 747.163636 -148.607212 
L 743.582888 -135.888453 
L 740.002139 -127.263243 
L 736.42139 -117.579866 
L 732.840642 -129.114599 
L 729.259893 -129.593199 
L 725.679144 -118.683398 
L 722.098396 -134.259596 
L 718.517647 -138.163305 
L 714.936898 -135.719989 
L 711.35615 -127.197199 
L 707.775401 -131.809332 
L 704.194652 -155.544028 
L 700.613904 -134.768091 
L 697.033155 -137.098946 
L 693.452406 -136.857899 
L 689.871658 -140.569124 
L 686.290909 -124.613005 
L 682.71016 -145.37698 
L 679.129412 -132.201323 
L 675.548663 -124.366107 
L 671.967914 -143.068034 
L 668.387166 -148.154672 
L 664.806417 -126.122131 
L 661.225668 -122.303019 
L 657.64492 -149.751769 
L 654.064171 -155.214384 
L 650.483422 -156.325895 
L 646.902674 -146.077191 
L 643.321925 -133.950385 
L 639.741176 -128.597489 
L 636.160428 -141.162388 
L 632.579679 -130.793917 
L 628.99893 -130.350304 
L 625.418182 -139.9835 
L 621.837433 -122.925425 
L 618.256684 -132.541485 
L 614.675936 -118.884994 
L 611.095187 -141.077848 
L 607.514439 -148.709164 
L 603.93369 -132.701345 
L 600.352941 -154.676509 
L 596.772193 -156.60049 
L 593.191444 -155.222398 
L 589.610695 -140.653025 
L 586.029947 -139.242271 
L 582.449198 -139.426074 
L 578.868449 -136.136317 
L 575.287701 -130.820388 
L 571.706952 -157.983783 
L 568.126203 -160.729561 
L 564.545455 -153.543421 
L 560.964706 -146.255647 
L 557.383957 -163.294568 
L 553.803209 -156.718901 
L 550.22246 -134.899844 
L 546.641711 -146.583151 
L 543.060963 -154.164003 
L 539.480214 -175.833271 
L 535.899465 -150.353395 
L 532.318717 -159.298307 
L 528.737968 -163.373222 
L 525.157219 -168.367047 
L 521.576471 -158.287372 
L 517.995722 -141.573911 
L 514.414973 -169.038141 
L 510.834225 -174.856218 
L 507.253476 -144.709795 
L 503.672727 -139.224922 
L 500.091979 -144.631492 
L 496.51123 -134.417839 
L 492.930481 -137.430077 
L 489.349733 -171.547148 
L 485.768984 -151.948245 
L 482.188235 -150.343388 
L 478.607487 -151.35921 
L 475.026738 -184.174919 
L 471.445989 -151.593507 
L 467.865241 -162.285851 
L 464.284492 -175.190557 
L 460.703743 -152.895695 
L 457.122995 -150.393012 
L 453.542246 -159.329548 
L 449.961497 -166.452681 
L 446.380749 -159.731268 
L 442.8 -152.404341 
L 439.219251 -146.622012 
L 435.638503 -162.355491 
L 432.057754 -163.322119 
L 428.477005 -163.906469 
L 424.896257 -168.902367 
L 421.315508 -160.381462 
L 417.734759 -150.995162 
L 414.154011 -171.809734 
L 410.573262 -168.421157 
L 406.992513 -176.515838 
L 403.411765 -201.79205 
L 399.831016 -205.105909 
L 396.250267 -193.576108 
L 392.669519 -205.238109 
L 389.08877 -210.647833 
L 385.508021 -223.608002 
L 381.927273 -194.484887 
L 378.346524 -188.173158 
L 374.765775 -204.132138 
L 371.185027 -227.911661 
L 367.604278 -226.352209 
L 364.023529 -226.525349 
L 360.442781 -229.116592 
L 356.862032 -230.547384 
L 353.281283 -229.00566 
L 349.700535 -217.32001 
L 346.119786 -234.566819 
L 342.539037 -240.660927 
L 338.958289 -258.01417 
L 335.37754 -293.699918 
L 331.796791 -322.793955 
L 328.216043 -338.093067 
L 324.635294 -360.20289 
L 321.054545 -365.334545 
L 317.473797 -327.109546 
L 313.893048 -276.415663 
L 310.312299 -216.86363 
L 306.731551 -176.522087 
L 303.150802 -185.28401 
L 299.570053 -177.138453 
L 295.989305 -142.226974 
L 292.408556 -174.366372 
L 288.827807 -162.550858 
L 285.247059 -170.933447 
L 281.66631 -178.463912 
L 278.085561 -183.833684 
L 274.504813 -153.894395 
L 270.924064 -148.565865 
L 267.343316 -152.19253 
L 263.762567 -148.658839 
L 260.181818 -126.633683 
L 256.60107 -133.862837 
L 253.020321 -140.200829 
L 249.439572 -132.550663 
L 245.858824 -123.519905 
L 242.278075 -124.623681 
L 238.697326 -151.563231 
L 235.116578 -116.073832 
L 231.535829 -134.934145 
L 227.95508 -121.886129 
L 224.374332 -126.607818 
L 220.793583 -115.601998 
L 217.212834 -141.893661 
L 213.632086 -110.622451 
L 210.051337 -125.08605 
L 206.470588 -114.056436 
L 202.88984 -124.268225 
L 199.309091 -134.225433 
L 195.728342 -118.312769 
L 192.147594 -109.000648 
L 188.566845 -116.468067 
L 184.986096 -122.388908 
L 181.405348 -117.71314 
L 177.824599 -113.988905 
L 174.24385 -94.909768 
L 170.663102 -103.049969 
L 167.082353 -117.891785 
L 163.501604 -117.646518 
L 159.920856 -110.87638 
L 156.340107 -128.618933 
L 152.759358 -117.143399 
L 149.17861 -121.534381 
L 145.597861 -104.129635 
L 142.017112 -95.853721 
L 138.436364 -100.945632 
z
" id="m8e851e8069" style="stroke:#4169e1;stroke-opacity:0.2;stroke-width:1.5;"/>
    </defs>
    <g clip-path="url(#p285be29f59)">
     <use style="fill:#4169e1;fill-opacity:0.2;stroke:#4169e1;stroke-opacity:0.2;stroke-width:1.5;" x="0" xlink:href="#m8e851e8069" y="432"/>
    </g>
   </g>
   <g id="PolyCollection_2">
    <path clip-path="url(#p285be29f59)" d="M 299.570053 269.136602 
L 299.570053 327.516012 
L 303.150802 327.516012 
L 306.731551 327.516012 
L 310.312299 327.516012 
L 313.893048 327.516012 
L 317.473797 327.516012 
L 321.054545 327.516012 
L 324.635294 327.516012 
L 328.216043 327.516012 
L 331.796791 327.516012 
L 335.37754 327.516012 
L 338.958289 327.516012 
L 342.539037 327.516012 
L 346.119786 327.516012 
L 349.700535 327.516012 
L 353.281283 327.516012 
L 356.862032 327.516012 
L 360.442781 327.516012 
L 364.023529 327.516012 
L 367.604278 327.516012 
L 371.185027 327.516012 
L 374.765775 327.516012 
L 378.346524 327.516012 
L 381.927273 327.516012 
L 385.508021 327.516012 
L 389.08877 327.516012 
L 392.669519 327.516012 
L 396.250267 327.516012 
L 399.831016 327.516012 
L 403.411765 327.516012 
L 406.992513 327.516012 
L 410.573262 327.516012 
L 414.154011 327.516012 
L 414.154011 276.403597 
L 414.154011 276.403597 
L 410.573262 279.862498 
L 406.992513 269.372951 
L 403.411765 245.673671 
L 399.831016 242.06596 
L 396.250267 251.599869 
L 392.669519 239.462006 
L 389.08877 237.825125 
L 385.508021 220.94157 
L 381.927273 254.232291 
L 378.346524 257.366731 
L 374.765775 244.505838 
L 371.185027 222.604662 
L 367.604278 220.162291 
L 364.023529 218.216499 
L 360.442781 221.381267 
L 356.862032 220.747557 
L 353.281283 222.210168 
L 349.700535 232.629242 
L 346.119786 217.463343 
L 342.539037 209.474877 
L 338.958289 193.539644 
L 335.37754 160.206076 
L 331.796791 134.735195 
L 328.216043 114.411704 
L 324.635294 92.507227 
L 321.054545 85.888537 
L 317.473797 127.03825 
L 313.893048 179.035951 
L 310.312299 234.801026 
L 306.731551 271.560779 
L 303.150802 261.098922 
L 299.570053 269.136602 
z
" style="fill:#4c72b0;fill-opacity:0.2;stroke:#4c72b0;stroke-opacity:0.2;stroke-width:1.5;"/>
    <path clip-path="url(#p285be29f59)" d="M 442.8 292.830242 
L 442.8 327.516012 
L 446.380749 327.516012 
L 449.961497 327.516012 
L 453.542246 327.516012 
L 457.122995 327.516012 
L 460.703743 327.516012 
L 464.284492 327.516012 
L 467.865241 327.516012 
L 471.445989 327.516012 
L 475.026738 327.516012 
L 478.607487 327.516012 
L 482.188235 327.516012 
L 482.188235 292.503023 
L 482.188235 292.503023 
L 478.607487 290.588896 
L 475.026738 262.55382 
L 471.445989 295.227705 
L 467.865241 283.336498 
L 464.284492 267.521102 
L 460.703743 291.231475 
L 457.122995 295.993546 
L 453.542246 284.909962 
L 449.961497 278.785102 
L 446.380749 284.889037 
L 442.8 292.830242 
z
" style="fill:#4c72b0;fill-opacity:0.2;stroke:#4c72b0;stroke-opacity:0.2;stroke-width:1.5;"/>
   </g>
   <g id="line2d_15">
    <path clip-path="url(#p285be29f59)" d="M 138.436364 341.9759 
L 142.017112 347.509979 
L 145.597861 338.116082 
L 149.17861 324.010574 
L 152.759358 328.623347 
L 156.340107 315.841025 
L 159.920856 330.53451 
L 163.501604 325.191156 
L 167.082353 326.633238 
L 170.663102 340.476679 
L 174.24385 350.081398 
L 177.824599 328.690972 
L 181.405348 325.234936 
L 184.986096 322.450603 
L 188.566845 327.984264 
L 192.147594 335.769026 
L 195.728342 324.339145 
L 199.309091 310.709764 
L 202.88984 319.013216 
L 206.470588 328.073899 
L 210.051337 319.765361 
L 213.632086 332.752229 
L 217.212834 303.948282 
L 220.793583 332.340683 
L 224.374332 318.669459 
L 227.95508 322.394032 
L 231.535829 308.616728 
L 235.116578 326.064994 
L 238.697326 294.888665 
L 242.278075 323.003177 
L 245.858824 322.396247 
L 249.439572 314.992511 
L 253.020321 303.749258 
L 256.60107 311.08143 
L 260.181818 319.365196 
L 263.762567 299.543527 
L 267.343316 290.654338 
L 270.924064 298.161582 
L 274.504813 289.814017 
L 278.085561 262.296349 
L 281.66631 264.683982 
L 285.247059 275.362971 
L 288.827807 282.913383 
L 292.408556 270.355068 
L 295.989305 304.567201 
L 299.570053 269.136602 
L 303.150802 261.098922 
L 306.731551 271.560779 
L 310.312299 234.801026 
L 313.893048 179.035951 
L 317.473797 127.03825 
L 321.054545 85.888537 
L 324.635294 92.507227 
L 328.216043 114.411704 
L 331.796791 134.735195 
L 335.37754 160.206076 
L 338.958289 193.539644 
L 342.539037 209.474877 
L 346.119786 217.463343 
L 349.700535 232.629242 
L 353.281283 222.210168 
L 356.862032 220.747557 
L 360.442781 221.381267 
L 364.023529 218.216499 
L 367.604278 220.162291 
L 371.185027 222.604662 
L 374.765775 244.505838 
L 378.346524 257.366731 
L 381.927273 254.232291 
L 385.508021 220.94157 
L 389.08877 237.825125 
L 392.669519 239.462006 
L 396.250267 251.599869 
L 399.831016 242.06596 
L 403.411765 245.673671 
L 406.992513 269.372951 
L 410.573262 279.862498 
L 414.154011 276.403597 
L 417.734759 296.099627 
L 421.315508 284.209602 
L 424.896257 275.340093 
L 428.477005 281.705776 
L 432.057754 281.50845 
L 435.638503 282.134212 
L 439.219251 299.331308 
L 442.8 292.830242 
L 446.380749 284.889037 
L 449.961497 278.785102 
L 453.542246 284.909962 
L 457.122995 295.993546 
L 460.703743 291.231475 
L 464.284492 267.521102 
L 467.865241 283.336498 
L 471.445989 295.227705 
L 475.026738 262.55382 
L 478.607487 290.588896 
L 482.188235 292.503023 
L 485.768984 295.501333 
L 489.349733 275.809056 
L 492.930481 311.649275 
L 496.51123 311.677045 
L 500.091979 300.846173 
L 503.672727 307.880258 
L 507.253476 301.25542 
L 510.834225 270.3236 
L 514.414973 273.845741 
L 517.995722 303.261802 
L 521.576471 287.115826 
L 525.157219 275.89679 
L 528.737968 283.228123 
L 535.899465 294.033782 
L 539.480214 269.554383 
L 543.060963 292.135849 
L 546.641711 298.162063 
L 550.22246 308.486819 
L 553.803209 285.940525 
L 557.383957 282.583512 
L 560.964706 299.224437 
L 564.545455 292.974826 
L 568.126203 285.535414 
L 571.706952 288.884358 
L 575.287701 316.112343 
L 578.868449 308.11529 
L 582.449198 304.121126 
L 586.029947 307.727499 
L 589.610695 303.662151 
L 593.191444 286.887632 
L 596.772193 284.394876 
L 600.352941 289.266158 
L 603.93369 312.580157 
L 607.514439 297.923335 
L 611.095187 304.627001 
L 614.675936 326.087935 
L 618.256684 315.221868 
L 621.837433 321.824776 
L 625.418182 304.962057 
L 628.99893 313.851799 
L 632.579679 312.914686 
L 636.160428 305.176159 
L 639.741176 316.22624 
L 643.321925 308.657003 
L 646.902674 297.669669 
L 650.483422 285.696211 
L 654.064171 286.677413 
L 657.64492 294.696454 
L 661.225668 321.289973 
L 664.806417 323.71533 
L 668.387166 294.906132 
L 671.967914 301.195204 
L 675.548663 316.76079 
L 679.129412 311.306653 
L 682.71016 301.112303 
L 686.290909 322.705988 
L 689.871658 302.513733 
L 693.452406 306.588145 
L 697.033155 306.14384 
L 700.613904 307.039471 
L 704.194652 292.102257 
L 707.775401 311.813152 
L 711.35615 318.676843 
L 714.936898 311.390946 
L 718.517647 308.236147 
L 722.098396 312.553375 
L 725.679144 326.356291 
L 729.259893 317.847914 
L 732.840642 313.689805 
L 736.42139 328.240834 
L 740.002139 315.760844 
L 743.582888 307.470401 
L 747.163636 295.927619 
L 747.163636 295.927619 
" style="fill:none;stroke:#4169e1;stroke-linecap:round;stroke-width:2.25;"/>
   </g>
   <g id="line2d_16">
    <path clip-path="url(#p285be29f59)" d="M 108 327.516012 
L 777.6 327.516012 
" style="fill:none;stroke:#808080;stroke-dasharray:8.325,3.6;stroke-dashoffset:0;stroke-width:2.25;"/>
   </g>
   <g id="line2d_17">
    <path clip-path="url(#p285be29f59)" d="M 281.66631 378 
L 281.66631 51.84 
" style="fill:none;stroke:#ff0000;stroke-dasharray:8.325,3.6;stroke-dashoffset:0;stroke-width:2.25;"/>
   </g>
   <g id="line2d_18">
    <path clip-path="url(#p285be29f59)" d="M 210.051337 378 
L 210.051337 51.84 
" style="fill:none;stroke:#1a1a1a;stroke-linecap:round;stroke-width:2.25;"/>
   </g>
   <g id="line2d_19">
    <path clip-path="url(#p285be29f59)" d="M 299.570053 269.136602 
L 303.150802 261.098922 
L 306.731551 271.560779 
L 310.312299 234.801026 
L 313.893048 179.035951 
L 317.473797 127.03825 
L 321.054545 85.888537 
L 324.635294 92.507227 
L 328.216043 114.411704 
L 331.796791 134.735195 
L 335.37754 160.206076 
L 338.958289 193.539644 
L 342.539037 209.474877 
L 346.119786 217.463343 
L 349.700535 232.629242 
L 353.281283 222.210168 
L 356.862032 220.747557 
L 360.442781 221.381267 
L 364.023529 218.216499 
L 367.604278 220.162291 
L 371.185027 222.604662 
L 374.765775 244.505838 
L 378.346524 257.366731 
L 381.927273 254.232291 
L 385.508021 220.94157 
L 389.08877 237.825125 
L 392.669519 239.462006 
L 396.250267 251.599869 
L 399.831016 242.06596 
L 403.411765 245.673671 
L 406.992513 269.372951 
L 410.573262 279.862498 
L 414.154011 276.403597 
M 442.8 292.830242 
L 446.380749 284.889037 
L 449.961497 278.785102 
L 453.542246 284.909962 
L 457.122995 295.993546 
L 460.703743 291.231475 
L 464.284492 267.521102 
L 467.865241 283.336498 
L 471.445989 295.227705 
L 475.026738 262.55382 
L 478.607487 290.588896 
L 482.188235 292.503023 
L 482.188235 292.503023 
" style="fill:none;stroke:#1a1a1a;stroke-linecap:round;stroke-width:3;"/>
   </g>
   <g id="patch_3">
    <path d="M 98 327.516012 
L 98 72.571191 
" style="fill:none;stroke:#262626;stroke-linecap:square;stroke-linejoin:miter;stroke-width:1.875;"/>
   </g>
   <g id="patch_4">
    <path d="M 138.436364 388 
L 711.35615 388 
" style="fill:none;stroke:#262626;stroke-linecap:square;stroke-linejoin:miter;stroke-width:1.875;"/>
   </g>
  </g>
 </g>
 <defs>
  <clipPath id="p285be29f59">
   <rect height="326.16" width="669.6" x="108" y="51.84"/>
  </clipPath>
 </defs>
</svg>
