<?xml version="1.0" encoding="utf-8" standalone="no"?>
<!DOCTYPE svg PUBLIC "-//W3C//DTD SVG 1.1//EN"
  "http://www.w3.org/Graphics/SVG/1.1/DTD/svg11.dtd">
<!-- Created with matplotlib (https://matplotlib.org/) -->
<svg height="432pt" version="1.1" viewBox="0 0 864 432" width="864pt" xmlns="http://www.w3.org/2000/svg" xmlns:xlink="http://www.w3.org/1999/xlink">
 <metadata>
  <rdf:RDF xmlns:cc="http://creativecommons.org/ns#" xmlns:dc="http://purl.org/dc/elements/1.1/" xmlns:rdf="http://www.w3.org/1999/02/22-rdf-syntax-ns#">
   <cc:Work>
    <dc:type rdf:resource="http://purl.org/dc/dcmitype/StillImage"/>
    <dc:date>2020-11-09T12:11:07.619845</dc:date>
    <dc:format>image/svg+xml</dc:format>
    <dc:creator>
     <cc:Agent>
      <dc:title>Matplotlib v3.3.1, https://matplotlib.org/</dc:title>
     </cc:Agent>
    </dc:creator>
   </cc:Work>
  </rdf:RDF>
 </metadata>
 <defs>
  <style type="text/css">*{stroke-linecap:butt;stroke-linejoin:round;}</style>
 </defs>
 <g id="figure_1">
  <g id="patch_1">
   <path d="M 0 432 
L 864 432 
L 864 0 
L 0 0 
z
" style="fill:none;"/>
  </g>
  <g id="axes_1">
   <g id="patch_2">
    <path d="M 108 378 
L 777.6 378 
L 777.6 51.84 
L 108 51.84 
z
" style="fill:#ffffff;"/>
   </g>
   <g id="PolyCollection_1">
    <defs>
     <path d="M 138.436364 -100.365995 
L 138.436364 -79.456132 
L 142.017112 -73.414042 
L 145.597861 -82.604347 
L 149.17861 -94.34559 
L 152.759358 -89.251396 
L 156.340107 -104.986782 
L 159.920856 -91.597344 
L 163.501604 -95.32944 
L 167.082353 -92.637084 
L 170.663102 -79.94747 
L 174.24385 -68.825455 
L 177.824599 -93.983994 
L 181.405348 -94.728295 
L 184.986096 -95.648244 
L 188.566845 -92.783727 
L 192.147594 -83.794942 
L 195.728342 -96.967177 
L 199.309091 -106.99677 
L 202.88984 -102.028118 
L 206.470588 -92.08631 
L 210.051337 -99.196106 
L 213.632086 -88.844107 
L 217.212834 -113.805621 
L 220.793583 -84.242425 
L 224.374332 -100.42305 
L 227.95508 -97.956085 
L 231.535829 -113.007178 
L 235.116578 -96.204112 
L 238.697326 -121.63529 
L 242.278075 -93.257308 
L 245.858824 -96.811135 
L 249.439572 -100.423523 
L 253.020321 -116.779779 
L 256.60107 -107.409189 
L 260.181818 -98.068437 
L 263.762567 -116.22274 
L 267.343316 -130.5737 
L 270.924064 -119.208426 
L 274.504813 -129.529717 
L 278.085561 -155.180355 
L 281.66631 -156.239223 
L 285.247059 -142.245309 
L 288.827807 -136.427127 
L 292.408556 -149.195103 
L 295.989305 -114.258644 
L 299.570053 -150.554991 
L 303.150802 -156.314661 
L 306.731551 -144.341188 
L 310.312299 -179.709845 
L 313.893048 -230.207463 
L 317.473797 -283.935088 
L 321.054545 -327.875473 
L 324.635294 -320.234638 
L 328.216043 -296.131868 
L 331.796791 -272.396226 
L 335.37754 -249.186573 
L 338.958289 -216.671595 
L 342.539037 -203.124291 
L 346.119786 -194.551008 
L 349.700535 -182.43238 
L 353.281283 -190.946278 
L 356.862032 -191.770004 
L 360.442781 -192.55014 
L 364.023529 -200.035884 
L 367.604278 -197.534781 
L 371.185027 -190.829812 
L 374.765775 -170.370839 
L 378.346524 -160.207 
L 381.927273 -161.277995 
L 385.508021 -199.022873 
L 389.08877 -179.293539 
L 392.669519 -179.631079 
L 396.250267 -168.205809 
L 399.831016 -173.309807 
L 403.411765 -170.691898 
L 406.992513 -149.275233 
L 410.573262 -136.335955 
L 414.154011 -139.262088 
L 417.734759 -120.265715 
L 421.315508 -135.161978 
L 424.896257 -142.994303 
L 428.477005 -136.781314 
L 432.057754 -137.464651 
L 435.638503 -136.334825 
L 439.219251 -118.796276 
L 442.8 -125.601876 
L 446.380749 -133.846086 
L 449.961497 -140.735801 
L 453.542246 -134.466798 
L 457.122995 -122.639713 
L 460.703743 -127.661032 
L 464.284492 -153.268945 
L 467.865241 -133.627991 
L 471.445989 -121.380039 
L 475.026738 -153.18834 
L 478.607487 -131.158338 
L 482.188235 -128.211388 
L 485.768984 -121.207856 
L 489.349733 -140.42947 
L 492.930481 -103.398679 
L 496.51123 -104.89905 
L 500.091979 -118.01238 
L 503.672727 -109.2109 
L 507.253476 -116.480151 
L 510.834225 -148.739118 
L 514.414973 -147.587092 
L 517.995722 -115.584942 
L 521.576471 -131.182814 
L 525.157219 -143.998715 
L 528.737968 -133.925329 
L 532.318717 -126.639178 
L 535.899465 -125.280139 
L 539.480214 -150.159989 
L 543.060963 -126.460471 
L 546.641711 -121.223598 
L 550.22246 -111.57254 
L 553.803209 -136.815975 
L 557.383957 -136.090654 
L 560.964706 -119.564083 
L 564.545455 -123.845595 
L 568.126203 -132.584336 
L 571.706952 -127.75104 
L 575.287701 -101.286952 
L 578.868449 -112.263169 
L 582.449198 -116.329688 
L 586.029947 -108.578933 
L 589.610695 -116.323106 
L 593.191444 -135.500797 
L 596.772193 -138.465586 
L 600.352941 -130.48561 
L 603.93369 -106.191941 
L 607.514439 -119.427929 
L 611.095187 -114.545009 
L 614.675936 -93.542151 
L 618.256684 -100.90062 
L 621.837433 -97.302965 
L 625.418182 -113.52173 
L 628.99893 -104.700852 
L 632.579679 -105.932925 
L 636.160428 -112.982838 
L 639.741176 -102.832107 
L 643.321925 -113.090916 
L 646.902674 -122.800529 
L 650.483422 -135.916766 
L 654.064171 -135.732739 
L 657.64492 -124.414996 
L 661.225668 -98.848169 
L 664.806417 -90.288752 
L 668.387166 -125.379635 
L 671.967914 -119.707569 
L 675.548663 -106.041528 
L 679.129412 -109.140469 
L 682.71016 -115.427446 
L 686.290909 -93.958045 
L 689.871658 -118.194731 
L 693.452406 -113.016132 
L 697.033155 -112.925393 
L 700.613904 -114.734858 
L 704.194652 -124.74921 
L 707.775401 -107.400266 
L 711.35615 -99.312471 
L 714.936898 -106.215894 
L 718.517647 -110.144106 
L 722.098396 -104.583138 
L 725.679144 -93.142594 
L 729.259893 -100.372214 
L 732.840642 -106.786321 
L 736.42139 -91.651051 
L 740.002139 -103.559759 
L 743.582888 -113.23399 
L 747.163636 -124.044123 
L 747.163636 -148.17979 
L 747.163636 -148.17979 
L 743.582888 -135.979287 
L 740.002139 -127.843421 
L 736.42139 -116.530318 
L 732.840642 -128.692576 
L 729.259893 -128.452647 
L 725.679144 -118.898057 
L 722.098396 -135.768452 
L 718.517647 -137.422768 
L 714.936898 -133.866046 
L 711.35615 -127.86248 
L 707.775401 -132.03293 
L 704.194652 -156.162506 
L 700.613904 -134.069586 
L 697.033155 -137.808801 
L 693.452406 -137.236943 
L 689.871658 -139.935624 
L 686.290909 -125.174372 
L 682.71016 -147.055345 
L 679.129412 -132.949078 
L 675.548663 -125.253507 
L 671.967914 -142.304097 
L 668.387166 -150.128024 
L 664.806417 -126.20567 
L 661.225668 -122.187863 
L 657.64492 -149.157877 
L 654.064171 -155.661091 
L 650.483422 -157.297349 
L 646.902674 -147.464093 
L 643.321925 -132.825352 
L 639.741176 -128.362127 
L 636.160428 -141.419955 
L 632.579679 -132.137615 
L 628.99893 -130.172709 
L 625.418182 -140.474009 
L 621.837433 -123.227949 
L 618.256684 -134.304119 
L 614.675936 -117.990094 
L 611.095187 -141.070383 
L 607.514439 -147.126318 
L 603.93369 -131.819206 
L 600.352941 -155.773598 
L 596.772193 -156.903624 
L 593.191444 -154.915801 
L 589.610695 -140.739423 
L 586.029947 -138.720197 
L 582.449198 -139.806086 
L 578.868449 -135.675715 
L 575.287701 -130.557601 
L 571.706952 -158.644599 
L 568.126203 -160.364795 
L 564.545455 -153.276765 
L 560.964706 -147.159266 
L 557.383957 -162.169301 
L 553.803209 -156.403505 
L 550.22246 -135.155734 
L 546.641711 -147.166823 
L 543.060963 -154.4006 
L 539.480214 -176.051119 
L 535.899465 -149.534151 
L 532.318717 -160.420197 
L 528.737968 -163.109369 
L 525.157219 -168.016205 
L 521.576471 -160.360798 
L 517.995722 -141.23394 
L 514.414973 -170.342369 
L 510.834225 -175.447771 
L 507.253476 -145.574765 
L 503.672727 -139.122546 
L 500.091979 -144.962114 
L 496.51123 -134.356111 
L 492.930481 -137.003776 
L 489.349733 -171.373202 
L 485.768984 -151.15509 
L 482.188235 -150.865931 
L 478.607487 -151.781465 
L 475.026738 -184.657127 
L 471.445989 -151.23245 
L 467.865241 -162.065979 
L 464.284492 -175.960798 
L 460.703743 -153.97436 
L 457.122995 -149.697285 
L 453.542246 -159.708876 
L 449.961497 -165.23822 
L 446.380749 -160.024279 
L 442.8 -153.030107 
L 439.219251 -145.094615 
L 435.638503 -162.745458 
L 432.057754 -164.449915 
L 428.477005 -163.159499 
L 424.896257 -169.665095 
L 421.315508 -160.772128 
L 417.734759 -152.108811 
L 414.154011 -171.667057 
L 410.573262 -167.370066 
L 406.992513 -176.225384 
L 403.411765 -200.694109 
L 399.831016 -205.626777 
L 396.250267 -193.068107 
L 392.669519 -205.300405 
L 389.08877 -211.779331 
L 385.508021 -223.522769 
L 381.927273 -194.350487 
L 378.346524 -190.49107 
L 374.765775 -205.540603 
L 371.185027 -227.793887 
L 367.604278 -226.065503 
L 364.023529 -226.956684 
L 360.442781 -230.333851 
L 356.862032 -230.261566 
L 353.281283 -229.890479 
L 349.700535 -217.412398 
L 346.119786 -235.645862 
L 342.539037 -240.451451 
L 338.958289 -259.770144 
L 335.37754 -294.856744 
L 331.796791 -325.746848 
L 328.216043 -340.124636 
L 324.635294 -360.633192 
L 321.054545 -365.334545 
L 317.473797 -327.726654 
L 313.893048 -276.305278 
L 310.312299 -218.397984 
L 306.731551 -178.012289 
L 303.150802 -185.085774 
L 299.570053 -178.310551 
L 295.989305 -140.90344 
L 292.408556 -175.232947 
L 288.827807 -160.995613 
L 285.247059 -170.926046 
L 281.66631 -178.480395 
L 278.085561 -184.836864 
L 274.504813 -153.478697 
L 270.924064 -147.147045 
L 267.343316 -151.365365 
L 263.762567 -147.699291 
L 260.181818 -126.782848 
L 256.60107 -134.383827 
L 253.020321 -139.80753 
L 249.439572 -132.534832 
L 245.858824 -123.124443 
L 242.278075 -122.844637 
L 238.697326 -152.161399 
L 235.116578 -115.865839 
L 231.535829 -134.847384 
L 227.95508 -122.914145 
L 224.374332 -127.052949 
L 220.793583 -114.059489 
L 217.212834 -141.591318 
L 213.632086 -111.670595 
L 210.051337 -126.163115 
L 206.470588 -115.050648 
L 202.88984 -124.80746 
L 199.309091 -134.943637 
L 195.728342 -117.677381 
L 192.147594 -108.952903 
L 188.566845 -115.966873 
L 184.986096 -121.252363 
L 181.405348 -118.478844 
L 177.824599 -112.573339 
L 174.24385 -95.519161 
L 170.663102 -103.642754 
L 167.082353 -117.081339 
L 163.501604 -119.048524 
L 159.920856 -110.694485 
L 156.340107 -128.872611 
L 152.759358 -116.344873 
L 149.17861 -122.340742 
L 145.597861 -104.314822 
L 142.017112 -95.41028 
L 138.436364 -100.365995 
z
" id="m4b182cdfd5" style="stroke:#4169e1;stroke-opacity:0.2;stroke-width:1.5;"/>
    </defs>
    <g clip-path="url(#p19755a1148)">
     <use style="fill:#4169e1;fill-opacity:0.2;stroke:#4169e1;stroke-opacity:0.2;stroke-width:1.5;" x="0" xlink:href="#m4b182cdfd5" y="432"/>
    </g>
   </g>
   <g id="PolyCollection_2">
    <path clip-path="url(#p19755a1148)" d="M 299.570053 268.986402 
L 299.570053 327.540211 
L 303.150802 327.540211 
L 306.731551 327.540211 
L 310.312299 327.540211 
L 313.893048 327.540211 
L 317.473797 327.540211 
L 321.054545 327.540211 
L 324.635294 327.540211 
L 328.216043 327.540211 
L 331.796791 327.540211 
L 335.37754 327.540211 
L 338.958289 327.540211 
L 342.539037 327.540211 
L 346.119786 327.540211 
L 349.700535 327.540211 
L 353.281283 327.540211 
L 356.862032 327.540211 
L 360.442781 327.540211 
L 364.023529 327.540211 
L 367.604278 327.540211 
L 371.185027 327.540211 
L 374.765775 327.540211 
L 378.346524 327.540211 
L 381.927273 327.540211 
L 385.508021 327.540211 
L 389.08877 327.540211 
L 392.669519 327.540211 
L 396.250267 327.540211 
L 399.831016 327.540211 
L 403.411765 327.540211 
L 406.992513 327.540211 
L 410.573262 327.540211 
L 414.154011 327.540211 
L 414.154011 276.275106 
L 414.154011 276.275106 
L 410.573262 279.74434 
L 406.992513 269.223457 
L 403.411765 245.453378 
L 399.831016 241.83489 
L 396.250267 251.39728 
L 392.669519 239.223158 
L 389.08877 237.581387 
L 385.508021 220.647394 
L 381.927273 254.037567 
L 378.346524 257.18137 
L 374.765775 244.282057 
L 371.185027 222.315455 
L 367.604278 219.865787 
L 364.023529 217.914182 
L 360.442781 221.088404 
L 356.862032 220.452801 
L 353.281283 221.919782 
L 349.700535 232.369982 
L 346.119786 217.158777 
L 342.539037 209.146446 
L 338.958289 193.163609 
L 335.37754 159.730461 
L 331.796791 134.18349 
L 328.216043 113.799286 
L 324.635294 91.829372 
L 321.054545 85.19091 
L 317.473797 126.463551 
L 313.893048 178.616589 
L 310.312299 234.548254 
L 306.731551 271.417821 
L 303.150802 260.92471 
L 299.570053 268.986402 
z
" style="fill:#0000ff;fill-opacity:0.2;stroke:#0000ff;stroke-opacity:0.2;stroke-width:1.5;"/>
    <path clip-path="url(#p19755a1148)" d="M 442.8 292.750823 
L 442.8 327.540211 
L 446.380749 327.540211 
L 449.961497 327.540211 
L 453.542246 327.540211 
L 457.122995 327.540211 
L 460.703743 327.540211 
L 464.284492 327.540211 
L 467.865241 327.540211 
L 471.445989 327.540211 
L 475.026738 327.540211 
L 478.607487 327.540211 
L 482.188235 327.540211 
L 482.188235 292.422627 
L 482.188235 292.422627 
L 478.607487 290.502781 
L 475.026738 262.383955 
L 471.445989 295.155448 
L 467.865241 283.228718 
L 464.284492 267.366075 
L 460.703743 291.14728 
L 457.122995 295.923577 
L 453.542246 284.806882 
L 449.961497 278.663725 
L 446.380749 284.785895 
L 442.8 292.750823 
z
" style="fill:#0000ff;fill-opacity:0.2;stroke:#0000ff;stroke-opacity:0.2;stroke-width:1.5;"/>
   </g>
   <g id="matplotlib.axis_1">
    <g id="xtick_1">
     <g id="line2d_1">
      <defs>
       <path d="M 0 0 
L 0 9 
" id="m1094bf6ae9" style="stroke:#000000;stroke-width:1.875;"/>
      </defs>
      <g>
       <use style="stroke:#000000;stroke-width:1.875;" x="138.436364" xlink:href="#m1094bf6ae9" y="388"/>
      </g>
     </g>
     <g id="text_1">
      <!-- −0.2 -->
      <g transform="translate(110.389715 418.052391)scale(0.231 -0.231)">
       <defs>
        <path d="M 10.59375 35.5 
L 73.1875 35.5 
L 73.1875 27.203125 
L 10.59375 27.203125 
z
" id="DejaVuSans-8722"/>
        <path d="M 31.78125 66.40625 
Q 24.171875 66.40625 20.328125 58.90625 
Q 16.5 51.421875 16.5 36.375 
Q 16.5 21.390625 20.328125 13.890625 
Q 24.171875 6.390625 31.78125 6.390625 
Q 39.453125 6.390625 43.28125 13.890625 
Q 47.125 21.390625 47.125 36.375 
Q 47.125 51.421875 43.28125 58.90625 
Q 39.453125 66.40625 31.78125 66.40625 
z
M 31.78125 74.21875 
Q 44.046875 74.21875 50.515625 64.515625 
Q 56.984375 54.828125 56.984375 36.375 
Q 56.984375 17.96875 50.515625 8.265625 
Q 44.046875 -1.421875 31.78125 -1.421875 
Q 19.53125 -1.421875 13.0625 8.265625 
Q 6.59375 17.96875 6.59375 36.375 
Q 6.59375 54.828125 13.0625 64.515625 
Q 19.53125 74.21875 31.78125 74.21875 
z
" id="DejaVuSans-48"/>
        <path d="M 10.6875 12.40625 
L 21 12.40625 
L 21 0 
L 10.6875 0 
z
" id="DejaVuSans-46"/>
        <path d="M 19.1875 8.296875 
L 53.609375 8.296875 
L 53.609375 0 
L 7.328125 0 
L 7.328125 8.296875 
Q 12.9375 14.109375 22.625 23.890625 
Q 32.328125 33.6875 34.8125 36.53125 
Q 39.546875 41.84375 41.421875 45.53125 
Q 43.3125 49.21875 43.3125 52.78125 
Q 43.3125 58.59375 39.234375 62.25 
Q 35.15625 65.921875 28.609375 65.921875 
Q 23.96875 65.921875 18.8125 64.3125 
Q 13.671875 62.703125 7.8125 59.421875 
L 7.8125 69.390625 
Q 13.765625 71.78125 18.9375 73 
Q 24.125 74.21875 28.421875 74.21875 
Q 39.75 74.21875 46.484375 68.546875 
Q 53.21875 62.890625 53.21875 53.421875 
Q 53.21875 48.921875 51.53125 44.890625 
Q 49.859375 40.875 45.40625 35.40625 
Q 44.1875 33.984375 37.640625 27.21875 
Q 31.109375 20.453125 19.1875 8.296875 
z
" id="DejaVuSans-50"/>
       </defs>
       <use xlink:href="#DejaVuSans-8722"/>
       <use x="83.789062" xlink:href="#DejaVuSans-48"/>
       <use x="147.412109" xlink:href="#DejaVuSans-46"/>
       <use x="179.199219" xlink:href="#DejaVuSans-50"/>
      </g>
     </g>
    </g>
    <g id="xtick_2">
     <g id="line2d_2">
      <g>
       <use style="stroke:#000000;stroke-width:1.875;" x="210.051337" xlink:href="#m1094bf6ae9" y="388"/>
      </g>
     </g>
     <g id="text_2">
      <!-- 0.0 -->
      <g transform="translate(191.683228 418.052391)scale(0.231 -0.231)">
       <use xlink:href="#DejaVuSans-48"/>
       <use x="63.623047" xlink:href="#DejaVuSans-46"/>
       <use x="95.410156" xlink:href="#DejaVuSans-48"/>
      </g>
     </g>
    </g>
    <g id="xtick_3">
     <g id="line2d_3">
      <g>
       <use style="stroke:#000000;stroke-width:1.875;" x="281.66631" xlink:href="#m1094bf6ae9" y="388"/>
      </g>
     </g>
     <g id="text_3">
      <!-- 0.2 -->
      <g transform="translate(263.298201 418.052391)scale(0.231 -0.231)">
       <use xlink:href="#DejaVuSans-48"/>
       <use x="63.623047" xlink:href="#DejaVuSans-46"/>
       <use x="95.410156" xlink:href="#DejaVuSans-50"/>
      </g>
     </g>
    </g>
    <g id="xtick_4">
     <g id="line2d_4">
      <g>
       <use style="stroke:#000000;stroke-width:1.875;" x="353.281283" xlink:href="#m1094bf6ae9" y="388"/>
      </g>
     </g>
     <g id="text_4">
      <!-- 0.4 -->
      <g transform="translate(334.913174 418.052391)scale(0.231 -0.231)">
       <defs>
        <path d="M 37.796875 64.3125 
L 12.890625 25.390625 
L 37.796875 25.390625 
z
M 35.203125 72.90625 
L 47.609375 72.90625 
L 47.609375 25.390625 
L 58.015625 25.390625 
L 58.015625 17.1875 
L 47.609375 17.1875 
L 47.609375 0 
L 37.796875 0 
L 37.796875 17.1875 
L 4.890625 17.1875 
L 4.890625 26.703125 
z
" id="DejaVuSans-52"/>
       </defs>
       <use xlink:href="#DejaVuSans-48"/>
       <use x="63.623047" xlink:href="#DejaVuSans-46"/>
       <use x="95.410156" xlink:href="#DejaVuSans-52"/>
      </g>
     </g>
    </g>
    <g id="xtick_5">
     <g id="line2d_5">
      <g>
       <use style="stroke:#000000;stroke-width:1.875;" x="424.896257" xlink:href="#m1094bf6ae9" y="388"/>
      </g>
     </g>
     <g id="text_5">
      <!-- 0.6 -->
      <g transform="translate(406.528147 418.052391)scale(0.231 -0.231)">
       <defs>
        <path d="M 33.015625 40.375 
Q 26.375 40.375 22.484375 35.828125 
Q 18.609375 31.296875 18.609375 23.390625 
Q 18.609375 15.53125 22.484375 10.953125 
Q 26.375 6.390625 33.015625 6.390625 
Q 39.65625 6.390625 43.53125 10.953125 
Q 47.40625 15.53125 47.40625 23.390625 
Q 47.40625 31.296875 43.53125 35.828125 
Q 39.65625 40.375 33.015625 40.375 
z
M 52.59375 71.296875 
L 52.59375 62.3125 
Q 48.875 64.0625 45.09375 64.984375 
Q 41.3125 65.921875 37.59375 65.921875 
Q 27.828125 65.921875 22.671875 59.328125 
Q 17.53125 52.734375 16.796875 39.40625 
Q 19.671875 43.65625 24.015625 45.921875 
Q 28.375 48.1875 33.59375 48.1875 
Q 44.578125 48.1875 50.953125 41.515625 
Q 57.328125 34.859375 57.328125 23.390625 
Q 57.328125 12.15625 50.6875 5.359375 
Q 44.046875 -1.421875 33.015625 -1.421875 
Q 20.359375 -1.421875 13.671875 8.265625 
Q 6.984375 17.96875 6.984375 36.375 
Q 6.984375 53.65625 15.1875 63.9375 
Q 23.390625 74.21875 37.203125 74.21875 
Q 40.921875 74.21875 44.703125 73.484375 
Q 48.484375 72.75 52.59375 71.296875 
z
" id="DejaVuSans-54"/>
       </defs>
       <use xlink:href="#DejaVuSans-48"/>
       <use x="63.623047" xlink:href="#DejaVuSans-46"/>
       <use x="95.410156" xlink:href="#DejaVuSans-54"/>
      </g>
     </g>
    </g>
    <g id="xtick_6">
     <g id="line2d_6">
      <g>
       <use style="stroke:#000000;stroke-width:1.875;" x="496.51123" xlink:href="#m1094bf6ae9" y="388"/>
      </g>
     </g>
     <g id="text_6">
      <!-- 0.8 -->
      <g transform="translate(478.143121 418.052391)scale(0.231 -0.231)">
       <defs>
        <path d="M 31.78125 34.625 
Q 24.75 34.625 20.71875 30.859375 
Q 16.703125 27.09375 16.703125 20.515625 
Q 16.703125 13.921875 20.71875 10.15625 
Q 24.75 6.390625 31.78125 6.390625 
Q 38.8125 6.390625 42.859375 10.171875 
Q 46.921875 13.96875 46.921875 20.515625 
Q 46.921875 27.09375 42.890625 30.859375 
Q 38.875 34.625 31.78125 34.625 
z
M 21.921875 38.8125 
Q 15.578125 40.375 12.03125 44.71875 
Q 8.5 49.078125 8.5 55.328125 
Q 8.5 64.0625 14.71875 69.140625 
Q 20.953125 74.21875 31.78125 74.21875 
Q 42.671875 74.21875 48.875 69.140625 
Q 55.078125 64.0625 55.078125 55.328125 
Q 55.078125 49.078125 51.53125 44.71875 
Q 48 40.375 41.703125 38.8125 
Q 48.828125 37.15625 52.796875 32.3125 
Q 56.78125 27.484375 56.78125 20.515625 
Q 56.78125 9.90625 50.3125 4.234375 
Q 43.84375 -1.421875 31.78125 -1.421875 
Q 19.734375 -1.421875 13.25 4.234375 
Q 6.78125 9.90625 6.78125 20.515625 
Q 6.78125 27.484375 10.78125 32.3125 
Q 14.796875 37.15625 21.921875 38.8125 
z
M 18.3125 54.390625 
Q 18.3125 48.734375 21.84375 45.5625 
Q 25.390625 42.390625 31.78125 42.390625 
Q 38.140625 42.390625 41.71875 45.5625 
Q 45.3125 48.734375 45.3125 54.390625 
Q 45.3125 60.0625 41.71875 63.234375 
Q 38.140625 66.40625 31.78125 66.40625 
Q 25.390625 66.40625 21.84375 63.234375 
Q 18.3125 60.0625 18.3125 54.390625 
z
" id="DejaVuSans-56"/>
       </defs>
       <use xlink:href="#DejaVuSans-48"/>
       <use x="63.623047" xlink:href="#DejaVuSans-46"/>
       <use x="95.410156" xlink:href="#DejaVuSans-56"/>
      </g>
     </g>
    </g>
    <g id="xtick_7">
     <g id="line2d_7">
      <g>
       <use style="stroke:#000000;stroke-width:1.875;" x="568.126203" xlink:href="#m1094bf6ae9" y="388"/>
      </g>
     </g>
     <g id="text_7">
      <!-- 1.0 -->
      <g transform="translate(549.758094 418.052391)scale(0.231 -0.231)">
       <defs>
        <path d="M 12.40625 8.296875 
L 28.515625 8.296875 
L 28.515625 63.921875 
L 10.984375 60.40625 
L 10.984375 69.390625 
L 28.421875 72.90625 
L 38.28125 72.90625 
L 38.28125 8.296875 
L 54.390625 8.296875 
L 54.390625 0 
L 12.40625 0 
z
" id="DejaVuSans-49"/>
       </defs>
       <use xlink:href="#DejaVuSans-49"/>
       <use x="63.623047" xlink:href="#DejaVuSans-46"/>
       <use x="95.410156" xlink:href="#DejaVuSans-48"/>
      </g>
     </g>
    </g>
    <g id="xtick_8">
     <g id="line2d_8">
      <g>
       <use style="stroke:#000000;stroke-width:1.875;" x="639.741176" xlink:href="#m1094bf6ae9" y="388"/>
      </g>
     </g>
     <g id="text_8">
      <!-- 1.2 -->
      <g transform="translate(621.373067 418.052391)scale(0.231 -0.231)">
       <use xlink:href="#DejaVuSans-49"/>
       <use x="63.623047" xlink:href="#DejaVuSans-46"/>
       <use x="95.410156" xlink:href="#DejaVuSans-50"/>
      </g>
     </g>
    </g>
    <g id="xtick_9">
     <g id="line2d_9">
      <g>
       <use style="stroke:#000000;stroke-width:1.875;" x="711.35615" xlink:href="#m1094bf6ae9" y="388"/>
      </g>
     </g>
     <g id="text_9">
      <!-- 1.4 -->
      <g transform="translate(692.98804 418.052391)scale(0.231 -0.231)">
       <use xlink:href="#DejaVuSans-49"/>
       <use x="63.623047" xlink:href="#DejaVuSans-46"/>
       <use x="95.410156" xlink:href="#DejaVuSans-52"/>
      </g>
     </g>
    </g>
    <g id="text_10">
     <!-- Time (s) -->
     <g transform="translate(381.813281 449.651781)scale(0.3 -0.3)">
      <defs>
       <path d="M -0.296875 72.90625 
L 61.375 72.90625 
L 61.375 64.59375 
L 35.5 64.59375 
L 35.5 0 
L 25.59375 0 
L 25.59375 64.59375 
L -0.296875 64.59375 
z
" id="DejaVuSans-84"/>
       <path d="M 9.421875 54.6875 
L 18.40625 54.6875 
L 18.40625 0 
L 9.421875 0 
z
M 9.421875 75.984375 
L 18.40625 75.984375 
L 18.40625 64.59375 
L 9.421875 64.59375 
z
" id="DejaVuSans-105"/>
       <path d="M 52 44.1875 
Q 55.375 50.25 60.0625 53.125 
Q 64.75 56 71.09375 56 
Q 79.640625 56 84.28125 50.015625 
Q 88.921875 44.046875 88.921875 33.015625 
L 88.921875 0 
L 79.890625 0 
L 79.890625 32.71875 
Q 79.890625 40.578125 77.09375 44.375 
Q 74.3125 48.1875 68.609375 48.1875 
Q 61.625 48.1875 57.5625 43.546875 
Q 53.515625 38.921875 53.515625 30.90625 
L 53.515625 0 
L 44.484375 0 
L 44.484375 32.71875 
Q 44.484375 40.625 41.703125 44.40625 
Q 38.921875 48.1875 33.109375 48.1875 
Q 26.21875 48.1875 22.15625 43.53125 
Q 18.109375 38.875 18.109375 30.90625 
L 18.109375 0 
L 9.078125 0 
L 9.078125 54.6875 
L 18.109375 54.6875 
L 18.109375 46.1875 
Q 21.1875 51.21875 25.484375 53.609375 
Q 29.78125 56 35.6875 56 
Q 41.65625 56 45.828125 52.96875 
Q 50 49.953125 52 44.1875 
z
" id="DejaVuSans-109"/>
       <path d="M 56.203125 29.59375 
L 56.203125 25.203125 
L 14.890625 25.203125 
Q 15.484375 15.921875 20.484375 11.0625 
Q 25.484375 6.203125 34.421875 6.203125 
Q 39.59375 6.203125 44.453125 7.46875 
Q 49.3125 8.734375 54.109375 11.28125 
L 54.109375 2.78125 
Q 49.265625 0.734375 44.1875 -0.34375 
Q 39.109375 -1.421875 33.890625 -1.421875 
Q 20.796875 -1.421875 13.15625 6.1875 
Q 5.515625 13.8125 5.515625 26.8125 
Q 5.515625 40.234375 12.765625 48.109375 
Q 20.015625 56 32.328125 56 
Q 43.359375 56 49.78125 48.890625 
Q 56.203125 41.796875 56.203125 29.59375 
z
M 47.21875 32.234375 
Q 47.125 39.59375 43.09375 43.984375 
Q 39.0625 48.390625 32.421875 48.390625 
Q 24.90625 48.390625 20.390625 44.140625 
Q 15.875 39.890625 15.1875 32.171875 
z
" id="DejaVuSans-101"/>
       <path id="DejaVuSans-32"/>
       <path d="M 31 75.875 
Q 24.46875 64.65625 21.28125 53.65625 
Q 18.109375 42.671875 18.109375 31.390625 
Q 18.109375 20.125 21.3125 9.0625 
Q 24.515625 -2 31 -13.1875 
L 23.1875 -13.1875 
Q 15.875 -1.703125 12.234375 9.375 
Q 8.59375 20.453125 8.59375 31.390625 
Q 8.59375 42.28125 12.203125 53.3125 
Q 15.828125 64.359375 23.1875 75.875 
z
" id="DejaVuSans-40"/>
       <path d="M 44.28125 53.078125 
L 44.28125 44.578125 
Q 40.484375 46.53125 36.375 47.5 
Q 32.28125 48.484375 27.875 48.484375 
Q 21.1875 48.484375 17.84375 46.4375 
Q 14.5 44.390625 14.5 40.28125 
Q 14.5 37.15625 16.890625 35.375 
Q 19.28125 33.59375 26.515625 31.984375 
L 29.59375 31.296875 
Q 39.15625 29.25 43.1875 25.515625 
Q 47.21875 21.78125 47.21875 15.09375 
Q 47.21875 7.46875 41.1875 3.015625 
Q 35.15625 -1.421875 24.609375 -1.421875 
Q 20.21875 -1.421875 15.453125 -0.5625 
Q 10.6875 0.296875 5.421875 2 
L 5.421875 11.28125 
Q 10.40625 8.6875 15.234375 7.390625 
Q 20.0625 6.109375 24.8125 6.109375 
Q 31.15625 6.109375 34.5625 8.28125 
Q 37.984375 10.453125 37.984375 14.40625 
Q 37.984375 18.0625 35.515625 20.015625 
Q 33.0625 21.96875 24.703125 23.78125 
L 21.578125 24.515625 
Q 13.234375 26.265625 9.515625 29.90625 
Q 5.8125 33.546875 5.8125 39.890625 
Q 5.8125 47.609375 11.28125 51.796875 
Q 16.75 56 26.8125 56 
Q 31.78125 56 36.171875 55.265625 
Q 40.578125 54.546875 44.28125 53.078125 
z
" id="DejaVuSans-115"/>
       <path d="M 8.015625 75.875 
L 15.828125 75.875 
Q 23.140625 64.359375 26.78125 53.3125 
Q 30.421875 42.28125 30.421875 31.390625 
Q 30.421875 20.453125 26.78125 9.375 
Q 23.140625 -1.703125 15.828125 -13.1875 
L 8.015625 -13.1875 
Q 14.5 -2 17.703125 9.0625 
Q 20.90625 20.125 20.90625 31.390625 
Q 20.90625 42.671875 17.703125 53.65625 
Q 14.5 64.65625 8.015625 75.875 
z
" id="DejaVuSans-41"/>
      </defs>
      <use xlink:href="#DejaVuSans-84"/>
      <use x="57.958984" xlink:href="#DejaVuSans-105"/>
      <use x="85.742188" xlink:href="#DejaVuSans-109"/>
      <use x="183.154297" xlink:href="#DejaVuSans-101"/>
      <use x="244.677734" xlink:href="#DejaVuSans-32"/>
      <use x="276.464844" xlink:href="#DejaVuSans-40"/>
      <use x="315.478516" xlink:href="#DejaVuSans-115"/>
      <use x="367.578125" xlink:href="#DejaVuSans-41"/>
     </g>
    </g>
   </g>
   <g id="matplotlib.axis_2">
    <g id="ytick_1">
     <g id="line2d_10">
      <defs>
       <path d="M 0 0 
L -9 0 
" id="m5543e745e0" style="stroke:#000000;stroke-width:1.875;"/>
      </defs>
      <g>
       <use style="stroke:#000000;stroke-width:1.875;" x="98" xlink:href="#m5543e745e0" y="327.540211"/>
      </g>
     </g>
     <g id="text_11">
      <!-- 0.50 -->
      <g transform="translate(34.066406 336.316407)scale(0.231 -0.231)">
       <defs>
        <path d="M 10.796875 72.90625 
L 49.515625 72.90625 
L 49.515625 64.59375 
L 19.828125 64.59375 
L 19.828125 46.734375 
Q 21.96875 47.46875 24.109375 47.828125 
Q 26.265625 48.1875 28.421875 48.1875 
Q 40.625 48.1875 47.75 41.5 
Q 54.890625 34.8125 54.890625 23.390625 
Q 54.890625 11.625 47.5625 5.09375 
Q 40.234375 -1.421875 26.90625 -1.421875 
Q 22.3125 -1.421875 17.546875 -0.640625 
Q 12.796875 0.140625 7.71875 1.703125 
L 7.71875 11.625 
Q 12.109375 9.234375 16.796875 8.0625 
Q 21.484375 6.890625 26.703125 6.890625 
Q 35.15625 6.890625 40.078125 11.328125 
Q 45.015625 15.765625 45.015625 23.390625 
Q 45.015625 31 40.078125 35.4375 
Q 35.15625 39.890625 26.703125 39.890625 
Q 22.75 39.890625 18.8125 39.015625 
Q 14.890625 38.140625 10.796875 36.28125 
z
" id="DejaVuSans-53"/>
       </defs>
       <use xlink:href="#DejaVuSans-48"/>
       <use x="63.623047" xlink:href="#DejaVuSans-46"/>
       <use x="95.410156" xlink:href="#DejaVuSans-53"/>
       <use x="159.033203" xlink:href="#DejaVuSans-48"/>
      </g>
     </g>
    </g>
    <g id="ytick_2">
     <g id="line2d_11">
      <g>
       <use style="stroke:#000000;stroke-width:1.875;" x="98" xlink:href="#m5543e745e0" y="263.613604"/>
      </g>
     </g>
     <g id="text_12">
      <!-- 0.55 -->
      <g transform="translate(34.066406 272.389799)scale(0.231 -0.231)">
       <use xlink:href="#DejaVuSans-48"/>
       <use x="63.623047" xlink:href="#DejaVuSans-46"/>
       <use x="95.410156" xlink:href="#DejaVuSans-53"/>
       <use x="159.033203" xlink:href="#DejaVuSans-53"/>
      </g>
     </g>
    </g>
    <g id="ytick_3">
     <g id="line2d_12">
      <g>
       <use style="stroke:#000000;stroke-width:1.875;" x="98" xlink:href="#m5543e745e0" y="199.686996"/>
      </g>
     </g>
     <g id="text_13">
      <!-- 0.60 -->
      <g transform="translate(34.066406 208.463191)scale(0.231 -0.231)">
       <use xlink:href="#DejaVuSans-48"/>
       <use x="63.623047" xlink:href="#DejaVuSans-46"/>
       <use x="95.410156" xlink:href="#DejaVuSans-54"/>
       <use x="159.033203" xlink:href="#DejaVuSans-48"/>
      </g>
     </g>
    </g>
    <g id="ytick_4">
     <g id="line2d_13">
      <g>
       <use style="stroke:#000000;stroke-width:1.875;" x="98" xlink:href="#m5543e745e0" y="135.760388"/>
      </g>
     </g>
     <g id="text_14">
      <!-- 0.65 -->
      <g transform="translate(34.066406 144.536584)scale(0.231 -0.231)">
       <use xlink:href="#DejaVuSans-48"/>
       <use x="63.623047" xlink:href="#DejaVuSans-46"/>
       <use x="95.410156" xlink:href="#DejaVuSans-54"/>
       <use x="159.033203" xlink:href="#DejaVuSans-53"/>
      </g>
     </g>
    </g>
    <g id="ytick_5">
     <g id="line2d_14">
      <g>
       <use style="stroke:#000000;stroke-width:1.875;" x="98" xlink:href="#m5543e745e0" y="71.833781"/>
      </g>
     </g>
     <g id="text_15">
      <!-- 0.70 -->
      <g transform="translate(34.066406 80.609976)scale(0.231 -0.231)">
       <defs>
        <path d="M 8.203125 72.90625 
L 55.078125 72.90625 
L 55.078125 68.703125 
L 28.609375 0 
L 18.3125 0 
L 43.21875 64.59375 
L 8.203125 64.59375 
z
" id="DejaVuSans-55"/>
       </defs>
       <use xlink:href="#DejaVuSans-48"/>
       <use x="63.623047" xlink:href="#DejaVuSans-46"/>
       <use x="95.410156" xlink:href="#DejaVuSans-55"/>
       <use x="159.033203" xlink:href="#DejaVuSans-48"/>
      </g>
     </g>
    </g>
    <g id="text_16">
     <!-- AUC -->
     <g transform="translate(23.827344 246.633281)rotate(-90)scale(0.3 -0.3)">
      <defs>
       <path d="M 34.1875 63.1875 
L 20.796875 26.90625 
L 47.609375 26.90625 
z
M 28.609375 72.90625 
L 39.796875 72.90625 
L 67.578125 0 
L 57.328125 0 
L 50.6875 18.703125 
L 17.828125 18.703125 
L 11.1875 0 
L 0.78125 0 
z
" id="DejaVuSans-65"/>
       <path d="M 8.6875 72.90625 
L 18.609375 72.90625 
L 18.609375 28.609375 
Q 18.609375 16.890625 22.84375 11.734375 
Q 27.09375 6.59375 36.625 6.59375 
Q 46.09375 6.59375 50.34375 11.734375 
Q 54.59375 16.890625 54.59375 28.609375 
L 54.59375 72.90625 
L 64.5 72.90625 
L 64.5 27.390625 
Q 64.5 13.140625 57.4375 5.859375 
Q 50.390625 -1.421875 36.625 -1.421875 
Q 22.796875 -1.421875 15.734375 5.859375 
Q 8.6875 13.140625 8.6875 27.390625 
z
" id="DejaVuSans-85"/>
       <path d="M 64.40625 67.28125 
L 64.40625 56.890625 
Q 59.421875 61.53125 53.78125 63.8125 
Q 48.140625 66.109375 41.796875 66.109375 
Q 29.296875 66.109375 22.65625 58.46875 
Q 16.015625 50.828125 16.015625 36.375 
Q 16.015625 21.96875 22.65625 14.328125 
Q 29.296875 6.6875 41.796875 6.6875 
Q 48.140625 6.6875 53.78125 8.984375 
Q 59.421875 11.28125 64.40625 15.921875 
L 64.40625 5.609375 
Q 59.234375 2.09375 53.4375 0.328125 
Q 47.65625 -1.421875 41.21875 -1.421875 
Q 24.65625 -1.421875 15.125 8.703125 
Q 5.609375 18.84375 5.609375 36.375 
Q 5.609375 53.953125 15.125 64.078125 
Q 24.65625 74.21875 41.21875 74.21875 
Q 47.75 74.21875 53.53125 72.484375 
Q 59.328125 70.75 64.40625 67.28125 
z
" id="DejaVuSans-67"/>
      </defs>
      <use xlink:href="#DejaVuSans-65"/>
      <use x="68.408203" xlink:href="#DejaVuSans-85"/>
      <use x="141.601562" xlink:href="#DejaVuSans-67"/>
     </g>
    </g>
   </g>
   <g id="line2d_15">
    <path clip-path="url(#p19755a1148)" d="M 138.436364 342.043296 
L 142.017112 347.593907 
L 145.597861 338.171947 
L 149.17861 324.024301 
L 152.759358 328.650854 
L 156.340107 315.830347 
L 159.920856 330.567726 
L 163.501604 325.20841 
L 167.082353 326.6548 
L 170.663102 340.539596 
L 174.24385 350.173009 
L 177.824599 328.718681 
L 181.405348 325.252321 
L 184.986096 322.45967 
L 188.566845 328.009862 
L 192.147594 335.81788 
L 195.728342 324.353854 
L 199.309091 310.683758 
L 202.88984 319.012014 
L 206.470588 328.099766 
L 210.051337 319.766407 
L 213.632086 332.792071 
L 217.212834 303.902077 
L 220.793583 332.379296 
L 224.374332 318.667231 
L 227.95508 322.402931 
L 231.535829 308.584469 
L 235.116578 326.084859 
L 238.697326 294.815395 
L 242.278075 323.013895 
L 245.858824 322.405152 
L 249.439572 314.979299 
L 253.020321 303.702457 
L 256.60107 311.056534 
L 260.181818 319.365046 
L 263.762567 299.484162 
L 267.343316 290.568419 
L 270.924064 298.098089 
L 274.504813 289.725587 
L 278.085561 262.125714 
L 281.66631 264.52048 
L 285.247059 275.231371 
L 288.827807 282.804338 
L 292.408556 270.208507 
L 295.989305 304.522844 
L 299.570053 268.986402 
L 303.150802 260.92471 
L 306.731551 271.417821 
L 310.312299 234.548254 
L 313.893048 178.616589 
L 317.473797 126.463551 
L 321.054545 85.19091 
L 324.635294 91.829372 
L 328.216043 113.799286 
L 331.796791 134.18349 
L 335.37754 159.730461 
L 338.958289 193.163609 
L 342.539037 209.146446 
L 346.119786 217.158777 
L 349.700535 232.369982 
L 353.281283 221.919782 
L 356.862032 220.452801 
L 360.442781 221.088404 
L 364.023529 217.914182 
L 367.604278 219.865787 
L 371.185027 222.315455 
L 374.765775 244.282057 
L 378.346524 257.18137 
L 381.927273 254.037567 
L 385.508021 220.647394 
L 389.08877 237.581387 
L 392.669519 239.223158 
L 396.250267 251.39728 
L 399.831016 241.83489 
L 403.411765 245.453378 
L 406.992513 269.223457 
L 410.573262 279.74434 
L 414.154011 276.275106 
L 417.734759 296.029975 
L 421.315508 284.10443 
L 424.896257 275.208425 
L 428.477005 281.593124 
L 432.057754 281.395208 
L 435.638503 282.02284 
L 439.219251 299.27131 
L 442.8 292.750823 
L 446.380749 284.785895 
L 449.961497 278.663725 
L 453.542246 284.806882 
L 457.122995 295.923577 
L 460.703743 291.14728 
L 464.284492 267.366075 
L 467.865241 283.228718 
L 471.445989 295.155448 
L 475.026738 262.383955 
L 478.607487 290.502781 
L 482.188235 292.422627 
L 485.768984 295.429893 
L 489.349733 275.678788 
L 492.930481 311.626075 
L 496.51123 311.653929 
L 500.091979 300.7907 
L 503.672727 307.845798 
L 507.253476 301.20117 
L 510.834225 270.176945 
L 514.414973 273.709608 
L 517.995722 303.213546 
L 521.576471 287.019336 
L 525.157219 275.766784 
L 528.737968 283.120019 
L 535.899465 293.957958 
L 539.480214 269.40543 
L 543.060963 292.054355 
L 546.641711 298.098572 
L 550.22246 308.454172 
L 553.803209 285.840524 
L 557.383957 282.473482 
L 560.964706 299.16412 
L 564.545455 292.895839 
L 568.126203 285.434203 
L 571.706952 288.793151 
L 575.287701 316.102476 
L 578.868449 308.081532 
L 582.449198 304.075437 
L 586.029947 307.692584 
L 589.610695 303.615091 
L 593.191444 286.790461 
L 596.772193 284.290258 
L 600.352941 289.176092 
L 603.93369 312.559738 
L 607.514439 297.859131 
L 611.095187 304.582823 
L 614.675936 326.107868 
L 618.256684 315.209341 
L 621.837433 321.831973 
L 625.418182 304.918879 
L 628.99893 313.835179 
L 632.579679 312.895266 
L 636.160428 305.133621 
L 639.741176 316.216713 
L 643.321925 308.624864 
L 646.902674 297.604707 
L 650.483422 285.59548 
L 654.064171 286.579614 
L 657.64492 294.62261 
L 661.225668 321.295574 
L 664.806417 323.728175 
L 668.387166 294.832914 
L 671.967914 301.140774 
L 675.548663 316.75286 
L 679.129412 311.28243 
L 682.71016 301.057626 
L 686.290909 322.715819 
L 689.871658 302.463242 
L 693.452406 306.549826 
L 697.033155 306.104193 
L 700.613904 307.0025 
L 704.194652 292.020663 
L 707.775401 311.790442 
L 711.35615 318.674637 
L 714.936898 311.366974 
L 718.517647 308.202751 
L 722.098396 312.532876 
L 725.679144 326.377027 
L 729.259893 317.843231 
L 732.840642 313.672701 
L 736.42139 328.267199 
L 740.002139 315.749926 
L 743.582888 307.434718 
L 747.163636 295.857453 
L 747.163636 295.857453 
" style="fill:none;stroke:#4169e1;stroke-linecap:square;stroke-width:2.25;"/>
   </g>
   <g id="line2d_16">
    <path clip-path="url(#p19755a1148)" d="M 108 327.540211 
L 777.6 327.540211 
" style="fill:none;stroke:#808080;stroke-dasharray:8.325,3.6;stroke-dashoffset:0;stroke-width:2.25;"/>
   </g>
   <g id="line2d_17">
    <path clip-path="url(#p19755a1148)" d="M 281.66631 378 
L 281.66631 51.84 
" style="fill:none;stroke:#ff0000;stroke-dasharray:8.325,3.6;stroke-dashoffset:0;stroke-width:2.25;"/>
   </g>
   <g id="line2d_18">
    <path clip-path="url(#p19755a1148)" d="M 210.051337 378 
L 210.051337 51.84 
" style="fill:none;stroke:#000000;stroke-linecap:square;stroke-width:2.25;"/>
   </g>
   <g id="line2d_19">
    <path clip-path="url(#p19755a1148)" d="M 299.570053 268.986402 
L 303.150802 260.92471 
L 306.731551 271.417821 
L 310.312299 234.548254 
L 313.893048 178.616589 
L 317.473797 126.463551 
L 321.054545 85.19091 
L 324.635294 91.829372 
L 328.216043 113.799286 
L 331.796791 134.18349 
L 335.37754 159.730461 
L 338.958289 193.163609 
L 342.539037 209.146446 
L 346.119786 217.158777 
L 349.700535 232.369982 
L 353.281283 221.919782 
L 356.862032 220.452801 
L 360.442781 221.088404 
L 364.023529 217.914182 
L 367.604278 219.865787 
L 371.185027 222.315455 
L 374.765775 244.282057 
L 378.346524 257.18137 
L 381.927273 254.037567 
L 385.508021 220.647394 
L 389.08877 237.581387 
L 392.669519 239.223158 
L 396.250267 251.39728 
L 399.831016 241.83489 
L 403.411765 245.453378 
L 406.992513 269.223457 
L 410.573262 279.74434 
L 414.154011 276.275106 
M 442.8 292.750823 
L 446.380749 284.785895 
L 449.961497 278.663725 
L 453.542246 284.806882 
L 457.122995 295.923577 
L 460.703743 291.14728 
L 464.284492 267.366075 
L 467.865241 283.228718 
L 471.445989 295.155448 
L 475.026738 262.383955 
L 478.607487 290.502781 
L 482.188235 292.422627 
L 482.188235 292.422627 
" style="fill:none;stroke:#000000;stroke-linecap:square;stroke-width:3;"/>
   </g>
   <g id="patch_3">
    <path d="M 98 327.540211 
L 98 71.833781 
" style="fill:none;stroke:#000000;stroke-linecap:square;stroke-linejoin:miter;stroke-width:1.875;"/>
   </g>
   <g id="patch_4">
    <path d="M 138.436364 388 
L 711.35615 388 
" style="fill:none;stroke:#000000;stroke-linecap:square;stroke-linejoin:miter;stroke-width:1.875;"/>
   </g>
  </g>
 </g>
 <defs>
  <clipPath id="p19755a1148">
   <rect height="326.16" width="669.6" x="108" y="51.84"/>
  </clipPath>
 </defs>
</svg>
