<?xml version="1.0" encoding="utf-8" standalone="no"?>
<!DOCTYPE svg PUBLIC "-//W3C//DTD SVG 1.1//EN"
  "http://www.w3.org/Graphics/SVG/1.1/DTD/svg11.dtd">
<!-- Created with matplotlib (https://matplotlib.org/) -->
<svg height="432pt" version="1.1" viewBox="0 0 864 432" width="864pt" xmlns="http://www.w3.org/2000/svg" xmlns:xlink="http://www.w3.org/1999/xlink">
 <metadata>
  <rdf:RDF xmlns:cc="http://creativecommons.org/ns#" xmlns:dc="http://purl.org/dc/elements/1.1/" xmlns:rdf="http://www.w3.org/1999/02/22-rdf-syntax-ns#">
   <cc:Work>
    <dc:type rdf:resource="http://purl.org/dc/dcmitype/StillImage"/>
    <dc:date>2021-03-20T02:42:00.961528</dc:date>
    <dc:format>image/svg+xml</dc:format>
    <dc:creator>
     <cc:Agent>
      <dc:title>Matplotlib v3.3.4, https://matplotlib.org/</dc:title>
     </cc:Agent>
    </dc:creator>
   </cc:Work>
  </rdf:RDF>
 </metadata>
 <defs>
  <style type="text/css">*{stroke-linecap:butt;stroke-linejoin:round;}</style>
 </defs>
 <g id="figure_1">
  <g id="patch_1">
   <path d="M 0 432 
L 864 432 
L 864 0 
L 0 0 
z
" style="fill:none;"/>
  </g>
  <g id="axes_1">
   <g id="patch_2">
    <path d="M 108 378 
L 777.6 378 
L 777.6 51.84 
L 108 51.84 
z
" style="fill:#ffffff;"/>
   </g>
   <g id="PolyCollection_1">
    <defs>
     <path d="M 138.436364 -101.244202 
L 138.436364 -79.478524 
L 142.017112 -73.845839 
L 145.597861 -81.917983 
L 149.17861 -94.013671 
L 152.759358 -88.619657 
L 156.340107 -103.49941 
L 159.920856 -91.991377 
L 163.501604 -95.491956 
L 167.082353 -92.937975 
L 170.663102 -78.689334 
L 174.24385 -68.825455 
L 177.824599 -93.159262 
L 181.405348 -95.349382 
L 184.986096 -96.936488 
L 188.566845 -94.808889 
L 192.147594 -83.496767 
L 195.728342 -97.724591 
L 199.309091 -108.110154 
L 202.88984 -101.472103 
L 206.470588 -92.580119 
L 210.051337 -98.992593 
L 213.632086 -87.873444 
L 217.212834 -115.37836 
L 220.793583 -83.335002 
L 224.374332 -99.318232 
L 227.95508 -97.221159 
L 231.535829 -111.843648 
L 235.116578 -95.142889 
L 238.697326 -121.101395 
L 242.278075 -94.053783 
L 245.858824 -95.823525 
L 249.439572 -99.735454 
L 253.020321 -115.902673 
L 256.60107 -107.68617 
L 260.181818 -98.102088 
L 263.762567 -117.303173 
L 267.343316 -130.28881 
L 270.924064 -119.880157 
L 274.504813 -130.473695 
L 278.085561 -154.273921 
L 281.66631 -154.553328 
L 285.247059 -141.946103 
L 288.827807 -135.593517 
L 292.408556 -148.735281 
L 295.989305 -114.870917 
L 299.570053 -147.894552 
L 303.150802 -155.346679 
L 306.731551 -144.466015 
L 310.312299 -176.888811 
L 313.893048 -230.748006 
L 317.473797 -281.547218 
L 321.054545 -326.521122 
L 324.635294 -321.184501 
L 328.216043 -296.639755 
L 331.796791 -269.874659 
L 335.37754 -250.605612 
L 338.958289 -217.320409 
L 342.539037 -202.813478 
L 346.119786 -194.869944 
L 349.700535 -182.188774 
L 353.281283 -190.492813 
L 356.862032 -191.644209 
L 360.442781 -191.138328 
L 364.023529 -199.334742 
L 367.604278 -197.427306 
L 371.185027 -191.139349 
L 374.765775 -170.344137 
L 378.346524 -159.38256 
L 381.927273 -161.48007 
L 385.508021 -198.534261 
L 389.08877 -178.022315 
L 392.669519 -179.319023 
L 396.250267 -167.497693 
L 399.831016 -173.951046 
L 403.411765 -171.174702 
L 406.992513 -149.646214 
L 410.573262 -136.81567 
L 414.154011 -139.915203 
L 417.734759 -120.047538 
L 421.315508 -135.558099 
L 424.896257 -143.503188 
L 428.477005 -136.951874 
L 432.057754 -136.970048 
L 435.638503 -138.06674 
L 439.219251 -119.498608 
L 442.8 -125.576887 
L 446.380749 -133.92988 
L 449.961497 -140.434962 
L 453.542246 -133.066888 
L 457.122995 -122.447971 
L 460.703743 -127.471773 
L 464.284492 -153.439238 
L 467.865241 -135.467885 
L 471.445989 -122.981092 
L 475.026738 -153.497391 
L 478.607487 -131.658496 
L 482.188235 -127.812938 
L 485.768984 -121.21553 
L 489.349733 -140.488536 
L 492.930481 -104.054843 
L 496.51123 -106.521607 
L 500.091979 -118.744174 
L 503.672727 -108.965609 
L 507.253476 -116.681432 
L 510.834225 -148.087699 
L 514.414973 -147.461077 
L 517.995722 -116.810888 
L 521.576471 -131.64337 
L 525.157219 -143.785433 
L 528.737968 -132.394509 
L 532.318717 -126.589828 
L 535.899465 -126.835385 
L 539.480214 -149.298945 
L 543.060963 -125.435931 
L 546.641711 -120.833211 
L 550.22246 -112.547432 
L 553.803209 -135.621139 
L 557.383957 -134.385777 
L 560.964706 -119.730104 
L 564.545455 -124.434798 
L 568.126203 -131.463711 
L 571.706952 -129.394677 
L 575.287701 -101.555796 
L 578.868449 -111.504893 
L 582.449198 -115.471685 
L 586.029947 -108.857201 
L 589.610695 -115.645715 
L 593.191444 -135.991417 
L 596.772193 -137.89867 
L 600.352941 -129.874748 
L 603.93369 -107.002382 
L 607.514439 -120.57953 
L 611.095187 -114.506778 
L 614.675936 -94.317454 
L 618.256684 -101.465482 
L 621.837433 -96.629834 
L 625.418182 -114.928255 
L 628.99893 -105.887125 
L 632.579679 -105.78523 
L 636.160428 -113.79261 
L 639.741176 -103.806764 
L 643.321925 -113.940347 
L 646.902674 -122.434155 
L 650.483422 -135.882696 
L 654.064171 -134.518069 
L 657.64492 -125.028619 
L 661.225668 -98.895086 
L 664.806417 -91.743481 
L 668.387166 -124.109051 
L 671.967914 -119.526642 
L 675.548663 -105.30487 
L 679.129412 -108.64176 
L 682.71016 -115.429702 
L 686.290909 -93.02844 
L 689.871658 -117.789348 
L 693.452406 -113.981481 
L 697.033155 -113.611931 
L 700.613904 -116.016433 
L 704.194652 -124.965672 
L 707.775401 -108.091338 
L 711.35615 -98.6238 
L 714.936898 -105.453276 
L 718.517647 -109.361495 
L 722.098396 -104.319625 
L 725.679144 -92.795914 
L 729.259893 -98.527722 
L 732.840642 -106.797444 
L 736.42139 -91.83589 
L 740.002139 -104.827574 
L 743.582888 -112.458956 
L 747.163636 -124.639988 
L 747.163636 -148.900316 
L 747.163636 -148.900316 
L 743.582888 -136.13609 
L 740.002139 -128.373542 
L 736.42139 -116.332392 
L 732.840642 -129.097852 
L 729.259893 -129.60805 
L 725.679144 -119.769251 
L 722.098396 -134.839544 
L 718.517647 -136.997632 
L 714.936898 -134.129727 
L 711.35615 -127.457701 
L 707.775401 -131.990176 
L 704.194652 -155.18731 
L 700.613904 -134.647142 
L 697.033155 -139.515993 
L 693.452406 -136.737575 
L 689.871658 -139.621546 
L 686.290909 -126.031704 
L 682.71016 -145.614944 
L 679.129412 -133.697064 
L 675.548663 -125.281702 
L 671.967914 -141.967522 
L 668.387166 -148.95687 
L 664.806417 -125.637638 
L 661.225668 -123.393623 
L 657.64492 -150.234925 
L 654.064171 -156.385001 
L 650.483422 -156.887707 
L 646.902674 -145.409195 
L 643.321925 -133.65544 
L 639.741176 -127.970237 
L 636.160428 -140.851546 
L 632.579679 -131.997122 
L 628.99893 -130.63505 
L 625.418182 -138.987029 
L 621.837433 -123.044312 
L 618.256684 -132.705902 
L 614.675936 -118.213381 
L 611.095187 -141.786144 
L 607.514439 -147.086701 
L 603.93369 -131.237536 
L 600.352941 -154.529965 
L 596.772193 -156.768555 
L 593.191444 -154.723867 
L 589.610695 -141.083328 
L 586.029947 -138.429249 
L 582.449198 -139.707917 
L 578.868449 -136.745062 
L 575.287701 -130.489155 
L 571.706952 -159.329779 
L 568.126203 -160.293011 
L 564.545455 -152.695832 
L 560.964706 -147.564122 
L 557.383957 -162.329095 
L 553.803209 -156.6202 
L 550.22246 -135.746126 
L 546.641711 -147.121342 
L 543.060963 -153.479303 
L 539.480214 -174.822544 
L 535.899465 -149.809302 
L 532.318717 -161.196562 
L 528.737968 -162.925324 
L 525.157219 -166.910558 
L 521.576471 -158.431627 
L 517.995722 -142.665703 
L 514.414973 -168.143833 
L 510.834225 -174.225023 
L 507.253476 -145.017346 
L 503.672727 -139.786523 
L 500.091979 -144.992889 
L 496.51123 -133.494903 
L 492.930481 -137.679123 
L 489.349733 -172.471805 
L 485.768984 -150.475656 
L 482.188235 -150.71994 
L 478.607487 -150.889208 
L 475.026738 -184.47189 
L 471.445989 -151.272931 
L 467.865241 -163.017398 
L 464.284492 -175.919654 
L 460.703743 -152.868589 
L 457.122995 -148.817188 
L 453.542246 -161.05964 
L 449.961497 -165.081541 
L 446.380749 -161.509178 
L 442.8 -151.93451 
L 439.219251 -146.763063 
L 435.638503 -162.406529 
L 432.057754 -163.861722 
L 428.477005 -163.089103 
L 424.896257 -169.578478 
L 421.315508 -160.049063 
L 417.734759 -151.240677 
L 414.154011 -171.37392 
L 410.573262 -167.26181 
L 406.992513 -176.206062 
L 403.411765 -200.791169 
L 399.831016 -205.71859 
L 396.250267 -194.018782 
L 392.669519 -204.063297 
L 389.08877 -209.81181 
L 385.508021 -222.494961 
L 381.927273 -194.287909 
L 378.346524 -189.686796 
L 374.765775 -204.686344 
L 371.185027 -227.491092 
L 367.604278 -225.449489 
L 364.023529 -227.418335 
L 360.442781 -228.992504 
L 356.862032 -229.545393 
L 353.281283 -228.243283 
L 349.700535 -218.173129 
L 346.119786 -232.365325 
L 342.539037 -240.971406 
L 338.958289 -258.662125 
L 335.37754 -294.679882 
L 331.796791 -320.562444 
L 328.216043 -337.872372 
L 324.635294 -358.394983 
L 321.054545 -365.334545 
L 317.473797 -326.460069 
L 313.893048 -277.346577 
L 310.312299 -215.586117 
L 306.731551 -176.306556 
L 303.150802 -185.570268 
L 299.570053 -177.248188 
L 295.989305 -140.777852 
L 292.408556 -174.175342 
L 288.827807 -161.750135 
L 285.247059 -170.576257 
L 281.66631 -178.148354 
L 278.085561 -183.280655 
L 274.504813 -155.33633 
L 270.924064 -148.476608 
L 267.343316 -150.512233 
L 263.762567 -146.740425 
L 260.181818 -127.981294 
L 256.60107 -134.893397 
L 253.020321 -140.634553 
L 249.439572 -133.338989 
L 245.858824 -123.20049 
L 242.278075 -123.521083 
L 238.697326 -153.775234 
L 235.116578 -115.025502 
L 231.535829 -134.709644 
L 227.95508 -121.51361 
L 224.374332 -126.042126 
L 220.793583 -113.944904 
L 217.212834 -140.432425 
L 213.632086 -110.201513 
L 210.051337 -125.711495 
L 206.470588 -114.436479 
L 202.88984 -124.267733 
L 199.309091 -134.677031 
L 195.728342 -118.090045 
L 192.147594 -109.500281 
L 188.566845 -115.122232 
L 184.986096 -123.214573 
L 181.405348 -117.736468 
L 177.824599 -113.373852 
L 174.24385 -94.783495 
L 170.663102 -102.834245 
L 167.082353 -118.414792 
L 163.501604 -118.503728 
L 159.920856 -110.54606 
L 156.340107 -127.77371 
L 152.759358 -117.006056 
L 149.17861 -121.403245 
L 145.597861 -104.860466 
L 142.017112 -96.30018 
L 138.436364 -101.244202 
z
" id="mf75583fa07" style="stroke:#4169e1;stroke-opacity:0.2;stroke-width:1.5;"/>
    </defs>
    <g clip-path="url(#p022d08878a)">
     <use style="fill:#4169e1;fill-opacity:0.2;stroke:#4169e1;stroke-opacity:0.2;stroke-width:1.5;" x="0" xlink:href="#mf75583fa07" y="432"/>
    </g>
   </g>
   <g id="PolyCollection_2">
    <defs>
     <path d="M 138.436364 -90.051966 
L 138.436364 -104.476952 
L 138.436364 -90.051966 
L 138.436364 -90.051966 
z
" id="m8375c6adda" style="stroke:#0000ff;stroke-opacity:0.2;stroke-width:1.5;"/>
    </defs>
    <g clip-path="url(#p022d08878a)">
     <use style="fill:#0000ff;fill-opacity:0.2;stroke:#0000ff;stroke-opacity:0.2;stroke-width:1.5;" x="0" xlink:href="#m8375c6adda" y="432"/>
    </g>
   </g>
   <g id="matplotlib.axis_1">
    <g id="xtick_1">
     <g id="line2d_1">
      <defs>
       <path d="M 0 0 
L 0 9 
" id="m8e32ab5ea8" style="stroke:#000000;stroke-width:1.875;"/>
      </defs>
      <g>
       <use style="stroke:#000000;stroke-width:1.875;" x="138.436364" xlink:href="#m8e32ab5ea8" y="388"/>
      </g>
     </g>
     <g id="text_1">
      <!-- −0.2 -->
      <g transform="translate(118.403043 413.037422)scale(0.165 -0.165)">
       <defs>
        <path d="M 10.59375 35.5 
L 73.1875 35.5 
L 73.1875 27.203125 
L 10.59375 27.203125 
z
" id="DejaVuSans-8722"/>
        <path d="M 31.78125 66.40625 
Q 24.171875 66.40625 20.328125 58.90625 
Q 16.5 51.421875 16.5 36.375 
Q 16.5 21.390625 20.328125 13.890625 
Q 24.171875 6.390625 31.78125 6.390625 
Q 39.453125 6.390625 43.28125 13.890625 
Q 47.125 21.390625 47.125 36.375 
Q 47.125 51.421875 43.28125 58.90625 
Q 39.453125 66.40625 31.78125 66.40625 
z
M 31.78125 74.21875 
Q 44.046875 74.21875 50.515625 64.515625 
Q 56.984375 54.828125 56.984375 36.375 
Q 56.984375 17.96875 50.515625 8.265625 
Q 44.046875 -1.421875 31.78125 -1.421875 
Q 19.53125 -1.421875 13.0625 8.265625 
Q 6.59375 17.96875 6.59375 36.375 
Q 6.59375 54.828125 13.0625 64.515625 
Q 19.53125 74.21875 31.78125 74.21875 
z
" id="DejaVuSans-48"/>
        <path d="M 10.6875 12.40625 
L 21 12.40625 
L 21 0 
L 10.6875 0 
z
" id="DejaVuSans-46"/>
        <path d="M 19.1875 8.296875 
L 53.609375 8.296875 
L 53.609375 0 
L 7.328125 0 
L 7.328125 8.296875 
Q 12.9375 14.109375 22.625 23.890625 
Q 32.328125 33.6875 34.8125 36.53125 
Q 39.546875 41.84375 41.421875 45.53125 
Q 43.3125 49.21875 43.3125 52.78125 
Q 43.3125 58.59375 39.234375 62.25 
Q 35.15625 65.921875 28.609375 65.921875 
Q 23.96875 65.921875 18.8125 64.3125 
Q 13.671875 62.703125 7.8125 59.421875 
L 7.8125 69.390625 
Q 13.765625 71.78125 18.9375 73 
Q 24.125 74.21875 28.421875 74.21875 
Q 39.75 74.21875 46.484375 68.546875 
Q 53.21875 62.890625 53.21875 53.421875 
Q 53.21875 48.921875 51.53125 44.890625 
Q 49.859375 40.875 45.40625 35.40625 
Q 44.1875 33.984375 37.640625 27.21875 
Q 31.109375 20.453125 19.1875 8.296875 
z
" id="DejaVuSans-50"/>
       </defs>
       <use xlink:href="#DejaVuSans-8722"/>
       <use x="83.789062" xlink:href="#DejaVuSans-48"/>
       <use x="147.412109" xlink:href="#DejaVuSans-46"/>
       <use x="179.199219" xlink:href="#DejaVuSans-50"/>
      </g>
     </g>
    </g>
    <g id="xtick_2">
     <g id="line2d_2">
      <g>
       <use style="stroke:#000000;stroke-width:1.875;" x="210.051337" xlink:href="#m8e32ab5ea8" y="388"/>
      </g>
     </g>
     <g id="text_2">
      <!-- 0.0 -->
      <g transform="translate(196.931259 413.037422)scale(0.165 -0.165)">
       <use xlink:href="#DejaVuSans-48"/>
       <use x="63.623047" xlink:href="#DejaVuSans-46"/>
       <use x="95.410156" xlink:href="#DejaVuSans-48"/>
      </g>
     </g>
    </g>
    <g id="xtick_3">
     <g id="line2d_3">
      <g>
       <use style="stroke:#000000;stroke-width:1.875;" x="281.66631" xlink:href="#m8e32ab5ea8" y="388"/>
      </g>
     </g>
     <g id="text_3">
      <!-- 0.2 -->
      <g transform="translate(268.546232 413.037422)scale(0.165 -0.165)">
       <use xlink:href="#DejaVuSans-48"/>
       <use x="63.623047" xlink:href="#DejaVuSans-46"/>
       <use x="95.410156" xlink:href="#DejaVuSans-50"/>
      </g>
     </g>
    </g>
    <g id="xtick_4">
     <g id="line2d_4">
      <g>
       <use style="stroke:#000000;stroke-width:1.875;" x="353.281283" xlink:href="#m8e32ab5ea8" y="388"/>
      </g>
     </g>
     <g id="text_4">
      <!-- 0.4 -->
      <g transform="translate(340.161205 413.037422)scale(0.165 -0.165)">
       <defs>
        <path d="M 37.796875 64.3125 
L 12.890625 25.390625 
L 37.796875 25.390625 
z
M 35.203125 72.90625 
L 47.609375 72.90625 
L 47.609375 25.390625 
L 58.015625 25.390625 
L 58.015625 17.1875 
L 47.609375 17.1875 
L 47.609375 0 
L 37.796875 0 
L 37.796875 17.1875 
L 4.890625 17.1875 
L 4.890625 26.703125 
z
" id="DejaVuSans-52"/>
       </defs>
       <use xlink:href="#DejaVuSans-48"/>
       <use x="63.623047" xlink:href="#DejaVuSans-46"/>
       <use x="95.410156" xlink:href="#DejaVuSans-52"/>
      </g>
     </g>
    </g>
    <g id="xtick_5">
     <g id="line2d_5">
      <g>
       <use style="stroke:#000000;stroke-width:1.875;" x="424.896257" xlink:href="#m8e32ab5ea8" y="388"/>
      </g>
     </g>
     <g id="text_5">
      <!-- 0.6 -->
      <g transform="translate(411.776179 413.037422)scale(0.165 -0.165)">
       <defs>
        <path d="M 33.015625 40.375 
Q 26.375 40.375 22.484375 35.828125 
Q 18.609375 31.296875 18.609375 23.390625 
Q 18.609375 15.53125 22.484375 10.953125 
Q 26.375 6.390625 33.015625 6.390625 
Q 39.65625 6.390625 43.53125 10.953125 
Q 47.40625 15.53125 47.40625 23.390625 
Q 47.40625 31.296875 43.53125 35.828125 
Q 39.65625 40.375 33.015625 40.375 
z
M 52.59375 71.296875 
L 52.59375 62.3125 
Q 48.875 64.0625 45.09375 64.984375 
Q 41.3125 65.921875 37.59375 65.921875 
Q 27.828125 65.921875 22.671875 59.328125 
Q 17.53125 52.734375 16.796875 39.40625 
Q 19.671875 43.65625 24.015625 45.921875 
Q 28.375 48.1875 33.59375 48.1875 
Q 44.578125 48.1875 50.953125 41.515625 
Q 57.328125 34.859375 57.328125 23.390625 
Q 57.328125 12.15625 50.6875 5.359375 
Q 44.046875 -1.421875 33.015625 -1.421875 
Q 20.359375 -1.421875 13.671875 8.265625 
Q 6.984375 17.96875 6.984375 36.375 
Q 6.984375 53.65625 15.1875 63.9375 
Q 23.390625 74.21875 37.203125 74.21875 
Q 40.921875 74.21875 44.703125 73.484375 
Q 48.484375 72.75 52.59375 71.296875 
z
" id="DejaVuSans-54"/>
       </defs>
       <use xlink:href="#DejaVuSans-48"/>
       <use x="63.623047" xlink:href="#DejaVuSans-46"/>
       <use x="95.410156" xlink:href="#DejaVuSans-54"/>
      </g>
     </g>
    </g>
    <g id="xtick_6">
     <g id="line2d_6">
      <g>
       <use style="stroke:#000000;stroke-width:1.875;" x="496.51123" xlink:href="#m8e32ab5ea8" y="388"/>
      </g>
     </g>
     <g id="text_6">
      <!-- 0.8 -->
      <g transform="translate(483.391152 413.037422)scale(0.165 -0.165)">
       <defs>
        <path d="M 31.78125 34.625 
Q 24.75 34.625 20.71875 30.859375 
Q 16.703125 27.09375 16.703125 20.515625 
Q 16.703125 13.921875 20.71875 10.15625 
Q 24.75 6.390625 31.78125 6.390625 
Q 38.8125 6.390625 42.859375 10.171875 
Q 46.921875 13.96875 46.921875 20.515625 
Q 46.921875 27.09375 42.890625 30.859375 
Q 38.875 34.625 31.78125 34.625 
z
M 21.921875 38.8125 
Q 15.578125 40.375 12.03125 44.71875 
Q 8.5 49.078125 8.5 55.328125 
Q 8.5 64.0625 14.71875 69.140625 
Q 20.953125 74.21875 31.78125 74.21875 
Q 42.671875 74.21875 48.875 69.140625 
Q 55.078125 64.0625 55.078125 55.328125 
Q 55.078125 49.078125 51.53125 44.71875 
Q 48 40.375 41.703125 38.8125 
Q 48.828125 37.15625 52.796875 32.3125 
Q 56.78125 27.484375 56.78125 20.515625 
Q 56.78125 9.90625 50.3125 4.234375 
Q 43.84375 -1.421875 31.78125 -1.421875 
Q 19.734375 -1.421875 13.25 4.234375 
Q 6.78125 9.90625 6.78125 20.515625 
Q 6.78125 27.484375 10.78125 32.3125 
Q 14.796875 37.15625 21.921875 38.8125 
z
M 18.3125 54.390625 
Q 18.3125 48.734375 21.84375 45.5625 
Q 25.390625 42.390625 31.78125 42.390625 
Q 38.140625 42.390625 41.71875 45.5625 
Q 45.3125 48.734375 45.3125 54.390625 
Q 45.3125 60.0625 41.71875 63.234375 
Q 38.140625 66.40625 31.78125 66.40625 
Q 25.390625 66.40625 21.84375 63.234375 
Q 18.3125 60.0625 18.3125 54.390625 
z
" id="DejaVuSans-56"/>
       </defs>
       <use xlink:href="#DejaVuSans-48"/>
       <use x="63.623047" xlink:href="#DejaVuSans-46"/>
       <use x="95.410156" xlink:href="#DejaVuSans-56"/>
      </g>
     </g>
    </g>
    <g id="xtick_7">
     <g id="line2d_7">
      <g>
       <use style="stroke:#000000;stroke-width:1.875;" x="568.126203" xlink:href="#m8e32ab5ea8" y="388"/>
      </g>
     </g>
     <g id="text_7">
      <!-- 1.0 -->
      <g transform="translate(555.006125 413.037422)scale(0.165 -0.165)">
       <defs>
        <path d="M 12.40625 8.296875 
L 28.515625 8.296875 
L 28.515625 63.921875 
L 10.984375 60.40625 
L 10.984375 69.390625 
L 28.421875 72.90625 
L 38.28125 72.90625 
L 38.28125 8.296875 
L 54.390625 8.296875 
L 54.390625 0 
L 12.40625 0 
z
" id="DejaVuSans-49"/>
       </defs>
       <use xlink:href="#DejaVuSans-49"/>
       <use x="63.623047" xlink:href="#DejaVuSans-46"/>
       <use x="95.410156" xlink:href="#DejaVuSans-48"/>
      </g>
     </g>
    </g>
    <g id="xtick_8">
     <g id="line2d_8">
      <g>
       <use style="stroke:#000000;stroke-width:1.875;" x="639.741176" xlink:href="#m8e32ab5ea8" y="388"/>
      </g>
     </g>
     <g id="text_8">
      <!-- 1.2 -->
      <g transform="translate(626.621098 413.037422)scale(0.165 -0.165)">
       <use xlink:href="#DejaVuSans-49"/>
       <use x="63.623047" xlink:href="#DejaVuSans-46"/>
       <use x="95.410156" xlink:href="#DejaVuSans-50"/>
      </g>
     </g>
    </g>
    <g id="xtick_9">
     <g id="line2d_9">
      <g>
       <use style="stroke:#000000;stroke-width:1.875;" x="711.35615" xlink:href="#m8e32ab5ea8" y="388"/>
      </g>
     </g>
     <g id="text_9">
      <!-- 1.4 -->
      <g transform="translate(698.236072 413.037422)scale(0.165 -0.165)">
       <use xlink:href="#DejaVuSans-49"/>
       <use x="63.623047" xlink:href="#DejaVuSans-46"/>
       <use x="95.410156" xlink:href="#DejaVuSans-52"/>
      </g>
     </g>
    </g>
    <g id="text_10">
     <!-- Time (s) -->
     <g transform="translate(381.813281 443.264219)scale(0.3 -0.3)">
      <defs>
       <path d="M -0.296875 72.90625 
L 61.375 72.90625 
L 61.375 64.59375 
L 35.5 64.59375 
L 35.5 0 
L 25.59375 0 
L 25.59375 64.59375 
L -0.296875 64.59375 
z
" id="DejaVuSans-84"/>
       <path d="M 9.421875 54.6875 
L 18.40625 54.6875 
L 18.40625 0 
L 9.421875 0 
z
M 9.421875 75.984375 
L 18.40625 75.984375 
L 18.40625 64.59375 
L 9.421875 64.59375 
z
" id="DejaVuSans-105"/>
       <path d="M 52 44.1875 
Q 55.375 50.25 60.0625 53.125 
Q 64.75 56 71.09375 56 
Q 79.640625 56 84.28125 50.015625 
Q 88.921875 44.046875 88.921875 33.015625 
L 88.921875 0 
L 79.890625 0 
L 79.890625 32.71875 
Q 79.890625 40.578125 77.09375 44.375 
Q 74.3125 48.1875 68.609375 48.1875 
Q 61.625 48.1875 57.5625 43.546875 
Q 53.515625 38.921875 53.515625 30.90625 
L 53.515625 0 
L 44.484375 0 
L 44.484375 32.71875 
Q 44.484375 40.625 41.703125 44.40625 
Q 38.921875 48.1875 33.109375 48.1875 
Q 26.21875 48.1875 22.15625 43.53125 
Q 18.109375 38.875 18.109375 30.90625 
L 18.109375 0 
L 9.078125 0 
L 9.078125 54.6875 
L 18.109375 54.6875 
L 18.109375 46.1875 
Q 21.1875 51.21875 25.484375 53.609375 
Q 29.78125 56 35.6875 56 
Q 41.65625 56 45.828125 52.96875 
Q 50 49.953125 52 44.1875 
z
" id="DejaVuSans-109"/>
       <path d="M 56.203125 29.59375 
L 56.203125 25.203125 
L 14.890625 25.203125 
Q 15.484375 15.921875 20.484375 11.0625 
Q 25.484375 6.203125 34.421875 6.203125 
Q 39.59375 6.203125 44.453125 7.46875 
Q 49.3125 8.734375 54.109375 11.28125 
L 54.109375 2.78125 
Q 49.265625 0.734375 44.1875 -0.34375 
Q 39.109375 -1.421875 33.890625 -1.421875 
Q 20.796875 -1.421875 13.15625 6.1875 
Q 5.515625 13.8125 5.515625 26.8125 
Q 5.515625 40.234375 12.765625 48.109375 
Q 20.015625 56 32.328125 56 
Q 43.359375 56 49.78125 48.890625 
Q 56.203125 41.796875 56.203125 29.59375 
z
M 47.21875 32.234375 
Q 47.125 39.59375 43.09375 43.984375 
Q 39.0625 48.390625 32.421875 48.390625 
Q 24.90625 48.390625 20.390625 44.140625 
Q 15.875 39.890625 15.1875 32.171875 
z
" id="DejaVuSans-101"/>
       <path id="DejaVuSans-32"/>
       <path d="M 31 75.875 
Q 24.46875 64.65625 21.28125 53.65625 
Q 18.109375 42.671875 18.109375 31.390625 
Q 18.109375 20.125 21.3125 9.0625 
Q 24.515625 -2 31 -13.1875 
L 23.1875 -13.1875 
Q 15.875 -1.703125 12.234375 9.375 
Q 8.59375 20.453125 8.59375 31.390625 
Q 8.59375 42.28125 12.203125 53.3125 
Q 15.828125 64.359375 23.1875 75.875 
z
" id="DejaVuSans-40"/>
       <path d="M 44.28125 53.078125 
L 44.28125 44.578125 
Q 40.484375 46.53125 36.375 47.5 
Q 32.28125 48.484375 27.875 48.484375 
Q 21.1875 48.484375 17.84375 46.4375 
Q 14.5 44.390625 14.5 40.28125 
Q 14.5 37.15625 16.890625 35.375 
Q 19.28125 33.59375 26.515625 31.984375 
L 29.59375 31.296875 
Q 39.15625 29.25 43.1875 25.515625 
Q 47.21875 21.78125 47.21875 15.09375 
Q 47.21875 7.46875 41.1875 3.015625 
Q 35.15625 -1.421875 24.609375 -1.421875 
Q 20.21875 -1.421875 15.453125 -0.5625 
Q 10.6875 0.296875 5.421875 2 
L 5.421875 11.28125 
Q 10.40625 8.6875 15.234375 7.390625 
Q 20.0625 6.109375 24.8125 6.109375 
Q 31.15625 6.109375 34.5625 8.28125 
Q 37.984375 10.453125 37.984375 14.40625 
Q 37.984375 18.0625 35.515625 20.015625 
Q 33.0625 21.96875 24.703125 23.78125 
L 21.578125 24.515625 
Q 13.234375 26.265625 9.515625 29.90625 
Q 5.8125 33.546875 5.8125 39.890625 
Q 5.8125 47.609375 11.28125 51.796875 
Q 16.75 56 26.8125 56 
Q 31.78125 56 36.171875 55.265625 
Q 40.578125 54.546875 44.28125 53.078125 
z
" id="DejaVuSans-115"/>
       <path d="M 8.015625 75.875 
L 15.828125 75.875 
Q 23.140625 64.359375 26.78125 53.3125 
Q 30.421875 42.28125 30.421875 31.390625 
Q 30.421875 20.453125 26.78125 9.375 
Q 23.140625 -1.703125 15.828125 -13.1875 
L 8.015625 -13.1875 
Q 14.5 -2 17.703125 9.0625 
Q 20.90625 20.125 20.90625 31.390625 
Q 20.90625 42.671875 17.703125 53.65625 
Q 14.5 64.65625 8.015625 75.875 
z
" id="DejaVuSans-41"/>
      </defs>
      <use xlink:href="#DejaVuSans-84"/>
      <use x="57.958984" xlink:href="#DejaVuSans-105"/>
      <use x="85.742188" xlink:href="#DejaVuSans-109"/>
      <use x="183.154297" xlink:href="#DejaVuSans-101"/>
      <use x="244.677734" xlink:href="#DejaVuSans-32"/>
      <use x="276.464844" xlink:href="#DejaVuSans-40"/>
      <use x="315.478516" xlink:href="#DejaVuSans-115"/>
      <use x="367.578125" xlink:href="#DejaVuSans-41"/>
     </g>
    </g>
   </g>
   <g id="matplotlib.axis_2">
    <g id="ytick_1">
     <g id="line2d_10">
      <defs>
       <path d="M 0 0 
L -9 0 
" id="m7001efd837" style="stroke:#000000;stroke-width:1.875;"/>
      </defs>
      <g>
       <use style="stroke:#000000;stroke-width:1.875;" x="98" xlink:href="#m7001efd837" y="327.523048"/>
      </g>
     </g>
     <g id="text_11">
      <!-- 0.50 -->
      <g transform="translate(48.761719 333.791759)scale(0.165 -0.165)">
       <defs>
        <path d="M 10.796875 72.90625 
L 49.515625 72.90625 
L 49.515625 64.59375 
L 19.828125 64.59375 
L 19.828125 46.734375 
Q 21.96875 47.46875 24.109375 47.828125 
Q 26.265625 48.1875 28.421875 48.1875 
Q 40.625 48.1875 47.75 41.5 
Q 54.890625 34.8125 54.890625 23.390625 
Q 54.890625 11.625 47.5625 5.09375 
Q 40.234375 -1.421875 26.90625 -1.421875 
Q 22.3125 -1.421875 17.546875 -0.640625 
Q 12.796875 0.140625 7.71875 1.703125 
L 7.71875 11.625 
Q 12.109375 9.234375 16.796875 8.0625 
Q 21.484375 6.890625 26.703125 6.890625 
Q 35.15625 6.890625 40.078125 11.328125 
Q 45.015625 15.765625 45.015625 23.390625 
Q 45.015625 31 40.078125 35.4375 
Q 35.15625 39.890625 26.703125 39.890625 
Q 22.75 39.890625 18.8125 39.015625 
Q 14.890625 38.140625 10.796875 36.28125 
z
" id="DejaVuSans-53"/>
       </defs>
       <use xlink:href="#DejaVuSans-48"/>
       <use x="63.623047" xlink:href="#DejaVuSans-46"/>
       <use x="95.410156" xlink:href="#DejaVuSans-53"/>
       <use x="159.033203" xlink:href="#DejaVuSans-48"/>
      </g>
     </g>
    </g>
    <g id="ytick_2">
     <g id="line2d_11">
      <g>
       <use style="stroke:#000000;stroke-width:1.875;" x="98" xlink:href="#m7001efd837" y="263.940682"/>
      </g>
     </g>
     <g id="text_12">
      <!-- 0.55 -->
      <g transform="translate(48.761719 270.209393)scale(0.165 -0.165)">
       <use xlink:href="#DejaVuSans-48"/>
       <use x="63.623047" xlink:href="#DejaVuSans-46"/>
       <use x="95.410156" xlink:href="#DejaVuSans-53"/>
       <use x="159.033203" xlink:href="#DejaVuSans-53"/>
      </g>
     </g>
    </g>
    <g id="ytick_3">
     <g id="line2d_12">
      <g>
       <use style="stroke:#000000;stroke-width:1.875;" x="98" xlink:href="#m7001efd837" y="200.358315"/>
      </g>
     </g>
     <g id="text_13">
      <!-- 0.60 -->
      <g transform="translate(48.761719 206.627026)scale(0.165 -0.165)">
       <use xlink:href="#DejaVuSans-48"/>
       <use x="63.623047" xlink:href="#DejaVuSans-46"/>
       <use x="95.410156" xlink:href="#DejaVuSans-54"/>
       <use x="159.033203" xlink:href="#DejaVuSans-48"/>
      </g>
     </g>
    </g>
    <g id="ytick_4">
     <g id="line2d_13">
      <g>
       <use style="stroke:#000000;stroke-width:1.875;" x="98" xlink:href="#m7001efd837" y="136.775949"/>
      </g>
     </g>
     <g id="text_14">
      <!-- 0.65 -->
      <g transform="translate(48.761719 143.04466)scale(0.165 -0.165)">
       <use xlink:href="#DejaVuSans-48"/>
       <use x="63.623047" xlink:href="#DejaVuSans-46"/>
       <use x="95.410156" xlink:href="#DejaVuSans-54"/>
       <use x="159.033203" xlink:href="#DejaVuSans-53"/>
      </g>
     </g>
    </g>
    <g id="ytick_5">
     <g id="line2d_14">
      <g>
       <use style="stroke:#000000;stroke-width:1.875;" x="98" xlink:href="#m7001efd837" y="73.193583"/>
      </g>
     </g>
     <g id="text_15">
      <!-- 0.70 -->
      <g transform="translate(48.761719 79.462294)scale(0.165 -0.165)">
       <defs>
        <path d="M 8.203125 72.90625 
L 55.078125 72.90625 
L 55.078125 68.703125 
L 28.609375 0 
L 18.3125 0 
L 43.21875 64.59375 
L 8.203125 64.59375 
z
" id="DejaVuSans-55"/>
       </defs>
       <use xlink:href="#DejaVuSans-48"/>
       <use x="63.623047" xlink:href="#DejaVuSans-46"/>
       <use x="95.410156" xlink:href="#DejaVuSans-55"/>
       <use x="159.033203" xlink:href="#DejaVuSans-48"/>
      </g>
     </g>
    </g>
    <g id="text_16">
     <!-- AUC -->
     <g transform="translate(38.522656 246.633281)rotate(-90)scale(0.3 -0.3)">
      <defs>
       <path d="M 34.1875 63.1875 
L 20.796875 26.90625 
L 47.609375 26.90625 
z
M 28.609375 72.90625 
L 39.796875 72.90625 
L 67.578125 0 
L 57.328125 0 
L 50.6875 18.703125 
L 17.828125 18.703125 
L 11.1875 0 
L 0.78125 0 
z
" id="DejaVuSans-65"/>
       <path d="M 8.6875 72.90625 
L 18.609375 72.90625 
L 18.609375 28.609375 
Q 18.609375 16.890625 22.84375 11.734375 
Q 27.09375 6.59375 36.625 6.59375 
Q 46.09375 6.59375 50.34375 11.734375 
Q 54.59375 16.890625 54.59375 28.609375 
L 54.59375 72.90625 
L 64.5 72.90625 
L 64.5 27.390625 
Q 64.5 13.140625 57.4375 5.859375 
Q 50.390625 -1.421875 36.625 -1.421875 
Q 22.796875 -1.421875 15.734375 5.859375 
Q 8.6875 13.140625 8.6875 27.390625 
z
" id="DejaVuSans-85"/>
       <path d="M 64.40625 67.28125 
L 64.40625 56.890625 
Q 59.421875 61.53125 53.78125 63.8125 
Q 48.140625 66.109375 41.796875 66.109375 
Q 29.296875 66.109375 22.65625 58.46875 
Q 16.015625 50.828125 16.015625 36.375 
Q 16.015625 21.96875 22.65625 14.328125 
Q 29.296875 6.6875 41.796875 6.6875 
Q 48.140625 6.6875 53.78125 8.984375 
Q 59.421875 11.28125 64.40625 15.921875 
L 64.40625 5.609375 
Q 59.234375 2.09375 53.4375 0.328125 
Q 47.65625 -1.421875 41.21875 -1.421875 
Q 24.65625 -1.421875 15.125 8.703125 
Q 5.609375 18.84375 5.609375 36.375 
Q 5.609375 53.953125 15.125 64.078125 
Q 24.65625 74.21875 41.21875 74.21875 
Q 47.75 74.21875 53.53125 72.484375 
Q 59.328125 70.75 64.40625 67.28125 
z
" id="DejaVuSans-67"/>
      </defs>
      <use xlink:href="#DejaVuSans-65"/>
      <use x="68.408203" xlink:href="#DejaVuSans-85"/>
      <use x="141.601562" xlink:href="#DejaVuSans-67"/>
     </g>
    </g>
   </g>
   <g id="line2d_15">
    <path clip-path="url(#p022d08878a)" d="M 138.436364 341.948034 
L 142.017112 347.468756 
L 145.597861 338.097533 
L 149.17861 324.026071 
L 152.759358 328.62771 
L 156.340107 315.876241 
L 159.920856 330.53426 
L 163.501604 325.203803 
L 167.082353 326.642405 
L 170.663102 340.452432 
L 174.24385 350.033969 
L 177.824599 328.695172 
L 181.405348 325.247478 
L 184.986096 322.469865 
L 188.566845 327.99017 
L 192.147594 335.756142 
L 195.728342 324.353849 
L 199.309091 310.757366 
L 202.88984 319.040775 
L 206.470588 328.079589 
L 210.051337 319.791105 
L 213.632086 332.746626 
L 217.212834 304.012204 
L 220.793583 332.336074 
L 224.374332 318.697848 
L 227.95508 322.413431 
L 231.535829 308.669381 
L 235.116578 326.075533 
L 238.697326 294.974453 
L 242.278075 323.021106 
L 245.858824 322.415641 
L 249.439572 315.029775 
L 253.020321 303.813659 
L 256.60107 311.128134 
L 260.181818 319.391906 
L 263.762567 299.618079 
L 267.343316 290.750346 
L 270.924064 298.23947 
L 274.504813 289.912054 
L 278.085561 262.460804 
L 281.66631 264.842675 
L 285.247059 275.495888 
L 288.827807 283.028075 
L 292.408556 270.500072 
L 295.989305 304.629628 
L 299.570053 269.284547 
L 303.150802 261.266268 
L 306.731551 271.702873 
L 310.312299 235.031847 
L 313.893048 179.401371 
L 317.473797 127.529175 
L 321.054545 86.478785 
L 324.635294 93.081499 
L 328.216043 114.933106 
L 331.796791 135.207542 
L 335.37754 160.616944 
L 338.958289 193.870057 
L 342.539037 209.766826 
L 346.119786 217.736012 
L 349.700535 232.865305 
L 353.281283 222.471379 
L 356.862032 221.012298 
L 360.442781 221.644478 
L 364.023529 218.487349 
L 367.604278 220.428445 
L 371.185027 222.864921 
L 374.765775 244.713234 
L 378.346524 257.543085 
L 381.927273 254.416211 
L 385.508021 221.205842 
L 389.08877 238.048647 
L 392.669519 239.681577 
L 396.250267 251.790142 
L 399.831016 242.279246 
L 403.411765 245.878248 
L 406.992513 269.520326 
L 410.573262 279.984555 
L 414.154011 276.534002 
L 417.734759 296.182492 
L 421.315508 284.321166 
L 424.896257 275.473066 
L 428.477005 281.823383 
L 432.057754 281.626533 
L 435.638503 282.250785 
L 439.219251 299.406373 
L 442.8 292.920998 
L 446.380749 284.998961 
L 449.961497 278.909759 
L 453.542246 285.019835 
L 457.122995 296.076668 
L 460.703743 291.326091 
L 464.284492 267.672946 
L 467.865241 283.450169 
L 471.445989 295.312675 
L 475.026738 262.717654 
L 478.607487 290.685062 
L 482.188235 292.59457 
L 485.768984 295.585642 
L 489.349733 275.940896 
L 492.930481 311.694608 
L 496.51123 311.722312 
L 500.091979 300.917581 
L 503.672727 307.934688 
L 507.253476 301.325841 
L 510.834225 270.46868 
L 514.414973 273.98232 
L 517.995722 303.32738 
L 521.576471 287.220375 
L 525.157219 276.028418 
L 528.737968 283.342056 
L 535.899465 294.121634 
L 539.480214 269.70132 
L 543.060963 292.228281 
L 546.641711 298.239951 
L 550.22246 308.539785 
L 553.803209 286.047911 
L 557.383957 282.699001 
L 560.964706 299.29976 
L 564.545455 293.065234 
L 568.126203 285.643778 
L 571.706952 288.984638 
L 575.287701 316.146904 
L 578.868449 308.169153 
L 582.449198 304.18463 
L 586.029947 307.782299 
L 589.610695 303.726763 
L 593.191444 286.992732 
L 596.772193 284.505993 
L 600.352941 289.365517 
L 603.93369 312.623244 
L 607.514439 298.001799 
L 611.095187 304.689284 
L 614.675936 326.098418 
L 618.256684 315.258579 
L 621.837433 321.845549 
L 625.418182 305.023531 
L 628.99893 313.891817 
L 632.579679 312.956965 
L 636.160428 305.237116 
L 639.741176 316.260526 
L 643.321925 308.709559 
L 646.902674 297.748745 
L 650.483422 285.804187 
L 654.064171 286.783021 
L 657.64492 294.782706 
L 661.225668 321.312037 
L 664.806417 323.73154 
L 668.387166 294.991878 
L 671.967914 301.265771 
L 675.548663 316.793786 
L 679.129412 311.352813 
L 682.71016 301.18307 
L 686.290909 322.724635 
L 689.871658 302.581116 
L 693.452406 306.645694 
L 697.033155 306.202461 
L 700.613904 307.095931 
L 704.194652 292.194771 
L 707.775401 311.85809 
L 711.35615 318.705215 
L 714.936898 311.436903 
L 718.517647 308.289718 
L 722.098396 312.596526 
L 725.679144 326.366127 
L 729.259893 317.878286 
L 732.840642 313.730214 
L 736.42139 328.246121 
L 740.002139 315.796253 
L 743.582888 307.525821 
L 747.163636 296.0109 
L 747.163636 296.0109 
" style="fill:none;stroke:#4169e1;stroke-linecap:square;stroke-width:2.25;"/>
   </g>
   <g id="line2d_16">
    <path clip-path="url(#p022d08878a)" d="M 108 327.523048 
L 777.6 327.523048 
" style="fill:none;stroke:#808080;stroke-dasharray:8.325,3.6;stroke-dashoffset:0;stroke-width:2.25;"/>
   </g>
   <g id="line2d_17">
    <path clip-path="url(#p022d08878a)" d="M 281.66631 378 
L 281.66631 51.84 
" style="fill:none;stroke:#ff0000;stroke-dasharray:8.325,3.6;stroke-dashoffset:0;stroke-width:2.25;"/>
   </g>
   <g id="line2d_18">
    <path clip-path="url(#p022d08878a)" d="M 210.051337 378 
L 210.051337 51.84 
" style="fill:none;stroke:#000000;stroke-linecap:square;stroke-width:2.25;"/>
   </g>
   <g id="line2d_19">
    <path clip-path="url(#p022d08878a)" d="M 138.436364 341.948034 
" style="fill:none;stroke:#000000;stroke-linecap:square;stroke-width:3;"/>
   </g>
   <g id="patch_3">
    <path d="M 98 327.523048 
L 98 73.193583 
" style="fill:none;stroke:#000000;stroke-linecap:square;stroke-linejoin:miter;stroke-width:1.875;"/>
   </g>
   <g id="patch_4">
    <path d="M 138.436364 388 
L 711.35615 388 
" style="fill:none;stroke:#000000;stroke-linecap:square;stroke-linejoin:miter;stroke-width:1.875;"/>
   </g>
  </g>
 </g>
 <defs>
  <clipPath id="p022d08878a">
   <rect height="326.16" width="669.6" x="108" y="51.84"/>
  </clipPath>
 </defs>
</svg>
