<?xml version="1.0" encoding="utf-8" standalone="no"?>
<!DOCTYPE svg PUBLIC "-//W3C//DTD SVG 1.1//EN"
  "http://www.w3.org/Graphics/SVG/1.1/DTD/svg11.dtd">
<!-- Created with matplotlib (https://matplotlib.org/) -->
<svg height="432pt" version="1.1" viewBox="0 0 864 432" width="864pt" xmlns="http://www.w3.org/2000/svg" xmlns:xlink="http://www.w3.org/1999/xlink">
 <defs>
  <style type="text/css">
*{stroke-linecap:butt;stroke-linejoin:round;}
  </style>
 </defs>
 <g id="figure_1">
  <g id="patch_1">
   <path d="M 0 432 
L 864 432 
L 864 0 
L 0 0 
z
" style="fill:#ffffff;"/>
  </g>
  <g id="axes_1">
   <g id="patch_2">
    <path d="M 108 384.48 
L 777.6 384.48 
L 777.6 51.84 
L 108 51.84 
z
" style="fill:#ffffff;"/>
   </g>
   <g id="PolyCollection_1">
    <defs>
     <path d="M 138.436364 -95.689917 
L 138.436364 -74.276153 
L 142.017112 -67.564145 
L 145.597861 -77.117436 
L 149.17861 -88.696577 
L 152.759358 -84.30335 
L 156.340107 -97.633197 
L 159.920856 -86.546673 
L 163.501604 -88.669119 
L 167.082353 -87.598675 
L 170.663102 -74.277673 
L 174.24385 -62.64 
L 177.824599 -87.858315 
L 181.405348 -90.963811 
L 184.986096 -91.476298 
L 188.566845 -87.183477 
L 192.147594 -77.561274 
L 195.728342 -92.52971 
L 199.309091 -102.044496 
L 202.88984 -96.347979 
L 206.470588 -87.250661 
L 210.051337 -93.822357 
L 213.632086 -82.544578 
L 217.212834 -109.443778 
L 220.793583 -78.504539 
L 224.374332 -94.452642 
L 227.95508 -91.892182 
L 231.535829 -107.110045 
L 235.116578 -90.068121 
L 238.697326 -117.327873 
L 242.278075 -88.885743 
L 245.858824 -90.537003 
L 249.439572 -94.744682 
L 253.020321 -110.318345 
L 256.60107 -100.796643 
L 260.181818 -92.493151 
L 263.762567 -111.20474 
L 267.343316 -126.575477 
L 270.924064 -115.013116 
L 274.504813 -124.742965 
L 278.085561 -150.812403 
L 281.66631 -151.561793 
L 285.247059 -136.849725 
L 288.827807 -131.652352 
L 292.408556 -144.585684 
L 295.989305 -108.415417 
L 299.570053 -143.962255 
L 303.150802 -152.533268 
L 306.731551 -138.757992 
L 310.312299 -173.837512 
L 313.893048 -228.824706 
L 317.473797 -279.81235 
L 321.054545 -326.680281 
L 324.635294 -319.564268 
L 328.216043 -296.097084 
L 331.796791 -270.106867 
L 335.37754 -248.570466 
L 338.958289 -215.305028 
L 342.539037 -202.756922 
L 346.119786 -193.868473 
L 349.700535 -177.874152 
L 353.281283 -187.471959 
L 356.862032 -190.457326 
L 360.442781 -187.744437 
L 364.023529 -197.261023 
L 367.604278 -195.236644 
L 371.185027 -186.928443 
L 374.765775 -164.224361 
L 378.346524 -155.439897 
L 381.927273 -157.786198 
L 385.508021 -196.358537 
L 389.08877 -173.096487 
L 392.669519 -176.187559 
L 396.250267 -163.529676 
L 399.831016 -168.665885 
L 403.411765 -167.763744 
L 406.992513 -145.411518 
L 410.573262 -131.405504 
L 414.154011 -135.18171 
L 417.734759 -116.960723 
L 421.315508 -130.558711 
L 424.896257 -140.331456 
L 428.477005 -132.052385 
L 432.057754 -133.146184 
L 435.638503 -132.4968 
L 439.219251 -114.885289 
L 442.8 -121.257385 
L 446.380749 -129.37884 
L 449.961497 -137.293133 
L 453.542246 -129.134543 
L 457.122995 -117.201294 
L 460.703743 -123.836088 
L 464.284492 -149.390004 
L 467.865241 -129.152819 
L 471.445989 -116.930056 
L 475.026738 -150.144489 
L 478.607487 -127.035959 
L 482.188235 -123.102843 
L 485.768984 -115.707293 
L 489.349733 -137.327107 
L 492.930481 -98.632932 
L 496.51123 -101.463087 
L 500.091979 -112.829501 
L 503.672727 -105.194244 
L 507.253476 -110.714736 
L 510.834225 -141.908882 
L 514.414973 -143.740967 
L 517.995722 -111.853446 
L 521.576471 -126.89565 
L 525.157219 -140.636539 
L 528.737968 -130.432805 
L 532.318717 -122.836463 
L 535.899465 -120.879316 
L 539.480214 -145.245307 
L 543.060963 -123.114288 
L 546.641711 -115.819355 
L 550.22246 -105.845347 
L 553.803209 -131.776295 
L 557.383957 -132.210136 
L 560.964706 -115.221648 
L 564.545455 -119.941005 
L 568.126203 -127.508726 
L 571.706952 -123.740699 
L 575.287701 -96.5058 
L 578.868449 -107.133715 
L 582.449198 -111.581195 
L 586.029947 -105.177435 
L 589.610695 -111.260372 
L 593.191444 -131.114756 
L 596.772193 -134.40386 
L 600.352941 -125.174785 
L 603.93369 -101.886516 
L 607.514439 -115.755663 
L 611.095187 -108.428581 
L 614.675936 -87.747471 
L 618.256684 -95.781703 
L 621.837433 -91.064542 
L 625.418182 -108.905001 
L 628.99893 -99.775312 
L 632.579679 -101.405333 
L 636.160428 -108.417477 
L 639.741176 -96.657466 
L 643.321925 -108.405626 
L 646.902674 -117.867123 
L 650.483422 -132.099225 
L 654.064171 -130.579014 
L 657.64492 -120.387217 
L 661.225668 -92.553353 
L 664.806417 -85.208521 
L 668.387166 -119.764934 
L 671.967914 -114.86456 
L 675.548663 -100.120626 
L 679.129412 -103.418143 
L 682.71016 -110.813316 
L 686.290909 -87.929679 
L 689.871658 -113.748393 
L 693.452406 -108.19497 
L 697.033155 -108.99917 
L 700.613904 -110.075469 
L 704.194652 -120.356982 
L 707.775401 -103.96968 
L 711.35615 -94.17009 
L 714.936898 -102.143454 
L 718.517647 -105.859587 
L 722.098396 -96.788646 
L 725.679144 -87.741995 
L 729.259893 -93.011885 
L 732.840642 -101.625157 
L 736.42139 -85.346405 
L 740.002139 -99.029032 
L 743.582888 -108.136271 
L 747.163636 -119.717037 
L 747.163636 -144.564002 
L 747.163636 -144.564002 
L 743.582888 -132.337912 
L 740.002139 -124.270844 
L 736.42139 -111.990121 
L 732.840642 -124.990653 
L 729.259893 -123.173475 
L 725.679144 -114.268732 
L 722.098396 -131.046194 
L 718.517647 -132.998155 
L 714.936898 -130.529132 
L 711.35615 -123.451221 
L 707.775401 -128.250955 
L 704.194652 -153.486987 
L 700.613904 -130.824027 
L 697.033155 -134.385394 
L 693.452406 -133.329452 
L 689.871658 -135.896783 
L 686.290909 -119.96604 
L 682.71016 -141.293202 
L 679.129412 -129.232657 
L 675.548663 -121.195719 
L 671.967914 -138.001013 
L 668.387166 -145.59429 
L 664.806417 -121.899422 
L 661.225668 -118.148449 
L 657.64492 -146.226903 
L 654.064171 -152.294149 
L 650.483422 -153.44562 
L 646.902674 -141.822834 
L 643.321925 -127.887419 
L 639.741176 -125.012968 
L 636.160428 -136.92608 
L 632.579679 -127.040323 
L 628.99893 -126.319116 
L 625.418182 -136.210349 
L 621.837433 -118.648831 
L 618.256684 -128.05958 
L 614.675936 -114.459091 
L 611.095187 -135.945446 
L 607.514439 -143.669882 
L 603.93369 -127.59234 
L 600.352941 -151.160276 
L 596.772193 -153.092963 
L 593.191444 -150.328048 
L 589.610695 -137.035665 
L 586.029947 -133.782412 
L 582.449198 -135.299989 
L 578.868449 -131.671041 
L 575.287701 -126.823272 
L 571.706952 -154.32244 
L 568.126203 -157.148326 
L 564.545455 -148.725461 
L 560.964706 -143.525191 
L 557.383957 -158.831584 
L 553.803209 -152.584633 
L 550.22246 -131.089046 
L 546.641711 -142.672034 
L 543.060963 -150.174877 
L 539.480214 -170.540996 
L 535.899465 -145.63167 
L 532.318717 -156.838852 
L 528.737968 -158.475638 
L 525.157219 -163.704619 
L 521.576471 -154.97574 
L 517.995722 -137.694106 
L 514.414973 -165.091334 
L 510.834225 -172.023733 
L 507.253476 -140.76119 
L 503.672727 -134.747356 
L 500.091979 -141.523845 
L 496.51123 -130.638187 
L 492.930481 -132.646551 
L 489.349733 -168.307361 
L 485.768984 -148.221257 
L 482.188235 -145.623152 
L 478.607487 -147.186425 
L 475.026738 -180.968624 
L 471.445989 -148.37865 
L 467.865241 -158.561755 
L 464.284492 -171.710553 
L 460.703743 -150.85073 
L 457.122995 -145.849287 
L 453.542246 -156.830236 
L 449.961497 -161.746744 
L 446.380749 -156.528455 
L 442.8 -147.307316 
L 439.219251 -143.283982 
L 435.638503 -159.5371 
L 432.057754 -160.839272 
L 428.477005 -159.921852 
L 424.896257 -165.701932 
L 421.315508 -157.437056 
L 417.734759 -147.52713 
L 414.154011 -167.684731 
L 410.573262 -165.303949 
L 406.992513 -172.133033 
L 403.411765 -198.365353 
L 399.831016 -202.362668 
L 396.250267 -189.508831 
L 392.669519 -202.062453 
L 389.08877 -207.911498 
L 385.508021 -221.474136 
L 381.927273 -192.084497 
L 378.346524 -187.204001 
L 374.765775 -203.825807 
L 371.185027 -226.18452 
L 367.604278 -224.324222 
L 364.023529 -224.870978 
L 360.442781 -228.742839 
L 356.862032 -227.406698 
L 353.281283 -228.870869 
L 349.700535 -212.355473 
L 346.119786 -233.41985 
L 342.539037 -240.27102 
L 338.958289 -255.706518 
L 335.37754 -293.463324 
L 331.796791 -323.828864 
L 328.216043 -340.386336 
L 324.635294 -359.26365 
L 321.054545 -365.04 
L 317.473797 -327.283119 
L 313.893048 -273.722264 
L 310.312299 -214.287685 
L 306.731551 -172.875967 
L 303.150802 -183.320911 
L 299.570053 -173.935405 
L 295.989305 -137.127226 
L 292.408556 -169.783403 
L 288.827807 -157.707275 
L 285.247059 -166.621632 
L 281.66631 -175.50651 
L 278.085561 -181.881979 
L 274.504813 -150.481828 
L 270.924064 -145.237685 
L 267.343316 -148.835349 
L 263.762567 -144.492112 
L 260.181818 -122.615687 
L 256.60107 -130.400752 
L 253.020321 -135.165195 
L 249.439572 -129.755612 
L 245.858824 -118.839637 
L 242.278075 -119.804773 
L 238.697326 -148.134325 
L 235.116578 -111.854438 
L 231.535829 -130.274285 
L 227.95508 -116.494532 
L 224.374332 -122.223229 
L 220.793583 -110.019839 
L 217.212834 -136.76669 
L 213.632086 -106.652435 
L 210.051337 -120.538328 
L 206.470588 -109.305535 
L 202.88984 -120.12519 
L 199.309091 -131.17996 
L 195.728342 -113.516717 
L 192.147594 -102.955696 
L 188.566845 -109.141953 
L 184.986096 -118.835469 
L 181.405348 -112.348925 
L 177.824599 -108.232051 
L 174.24385 -90.211574 
L 170.663102 -99.396906 
L 167.082353 -112.784109 
L 163.501604 -113.676119 
L 159.920856 -105.838008 
L 156.340107 -123.210316 
L 152.759358 -111.296426 
L 149.17861 -118.540463 
L 145.597861 -99.981388 
L 142.017112 -89.910254 
L 138.436364 -95.689917 
z
" id="ma0673343e1" style="stroke:#4169e1;stroke-opacity:0.2;stroke-width:1.5;"/>
    </defs>
    <g clip-path="url(#p5bee656f39)">
     <use style="fill:#4169e1;fill-opacity:0.2;stroke:#4169e1;stroke-opacity:0.2;stroke-width:1.5;" x="0" xlink:href="#ma0673343e1" y="432"/>
    </g>
   </g>
   <g id="PolyCollection_2">
    <path clip-path="url(#p5bee656f39)" d="M 299.570053 272.841956 
L 299.570053 332.684408 
L 303.150802 332.684408 
L 306.731551 332.684408 
L 310.312299 332.684408 
L 313.893048 332.684408 
L 317.473797 332.684408 
L 321.054545 332.684408 
L 324.635294 332.684408 
L 328.216043 332.684408 
L 331.796791 332.684408 
L 335.37754 332.684408 
L 338.958289 332.684408 
L 342.539037 332.684408 
L 346.119786 332.684408 
L 349.700535 332.684408 
L 353.281283 332.684408 
L 356.862032 332.684408 
L 360.442781 332.684408 
L 364.023529 332.684408 
L 367.604278 332.684408 
L 371.185027 332.684408 
L 374.765775 332.684408 
L 378.346524 332.684408 
L 381.927273 332.684408 
L 385.508021 332.684408 
L 389.08877 332.684408 
L 392.669519 332.684408 
L 396.250267 332.684408 
L 399.831016 332.684408 
L 403.411765 332.684408 
L 406.992513 332.684408 
L 410.573262 332.684408 
L 414.154011 332.684408 
L 414.154011 280.291069 
L 414.154011 280.291069 
L 410.573262 283.836653 
L 406.992513 273.084229 
L 403.411765 248.791022 
L 399.831016 245.0929 
L 396.250267 254.865736 
L 392.669519 242.423688 
L 389.08877 240.745785 
L 385.508021 223.439112 
L 381.927273 257.56413 
L 378.346524 260.777121 
L 374.765775 247.593923 
L 371.185027 225.143884 
L 367.604278 222.640304 
L 364.023529 220.645748 
L 360.442781 223.889829 
L 356.862032 223.240237 
L 353.281283 224.739503 
L 349.700535 235.419689 
L 346.119786 219.873719 
L 342.539037 211.685053 
L 338.958289 195.35047 
L 335.37754 161.181531 
L 331.796791 135.072327 
L 328.216043 114.239511 
L 324.635294 91.786087 
L 321.054545 85.001527 
L 317.473797 127.182489 
L 313.893048 180.483301 
L 310.312299 237.6459 
L 306.731551 275.326886 
L 303.150802 264.602845 
L 299.570053 272.841956 
z
" style="fill:#0000ff;fill-opacity:0.2;stroke:#0000ff;stroke-opacity:0.2;stroke-width:1.5;"/>
    <path clip-path="url(#p5bee656f39)" d="M 442.8 297.129381 
L 442.8 332.684408 
L 446.380749 332.684408 
L 449.961497 332.684408 
L 453.542246 332.684408 
L 457.122995 332.684408 
L 460.703743 332.684408 
L 464.284492 332.684408 
L 467.865241 332.684408 
L 471.445989 332.684408 
L 475.026738 332.684408 
L 478.607487 332.684408 
L 482.188235 332.684408 
L 482.188235 296.793962 
L 482.188235 296.793962 
L 478.607487 294.831864 
L 475.026738 266.094204 
L 471.445989 299.586927 
L 467.865241 287.397715 
L 464.284492 271.18597 
L 460.703743 295.490548 
L 457.122995 300.37196 
L 453.542246 289.010611 
L 449.961497 282.732257 
L 446.380749 288.989162 
L 442.8 297.129381 
z
" style="fill:#0000ff;fill-opacity:0.2;stroke:#0000ff;stroke-opacity:0.2;stroke-width:1.5;"/>
   </g>
   <g id="matplotlib.axis_1">
    <g id="xtick_1">
     <g id="line2d_1">
      <defs>
       <path d="M 0 0 
L 0 9 
" id="m96bc504a6b" style="stroke:#000000;stroke-width:1.875;"/>
      </defs>
      <g>
       <use style="stroke:#000000;stroke-width:1.875;" x="138.436364" xlink:href="#m96bc504a6b" y="394.48"/>
      </g>
     </g>
     <g id="text_1">
      <!-- −0.2 -->
      <defs>
       <path d="M 10.59375 35.5 
L 73.1875 35.5 
L 73.1875 27.203125 
L 10.59375 27.203125 
z
" id="DejaVuSans-8722"/>
       <path d="M 31.78125 66.40625 
Q 24.171875 66.40625 20.328125 58.90625 
Q 16.5 51.421875 16.5 36.375 
Q 16.5 21.390625 20.328125 13.890625 
Q 24.171875 6.390625 31.78125 6.390625 
Q 39.453125 6.390625 43.28125 13.890625 
Q 47.125 21.390625 47.125 36.375 
Q 47.125 51.421875 43.28125 58.90625 
Q 39.453125 66.40625 31.78125 66.40625 
z
M 31.78125 74.21875 
Q 44.046875 74.21875 50.515625 64.515625 
Q 56.984375 54.828125 56.984375 36.375 
Q 56.984375 17.96875 50.515625 8.265625 
Q 44.046875 -1.421875 31.78125 -1.421875 
Q 19.53125 -1.421875 13.0625 8.265625 
Q 6.59375 17.96875 6.59375 36.375 
Q 6.59375 54.828125 13.0625 64.515625 
Q 19.53125 74.21875 31.78125 74.21875 
z
" id="DejaVuSans-48"/>
       <path d="M 10.6875 12.40625 
L 21 12.40625 
L 21 0 
L 10.6875 0 
z
" id="DejaVuSans-46"/>
       <path d="M 19.1875 8.296875 
L 53.609375 8.296875 
L 53.609375 0 
L 7.328125 0 
L 7.328125 8.296875 
Q 12.9375 14.109375 22.625 23.890625 
Q 32.328125 33.6875 34.8125 36.53125 
Q 39.546875 41.84375 41.421875 45.53125 
Q 43.3125 49.21875 43.3125 52.78125 
Q 43.3125 58.59375 39.234375 62.25 
Q 35.15625 65.921875 28.609375 65.921875 
Q 23.96875 65.921875 18.8125 64.3125 
Q 13.671875 62.703125 7.8125 59.421875 
L 7.8125 69.390625 
Q 13.765625 71.78125 18.9375 73 
Q 24.125 74.21875 28.421875 74.21875 
Q 39.75 74.21875 46.484375 68.546875 
Q 53.21875 62.890625 53.21875 53.421875 
Q 53.21875 48.921875 51.53125 44.890625 
Q 49.859375 40.875 45.40625 35.40625 
Q 44.1875 33.984375 37.640625 27.21875 
Q 31.109375 20.453125 19.1875 8.296875 
z
" id="DejaVuSans-50"/>
      </defs>
      <g transform="translate(110.389715 424.532391)scale(0.231 -0.231)">
       <use xlink:href="#DejaVuSans-8722"/>
       <use x="83.789062" xlink:href="#DejaVuSans-48"/>
       <use x="147.412109" xlink:href="#DejaVuSans-46"/>
       <use x="179.199219" xlink:href="#DejaVuSans-50"/>
      </g>
     </g>
    </g>
    <g id="xtick_2">
     <g id="line2d_2">
      <g>
       <use style="stroke:#000000;stroke-width:1.875;" x="210.051337" xlink:href="#m96bc504a6b" y="394.48"/>
      </g>
     </g>
     <g id="text_2">
      <!-- 0.0 -->
      <g transform="translate(191.683228 424.532391)scale(0.231 -0.231)">
       <use xlink:href="#DejaVuSans-48"/>
       <use x="63.623047" xlink:href="#DejaVuSans-46"/>
       <use x="95.410156" xlink:href="#DejaVuSans-48"/>
      </g>
     </g>
    </g>
    <g id="xtick_3">
     <g id="line2d_3">
      <g>
       <use style="stroke:#000000;stroke-width:1.875;" x="281.66631" xlink:href="#m96bc504a6b" y="394.48"/>
      </g>
     </g>
     <g id="text_3">
      <!-- 0.2 -->
      <g transform="translate(263.298201 424.532391)scale(0.231 -0.231)">
       <use xlink:href="#DejaVuSans-48"/>
       <use x="63.623047" xlink:href="#DejaVuSans-46"/>
       <use x="95.410156" xlink:href="#DejaVuSans-50"/>
      </g>
     </g>
    </g>
    <g id="xtick_4">
     <g id="line2d_4">
      <g>
       <use style="stroke:#000000;stroke-width:1.875;" x="353.281283" xlink:href="#m96bc504a6b" y="394.48"/>
      </g>
     </g>
     <g id="text_4">
      <!-- 0.4 -->
      <defs>
       <path d="M 37.796875 64.3125 
L 12.890625 25.390625 
L 37.796875 25.390625 
z
M 35.203125 72.90625 
L 47.609375 72.90625 
L 47.609375 25.390625 
L 58.015625 25.390625 
L 58.015625 17.1875 
L 47.609375 17.1875 
L 47.609375 0 
L 37.796875 0 
L 37.796875 17.1875 
L 4.890625 17.1875 
L 4.890625 26.703125 
z
" id="DejaVuSans-52"/>
      </defs>
      <g transform="translate(334.913174 424.532391)scale(0.231 -0.231)">
       <use xlink:href="#DejaVuSans-48"/>
       <use x="63.623047" xlink:href="#DejaVuSans-46"/>
       <use x="95.410156" xlink:href="#DejaVuSans-52"/>
      </g>
     </g>
    </g>
    <g id="xtick_5">
     <g id="line2d_5">
      <g>
       <use style="stroke:#000000;stroke-width:1.875;" x="424.896257" xlink:href="#m96bc504a6b" y="394.48"/>
      </g>
     </g>
     <g id="text_5">
      <!-- 0.6 -->
      <defs>
       <path d="M 33.015625 40.375 
Q 26.375 40.375 22.484375 35.828125 
Q 18.609375 31.296875 18.609375 23.390625 
Q 18.609375 15.53125 22.484375 10.953125 
Q 26.375 6.390625 33.015625 6.390625 
Q 39.65625 6.390625 43.53125 10.953125 
Q 47.40625 15.53125 47.40625 23.390625 
Q 47.40625 31.296875 43.53125 35.828125 
Q 39.65625 40.375 33.015625 40.375 
z
M 52.59375 71.296875 
L 52.59375 62.3125 
Q 48.875 64.0625 45.09375 64.984375 
Q 41.3125 65.921875 37.59375 65.921875 
Q 27.828125 65.921875 22.671875 59.328125 
Q 17.53125 52.734375 16.796875 39.40625 
Q 19.671875 43.65625 24.015625 45.921875 
Q 28.375 48.1875 33.59375 48.1875 
Q 44.578125 48.1875 50.953125 41.515625 
Q 57.328125 34.859375 57.328125 23.390625 
Q 57.328125 12.15625 50.6875 5.359375 
Q 44.046875 -1.421875 33.015625 -1.421875 
Q 20.359375 -1.421875 13.671875 8.265625 
Q 6.984375 17.96875 6.984375 36.375 
Q 6.984375 53.65625 15.1875 63.9375 
Q 23.390625 74.21875 37.203125 74.21875 
Q 40.921875 74.21875 44.703125 73.484375 
Q 48.484375 72.75 52.59375 71.296875 
z
" id="DejaVuSans-54"/>
      </defs>
      <g transform="translate(406.528147 424.532391)scale(0.231 -0.231)">
       <use xlink:href="#DejaVuSans-48"/>
       <use x="63.623047" xlink:href="#DejaVuSans-46"/>
       <use x="95.410156" xlink:href="#DejaVuSans-54"/>
      </g>
     </g>
    </g>
    <g id="xtick_6">
     <g id="line2d_6">
      <g>
       <use style="stroke:#000000;stroke-width:1.875;" x="496.51123" xlink:href="#m96bc504a6b" y="394.48"/>
      </g>
     </g>
     <g id="text_6">
      <!-- 0.8 -->
      <defs>
       <path d="M 31.78125 34.625 
Q 24.75 34.625 20.71875 30.859375 
Q 16.703125 27.09375 16.703125 20.515625 
Q 16.703125 13.921875 20.71875 10.15625 
Q 24.75 6.390625 31.78125 6.390625 
Q 38.8125 6.390625 42.859375 10.171875 
Q 46.921875 13.96875 46.921875 20.515625 
Q 46.921875 27.09375 42.890625 30.859375 
Q 38.875 34.625 31.78125 34.625 
z
M 21.921875 38.8125 
Q 15.578125 40.375 12.03125 44.71875 
Q 8.5 49.078125 8.5 55.328125 
Q 8.5 64.0625 14.71875 69.140625 
Q 20.953125 74.21875 31.78125 74.21875 
Q 42.671875 74.21875 48.875 69.140625 
Q 55.078125 64.0625 55.078125 55.328125 
Q 55.078125 49.078125 51.53125 44.71875 
Q 48 40.375 41.703125 38.8125 
Q 48.828125 37.15625 52.796875 32.3125 
Q 56.78125 27.484375 56.78125 20.515625 
Q 56.78125 9.90625 50.3125 4.234375 
Q 43.84375 -1.421875 31.78125 -1.421875 
Q 19.734375 -1.421875 13.25 4.234375 
Q 6.78125 9.90625 6.78125 20.515625 
Q 6.78125 27.484375 10.78125 32.3125 
Q 14.796875 37.15625 21.921875 38.8125 
z
M 18.3125 54.390625 
Q 18.3125 48.734375 21.84375 45.5625 
Q 25.390625 42.390625 31.78125 42.390625 
Q 38.140625 42.390625 41.71875 45.5625 
Q 45.3125 48.734375 45.3125 54.390625 
Q 45.3125 60.0625 41.71875 63.234375 
Q 38.140625 66.40625 31.78125 66.40625 
Q 25.390625 66.40625 21.84375 63.234375 
Q 18.3125 60.0625 18.3125 54.390625 
z
" id="DejaVuSans-56"/>
      </defs>
      <g transform="translate(478.143121 424.532391)scale(0.231 -0.231)">
       <use xlink:href="#DejaVuSans-48"/>
       <use x="63.623047" xlink:href="#DejaVuSans-46"/>
       <use x="95.410156" xlink:href="#DejaVuSans-56"/>
      </g>
     </g>
    </g>
    <g id="xtick_7">
     <g id="line2d_7">
      <g>
       <use style="stroke:#000000;stroke-width:1.875;" x="568.126203" xlink:href="#m96bc504a6b" y="394.48"/>
      </g>
     </g>
     <g id="text_7">
      <!-- 1.0 -->
      <defs>
       <path d="M 12.40625 8.296875 
L 28.515625 8.296875 
L 28.515625 63.921875 
L 10.984375 60.40625 
L 10.984375 69.390625 
L 28.421875 72.90625 
L 38.28125 72.90625 
L 38.28125 8.296875 
L 54.390625 8.296875 
L 54.390625 0 
L 12.40625 0 
z
" id="DejaVuSans-49"/>
      </defs>
      <g transform="translate(549.758094 424.532391)scale(0.231 -0.231)">
       <use xlink:href="#DejaVuSans-49"/>
       <use x="63.623047" xlink:href="#DejaVuSans-46"/>
       <use x="95.410156" xlink:href="#DejaVuSans-48"/>
      </g>
     </g>
    </g>
    <g id="xtick_8">
     <g id="line2d_8">
      <g>
       <use style="stroke:#000000;stroke-width:1.875;" x="639.741176" xlink:href="#m96bc504a6b" y="394.48"/>
      </g>
     </g>
     <g id="text_8">
      <!-- 1.2 -->
      <g transform="translate(621.373067 424.532391)scale(0.231 -0.231)">
       <use xlink:href="#DejaVuSans-49"/>
       <use x="63.623047" xlink:href="#DejaVuSans-46"/>
       <use x="95.410156" xlink:href="#DejaVuSans-50"/>
      </g>
     </g>
    </g>
    <g id="xtick_9">
     <g id="line2d_9">
      <g>
       <use style="stroke:#000000;stroke-width:1.875;" x="711.35615" xlink:href="#m96bc504a6b" y="394.48"/>
      </g>
     </g>
     <g id="text_9">
      <!-- 1.4 -->
      <g transform="translate(692.98804 424.532391)scale(0.231 -0.231)">
       <use xlink:href="#DejaVuSans-49"/>
       <use x="63.623047" xlink:href="#DejaVuSans-46"/>
       <use x="95.410156" xlink:href="#DejaVuSans-52"/>
      </g>
     </g>
    </g>
    <g id="text_10">
     <!-- Time (s) -->
     <defs>
      <path d="M -0.296875 72.90625 
L 61.375 72.90625 
L 61.375 64.59375 
L 35.5 64.59375 
L 35.5 0 
L 25.59375 0 
L 25.59375 64.59375 
L -0.296875 64.59375 
z
" id="DejaVuSans-84"/>
      <path d="M 9.421875 54.6875 
L 18.40625 54.6875 
L 18.40625 0 
L 9.421875 0 
z
M 9.421875 75.984375 
L 18.40625 75.984375 
L 18.40625 64.59375 
L 9.421875 64.59375 
z
" id="DejaVuSans-105"/>
      <path d="M 52 44.1875 
Q 55.375 50.25 60.0625 53.125 
Q 64.75 56 71.09375 56 
Q 79.640625 56 84.28125 50.015625 
Q 88.921875 44.046875 88.921875 33.015625 
L 88.921875 0 
L 79.890625 0 
L 79.890625 32.71875 
Q 79.890625 40.578125 77.09375 44.375 
Q 74.3125 48.1875 68.609375 48.1875 
Q 61.625 48.1875 57.5625 43.546875 
Q 53.515625 38.921875 53.515625 30.90625 
L 53.515625 0 
L 44.484375 0 
L 44.484375 32.71875 
Q 44.484375 40.625 41.703125 44.40625 
Q 38.921875 48.1875 33.109375 48.1875 
Q 26.21875 48.1875 22.15625 43.53125 
Q 18.109375 38.875 18.109375 30.90625 
L 18.109375 0 
L 9.078125 0 
L 9.078125 54.6875 
L 18.109375 54.6875 
L 18.109375 46.1875 
Q 21.1875 51.21875 25.484375 53.609375 
Q 29.78125 56 35.6875 56 
Q 41.65625 56 45.828125 52.96875 
Q 50 49.953125 52 44.1875 
z
" id="DejaVuSans-109"/>
      <path d="M 56.203125 29.59375 
L 56.203125 25.203125 
L 14.890625 25.203125 
Q 15.484375 15.921875 20.484375 11.0625 
Q 25.484375 6.203125 34.421875 6.203125 
Q 39.59375 6.203125 44.453125 7.46875 
Q 49.3125 8.734375 54.109375 11.28125 
L 54.109375 2.78125 
Q 49.265625 0.734375 44.1875 -0.34375 
Q 39.109375 -1.421875 33.890625 -1.421875 
Q 20.796875 -1.421875 13.15625 6.1875 
Q 5.515625 13.8125 5.515625 26.8125 
Q 5.515625 40.234375 12.765625 48.109375 
Q 20.015625 56 32.328125 56 
Q 43.359375 56 49.78125 48.890625 
Q 56.203125 41.796875 56.203125 29.59375 
z
M 47.21875 32.234375 
Q 47.125 39.59375 43.09375 43.984375 
Q 39.0625 48.390625 32.421875 48.390625 
Q 24.90625 48.390625 20.390625 44.140625 
Q 15.875 39.890625 15.1875 32.171875 
z
" id="DejaVuSans-101"/>
      <path id="DejaVuSans-32"/>
      <path d="M 31 75.875 
Q 24.46875 64.65625 21.28125 53.65625 
Q 18.109375 42.671875 18.109375 31.390625 
Q 18.109375 20.125 21.3125 9.0625 
Q 24.515625 -2 31 -13.1875 
L 23.1875 -13.1875 
Q 15.875 -1.703125 12.234375 9.375 
Q 8.59375 20.453125 8.59375 31.390625 
Q 8.59375 42.28125 12.203125 53.3125 
Q 15.828125 64.359375 23.1875 75.875 
z
" id="DejaVuSans-40"/>
      <path d="M 44.28125 53.078125 
L 44.28125 44.578125 
Q 40.484375 46.53125 36.375 47.5 
Q 32.28125 48.484375 27.875 48.484375 
Q 21.1875 48.484375 17.84375 46.4375 
Q 14.5 44.390625 14.5 40.28125 
Q 14.5 37.15625 16.890625 35.375 
Q 19.28125 33.59375 26.515625 31.984375 
L 29.59375 31.296875 
Q 39.15625 29.25 43.1875 25.515625 
Q 47.21875 21.78125 47.21875 15.09375 
Q 47.21875 7.46875 41.1875 3.015625 
Q 35.15625 -1.421875 24.609375 -1.421875 
Q 20.21875 -1.421875 15.453125 -0.5625 
Q 10.6875 0.296875 5.421875 2 
L 5.421875 11.28125 
Q 10.40625 8.6875 15.234375 7.390625 
Q 20.0625 6.109375 24.8125 6.109375 
Q 31.15625 6.109375 34.5625 8.28125 
Q 37.984375 10.453125 37.984375 14.40625 
Q 37.984375 18.0625 35.515625 20.015625 
Q 33.0625 21.96875 24.703125 23.78125 
L 21.578125 24.515625 
Q 13.234375 26.265625 9.515625 29.90625 
Q 5.8125 33.546875 5.8125 39.890625 
Q 5.8125 47.609375 11.28125 51.796875 
Q 16.75 56 26.8125 56 
Q 31.78125 56 36.171875 55.265625 
Q 40.578125 54.546875 44.28125 53.078125 
z
" id="DejaVuSans-115"/>
      <path d="M 8.015625 75.875 
L 15.828125 75.875 
Q 23.140625 64.359375 26.78125 53.3125 
Q 30.421875 42.28125 30.421875 31.390625 
Q 30.421875 20.453125 26.78125 9.375 
Q 23.140625 -1.703125 15.828125 -13.1875 
L 8.015625 -13.1875 
Q 14.5 -2 17.703125 9.0625 
Q 20.90625 20.125 20.90625 31.390625 
Q 20.90625 42.671875 17.703125 53.65625 
Q 14.5 64.65625 8.015625 75.875 
z
" id="DejaVuSans-41"/>
     </defs>
     <g transform="translate(381.351562 456.131781)scale(0.3 -0.3)">
      <use xlink:href="#DejaVuSans-84"/>
      <use x="61.037109" xlink:href="#DejaVuSans-105"/>
      <use x="88.820312" xlink:href="#DejaVuSans-109"/>
      <use x="186.232422" xlink:href="#DejaVuSans-101"/>
      <use x="247.755859" xlink:href="#DejaVuSans-32"/>
      <use x="279.542969" xlink:href="#DejaVuSans-40"/>
      <use x="318.556641" xlink:href="#DejaVuSans-115"/>
      <use x="370.65625" xlink:href="#DejaVuSans-41"/>
     </g>
    </g>
   </g>
   <g id="matplotlib.axis_2">
    <g id="ytick_1">
     <g id="line2d_10">
      <defs>
       <path d="M 0 0 
L -9 0 
" id="mdbfadfe1b0" style="stroke:#000000;stroke-width:1.875;"/>
      </defs>
      <g>
       <use style="stroke:#000000;stroke-width:1.875;" x="98" xlink:href="#mdbfadfe1b0" y="332.684408"/>
      </g>
     </g>
     <g id="text_11">
      <!-- 0.50 -->
      <defs>
       <path d="M 10.796875 72.90625 
L 49.515625 72.90625 
L 49.515625 64.59375 
L 19.828125 64.59375 
L 19.828125 46.734375 
Q 21.96875 47.46875 24.109375 47.828125 
Q 26.265625 48.1875 28.421875 48.1875 
Q 40.625 48.1875 47.75 41.5 
Q 54.890625 34.8125 54.890625 23.390625 
Q 54.890625 11.625 47.5625 5.09375 
Q 40.234375 -1.421875 26.90625 -1.421875 
Q 22.3125 -1.421875 17.546875 -0.640625 
Q 12.796875 0.140625 7.71875 1.703125 
L 7.71875 11.625 
Q 12.109375 9.234375 16.796875 8.0625 
Q 21.484375 6.890625 26.703125 6.890625 
Q 35.15625 6.890625 40.078125 11.328125 
Q 45.015625 15.765625 45.015625 23.390625 
Q 45.015625 31 40.078125 35.4375 
Q 35.15625 39.890625 26.703125 39.890625 
Q 22.75 39.890625 18.8125 39.015625 
Q 14.890625 38.140625 10.796875 36.28125 
z
" id="DejaVuSans-53"/>
      </defs>
      <g transform="translate(34.066406 341.460603)scale(0.231 -0.231)">
       <use xlink:href="#DejaVuSans-48"/>
       <use x="63.623047" xlink:href="#DejaVuSans-46"/>
       <use x="95.410156" xlink:href="#DejaVuSans-53"/>
       <use x="159.033203" xlink:href="#DejaVuSans-48"/>
      </g>
     </g>
    </g>
    <g id="ytick_2">
     <g id="line2d_11">
      <g>
       <use style="stroke:#000000;stroke-width:1.875;" x="98" xlink:href="#mdbfadfe1b0" y="267.350915"/>
      </g>
     </g>
     <g id="text_12">
      <!-- 0.55 -->
      <g transform="translate(34.066406 276.12711)scale(0.231 -0.231)">
       <use xlink:href="#DejaVuSans-48"/>
       <use x="63.623047" xlink:href="#DejaVuSans-46"/>
       <use x="95.410156" xlink:href="#DejaVuSans-53"/>
       <use x="159.033203" xlink:href="#DejaVuSans-53"/>
      </g>
     </g>
    </g>
    <g id="ytick_3">
     <g id="line2d_12">
      <g>
       <use style="stroke:#000000;stroke-width:1.875;" x="98" xlink:href="#mdbfadfe1b0" y="202.017422"/>
      </g>
     </g>
     <g id="text_13">
      <!-- 0.60 -->
      <g transform="translate(34.066406 210.793617)scale(0.231 -0.231)">
       <use xlink:href="#DejaVuSans-48"/>
       <use x="63.623047" xlink:href="#DejaVuSans-46"/>
       <use x="95.410156" xlink:href="#DejaVuSans-54"/>
       <use x="159.033203" xlink:href="#DejaVuSans-48"/>
      </g>
     </g>
    </g>
    <g id="ytick_4">
     <g id="line2d_13">
      <g>
       <use style="stroke:#000000;stroke-width:1.875;" x="98" xlink:href="#mdbfadfe1b0" y="136.683929"/>
      </g>
     </g>
     <g id="text_14">
      <!-- 0.65 -->
      <g transform="translate(34.066406 145.460124)scale(0.231 -0.231)">
       <use xlink:href="#DejaVuSans-48"/>
       <use x="63.623047" xlink:href="#DejaVuSans-46"/>
       <use x="95.410156" xlink:href="#DejaVuSans-54"/>
       <use x="159.033203" xlink:href="#DejaVuSans-53"/>
      </g>
     </g>
    </g>
    <g id="ytick_5">
     <g id="line2d_14">
      <g>
       <use style="stroke:#000000;stroke-width:1.875;" x="98" xlink:href="#mdbfadfe1b0" y="71.350436"/>
      </g>
     </g>
     <g id="text_15">
      <!-- 0.70 -->
      <defs>
       <path d="M 8.203125 72.90625 
L 55.078125 72.90625 
L 55.078125 68.703125 
L 28.609375 0 
L 18.3125 0 
L 43.21875 64.59375 
L 8.203125 64.59375 
z
" id="DejaVuSans-55"/>
      </defs>
      <g transform="translate(34.066406 80.126632)scale(0.231 -0.231)">
       <use xlink:href="#DejaVuSans-48"/>
       <use x="63.623047" xlink:href="#DejaVuSans-46"/>
       <use x="95.410156" xlink:href="#DejaVuSans-55"/>
       <use x="159.033203" xlink:href="#DejaVuSans-48"/>
      </g>
     </g>
    </g>
    <g id="text_16">
     <!-- AUC -->
     <defs>
      <path d="M 34.1875 63.1875 
L 20.796875 26.90625 
L 47.609375 26.90625 
z
M 28.609375 72.90625 
L 39.796875 72.90625 
L 67.578125 0 
L 57.328125 0 
L 50.6875 18.703125 
L 17.828125 18.703125 
L 11.1875 0 
L 0.78125 0 
z
" id="DejaVuSans-65"/>
      <path d="M 8.6875 72.90625 
L 18.609375 72.90625 
L 18.609375 28.609375 
Q 18.609375 16.890625 22.84375 11.734375 
Q 27.09375 6.59375 36.625 6.59375 
Q 46.09375 6.59375 50.34375 11.734375 
Q 54.59375 16.890625 54.59375 28.609375 
L 54.59375 72.90625 
L 64.5 72.90625 
L 64.5 27.390625 
Q 64.5 13.140625 57.4375 5.859375 
Q 50.390625 -1.421875 36.625 -1.421875 
Q 22.796875 -1.421875 15.734375 5.859375 
Q 8.6875 13.140625 8.6875 27.390625 
z
" id="DejaVuSans-85"/>
      <path d="M 64.40625 67.28125 
L 64.40625 56.890625 
Q 59.421875 61.53125 53.78125 63.8125 
Q 48.140625 66.109375 41.796875 66.109375 
Q 29.296875 66.109375 22.65625 58.46875 
Q 16.015625 50.828125 16.015625 36.375 
Q 16.015625 21.96875 22.65625 14.328125 
Q 29.296875 6.6875 41.796875 6.6875 
Q 48.140625 6.6875 53.78125 8.984375 
Q 59.421875 11.28125 64.40625 15.921875 
L 64.40625 5.609375 
Q 59.234375 2.09375 53.4375 0.328125 
Q 47.65625 -1.421875 41.21875 -1.421875 
Q 24.65625 -1.421875 15.125 8.703125 
Q 5.609375 18.84375 5.609375 36.375 
Q 5.609375 53.953125 15.125 64.078125 
Q 24.65625 74.21875 41.21875 74.21875 
Q 47.75 74.21875 53.53125 72.484375 
Q 59.328125 70.75 64.40625 67.28125 
z
" id="DejaVuSans-67"/>
     </defs>
     <g transform="translate(23.827344 249.873281)rotate(-90)scale(0.3 -0.3)">
      <use xlink:href="#DejaVuSans-65"/>
      <use x="68.408203" xlink:href="#DejaVuSans-85"/>
      <use x="141.601562" xlink:href="#DejaVuSans-67"/>
     </g>
    </g>
   </g>
   <g id="line2d_15">
    <path clip-path="url(#p5bee656f39)" d="M 138.436364 347.506674 
L 142.017112 353.179442 
L 145.597861 343.550125 
L 149.17861 329.09112 
L 152.759358 333.819494 
L 156.340107 320.716835 
L 159.920856 335.778552 
L 163.501604 330.301289 
L 167.082353 331.77951 
L 170.663102 345.969881 
L 174.24385 355.815303 
L 177.824599 333.888813 
L 181.405348 330.346166 
L 184.986096 327.492055 
L 188.566845 333.164395 
L 192.147594 341.14425 
L 195.728342 329.427925 
L 199.309091 315.45698 
L 202.88984 323.968524 
L 206.470588 333.256277 
L 210.051337 324.739519 
L 213.632086 338.051849 
L 217.212834 308.526049 
L 220.793583 337.62999 
L 224.374332 323.616152 
L 227.95508 327.434067 
L 231.535829 313.311491 
L 235.116578 331.197026 
L 238.697326 299.23939 
L 242.278075 328.058477 
L 245.858824 327.436337 
L 249.439572 319.847057 
L 253.020321 308.322037 
L 256.60107 315.837961 
L 260.181818 324.329325 
L 263.762567 304.010906 
L 267.343316 294.898946 
L 270.924064 302.594329 
L 274.504813 294.037566 
L 278.085561 265.83028 
L 281.66631 268.27775 
L 285.247059 279.224364 
L 288.827807 286.963996 
L 292.408556 274.090958 
L 295.989305 309.160478 
L 299.570053 272.841956 
L 303.150802 264.602845 
L 306.731551 275.326886 
L 310.312299 237.6459 
L 313.893048 180.483301 
L 317.473797 127.182489 
L 321.054545 85.001527 
L 324.635294 91.786087 
L 328.216043 114.239511 
L 331.796791 135.072327 
L 335.37754 161.181531 
L 338.958289 195.35047 
L 342.539037 211.685053 
L 346.119786 219.873719 
L 349.700535 235.419689 
L 353.281283 224.739503 
L 356.862032 223.240237 
L 360.442781 223.889829 
L 364.023529 220.645748 
L 367.604278 222.640304 
L 371.185027 225.143884 
L 374.765775 247.593923 
L 378.346524 260.777121 
L 381.927273 257.56413 
L 385.508021 223.439112 
L 389.08877 240.745785 
L 392.669519 242.423688 
L 396.250267 254.865736 
L 399.831016 245.0929 
L 403.411765 248.791022 
L 406.992513 273.084229 
L 410.573262 283.836653 
L 414.154011 280.291069 
L 417.734759 300.4807 
L 421.315508 288.2927 
L 424.896257 279.200913 
L 428.477005 285.726125 
L 432.057754 285.523854 
L 435.638503 286.165298 
L 439.219251 303.793369 
L 442.8 297.129381 
L 446.380749 288.989162 
L 449.961497 282.732257 
L 453.542246 289.010611 
L 457.122995 300.37196 
L 460.703743 295.490548 
L 464.284492 271.18597 
L 467.865241 287.397715 
L 471.445989 299.586927 
L 475.026738 266.094204 
L 478.607487 294.831864 
L 482.188235 296.793962 
L 485.768984 299.867411 
L 489.349733 279.681628 
L 492.930481 316.420036 
L 496.51123 316.448502 
L 500.091979 305.346198 
L 503.672727 312.556564 
L 507.253476 305.765702 
L 510.834225 274.058701 
L 514.414973 277.669111 
L 517.995722 307.822365 
L 521.576471 291.271756 
L 525.157219 279.771561 
L 528.737968 287.286623 
L 535.899465 298.363083 
L 539.480214 273.270207 
L 543.060963 296.417585 
L 546.641711 302.594822 
L 550.22246 313.178326 
L 553.803209 290.067001 
L 557.383957 286.625858 
L 560.964706 303.68382 
L 564.545455 297.277589 
L 568.126203 289.651738 
L 571.706952 293.084609 
L 575.287701 320.994953 
L 578.868449 312.797486 
L 582.449198 308.703225 
L 586.029947 312.399977 
L 589.610695 308.232748 
L 593.191444 291.037844 
L 596.772193 288.482617 
L 600.352941 293.475977 
L 603.93369 317.374247 
L 607.514439 302.350112 
L 611.095187 309.221777 
L 614.675936 331.220542 
L 618.256684 320.082162 
L 621.837433 326.850544 
L 625.418182 309.56523 
L 628.99893 318.677758 
L 632.579679 317.717159 
L 636.160428 309.784697 
L 639.741176 321.111703 
L 643.321925 313.352775 
L 646.902674 302.090089 
L 650.483422 289.816564 
L 654.064171 290.822357 
L 657.64492 299.042362 
L 661.225668 326.302339 
L 664.806417 328.788477 
L 668.387166 299.257294 
L 671.967914 305.703977 
L 675.548663 321.65965 
L 679.129412 316.068828 
L 682.71016 305.618998 
L 686.290909 327.753841 
L 689.871658 307.055549 
L 693.452406 311.232069 
L 697.033155 310.776629 
L 700.613904 311.694706 
L 704.194652 296.383152 
L 707.775401 316.58802 
L 711.35615 323.623722 
L 714.936898 316.155233 
L 718.517647 312.921372 
L 722.098396 317.346794 
L 725.679144 331.495624 
L 729.259893 322.774018 
L 732.840642 318.511704 
L 736.42139 333.427395 
L 740.002139 320.634644 
L 743.582888 312.136436 
L 747.163636 300.304381 
L 747.163636 300.304381 
" style="fill:none;stroke:#4169e1;stroke-linecap:square;stroke-width:2.25;"/>
   </g>
   <g id="line2d_16">
    <path clip-path="url(#p5bee656f39)" d="M 108 332.684408 
L 777.6 332.684408 
" style="fill:none;stroke:#808080;stroke-dasharray:8.325,3.6;stroke-dashoffset:0;stroke-width:2.25;"/>
   </g>
   <g id="line2d_17">
    <path clip-path="url(#p5bee656f39)" d="M 281.66631 384.48 
L 281.66631 51.84 
" style="fill:none;stroke:#ff0000;stroke-dasharray:8.325,3.6;stroke-dashoffset:0;stroke-width:2.25;"/>
   </g>
   <g id="line2d_18">
    <path clip-path="url(#p5bee656f39)" d="M 210.051337 384.48 
L 210.051337 51.84 
" style="fill:none;stroke:#000000;stroke-linecap:square;stroke-width:2.25;"/>
   </g>
   <g id="line2d_19">
    <path clip-path="url(#p5bee656f39)" d="M 299.570053 272.841956 
L 303.150802 264.602845 
L 306.731551 275.326886 
L 310.312299 237.6459 
L 313.893048 180.483301 
L 317.473797 127.182489 
L 321.054545 85.001527 
L 324.635294 91.786087 
L 328.216043 114.239511 
L 331.796791 135.072327 
L 335.37754 161.181531 
L 338.958289 195.35047 
L 342.539037 211.685053 
L 346.119786 219.873719 
L 349.700535 235.419689 
L 353.281283 224.739503 
L 356.862032 223.240237 
L 360.442781 223.889829 
L 364.023529 220.645748 
L 367.604278 222.640304 
L 371.185027 225.143884 
L 374.765775 247.593923 
L 378.346524 260.777121 
L 381.927273 257.56413 
L 385.508021 223.439112 
L 389.08877 240.745785 
L 392.669519 242.423688 
L 396.250267 254.865736 
L 399.831016 245.0929 
L 403.411765 248.791022 
L 406.992513 273.084229 
L 410.573262 283.836653 
L 414.154011 280.291069 
M 442.8 297.129381 
L 446.380749 288.989162 
L 449.961497 282.732257 
L 453.542246 289.010611 
L 457.122995 300.37196 
L 460.703743 295.490548 
L 464.284492 271.18597 
L 467.865241 287.397715 
L 471.445989 299.586927 
L 475.026738 266.094204 
L 478.607487 294.831864 
L 482.188235 296.793962 
L 482.188235 296.793962 
" style="fill:none;stroke:#000000;stroke-linecap:square;stroke-width:3;"/>
   </g>
   <g id="patch_3">
    <path d="M 98 332.684408 
L 98 71.350436 
" style="fill:none;stroke:#000000;stroke-linecap:square;stroke-linejoin:miter;stroke-width:1.875;"/>
   </g>
   <g id="patch_4">
    <path d="M 138.436364 394.48 
L 711.35615 394.48 
" style="fill:none;stroke:#000000;stroke-linecap:square;stroke-linejoin:miter;stroke-width:1.875;"/>
   </g>
  </g>
 </g>
 <defs>
  <clipPath id="p5bee656f39">
   <rect height="332.64" width="669.6" x="108" y="51.84"/>
  </clipPath>
 </defs>
</svg>
