<?xml version="1.0" encoding="utf-8" standalone="no"?>
<!DOCTYPE svg PUBLIC "-//W3C//DTD SVG 1.1//EN"
  "http://www.w3.org/Graphics/SVG/1.1/DTD/svg11.dtd">
<!-- Created with matplotlib (https://matplotlib.org/) -->
<svg height="432pt" version="1.1" viewBox="0 0 864 432" width="864pt" xmlns="http://www.w3.org/2000/svg" xmlns:xlink="http://www.w3.org/1999/xlink">
 <metadata>
  <rdf:RDF xmlns:cc="http://creativecommons.org/ns#" xmlns:dc="http://purl.org/dc/elements/1.1/" xmlns:rdf="http://www.w3.org/1999/02/22-rdf-syntax-ns#">
   <cc:Work>
    <dc:type rdf:resource="http://purl.org/dc/dcmitype/StillImage"/>
    <dc:date>2021-03-20T03:17:31.349746</dc:date>
    <dc:format>image/svg+xml</dc:format>
    <dc:creator>
     <cc:Agent>
      <dc:title>Matplotlib v3.3.4, https://matplotlib.org/</dc:title>
     </cc:Agent>
    </dc:creator>
   </cc:Work>
  </rdf:RDF>
 </metadata>
 <defs>
  <style type="text/css">*{stroke-linecap:butt;stroke-linejoin:round;}</style>
 </defs>
 <g id="figure_1">
  <g id="patch_1">
   <path d="M 0 432 
L 864 432 
L 864 0 
L 0 0 
z
" style="fill:none;"/>
  </g>
  <g id="axes_1">
   <g id="patch_2">
    <path d="M 108 378 
L 777.6 378 
L 777.6 51.84 
L 108 51.84 
z
" style="fill:#ffffff;"/>
   </g>
   <g id="PolyCollection_1">
    <defs>
     <path d="M 138.436364 -100.806799 
L 138.436364 -79.776088 
L 142.017112 -73.743607 
L 145.597861 -82.28895 
L 149.17861 -94.958959 
L 152.759358 -90.420314 
L 156.340107 -104.596246 
L 159.920856 -93.172487 
L 163.501604 -95.115114 
L 167.082353 -92.803658 
L 170.663102 -80.509845 
L 174.24385 -68.825455 
L 177.824599 -93.753987 
L 181.405348 -96.718043 
L 184.986096 -96.972506 
L 188.566845 -94.157368 
L 192.147594 -83.894216 
L 195.728342 -97.144942 
L 199.309091 -107.793446 
L 202.88984 -102.394701 
L 206.470588 -93.613302 
L 210.051337 -99.727262 
L 213.632086 -88.856977 
L 217.212834 -115.813826 
L 220.793583 -84.880108 
L 224.374332 -98.1072 
L 227.95508 -98.91954 
L 231.535829 -112.251705 
L 235.116578 -97.325194 
L 238.697326 -121.596427 
L 242.278075 -96.924556 
L 245.858824 -96.11441 
L 249.439572 -101.39033 
L 253.020321 -116.246349 
L 256.60107 -108.12182 
L 260.181818 -98.587209 
L 263.762567 -117.27871 
L 267.343316 -130.788234 
L 270.924064 -119.429589 
L 274.504813 -129.598329 
L 278.085561 -156.513674 
L 281.66631 -156.024667 
L 285.247059 -142.705446 
L 288.827807 -136.275101 
L 292.408556 -148.852142 
L 295.989305 -114.492669 
L 299.570053 -150.46029 
L 303.150802 -156.551664 
L 306.731551 -145.731042 
L 310.312299 -177.886782 
L 313.893048 -231.956028 
L 317.473797 -283.219649 
L 321.054545 -327.625198 
L 324.635294 -320.913699 
L 328.216043 -295.56903 
L 331.796791 -272.294195 
L 335.37754 -251.410992 
L 338.958289 -219.412875 
L 342.539037 -203.948869 
L 346.119786 -196.069883 
L 349.700535 -182.105166 
L 353.281283 -190.79078 
L 356.862032 -191.361334 
L 360.442781 -191.53437 
L 364.023529 -200.852125 
L 367.604278 -197.867026 
L 371.185027 -191.077935 
L 374.765775 -169.929891 
L 378.346524 -160.596647 
L 381.927273 -162.187345 
L 385.508021 -199.104989 
L 389.08877 -178.871001 
L 392.669519 -179.833131 
L 396.250267 -168.238712 
L 399.831016 -172.810379 
L 403.411765 -172.203892 
L 406.992513 -150.346452 
L 410.573262 -137.841975 
L 414.154011 -139.969648 
L 417.734759 -120.836326 
L 421.315508 -134.807869 
L 424.896257 -144.350624 
L 428.477005 -137.679713 
L 432.057754 -137.537323 
L 435.638503 -137.296415 
L 439.219251 -119.520972 
L 442.8 -126.507431 
L 446.380749 -133.532284 
L 449.961497 -141.71078 
L 453.542246 -134.062552 
L 457.122995 -123.803626 
L 460.703743 -128.683496 
L 464.284492 -153.699728 
L 467.865241 -134.933623 
L 471.445989 -121.985449 
L 475.026738 -154.662526 
L 478.607487 -132.372882 
L 482.188235 -129.44666 
L 485.768984 -119.468478 
L 489.349733 -141.291205 
L 492.930481 -104.432143 
L 496.51123 -105.602193 
L 500.091979 -118.602672 
L 503.672727 -109.237992 
L 507.253476 -116.007194 
L 510.834225 -148.51901 
L 514.414973 -147.99136 
L 517.995722 -116.007576 
L 521.576471 -131.263293 
L 525.157219 -144.456021 
L 528.737968 -134.795201 
L 532.318717 -127.052017 
L 535.899465 -126.296627 
L 539.480214 -150.163406 
L 543.060963 -126.991027 
L 546.641711 -121.511877 
L 550.22246 -111.455599 
L 553.803209 -135.734444 
L 557.383957 -136.630394 
L 560.964706 -119.879315 
L 564.545455 -126.981316 
L 568.126203 -132.915335 
L 571.706952 -128.796279 
L 575.287701 -102.116446 
L 578.868449 -113.337554 
L 582.449198 -117.111739 
L 586.029947 -110.271179 
L 589.610695 -116.842771 
L 593.191444 -136.605368 
L 596.772193 -138.646305 
L 600.352941 -130.257225 
L 603.93369 -108.040405 
L 607.514439 -119.348468 
L 611.095187 -115.015494 
L 614.675936 -94.531578 
L 618.256684 -100.234271 
L 621.837433 -97.547176 
L 625.418182 -115.325236 
L 628.99893 -107.058428 
L 632.579679 -106.999185 
L 636.160428 -111.789068 
L 639.741176 -102.370552 
L 643.321925 -114.244529 
L 646.902674 -123.853643 
L 650.483422 -136.16554 
L 654.064171 -134.524015 
L 657.64492 -125.735811 
L 661.225668 -99.41702 
L 664.806417 -91.740868 
L 668.387166 -125.881074 
L 671.967914 -121.139967 
L 675.548663 -105.263778 
L 679.129412 -108.103124 
L 682.71016 -116.771479 
L 686.290909 -94.281389 
L 689.871658 -118.530243 
L 693.452406 -113.826457 
L 697.033155 -113.538795 
L 700.613904 -115.702709 
L 704.194652 -124.726349 
L 707.775401 -108.432057 
L 711.35615 -100.121884 
L 714.936898 -107.230218 
L 718.517647 -110.661889 
L 722.098396 -104.184112 
L 725.679144 -93.58639 
L 729.259893 -99.236588 
L 732.840642 -108.387997 
L 736.42139 -90.794773 
L 740.002139 -103.66043 
L 743.582888 -113.349332 
L 747.163636 -124.738705 
L 747.163636 -149.101543 
L 747.163636 -149.101543 
L 743.582888 -136.532667 
L 740.002139 -129.042167 
L 736.42139 -115.833432 
L 732.840642 -129.153883 
L 729.259893 -128.962218 
L 725.679144 -119.21001 
L 722.098396 -133.827749 
L 718.517647 -138.773077 
L 714.936898 -135.513318 
L 711.35615 -127.470933 
L 707.775401 -132.247873 
L 704.194652 -154.753771 
L 700.613904 -134.943987 
L 697.033155 -138.504498 
L 693.452406 -136.98167 
L 689.871658 -140.820468 
L 686.290909 -125.477823 
L 682.71016 -147.00153 
L 679.129412 -132.978995 
L 675.548663 -125.616239 
L 671.967914 -141.561586 
L 668.387166 -148.980947 
L 664.806417 -127.243895 
L 661.225668 -123.815964 
L 657.64492 -150.820084 
L 654.064171 -156.248353 
L 650.483422 -157.796727 
L 646.902674 -146.867737 
L 643.321925 -134.390335 
L 639.741176 -128.976095 
L 636.160428 -140.63611 
L 632.579679 -131.471654 
L 628.99893 -132.274018 
L 625.418182 -140.626819 
L 621.837433 -123.413276 
L 618.256684 -133.646409 
L 614.675936 -118.962879 
L 611.095187 -140.504396 
L 607.514439 -147.315823 
L 603.93369 -131.834208 
L 600.352941 -156.238596 
L 596.772193 -157.839553 
L 593.191444 -155.553589 
L 589.610695 -142.108626 
L 586.029947 -138.880096 
L 582.449198 -140.619359 
L 578.868449 -135.601624 
L 575.287701 -131.08476 
L 571.706952 -158.300545 
L 568.126203 -160.760609 
L 564.545455 -154.028502 
L 560.964706 -147.509619 
L 557.383957 -164.287165 
L 553.803209 -157.276482 
L 550.22246 -135.207243 
L 546.641711 -147.167583 
L 543.060963 -154.764617 
L 539.480214 -175.816207 
L 535.899465 -150.403831 
L 532.318717 -159.924635 
L 528.737968 -163.623091 
L 525.157219 -168.017203 
L 521.576471 -160.242299 
L 517.995722 -141.87995 
L 514.414973 -170.21381 
L 510.834225 -175.363469 
L 507.253476 -144.490967 
L 503.672727 -140.106686 
L 500.091979 -144.946765 
L 496.51123 -134.915582 
L 492.930481 -137.613217 
L 489.349733 -172.571305 
L 485.768984 -151.980887 
L 482.188235 -150.665035 
L 478.607487 -150.870086 
L 475.026738 -186.111052 
L 471.445989 -152.628009 
L 467.865241 -163.895581 
L 464.284492 -176.210559 
L 460.703743 -155.720638 
L 457.122995 -149.851872 
L 453.542246 -160.614107 
L 449.961497 -166.95481 
L 446.380749 -160.452095 
L 442.8 -151.74566 
L 439.219251 -146.09849 
L 435.638503 -162.490258 
L 432.057754 -164.910055 
L 428.477005 -163.461164 
L 424.896257 -169.998343 
L 421.315508 -161.485136 
L 417.734759 -151.628031 
L 414.154011 -171.615759 
L 410.573262 -168.046537 
L 406.992513 -177.380009 
L 403.411765 -200.544548 
L 399.831016 -205.727733 
L 396.250267 -193.734828 
L 392.669519 -205.791934 
L 389.08877 -211.284525 
L 385.508021 -223.684188 
L 381.927273 -194.51252 
L 378.346524 -190.154768 
L 374.765775 -205.456035 
L 371.185027 -229.256952 
L 367.604278 -225.754106 
L 364.023529 -227.560795 
L 360.442781 -231.088035 
L 356.862032 -228.465443 
L 353.281283 -229.087242 
L 349.700535 -217.764198 
L 346.119786 -234.796897 
L 342.539037 -241.493184 
L 338.958289 -260.197751 
L 335.37754 -293.391501 
L 331.796791 -325.036713 
L 328.216043 -338.253102 
L 324.635294 -358.546415 
L 321.054545 -365.334545 
L 317.473797 -329.170681 
L 313.893048 -275.162905 
L 310.312299 -216.72663 
L 306.731551 -178.364435 
L 303.150802 -187.410297 
L 299.570053 -178.174002 
L 295.989305 -141.132484 
L 292.408556 -174.152339 
L 288.827807 -162.870118 
L 285.247059 -170.346207 
L 281.66631 -179.245003 
L 278.085561 -184.592767 
L 274.504813 -154.422424 
L 270.924064 -148.003754 
L 267.343316 -152.316081 
L 263.762567 -148.005822 
L 260.181818 -126.985 
L 256.60107 -134.749907 
L 253.020321 -142.882229 
L 249.439572 -134.41171 
L 245.858824 -123.705838 
L 242.278075 -123.954041 
L 238.697326 -154.128626 
L 235.116578 -116.674805 
L 231.535829 -134.930205 
L 227.95508 -122.533929 
L 224.374332 -127.454425 
L 220.793583 -114.784955 
L 217.212834 -140.793697 
L 213.632086 -110.874762 
L 210.051337 -125.269574 
L 206.470588 -114.772774 
L 202.88984 -124.258894 
L 199.309091 -137.110632 
L 195.728342 -117.898942 
L 192.147594 -109.118064 
L 188.566845 -116.567304 
L 184.986096 -123.683216 
L 181.405348 -118.668971 
L 177.824599 -113.865928 
L 174.24385 -95.634362 
L 170.663102 -104.545419 
L 167.082353 -119.180484 
L 163.501604 -119.430622 
L 159.920856 -111.514083 
L 156.340107 -128.586713 
L 152.759358 -117.030606 
L 149.17861 -123.081739 
L 145.597861 -105.110026 
L 142.017112 -96.36312 
L 138.436364 -100.806799 
z
" id="m3b7bab3829" style="stroke:#4169e1;stroke-opacity:0.2;stroke-width:1.5;"/>
    </defs>
    <g clip-path="url(#pb9d632dcc4)">
     <use style="fill:#4169e1;fill-opacity:0.2;stroke:#4169e1;stroke-opacity:0.2;stroke-width:1.5;" x="0" xlink:href="#m3b7bab3829" y="432"/>
    </g>
   </g>
   <g id="PolyCollection_2">
    <path clip-path="url(#pb9d632dcc4)" d="M 299.570053 268.675071 
L 299.570053 326.957691 
L 303.150802 326.957691 
L 306.731551 326.957691 
L 310.312299 326.957691 
L 313.893048 326.957691 
L 317.473797 326.957691 
L 321.054545 326.957691 
L 324.635294 326.957691 
L 328.216043 326.957691 
L 331.796791 326.957691 
L 335.37754 326.957691 
L 338.958289 326.957691 
L 342.539037 326.957691 
L 346.119786 326.957691 
L 349.700535 326.957691 
L 353.281283 326.957691 
L 356.862032 326.957691 
L 360.442781 326.957691 
L 364.023529 326.957691 
L 367.604278 326.957691 
L 371.185027 326.957691 
L 374.765775 326.957691 
L 378.346524 326.957691 
L 381.927273 326.957691 
L 385.508021 326.957691 
L 389.08877 326.957691 
L 392.669519 326.957691 
L 396.250267 326.957691 
L 399.831016 326.957691 
L 403.411765 326.957691 
L 406.992513 326.957691 
L 410.573262 326.957691 
L 414.154011 326.957691 
L 414.154011 275.930018 
L 414.154011 275.930018 
L 410.573262 279.383185 
L 406.992513 268.911029 
L 403.411765 245.25104 
L 399.831016 241.649311 
L 396.250267 251.167413 
L 392.669519 239.049675 
L 389.08877 237.415508 
L 385.508021 220.559944 
L 381.927273 253.795471 
L 378.346524 256.924714 
L 374.765775 244.085144 
L 371.185027 222.22028 
L 367.604278 219.781957 
L 364.023529 217.839391 
L 360.442781 220.998912 
L 356.862032 220.366253 
L 353.281283 221.826439 
L 349.700535 232.228239 
L 346.119786 217.087485 
L 342.539037 209.112262 
L 338.958289 193.20345 
L 335.37754 159.925147 
L 331.796791 134.496495 
L 328.216043 114.2067 
L 324.635294 92.338539 
L 321.054545 85.730823 
L 317.473797 126.812311 
L 313.893048 178.723803 
L 310.312299 234.396422 
L 306.731551 271.095229 
L 303.150802 260.650717 
L 299.570053 268.675071 
z
" style="fill:#0000ff;fill-opacity:0.2;stroke:#0000ff;stroke-opacity:0.2;stroke-width:1.5;"/>
    <path clip-path="url(#pb9d632dcc4)" d="M 442.8 292.329428 
L 442.8 326.957691 
L 446.380749 326.957691 
L 449.961497 326.957691 
L 453.542246 326.957691 
L 457.122995 326.957691 
L 460.703743 326.957691 
L 464.284492 326.957691 
L 467.865241 326.957691 
L 471.445989 326.957691 
L 475.026738 326.957691 
L 478.607487 326.957691 
L 482.188235 326.957691 
L 482.188235 292.002752 
L 482.188235 292.002752 
L 478.607487 290.091798 
L 475.026738 262.103203 
L 471.445989 294.722917 
L 467.865241 282.851424 
L 464.284492 267.062249 
L 460.703743 290.733312 
L 457.122995 295.487488 
L 453.542246 284.42228 
L 449.961497 278.307575 
L 446.380749 284.40139 
L 442.8 292.329428 
z
" style="fill:#0000ff;fill-opacity:0.2;stroke:#0000ff;stroke-opacity:0.2;stroke-width:1.5;"/>
   </g>
   <g id="matplotlib.axis_1">
    <g id="xtick_1">
     <g id="line2d_1">
      <defs>
       <path d="M 0 0 
L 0 9 
" id="m180f4a5bf0" style="stroke:#000000;stroke-width:1.875;"/>
      </defs>
      <g>
       <use style="stroke:#000000;stroke-width:1.875;" x="138.436364" xlink:href="#m180f4a5bf0" y="388"/>
      </g>
     </g>
     <g id="text_1">
      <!-- −0.2 -->
      <g transform="translate(118.403043 413.037422)scale(0.165 -0.165)">
       <defs>
        <path d="M 10.59375 35.5 
L 73.1875 35.5 
L 73.1875 27.203125 
L 10.59375 27.203125 
z
" id="DejaVuSans-8722"/>
        <path d="M 31.78125 66.40625 
Q 24.171875 66.40625 20.328125 58.90625 
Q 16.5 51.421875 16.5 36.375 
Q 16.5 21.390625 20.328125 13.890625 
Q 24.171875 6.390625 31.78125 6.390625 
Q 39.453125 6.390625 43.28125 13.890625 
Q 47.125 21.390625 47.125 36.375 
Q 47.125 51.421875 43.28125 58.90625 
Q 39.453125 66.40625 31.78125 66.40625 
z
M 31.78125 74.21875 
Q 44.046875 74.21875 50.515625 64.515625 
Q 56.984375 54.828125 56.984375 36.375 
Q 56.984375 17.96875 50.515625 8.265625 
Q 44.046875 -1.421875 31.78125 -1.421875 
Q 19.53125 -1.421875 13.0625 8.265625 
Q 6.59375 17.96875 6.59375 36.375 
Q 6.59375 54.828125 13.0625 64.515625 
Q 19.53125 74.21875 31.78125 74.21875 
z
" id="DejaVuSans-48"/>
        <path d="M 10.6875 12.40625 
L 21 12.40625 
L 21 0 
L 10.6875 0 
z
" id="DejaVuSans-46"/>
        <path d="M 19.1875 8.296875 
L 53.609375 8.296875 
L 53.609375 0 
L 7.328125 0 
L 7.328125 8.296875 
Q 12.9375 14.109375 22.625 23.890625 
Q 32.328125 33.6875 34.8125 36.53125 
Q 39.546875 41.84375 41.421875 45.53125 
Q 43.3125 49.21875 43.3125 52.78125 
Q 43.3125 58.59375 39.234375 62.25 
Q 35.15625 65.921875 28.609375 65.921875 
Q 23.96875 65.921875 18.8125 64.3125 
Q 13.671875 62.703125 7.8125 59.421875 
L 7.8125 69.390625 
Q 13.765625 71.78125 18.9375 73 
Q 24.125 74.21875 28.421875 74.21875 
Q 39.75 74.21875 46.484375 68.546875 
Q 53.21875 62.890625 53.21875 53.421875 
Q 53.21875 48.921875 51.53125 44.890625 
Q 49.859375 40.875 45.40625 35.40625 
Q 44.1875 33.984375 37.640625 27.21875 
Q 31.109375 20.453125 19.1875 8.296875 
z
" id="DejaVuSans-50"/>
       </defs>
       <use xlink:href="#DejaVuSans-8722"/>
       <use x="83.789062" xlink:href="#DejaVuSans-48"/>
       <use x="147.412109" xlink:href="#DejaVuSans-46"/>
       <use x="179.199219" xlink:href="#DejaVuSans-50"/>
      </g>
     </g>
    </g>
    <g id="xtick_2">
     <g id="line2d_2">
      <g>
       <use style="stroke:#000000;stroke-width:1.875;" x="210.051337" xlink:href="#m180f4a5bf0" y="388"/>
      </g>
     </g>
     <g id="text_2">
      <!-- 0.0 -->
      <g transform="translate(196.931259 413.037422)scale(0.165 -0.165)">
       <use xlink:href="#DejaVuSans-48"/>
       <use x="63.623047" xlink:href="#DejaVuSans-46"/>
       <use x="95.410156" xlink:href="#DejaVuSans-48"/>
      </g>
     </g>
    </g>
    <g id="xtick_3">
     <g id="line2d_3">
      <g>
       <use style="stroke:#000000;stroke-width:1.875;" x="281.66631" xlink:href="#m180f4a5bf0" y="388"/>
      </g>
     </g>
     <g id="text_3">
      <!-- 0.2 -->
      <g transform="translate(268.546232 413.037422)scale(0.165 -0.165)">
       <use xlink:href="#DejaVuSans-48"/>
       <use x="63.623047" xlink:href="#DejaVuSans-46"/>
       <use x="95.410156" xlink:href="#DejaVuSans-50"/>
      </g>
     </g>
    </g>
    <g id="xtick_4">
     <g id="line2d_4">
      <g>
       <use style="stroke:#000000;stroke-width:1.875;" x="353.281283" xlink:href="#m180f4a5bf0" y="388"/>
      </g>
     </g>
     <g id="text_4">
      <!-- 0.4 -->
      <g transform="translate(340.161205 413.037422)scale(0.165 -0.165)">
       <defs>
        <path d="M 37.796875 64.3125 
L 12.890625 25.390625 
L 37.796875 25.390625 
z
M 35.203125 72.90625 
L 47.609375 72.90625 
L 47.609375 25.390625 
L 58.015625 25.390625 
L 58.015625 17.1875 
L 47.609375 17.1875 
L 47.609375 0 
L 37.796875 0 
L 37.796875 17.1875 
L 4.890625 17.1875 
L 4.890625 26.703125 
z
" id="DejaVuSans-52"/>
       </defs>
       <use xlink:href="#DejaVuSans-48"/>
       <use x="63.623047" xlink:href="#DejaVuSans-46"/>
       <use x="95.410156" xlink:href="#DejaVuSans-52"/>
      </g>
     </g>
    </g>
    <g id="xtick_5">
     <g id="line2d_5">
      <g>
       <use style="stroke:#000000;stroke-width:1.875;" x="424.896257" xlink:href="#m180f4a5bf0" y="388"/>
      </g>
     </g>
     <g id="text_5">
      <!-- 0.6 -->
      <g transform="translate(411.776179 413.037422)scale(0.165 -0.165)">
       <defs>
        <path d="M 33.015625 40.375 
Q 26.375 40.375 22.484375 35.828125 
Q 18.609375 31.296875 18.609375 23.390625 
Q 18.609375 15.53125 22.484375 10.953125 
Q 26.375 6.390625 33.015625 6.390625 
Q 39.65625 6.390625 43.53125 10.953125 
Q 47.40625 15.53125 47.40625 23.390625 
Q 47.40625 31.296875 43.53125 35.828125 
Q 39.65625 40.375 33.015625 40.375 
z
M 52.59375 71.296875 
L 52.59375 62.3125 
Q 48.875 64.0625 45.09375 64.984375 
Q 41.3125 65.921875 37.59375 65.921875 
Q 27.828125 65.921875 22.671875 59.328125 
Q 17.53125 52.734375 16.796875 39.40625 
Q 19.671875 43.65625 24.015625 45.921875 
Q 28.375 48.1875 33.59375 48.1875 
Q 44.578125 48.1875 50.953125 41.515625 
Q 57.328125 34.859375 57.328125 23.390625 
Q 57.328125 12.15625 50.6875 5.359375 
Q 44.046875 -1.421875 33.015625 -1.421875 
Q 20.359375 -1.421875 13.671875 8.265625 
Q 6.984375 17.96875 6.984375 36.375 
Q 6.984375 53.65625 15.1875 63.9375 
Q 23.390625 74.21875 37.203125 74.21875 
Q 40.921875 74.21875 44.703125 73.484375 
Q 48.484375 72.75 52.59375 71.296875 
z
" id="DejaVuSans-54"/>
       </defs>
       <use xlink:href="#DejaVuSans-48"/>
       <use x="63.623047" xlink:href="#DejaVuSans-46"/>
       <use x="95.410156" xlink:href="#DejaVuSans-54"/>
      </g>
     </g>
    </g>
    <g id="xtick_6">
     <g id="line2d_6">
      <g>
       <use style="stroke:#000000;stroke-width:1.875;" x="496.51123" xlink:href="#m180f4a5bf0" y="388"/>
      </g>
     </g>
     <g id="text_6">
      <!-- 0.8 -->
      <g transform="translate(483.391152 413.037422)scale(0.165 -0.165)">
       <defs>
        <path d="M 31.78125 34.625 
Q 24.75 34.625 20.71875 30.859375 
Q 16.703125 27.09375 16.703125 20.515625 
Q 16.703125 13.921875 20.71875 10.15625 
Q 24.75 6.390625 31.78125 6.390625 
Q 38.8125 6.390625 42.859375 10.171875 
Q 46.921875 13.96875 46.921875 20.515625 
Q 46.921875 27.09375 42.890625 30.859375 
Q 38.875 34.625 31.78125 34.625 
z
M 21.921875 38.8125 
Q 15.578125 40.375 12.03125 44.71875 
Q 8.5 49.078125 8.5 55.328125 
Q 8.5 64.0625 14.71875 69.140625 
Q 20.953125 74.21875 31.78125 74.21875 
Q 42.671875 74.21875 48.875 69.140625 
Q 55.078125 64.0625 55.078125 55.328125 
Q 55.078125 49.078125 51.53125 44.71875 
Q 48 40.375 41.703125 38.8125 
Q 48.828125 37.15625 52.796875 32.3125 
Q 56.78125 27.484375 56.78125 20.515625 
Q 56.78125 9.90625 50.3125 4.234375 
Q 43.84375 -1.421875 31.78125 -1.421875 
Q 19.734375 -1.421875 13.25 4.234375 
Q 6.78125 9.90625 6.78125 20.515625 
Q 6.78125 27.484375 10.78125 32.3125 
Q 14.796875 37.15625 21.921875 38.8125 
z
M 18.3125 54.390625 
Q 18.3125 48.734375 21.84375 45.5625 
Q 25.390625 42.390625 31.78125 42.390625 
Q 38.140625 42.390625 41.71875 45.5625 
Q 45.3125 48.734375 45.3125 54.390625 
Q 45.3125 60.0625 41.71875 63.234375 
Q 38.140625 66.40625 31.78125 66.40625 
Q 25.390625 66.40625 21.84375 63.234375 
Q 18.3125 60.0625 18.3125 54.390625 
z
" id="DejaVuSans-56"/>
       </defs>
       <use xlink:href="#DejaVuSans-48"/>
       <use x="63.623047" xlink:href="#DejaVuSans-46"/>
       <use x="95.410156" xlink:href="#DejaVuSans-56"/>
      </g>
     </g>
    </g>
    <g id="xtick_7">
     <g id="line2d_7">
      <g>
       <use style="stroke:#000000;stroke-width:1.875;" x="568.126203" xlink:href="#m180f4a5bf0" y="388"/>
      </g>
     </g>
     <g id="text_7">
      <!-- 1.0 -->
      <g transform="translate(555.006125 413.037422)scale(0.165 -0.165)">
       <defs>
        <path d="M 12.40625 8.296875 
L 28.515625 8.296875 
L 28.515625 63.921875 
L 10.984375 60.40625 
L 10.984375 69.390625 
L 28.421875 72.90625 
L 38.28125 72.90625 
L 38.28125 8.296875 
L 54.390625 8.296875 
L 54.390625 0 
L 12.40625 0 
z
" id="DejaVuSans-49"/>
       </defs>
       <use xlink:href="#DejaVuSans-49"/>
       <use x="63.623047" xlink:href="#DejaVuSans-46"/>
       <use x="95.410156" xlink:href="#DejaVuSans-48"/>
      </g>
     </g>
    </g>
    <g id="xtick_8">
     <g id="line2d_8">
      <g>
       <use style="stroke:#000000;stroke-width:1.875;" x="639.741176" xlink:href="#m180f4a5bf0" y="388"/>
      </g>
     </g>
     <g id="text_8">
      <!-- 1.2 -->
      <g transform="translate(626.621098 413.037422)scale(0.165 -0.165)">
       <use xlink:href="#DejaVuSans-49"/>
       <use x="63.623047" xlink:href="#DejaVuSans-46"/>
       <use x="95.410156" xlink:href="#DejaVuSans-50"/>
      </g>
     </g>
    </g>
    <g id="xtick_9">
     <g id="line2d_9">
      <g>
       <use style="stroke:#000000;stroke-width:1.875;" x="711.35615" xlink:href="#m180f4a5bf0" y="388"/>
      </g>
     </g>
     <g id="text_9">
      <!-- 1.4 -->
      <g transform="translate(698.236072 413.037422)scale(0.165 -0.165)">
       <use xlink:href="#DejaVuSans-49"/>
       <use x="63.623047" xlink:href="#DejaVuSans-46"/>
       <use x="95.410156" xlink:href="#DejaVuSans-52"/>
      </g>
     </g>
    </g>
    <g id="text_10">
     <!-- Time (s) -->
     <g transform="translate(381.813281 443.264219)scale(0.3 -0.3)">
      <defs>
       <path d="M -0.296875 72.90625 
L 61.375 72.90625 
L 61.375 64.59375 
L 35.5 64.59375 
L 35.5 0 
L 25.59375 0 
L 25.59375 64.59375 
L -0.296875 64.59375 
z
" id="DejaVuSans-84"/>
       <path d="M 9.421875 54.6875 
L 18.40625 54.6875 
L 18.40625 0 
L 9.421875 0 
z
M 9.421875 75.984375 
L 18.40625 75.984375 
L 18.40625 64.59375 
L 9.421875 64.59375 
z
" id="DejaVuSans-105"/>
       <path d="M 52 44.1875 
Q 55.375 50.25 60.0625 53.125 
Q 64.75 56 71.09375 56 
Q 79.640625 56 84.28125 50.015625 
Q 88.921875 44.046875 88.921875 33.015625 
L 88.921875 0 
L 79.890625 0 
L 79.890625 32.71875 
Q 79.890625 40.578125 77.09375 44.375 
Q 74.3125 48.1875 68.609375 48.1875 
Q 61.625 48.1875 57.5625 43.546875 
Q 53.515625 38.921875 53.515625 30.90625 
L 53.515625 0 
L 44.484375 0 
L 44.484375 32.71875 
Q 44.484375 40.625 41.703125 44.40625 
Q 38.921875 48.1875 33.109375 48.1875 
Q 26.21875 48.1875 22.15625 43.53125 
Q 18.109375 38.875 18.109375 30.90625 
L 18.109375 0 
L 9.078125 0 
L 9.078125 54.6875 
L 18.109375 54.6875 
L 18.109375 46.1875 
Q 21.1875 51.21875 25.484375 53.609375 
Q 29.78125 56 35.6875 56 
Q 41.65625 56 45.828125 52.96875 
Q 50 49.953125 52 44.1875 
z
" id="DejaVuSans-109"/>
       <path d="M 56.203125 29.59375 
L 56.203125 25.203125 
L 14.890625 25.203125 
Q 15.484375 15.921875 20.484375 11.0625 
Q 25.484375 6.203125 34.421875 6.203125 
Q 39.59375 6.203125 44.453125 7.46875 
Q 49.3125 8.734375 54.109375 11.28125 
L 54.109375 2.78125 
Q 49.265625 0.734375 44.1875 -0.34375 
Q 39.109375 -1.421875 33.890625 -1.421875 
Q 20.796875 -1.421875 13.15625 6.1875 
Q 5.515625 13.8125 5.515625 26.8125 
Q 5.515625 40.234375 12.765625 48.109375 
Q 20.015625 56 32.328125 56 
Q 43.359375 56 49.78125 48.890625 
Q 56.203125 41.796875 56.203125 29.59375 
z
M 47.21875 32.234375 
Q 47.125 39.59375 43.09375 43.984375 
Q 39.0625 48.390625 32.421875 48.390625 
Q 24.90625 48.390625 20.390625 44.140625 
Q 15.875 39.890625 15.1875 32.171875 
z
" id="DejaVuSans-101"/>
       <path id="DejaVuSans-32"/>
       <path d="M 31 75.875 
Q 24.46875 64.65625 21.28125 53.65625 
Q 18.109375 42.671875 18.109375 31.390625 
Q 18.109375 20.125 21.3125 9.0625 
Q 24.515625 -2 31 -13.1875 
L 23.1875 -13.1875 
Q 15.875 -1.703125 12.234375 9.375 
Q 8.59375 20.453125 8.59375 31.390625 
Q 8.59375 42.28125 12.203125 53.3125 
Q 15.828125 64.359375 23.1875 75.875 
z
" id="DejaVuSans-40"/>
       <path d="M 44.28125 53.078125 
L 44.28125 44.578125 
Q 40.484375 46.53125 36.375 47.5 
Q 32.28125 48.484375 27.875 48.484375 
Q 21.1875 48.484375 17.84375 46.4375 
Q 14.5 44.390625 14.5 40.28125 
Q 14.5 37.15625 16.890625 35.375 
Q 19.28125 33.59375 26.515625 31.984375 
L 29.59375 31.296875 
Q 39.15625 29.25 43.1875 25.515625 
Q 47.21875 21.78125 47.21875 15.09375 
Q 47.21875 7.46875 41.1875 3.015625 
Q 35.15625 -1.421875 24.609375 -1.421875 
Q 20.21875 -1.421875 15.453125 -0.5625 
Q 10.6875 0.296875 5.421875 2 
L 5.421875 11.28125 
Q 10.40625 8.6875 15.234375 7.390625 
Q 20.0625 6.109375 24.8125 6.109375 
Q 31.15625 6.109375 34.5625 8.28125 
Q 37.984375 10.453125 37.984375 14.40625 
Q 37.984375 18.0625 35.515625 20.015625 
Q 33.0625 21.96875 24.703125 23.78125 
L 21.578125 24.515625 
Q 13.234375 26.265625 9.515625 29.90625 
Q 5.8125 33.546875 5.8125 39.890625 
Q 5.8125 47.609375 11.28125 51.796875 
Q 16.75 56 26.8125 56 
Q 31.78125 56 36.171875 55.265625 
Q 40.578125 54.546875 44.28125 53.078125 
z
" id="DejaVuSans-115"/>
       <path d="M 8.015625 75.875 
L 15.828125 75.875 
Q 23.140625 64.359375 26.78125 53.3125 
Q 30.421875 42.28125 30.421875 31.390625 
Q 30.421875 20.453125 26.78125 9.375 
Q 23.140625 -1.703125 15.828125 -13.1875 
L 8.015625 -13.1875 
Q 14.5 -2 17.703125 9.0625 
Q 20.90625 20.125 20.90625 31.390625 
Q 20.90625 42.671875 17.703125 53.65625 
Q 14.5 64.65625 8.015625 75.875 
z
" id="DejaVuSans-41"/>
      </defs>
      <use xlink:href="#DejaVuSans-84"/>
      <use x="57.958984" xlink:href="#DejaVuSans-105"/>
      <use x="85.742188" xlink:href="#DejaVuSans-109"/>
      <use x="183.154297" xlink:href="#DejaVuSans-101"/>
      <use x="244.677734" xlink:href="#DejaVuSans-32"/>
      <use x="276.464844" xlink:href="#DejaVuSans-40"/>
      <use x="315.478516" xlink:href="#DejaVuSans-115"/>
      <use x="367.578125" xlink:href="#DejaVuSans-41"/>
     </g>
    </g>
   </g>
   <g id="matplotlib.axis_2">
    <g id="ytick_1">
     <g id="line2d_10">
      <defs>
       <path d="M 0 0 
L -9 0 
" id="mfe5bf07fc8" style="stroke:#000000;stroke-width:1.875;"/>
      </defs>
      <g>
       <use style="stroke:#000000;stroke-width:1.875;" x="98" xlink:href="#mfe5bf07fc8" y="326.957691"/>
      </g>
     </g>
     <g id="text_11">
      <!-- 0.50 -->
      <g transform="translate(48.761719 333.226402)scale(0.165 -0.165)">
       <defs>
        <path d="M 10.796875 72.90625 
L 49.515625 72.90625 
L 49.515625 64.59375 
L 19.828125 64.59375 
L 19.828125 46.734375 
Q 21.96875 47.46875 24.109375 47.828125 
Q 26.265625 48.1875 28.421875 48.1875 
Q 40.625 48.1875 47.75 41.5 
Q 54.890625 34.8125 54.890625 23.390625 
Q 54.890625 11.625 47.5625 5.09375 
Q 40.234375 -1.421875 26.90625 -1.421875 
Q 22.3125 -1.421875 17.546875 -0.640625 
Q 12.796875 0.140625 7.71875 1.703125 
L 7.71875 11.625 
Q 12.109375 9.234375 16.796875 8.0625 
Q 21.484375 6.890625 26.703125 6.890625 
Q 35.15625 6.890625 40.078125 11.328125 
Q 45.015625 15.765625 45.015625 23.390625 
Q 45.015625 31 40.078125 35.4375 
Q 35.15625 39.890625 26.703125 39.890625 
Q 22.75 39.890625 18.8125 39.015625 
Q 14.890625 38.140625 10.796875 36.28125 
z
" id="DejaVuSans-53"/>
       </defs>
       <use xlink:href="#DejaVuSans-48"/>
       <use x="63.623047" xlink:href="#DejaVuSans-46"/>
       <use x="95.410156" xlink:href="#DejaVuSans-53"/>
       <use x="159.033203" xlink:href="#DejaVuSans-48"/>
      </g>
     </g>
    </g>
    <g id="ytick_2">
     <g id="line2d_11">
      <g>
       <use style="stroke:#000000;stroke-width:1.875;" x="98" xlink:href="#mfe5bf07fc8" y="263.327157"/>
      </g>
     </g>
     <g id="text_12">
      <!-- 0.55 -->
      <g transform="translate(48.761719 269.595868)scale(0.165 -0.165)">
       <use xlink:href="#DejaVuSans-48"/>
       <use x="63.623047" xlink:href="#DejaVuSans-46"/>
       <use x="95.410156" xlink:href="#DejaVuSans-53"/>
       <use x="159.033203" xlink:href="#DejaVuSans-53"/>
      </g>
     </g>
    </g>
    <g id="ytick_3">
     <g id="line2d_12">
      <g>
       <use style="stroke:#000000;stroke-width:1.875;" x="98" xlink:href="#mfe5bf07fc8" y="199.696624"/>
      </g>
     </g>
     <g id="text_13">
      <!-- 0.60 -->
      <g transform="translate(48.761719 205.965335)scale(0.165 -0.165)">
       <use xlink:href="#DejaVuSans-48"/>
       <use x="63.623047" xlink:href="#DejaVuSans-46"/>
       <use x="95.410156" xlink:href="#DejaVuSans-54"/>
       <use x="159.033203" xlink:href="#DejaVuSans-48"/>
      </g>
     </g>
    </g>
    <g id="ytick_4">
     <g id="line2d_13">
      <g>
       <use style="stroke:#000000;stroke-width:1.875;" x="98" xlink:href="#mfe5bf07fc8" y="136.06609"/>
      </g>
     </g>
     <g id="text_14">
      <!-- 0.65 -->
      <g transform="translate(48.761719 142.334801)scale(0.165 -0.165)">
       <use xlink:href="#DejaVuSans-48"/>
       <use x="63.623047" xlink:href="#DejaVuSans-46"/>
       <use x="95.410156" xlink:href="#DejaVuSans-54"/>
       <use x="159.033203" xlink:href="#DejaVuSans-53"/>
      </g>
     </g>
    </g>
    <g id="ytick_5">
     <g id="line2d_14">
      <g>
       <use style="stroke:#000000;stroke-width:1.875;" x="98" xlink:href="#mfe5bf07fc8" y="72.435557"/>
      </g>
     </g>
     <g id="text_15">
      <!-- 0.70 -->
      <g transform="translate(48.761719 78.704268)scale(0.165 -0.165)">
       <defs>
        <path d="M 8.203125 72.90625 
L 55.078125 72.90625 
L 55.078125 68.703125 
L 28.609375 0 
L 18.3125 0 
L 43.21875 64.59375 
L 8.203125 64.59375 
z
" id="DejaVuSans-55"/>
       </defs>
       <use xlink:href="#DejaVuSans-48"/>
       <use x="63.623047" xlink:href="#DejaVuSans-46"/>
       <use x="95.410156" xlink:href="#DejaVuSans-55"/>
       <use x="159.033203" xlink:href="#DejaVuSans-48"/>
      </g>
     </g>
    </g>
    <g id="text_16">
     <!-- AUC -->
     <g transform="translate(38.522656 246.633281)rotate(-90)scale(0.3 -0.3)">
      <defs>
       <path d="M 34.1875 63.1875 
L 20.796875 26.90625 
L 47.609375 26.90625 
z
M 28.609375 72.90625 
L 39.796875 72.90625 
L 67.578125 0 
L 57.328125 0 
L 50.6875 18.703125 
L 17.828125 18.703125 
L 11.1875 0 
L 0.78125 0 
z
" id="DejaVuSans-65"/>
       <path d="M 8.6875 72.90625 
L 18.609375 72.90625 
L 18.609375 28.609375 
Q 18.609375 16.890625 22.84375 11.734375 
Q 27.09375 6.59375 36.625 6.59375 
Q 46.09375 6.59375 50.34375 11.734375 
Q 54.59375 16.890625 54.59375 28.609375 
L 54.59375 72.90625 
L 64.5 72.90625 
L 64.5 27.390625 
Q 64.5 13.140625 57.4375 5.859375 
Q 50.390625 -1.421875 36.625 -1.421875 
Q 22.796875 -1.421875 15.734375 5.859375 
Q 8.6875 13.140625 8.6875 27.390625 
z
" id="DejaVuSans-85"/>
       <path d="M 64.40625 67.28125 
L 64.40625 56.890625 
Q 59.421875 61.53125 53.78125 63.8125 
Q 48.140625 66.109375 41.796875 66.109375 
Q 29.296875 66.109375 22.65625 58.46875 
Q 16.015625 50.828125 16.015625 36.375 
Q 16.015625 21.96875 22.65625 14.328125 
Q 29.296875 6.6875 41.796875 6.6875 
Q 48.140625 6.6875 53.78125 8.984375 
Q 59.421875 11.28125 64.40625 15.921875 
L 64.40625 5.609375 
Q 59.234375 2.09375 53.4375 0.328125 
Q 47.65625 -1.421875 41.21875 -1.421875 
Q 24.65625 -1.421875 15.125 8.703125 
Q 5.609375 18.84375 5.609375 36.375 
Q 5.609375 53.953125 15.125 64.078125 
Q 24.65625 74.21875 41.21875 74.21875 
Q 47.75 74.21875 53.53125 72.484375 
Q 59.328125 70.75 64.40625 67.28125 
z
" id="DejaVuSans-67"/>
      </defs>
      <use xlink:href="#DejaVuSans-65"/>
      <use x="68.408203" xlink:href="#DejaVuSans-85"/>
      <use x="141.601562" xlink:href="#DejaVuSans-67"/>
     </g>
    </g>
   </g>
   <g id="line2d_15">
    <path clip-path="url(#pb9d632dcc4)" d="M 138.436364 341.393605 
L 142.017112 346.918509 
L 145.597861 337.540186 
L 149.17861 323.458065 
L 152.759358 328.06319 
L 156.340107 315.302061 
L 159.920856 329.971184 
L 163.501604 324.636689 
L 167.082353 326.07638 
L 170.663102 339.896869 
L 174.24385 349.485665 
L 177.824599 328.130703 
L 181.405348 324.680396 
L 184.986096 321.90068 
L 188.566845 327.425166 
L 192.147594 335.197022 
L 195.728342 323.786091 
L 199.309091 310.179307 
L 202.88984 318.468992 
L 206.470588 327.514653 
L 210.051337 319.21989 
L 213.632086 332.185226 
L 217.212834 303.429036 
L 220.793583 331.774363 
L 224.374332 318.125805 
L 227.95508 321.844203 
L 231.535829 308.089741 
L 235.116578 325.509079 
L 238.697326 294.384439 
L 242.278075 322.452338 
L 245.858824 321.846414 
L 249.439572 314.454954 
L 253.020321 303.230341 
L 256.60107 310.550357 
L 260.181818 318.820389 
L 263.762567 299.031583 
L 267.343316 290.157132 
L 270.924064 297.651929 
L 274.504813 289.318204 
L 278.085561 261.846159 
L 281.66631 264.229834 
L 285.247059 274.891117 
L 288.827807 282.429011 
L 292.408556 269.891517 
L 295.989305 304.046928 
L 299.570053 268.675071 
L 303.150802 260.650717 
L 306.731551 271.095229 
L 310.312299 234.396422 
L 313.893048 178.723803 
L 317.473797 126.812311 
L 321.054545 85.730823 
L 324.635294 92.338539 
L 328.216043 114.2067 
L 331.796791 134.496495 
L 335.37754 159.925147 
L 338.958289 193.20345 
L 342.539037 209.112262 
L 346.119786 217.087485 
L 349.700535 232.228239 
L 353.281283 221.826439 
L 356.862032 220.366253 
L 360.442781 220.998912 
L 364.023529 217.839391 
L 367.604278 219.781957 
L 371.185027 222.22028 
L 374.765775 244.085144 
L 378.346524 256.924714 
L 381.927273 253.795471 
L 385.508021 220.559944 
L 389.08877 237.415508 
L 392.669519 239.049675 
L 396.250267 251.167413 
L 399.831016 241.649311 
L 403.411765 245.25104 
L 406.992513 268.911029 
L 410.573262 279.383185 
L 414.154011 275.930018 
L 417.734759 295.593393 
L 421.315508 283.723081 
L 424.896257 274.868278 
L 428.477005 281.223406 
L 432.057754 281.026407 
L 435.638503 281.651131 
L 439.219251 298.819716 
L 442.8 292.329428 
L 446.380749 284.40139 
L 449.961497 278.307575 
L 453.542246 284.42228 
L 457.122995 295.487488 
L 460.703743 290.733312 
L 464.284492 267.062249 
L 467.865241 282.851424 
L 471.445989 294.722917 
L 475.026738 262.103203 
L 478.607487 290.091798 
L 482.188235 292.002752 
L 485.768984 294.99609 
L 489.349733 275.336462 
L 492.930481 311.11726 
L 496.51123 311.144985 
L 500.091979 300.332069 
L 503.672727 307.354492 
L 507.253476 300.740638 
L 510.834225 269.860101 
L 514.414973 273.376403 
L 517.995722 302.743693 
L 521.576471 286.624487 
L 525.157219 275.424051 
L 528.737968 282.743229 
L 535.899465 293.530973 
L 539.480214 269.092159 
L 543.060963 291.636186 
L 546.641711 297.65241 
L 550.22246 307.960047 
L 553.803209 285.451134 
L 557.383957 282.099687 
L 560.964706 298.713022 
L 564.545455 292.473773 
L 568.126203 285.046695 
L 571.706952 288.390086 
L 575.287701 315.572929 
L 578.868449 307.589134 
L 582.449198 303.601592 
L 586.029947 307.201987 
L 589.610695 303.143379 
L 593.191444 286.396671 
L 596.772193 283.908048 
L 600.352941 288.771253 
L 603.93369 312.046599 
L 607.514439 297.414078 
L 611.095187 304.106629 
L 614.675936 325.531981 
L 618.256684 314.683931 
L 621.837433 321.27589 
L 625.418182 304.441129 
L 628.99893 313.316133 
L 632.579679 312.380573 
L 636.160428 304.654876 
L 639.741176 315.686636 
L 643.321925 308.129949 
L 646.902674 297.160832 
L 650.483422 285.207225 
L 654.064171 286.186801 
L 657.64492 294.192546 
L 661.225668 320.741975 
L 664.806417 323.16331 
L 668.387166 294.401876 
L 671.967914 300.680522 
L 675.548663 316.220301 
L 679.129412 310.775206 
L 682.71016 300.597758 
L 686.290909 322.155642 
L 689.871658 301.996864 
L 693.452406 306.064521 
L 697.033155 305.620953 
L 700.613904 306.515099 
L 704.194652 291.60265 
L 707.775401 311.280866 
L 711.35615 318.133177 
L 714.936898 310.85936 
L 718.517647 307.709791 
L 722.098396 312.019862 
L 725.679144 325.799893 
L 729.259893 317.305622 
L 732.840642 313.154408 
L 736.42139 327.681312 
L 740.002139 315.222012 
L 743.582888 306.945315 
L 747.163636 295.42167 
L 747.163636 295.42167 
" style="fill:none;stroke:#4169e1;stroke-linecap:square;stroke-width:2.25;"/>
   </g>
   <g id="line2d_16">
    <path clip-path="url(#pb9d632dcc4)" d="M 108 326.957691 
L 777.6 326.957691 
" style="fill:none;stroke:#808080;stroke-dasharray:8.325,3.6;stroke-dashoffset:0;stroke-width:2.25;"/>
   </g>
   <g id="line2d_17">
    <path clip-path="url(#pb9d632dcc4)" d="M 281.66631 378 
L 281.66631 51.84 
" style="fill:none;stroke:#ff0000;stroke-dasharray:8.325,3.6;stroke-dashoffset:0;stroke-width:2.25;"/>
   </g>
   <g id="line2d_18">
    <path clip-path="url(#pb9d632dcc4)" d="M 210.051337 378 
L 210.051337 51.84 
" style="fill:none;stroke:#000000;stroke-linecap:square;stroke-width:2.25;"/>
   </g>
   <g id="line2d_19">
    <path clip-path="url(#pb9d632dcc4)" d="M 299.570053 268.675071 
L 303.150802 260.650717 
L 306.731551 271.095229 
L 310.312299 234.396422 
L 313.893048 178.723803 
L 317.473797 126.812311 
L 321.054545 85.730823 
L 324.635294 92.338539 
L 328.216043 114.2067 
L 331.796791 134.496495 
L 335.37754 159.925147 
L 338.958289 193.20345 
L 342.539037 209.112262 
L 346.119786 217.087485 
L 349.700535 232.228239 
L 353.281283 221.826439 
L 356.862032 220.366253 
L 360.442781 220.998912 
L 364.023529 217.839391 
L 367.604278 219.781957 
L 371.185027 222.22028 
L 374.765775 244.085144 
L 378.346524 256.924714 
L 381.927273 253.795471 
L 385.508021 220.559944 
L 389.08877 237.415508 
L 392.669519 239.049675 
L 396.250267 251.167413 
L 399.831016 241.649311 
L 403.411765 245.25104 
L 406.992513 268.911029 
L 410.573262 279.383185 
L 414.154011 275.930018 
M 442.8 292.329428 
L 446.380749 284.40139 
L 449.961497 278.307575 
L 453.542246 284.42228 
L 457.122995 295.487488 
L 460.703743 290.733312 
L 464.284492 267.062249 
L 467.865241 282.851424 
L 471.445989 294.722917 
L 475.026738 262.103203 
L 478.607487 290.091798 
L 482.188235 292.002752 
L 482.188235 292.002752 
" style="fill:none;stroke:#000000;stroke-linecap:square;stroke-width:3;"/>
   </g>
   <g id="patch_3">
    <path d="M 98 326.957691 
L 98 72.435557 
" style="fill:none;stroke:#000000;stroke-linecap:square;stroke-linejoin:miter;stroke-width:1.875;"/>
   </g>
   <g id="patch_4">
    <path d="M 138.436364 388 
L 711.35615 388 
" style="fill:none;stroke:#000000;stroke-linecap:square;stroke-linejoin:miter;stroke-width:1.875;"/>
   </g>
  </g>
 </g>
 <defs>
  <clipPath id="pb9d632dcc4">
   <rect height="326.16" width="669.6" x="108" y="51.84"/>
  </clipPath>
 </defs>
</svg>
