<?xml version="1.0" encoding="utf-8" standalone="no"?>
<!DOCTYPE svg PUBLIC "-//W3C//DTD SVG 1.1//EN"
  "http://www.w3.org/Graphics/SVG/1.1/DTD/svg11.dtd">
<svg xmlns:xlink="http://www.w3.org/1999/xlink" width="431.389687pt" height="397.254375pt" viewBox="0 0 431.389687 397.254375" xmlns="http://www.w3.org/2000/svg" version="1.1">
 <metadata>
  <rdf:RDF xmlns:dc="http://purl.org/dc/elements/1.1/" xmlns:cc="http://creativecommons.org/ns#" xmlns:rdf="http://www.w3.org/1999/02/22-rdf-syntax-ns#">
   <cc:Work>
    <dc:type rdf:resource="http://purl.org/dc/dcmitype/StillImage"/>
    <dc:date>2022-10-10T11:33:04.704926</dc:date>
    <dc:format>image/svg+xml</dc:format>
    <dc:creator>
     <cc:Agent>
      <dc:title>Matplotlib v3.5.1, https://matplotlib.org/</dc:title>
     </cc:Agent>
    </dc:creator>
   </cc:Work>
  </rdf:RDF>
 </metadata>
 <defs>
  <style type="text/css">*{stroke-linejoin: round; stroke-linecap: butt}</style>
 </defs>
 <g id="figure_1">
  <g id="patch_1">
   <path d="M 0 397.254375 
L 431.389687 397.254375 
L 431.389687 0 
L 0 0 
L 0 397.254375 
z
" style="fill: none"/>
  </g>
  <g id="axes_1">
   <g id="patch_2">
    <path d="M 89.389688 353.037187 
L 424.189687 353.037187 
L 424.189687 26.877187 
L 89.389688 26.877187 
z
" style="fill: #ffffff"/>
   </g>
   <g id="PathCollection_1">
    <defs>
     <path id="C0_0_4b3d6f3e4d" d="M 0 5 
C 1.326016 5 2.597899 4.473168 3.535534 3.535534 
C 4.473168 2.597899 5 1.326016 5 -0 
C 5 -1.326016 4.473168 -2.597899 3.535534 -3.535534 
C 2.597899 -4.473168 1.326016 -5 0 -5 
C -1.326016 -5 -2.597899 -4.473168 -3.535534 -3.535534 
C -4.473168 -2.597899 -5 -1.326016 -5 0 
C -5 1.326016 -4.473168 2.597899 -3.535534 3.535534 
C -2.597899 4.473168 -1.326016 5 0 5 
z
"/>
    </defs>
    <g clip-path="url(#p6d6a726f6d)">
     <use xlink:href="#C0_0_4b3d6f3e4d" x="143.35488" y="78.766278" style="fill: #808080; fill-opacity: 0.4"/>
    </g>
    <g clip-path="url(#p6d6a726f6d)">
     <use xlink:href="#C0_0_4b3d6f3e4d" x="144.194778" y="152.893551" style="fill: #808080; fill-opacity: 0.4"/>
    </g>
    <g clip-path="url(#p6d6a726f6d)">
     <use xlink:href="#C0_0_4b3d6f3e4d" x="151.227337" y="115.829915" style="fill: #808080; fill-opacity: 0.4"/>
    </g>
    <g clip-path="url(#p6d6a726f6d)">
     <use xlink:href="#C0_0_4b3d6f3e4d" x="137.434553" y="78.766278" style="fill: #808080; fill-opacity: 0.4"/>
    </g>
    <g clip-path="url(#p6d6a726f6d)">
     <use xlink:href="#C0_0_4b3d6f3e4d" x="142.460209" y="41.702642" style="fill: #808080; fill-opacity: 0.4"/>
    </g>
    <g clip-path="url(#p6d6a726f6d)">
     <use xlink:href="#C0_0_4b3d6f3e4d" x="136.584594" y="41.702642" style="fill: #808080; fill-opacity: 0.4"/>
    </g>
    <g clip-path="url(#p6d6a726f6d)">
     <use xlink:href="#C0_0_4b3d6f3e4d" x="154.75321" y="41.702642" style="fill: #808080; fill-opacity: 0.4"/>
    </g>
    <g clip-path="url(#p6d6a726f6d)">
     <use xlink:href="#C0_0_4b3d6f3e4d" x="154.070634" y="41.702642" style="fill: #808080; fill-opacity: 0.4"/>
    </g>
    <g clip-path="url(#p6d6a726f6d)">
     <use xlink:href="#C0_0_4b3d6f3e4d" x="156.061824" y="41.702642" style="fill: #808080; fill-opacity: 0.4"/>
    </g>
    <g clip-path="url(#p6d6a726f6d)">
     <use xlink:href="#C0_0_4b3d6f3e4d" x="141.242195" y="41.702642" style="fill: #808080; fill-opacity: 0.4"/>
    </g>
    <g clip-path="url(#p6d6a726f6d)">
     <use xlink:href="#C0_0_4b3d6f3e4d" x="137.284244" y="115.829915" style="fill: #808080; fill-opacity: 0.4"/>
    </g>
    <g clip-path="url(#p6d6a726f6d)">
     <use xlink:href="#C0_0_4b3d6f3e4d" x="154.202091" y="41.702642" style="fill: #808080; fill-opacity: 0.4"/>
    </g>
    <g clip-path="url(#p6d6a726f6d)">
     <use xlink:href="#C0_0_4b3d6f3e4d" x="138.714218" y="41.702642" style="fill: #808080; fill-opacity: 0.4"/>
    </g>
    <g clip-path="url(#p6d6a726f6d)">
     <use xlink:href="#C0_0_4b3d6f3e4d" x="145.841727" y="41.702642" style="fill: #808080; fill-opacity: 0.4"/>
    </g>
    <g clip-path="url(#p6d6a726f6d)">
     <use xlink:href="#C0_0_4b3d6f3e4d" x="148.160226" y="41.702642" style="fill: #808080; fill-opacity: 0.4"/>
    </g>
    <g clip-path="url(#p6d6a726f6d)">
     <use xlink:href="#C0_0_4b3d6f3e4d" x="147.631093" y="78.766278" style="fill: #808080; fill-opacity: 0.4"/>
    </g>
    <g clip-path="url(#p6d6a726f6d)">
     <use xlink:href="#C0_0_4b3d6f3e4d" x="140.816917" y="189.957188" style="fill: #808080; fill-opacity: 0.4"/>
    </g>
    <g clip-path="url(#p6d6a726f6d)">
     <use xlink:href="#C0_0_4b3d6f3e4d" x="139.204752" y="78.766278" style="fill: #808080; fill-opacity: 0.4"/>
    </g>
    <g clip-path="url(#p6d6a726f6d)">
     <use xlink:href="#C0_0_4b3d6f3e4d" x="142.813939" y="41.702642" style="fill: #808080; fill-opacity: 0.4"/>
    </g>
    <g clip-path="url(#p6d6a726f6d)">
     <use xlink:href="#C0_0_4b3d6f3e4d" x="149.977341" y="227.020824" style="fill: #808080; fill-opacity: 0.4"/>
    </g>
    <g clip-path="url(#p6d6a726f6d)">
     <use xlink:href="#C0_0_4b3d6f3e4d" x="152.716396" y="41.702642" style="fill: #808080; fill-opacity: 0.4"/>
    </g>
    <g clip-path="url(#p6d6a726f6d)">
     <use xlink:href="#C0_0_4b3d6f3e4d" x="151.543105" y="41.702642" style="fill: #808080; fill-opacity: 0.4"/>
    </g>
    <g clip-path="url(#p6d6a726f6d)">
     <use xlink:href="#C0_0_4b3d6f3e4d" x="150.970278" y="115.829915" style="fill: #808080; fill-opacity: 0.4"/>
    </g>
    <g clip-path="url(#p6d6a726f6d)">
     <use xlink:href="#C0_0_4b3d6f3e4d" x="147.968411" y="41.702642" style="fill: #808080; fill-opacity: 0.4"/>
    </g>
   </g>
   <g id="PathCollection_2">
    <defs>
     <path id="C1_0_4ea4c6d63e" d="M 0 5 
C 1.326016 5 2.597899 4.473168 3.535534 3.535534 
C 4.473168 2.597899 5 1.326016 5 -0 
C 5 -1.326016 4.473168 -2.597899 3.535534 -3.535534 
C 2.597899 -4.473168 1.326016 -5 0 -5 
C -1.326016 -5 -2.597899 -4.473168 -3.535534 -3.535534 
C -4.473168 -2.597899 -5 -1.326016 -5 0 
C -5 1.326016 -4.473168 2.597899 -3.535534 3.535534 
C -2.597899 4.473168 -1.326016 5 0 5 
z
"/>
    </defs>
    <g clip-path="url(#p6d6a726f6d)">
     <use xlink:href="#C1_0_4ea4c6d63e" x="266.442157" y="115.829915" style="fill: #808080; fill-opacity: 0.4"/>
    </g>
    <g clip-path="url(#p6d6a726f6d)">
     <use xlink:href="#C1_0_4ea4c6d63e" x="246.808519" y="264.08446" style="fill: #808080; fill-opacity: 0.4"/>
    </g>
    <g clip-path="url(#p6d6a726f6d)">
     <use xlink:href="#C1_0_4ea4c6d63e" x="261.827688" y="78.766278" style="fill: #808080; fill-opacity: 0.4"/>
    </g>
    <g clip-path="url(#p6d6a726f6d)">
     <use xlink:href="#C1_0_4ea4c6d63e" x="245.658897" y="227.020824" style="fill: #808080; fill-opacity: 0.4"/>
    </g>
    <g clip-path="url(#p6d6a726f6d)">
     <use xlink:href="#C1_0_4ea4c6d63e" x="251.869152" y="115.829915" style="fill: #808080; fill-opacity: 0.4"/>
    </g>
    <g clip-path="url(#p6d6a726f6d)">
     <use xlink:href="#C1_0_4ea4c6d63e" x="248.411982" y="41.702642" style="fill: #808080; fill-opacity: 0.4"/>
    </g>
    <g clip-path="url(#p6d6a726f6d)">
     <use xlink:href="#C1_0_4ea4c6d63e" x="262.595234" y="41.702642" style="fill: #808080; fill-opacity: 0.4"/>
    </g>
    <g clip-path="url(#p6d6a726f6d)">
     <use xlink:href="#C1_0_4ea4c6d63e" x="250.498305" y="115.829915" style="fill: #808080; fill-opacity: 0.4"/>
    </g>
    <g clip-path="url(#p6d6a726f6d)">
     <use xlink:href="#C1_0_4ea4c6d63e" x="264.459226" y="227.020824" style="fill: #808080; fill-opacity: 0.4"/>
    </g>
    <g clip-path="url(#p6d6a726f6d)">
     <use xlink:href="#C1_0_4ea4c6d63e" x="267.259447" y="41.702642" style="fill: #808080; fill-opacity: 0.4"/>
    </g>
    <g clip-path="url(#p6d6a726f6d)">
     <use xlink:href="#C1_0_4ea4c6d63e" x="252.047505" y="152.893551" style="fill: #808080; fill-opacity: 0.4"/>
    </g>
    <g clip-path="url(#p6d6a726f6d)">
     <use xlink:href="#C1_0_4ea4c6d63e" x="249.134871" y="78.766278" style="fill: #808080; fill-opacity: 0.4"/>
    </g>
    <g clip-path="url(#p6d6a726f6d)">
     <use xlink:href="#C1_0_4ea4c6d63e" x="252.069337" y="78.766278" style="fill: #808080; fill-opacity: 0.4"/>
    </g>
    <g clip-path="url(#p6d6a726f6d)">
     <use xlink:href="#C1_0_4ea4c6d63e" x="264.050487" y="41.702642" style="fill: #808080; fill-opacity: 0.4"/>
    </g>
    <g clip-path="url(#p6d6a726f6d)">
     <use xlink:href="#C1_0_4ea4c6d63e" x="254.082857" y="115.829915" style="fill: #808080; fill-opacity: 0.4"/>
    </g>
    <g clip-path="url(#p6d6a726f6d)">
     <use xlink:href="#C1_0_4ea4c6d63e" x="251.174258" y="78.766278" style="fill: #808080; fill-opacity: 0.4"/>
    </g>
    <g clip-path="url(#p6d6a726f6d)">
     <use xlink:href="#C1_0_4ea4c6d63e" x="261.094958" y="338.211733" style="fill: #808080; fill-opacity: 0.4"/>
    </g>
    <g clip-path="url(#p6d6a726f6d)">
     <use xlink:href="#C1_0_4ea4c6d63e" x="259.089033" y="152.893551" style="fill: #808080; fill-opacity: 0.4"/>
    </g>
    <g clip-path="url(#p6d6a726f6d)">
     <use xlink:href="#C1_0_4ea4c6d63e" x="252.31184" y="78.766278" style="fill: #808080; fill-opacity: 0.4"/>
    </g>
    <g clip-path="url(#p6d6a726f6d)">
     <use xlink:href="#C1_0_4ea4c6d63e" x="250.363395" y="338.211733" style="fill: #808080; fill-opacity: 0.4"/>
    </g>
    <g clip-path="url(#p6d6a726f6d)">
     <use xlink:href="#C1_0_4ea4c6d63e" x="259.913262" y="78.766278" style="fill: #808080; fill-opacity: 0.4"/>
    </g>
    <g clip-path="url(#p6d6a726f6d)">
     <use xlink:href="#C1_0_4ea4c6d63e" x="267.384005" y="41.702642" style="fill: #808080; fill-opacity: 0.4"/>
    </g>
    <g clip-path="url(#p6d6a726f6d)">
     <use xlink:href="#C1_0_4ea4c6d63e" x="267.387467" y="227.020824" style="fill: #808080; fill-opacity: 0.4"/>
    </g>
    <g clip-path="url(#p6d6a726f6d)">
     <use xlink:href="#C1_0_4ea4c6d63e" x="246.111824" y="152.893551" style="fill: #808080; fill-opacity: 0.4"/>
    </g>
   </g>
   <g id="PathCollection_3">
    <defs>
     <path id="C2_0_c862657bfd" d="M 0 5 
C 1.326016 5 2.597899 4.473168 3.535534 3.535534 
C 4.473168 2.597899 5 1.326016 5 -0 
C 5 -1.326016 4.473168 -2.597899 3.535534 -3.535534 
C 2.597899 -4.473168 1.326016 -5 0 -5 
C -1.326016 -5 -2.597899 -4.473168 -3.535534 -3.535534 
C -4.473168 -2.597899 -5 -1.326016 -5 0 
C -5 1.326016 -4.473168 2.597899 -3.535534 3.535534 
C -2.597899 4.473168 -1.326016 5 0 5 
z
"/>
    </defs>
    <g clip-path="url(#p6d6a726f6d)">
     <use xlink:href="#C2_0_c862657bfd" x="371.533582" y="41.702642" style="fill: #808080; fill-opacity: 0.4"/>
    </g>
    <g clip-path="url(#p6d6a726f6d)">
     <use xlink:href="#C2_0_c862657bfd" x="361.405457" y="152.893551" style="fill: #808080; fill-opacity: 0.4"/>
    </g>
    <g clip-path="url(#p6d6a726f6d)">
     <use xlink:href="#C2_0_c862657bfd" x="373.999659" y="152.893551" style="fill: #808080; fill-opacity: 0.4"/>
    </g>
    <g clip-path="url(#p6d6a726f6d)">
     <use xlink:href="#C2_0_c862657bfd" x="378.713697" y="78.766278" style="fill: #808080; fill-opacity: 0.4"/>
    </g>
    <g clip-path="url(#p6d6a726f6d)">
     <use xlink:href="#C2_0_c862657bfd" x="378.585012" y="41.702642" style="fill: #808080; fill-opacity: 0.4"/>
    </g>
    <g clip-path="url(#p6d6a726f6d)">
     <use xlink:href="#C2_0_c862657bfd" x="368.597422" y="78.766278" style="fill: #808080; fill-opacity: 0.4"/>
    </g>
    <g clip-path="url(#p6d6a726f6d)">
     <use xlink:href="#C2_0_c862657bfd" x="365.650553" y="41.702642" style="fill: #808080; fill-opacity: 0.4"/>
    </g>
    <g clip-path="url(#p6d6a726f6d)">
     <use xlink:href="#C2_0_c862657bfd" x="364.189384" y="78.766278" style="fill: #808080; fill-opacity: 0.4"/>
    </g>
    <g clip-path="url(#p6d6a726f6d)">
     <use xlink:href="#C2_0_c862657bfd" x="365.2286" y="78.766278" style="fill: #808080; fill-opacity: 0.4"/>
    </g>
    <g clip-path="url(#p6d6a726f6d)">
     <use xlink:href="#C2_0_c862657bfd" x="359.753523" y="115.829915" style="fill: #808080; fill-opacity: 0.4"/>
    </g>
    <g clip-path="url(#p6d6a726f6d)">
     <use xlink:href="#C2_0_c862657bfd" x="371.342742" y="41.702642" style="fill: #808080; fill-opacity: 0.4"/>
    </g>
    <g clip-path="url(#p6d6a726f6d)">
     <use xlink:href="#C2_0_c862657bfd" x="357.2881" y="41.702642" style="fill: #808080; fill-opacity: 0.4"/>
    </g>
    <g clip-path="url(#p6d6a726f6d)">
     <use xlink:href="#C2_0_c862657bfd" x="370.585575" y="78.766278" style="fill: #808080; fill-opacity: 0.4"/>
    </g>
    <g clip-path="url(#p6d6a726f6d)">
     <use xlink:href="#C2_0_c862657bfd" x="370.992317" y="78.766278" style="fill: #808080; fill-opacity: 0.4"/>
    </g>
    <g clip-path="url(#p6d6a726f6d)">
     <use xlink:href="#C2_0_c862657bfd" x="358.217023" y="41.702642" style="fill: #808080; fill-opacity: 0.4"/>
    </g>
    <g clip-path="url(#p6d6a726f6d)">
     <use xlink:href="#C2_0_c862657bfd" x="363.254156" y="41.702642" style="fill: #808080; fill-opacity: 0.4"/>
    </g>
    <g clip-path="url(#p6d6a726f6d)">
     <use xlink:href="#C2_0_c862657bfd" x="370.374918" y="227.020824" style="fill: #808080; fill-opacity: 0.4"/>
    </g>
    <g clip-path="url(#p6d6a726f6d)">
     <use xlink:href="#C2_0_c862657bfd" x="372.912318" y="78.766278" style="fill: #808080; fill-opacity: 0.4"/>
    </g>
    <g clip-path="url(#p6d6a726f6d)">
     <use xlink:href="#C2_0_c862657bfd" x="361.736495" y="41.702642" style="fill: #808080; fill-opacity: 0.4"/>
    </g>
    <g clip-path="url(#p6d6a726f6d)">
     <use xlink:href="#C2_0_c862657bfd" x="361.240169" y="189.957188" style="fill: #808080; fill-opacity: 0.4"/>
    </g>
    <g clip-path="url(#p6d6a726f6d)">
     <use xlink:href="#C2_0_c862657bfd" x="367.4151" y="78.766278" style="fill: #808080; fill-opacity: 0.4"/>
    </g>
    <g clip-path="url(#p6d6a726f6d)">
     <use xlink:href="#C2_0_c862657bfd" x="363.048461" y="41.702642" style="fill: #808080; fill-opacity: 0.4"/>
    </g>
    <g clip-path="url(#p6d6a726f6d)">
     <use xlink:href="#C2_0_c862657bfd" x="369.401677" y="78.766278" style="fill: #808080; fill-opacity: 0.4"/>
    </g>
    <g clip-path="url(#p6d6a726f6d)">
     <use xlink:href="#C2_0_c862657bfd" x="377.222698" y="41.702642" style="fill: #808080; fill-opacity: 0.4"/>
    </g>
   </g>
   <g id="PathCollection_4">
    <defs>
     <path id="C3_0_2dc088336a" d="M 0 5.075922 
C 1.34615 5.075922 2.637347 4.541091 3.589219 3.589219 
C 4.541091 2.637347 5.075922 1.34615 5.075922 -0 
C 5.075922 -1.34615 4.541091 -2.637347 3.589219 -3.589219 
C 2.637347 -4.541091 1.34615 -5.075922 0 -5.075922 
C -1.34615 -5.075922 -2.637347 -4.541091 -3.589219 -3.589219 
C -4.541091 -2.637347 -5.075922 -1.34615 -5.075922 0 
C -5.075922 1.34615 -4.541091 2.637347 -3.589219 3.589219 
C -2.637347 4.541091 -1.34615 5.075922 0 5.075922 
z
"/>
    </defs>
    <g clip-path="url(#p6d6a726f6d)">
     <use xlink:href="#C3_0_2dc088336a" x="145.189687" y="75.677642" style="fill: #39ad48; stroke: #39ad48; stroke-width: 3.0375"/>
    </g>
    <g clip-path="url(#p6d6a726f6d)">
     <use xlink:href="#C3_0_2dc088336a" x="256.789687" y="134.361733" style="fill: #d9544d; stroke: #d9544d; stroke-width: 3.0375"/>
    </g>
    <g clip-path="url(#p6d6a726f6d)">
     <use xlink:href="#C3_0_2dc088336a" x="368.389687" y="81.854915" style="fill: #3b5b92; stroke: #3b5b92; stroke-width: 3.0375"/>
    </g>
   </g>
   <g id="matplotlib.axis_1">
    <g id="xtick_1">
     <g id="line2d_1">
      <defs>
       <path id="ma28bdeeefb" d="M 0 0 
L 0 9 
" style="stroke: #000000; stroke-width: 1.875"/>
      </defs>
      <g>
       <use xlink:href="#ma28bdeeefb" x="145.189687" y="363.037187" style="stroke: #000000; stroke-width: 1.875"/>
      </g>
     </g>
     <g id="text_1">
      <!-- Think -->
      <g transform="translate(124.676016 386.934844)scale(0.15 -0.15)">
       <defs>
        <path id="DejaVuSans-54" d="M -19 4666 
L 3928 4666 
L 3928 4134 
L 2272 4134 
L 2272 0 
L 1638 0 
L 1638 4134 
L -19 4134 
L -19 4666 
z
" transform="scale(0.015625)"/>
        <path id="DejaVuSans-68" d="M 3513 2113 
L 3513 0 
L 2938 0 
L 2938 2094 
Q 2938 2591 2744 2837 
Q 2550 3084 2163 3084 
Q 1697 3084 1428 2787 
Q 1159 2491 1159 1978 
L 1159 0 
L 581 0 
L 581 4863 
L 1159 4863 
L 1159 2956 
Q 1366 3272 1645 3428 
Q 1925 3584 2291 3584 
Q 2894 3584 3203 3211 
Q 3513 2838 3513 2113 
z
" transform="scale(0.015625)"/>
        <path id="DejaVuSans-69" d="M 603 3500 
L 1178 3500 
L 1178 0 
L 603 0 
L 603 3500 
z
M 603 4863 
L 1178 4863 
L 1178 4134 
L 603 4134 
L 603 4863 
z
" transform="scale(0.015625)"/>
        <path id="DejaVuSans-6e" d="M 3513 2113 
L 3513 0 
L 2938 0 
L 2938 2094 
Q 2938 2591 2744 2837 
Q 2550 3084 2163 3084 
Q 1697 3084 1428 2787 
Q 1159 2491 1159 1978 
L 1159 0 
L 581 0 
L 581 3500 
L 1159 3500 
L 1159 2956 
Q 1366 3272 1645 3428 
Q 1925 3584 2291 3584 
Q 2894 3584 3203 3211 
Q 3513 2838 3513 2113 
z
" transform="scale(0.015625)"/>
        <path id="DejaVuSans-6b" d="M 581 4863 
L 1159 4863 
L 1159 1991 
L 2875 3500 
L 3609 3500 
L 1753 1863 
L 3688 0 
L 2938 0 
L 1159 1709 
L 1159 0 
L 581 0 
L 581 4863 
z
" transform="scale(0.015625)"/>
       </defs>
       <use xlink:href="#DejaVuSans-54"/>
       <use xlink:href="#DejaVuSans-68" x="61.083984"/>
       <use xlink:href="#DejaVuSans-69" x="124.462891"/>
       <use xlink:href="#DejaVuSans-6e" x="152.246094"/>
       <use xlink:href="#DejaVuSans-6b" x="215.625"/>
      </g>
     </g>
    </g>
    <g id="xtick_2">
     <g id="line2d_2">
      <g>
       <use xlink:href="#ma28bdeeefb" x="256.789687" y="363.037187" style="stroke: #000000; stroke-width: 1.875"/>
      </g>
     </g>
     <g id="text_2">
      <!-- No-Think -->
      <g transform="translate(223.913906 386.934844)scale(0.15 -0.15)">
       <defs>
        <path id="DejaVuSans-4e" d="M 628 4666 
L 1478 4666 
L 3547 763 
L 3547 4666 
L 4159 4666 
L 4159 0 
L 3309 0 
L 1241 3903 
L 1241 0 
L 628 0 
L 628 4666 
z
" transform="scale(0.015625)"/>
        <path id="DejaVuSans-6f" d="M 1959 3097 
Q 1497 3097 1228 2736 
Q 959 2375 959 1747 
Q 959 1119 1226 758 
Q 1494 397 1959 397 
Q 2419 397 2687 759 
Q 2956 1122 2956 1747 
Q 2956 2369 2687 2733 
Q 2419 3097 1959 3097 
z
M 1959 3584 
Q 2709 3584 3137 3096 
Q 3566 2609 3566 1747 
Q 3566 888 3137 398 
Q 2709 -91 1959 -91 
Q 1206 -91 779 398 
Q 353 888 353 1747 
Q 353 2609 779 3096 
Q 1206 3584 1959 3584 
z
" transform="scale(0.015625)"/>
        <path id="DejaVuSans-2d" d="M 313 2009 
L 1997 2009 
L 1997 1497 
L 313 1497 
L 313 2009 
z
" transform="scale(0.015625)"/>
       </defs>
       <use xlink:href="#DejaVuSans-4e"/>
       <use xlink:href="#DejaVuSans-6f" x="74.804688"/>
       <use xlink:href="#DejaVuSans-2d" x="137.861328"/>
       <use xlink:href="#DejaVuSans-54" x="164.820312"/>
       <use xlink:href="#DejaVuSans-68" x="225.904297"/>
       <use xlink:href="#DejaVuSans-69" x="289.283203"/>
       <use xlink:href="#DejaVuSans-6e" x="317.066406"/>
       <use xlink:href="#DejaVuSans-6b" x="380.445312"/>
      </g>
     </g>
    </g>
    <g id="xtick_3">
     <g id="line2d_3">
      <g>
       <use xlink:href="#ma28bdeeefb" x="368.389687" y="363.037187" style="stroke: #000000; stroke-width: 1.875"/>
      </g>
     </g>
     <g id="text_3">
      <!-- Baseline -->
      <g transform="translate(336.590859 386.934844)scale(0.15 -0.15)">
       <defs>
        <path id="DejaVuSans-42" d="M 1259 2228 
L 1259 519 
L 2272 519 
Q 2781 519 3026 730 
Q 3272 941 3272 1375 
Q 3272 1813 3026 2020 
Q 2781 2228 2272 2228 
L 1259 2228 
z
M 1259 4147 
L 1259 2741 
L 2194 2741 
Q 2656 2741 2882 2914 
Q 3109 3088 3109 3444 
Q 3109 3797 2882 3972 
Q 2656 4147 2194 4147 
L 1259 4147 
z
M 628 4666 
L 2241 4666 
Q 2963 4666 3353 4366 
Q 3744 4066 3744 3513 
Q 3744 3084 3544 2831 
Q 3344 2578 2956 2516 
Q 3422 2416 3680 2098 
Q 3938 1781 3938 1306 
Q 3938 681 3513 340 
Q 3088 0 2303 0 
L 628 0 
L 628 4666 
z
" transform="scale(0.015625)"/>
        <path id="DejaVuSans-61" d="M 2194 1759 
Q 1497 1759 1228 1600 
Q 959 1441 959 1056 
Q 959 750 1161 570 
Q 1363 391 1709 391 
Q 2188 391 2477 730 
Q 2766 1069 2766 1631 
L 2766 1759 
L 2194 1759 
z
M 3341 1997 
L 3341 0 
L 2766 0 
L 2766 531 
Q 2569 213 2275 61 
Q 1981 -91 1556 -91 
Q 1019 -91 701 211 
Q 384 513 384 1019 
Q 384 1609 779 1909 
Q 1175 2209 1959 2209 
L 2766 2209 
L 2766 2266 
Q 2766 2663 2505 2880 
Q 2244 3097 1772 3097 
Q 1472 3097 1187 3025 
Q 903 2953 641 2809 
L 641 3341 
Q 956 3463 1253 3523 
Q 1550 3584 1831 3584 
Q 2591 3584 2966 3190 
Q 3341 2797 3341 1997 
z
" transform="scale(0.015625)"/>
        <path id="DejaVuSans-73" d="M 2834 3397 
L 2834 2853 
Q 2591 2978 2328 3040 
Q 2066 3103 1784 3103 
Q 1356 3103 1142 2972 
Q 928 2841 928 2578 
Q 928 2378 1081 2264 
Q 1234 2150 1697 2047 
L 1894 2003 
Q 2506 1872 2764 1633 
Q 3022 1394 3022 966 
Q 3022 478 2636 193 
Q 2250 -91 1575 -91 
Q 1294 -91 989 -36 
Q 684 19 347 128 
L 347 722 
Q 666 556 975 473 
Q 1284 391 1588 391 
Q 1994 391 2212 530 
Q 2431 669 2431 922 
Q 2431 1156 2273 1281 
Q 2116 1406 1581 1522 
L 1381 1569 
Q 847 1681 609 1914 
Q 372 2147 372 2553 
Q 372 3047 722 3315 
Q 1072 3584 1716 3584 
Q 2034 3584 2315 3537 
Q 2597 3491 2834 3397 
z
" transform="scale(0.015625)"/>
        <path id="DejaVuSans-65" d="M 3597 1894 
L 3597 1613 
L 953 1613 
Q 991 1019 1311 708 
Q 1631 397 2203 397 
Q 2534 397 2845 478 
Q 3156 559 3463 722 
L 3463 178 
Q 3153 47 2828 -22 
Q 2503 -91 2169 -91 
Q 1331 -91 842 396 
Q 353 884 353 1716 
Q 353 2575 817 3079 
Q 1281 3584 2069 3584 
Q 2775 3584 3186 3129 
Q 3597 2675 3597 1894 
z
M 3022 2063 
Q 3016 2534 2758 2815 
Q 2500 3097 2075 3097 
Q 1594 3097 1305 2825 
Q 1016 2553 972 2059 
L 3022 2063 
z
" transform="scale(0.015625)"/>
        <path id="DejaVuSans-6c" d="M 603 4863 
L 1178 4863 
L 1178 0 
L 603 0 
L 603 4863 
z
" transform="scale(0.015625)"/>
       </defs>
       <use xlink:href="#DejaVuSans-42"/>
       <use xlink:href="#DejaVuSans-61" x="68.603516"/>
       <use xlink:href="#DejaVuSans-73" x="129.882812"/>
       <use xlink:href="#DejaVuSans-65" x="181.982422"/>
       <use xlink:href="#DejaVuSans-6c" x="243.505859"/>
       <use xlink:href="#DejaVuSans-69" x="271.289062"/>
       <use xlink:href="#DejaVuSans-6e" x="299.072266"/>
       <use xlink:href="#DejaVuSans-65" x="362.451172"/>
      </g>
     </g>
    </g>
   </g>
   <g id="matplotlib.axis_2">
    <g id="ytick_1">
     <g id="line2d_4">
      <defs>
       <path id="m3794b24963" d="M 0 0 
L -9 0 
" style="stroke: #000000; stroke-width: 1.875"/>
      </defs>
      <g>
       <use xlink:href="#m3794b24963" x="79.389688" y="308.560824" style="stroke: #000000; stroke-width: 1.875"/>
      </g>
     </g>
     <g id="text_4">
      <!-- 70 -->
      <g transform="translate(45.893438 314.829535)scale(0.165 -0.165)">
       <defs>
        <path id="DejaVuSans-37" d="M 525 4666 
L 3525 4666 
L 3525 4397 
L 1831 0 
L 1172 0 
L 2766 4134 
L 525 4134 
L 525 4666 
z
" transform="scale(0.015625)"/>
        <path id="DejaVuSans-30" d="M 2034 4250 
Q 1547 4250 1301 3770 
Q 1056 3291 1056 2328 
Q 1056 1369 1301 889 
Q 1547 409 2034 409 
Q 2525 409 2770 889 
Q 3016 1369 3016 2328 
Q 3016 3291 2770 3770 
Q 2525 4250 2034 4250 
z
M 2034 4750 
Q 2819 4750 3233 4129 
Q 3647 3509 3647 2328 
Q 3647 1150 3233 529 
Q 2819 -91 2034 -91 
Q 1250 -91 836 529 
Q 422 1150 422 2328 
Q 422 3509 836 4129 
Q 1250 4750 2034 4750 
z
" transform="scale(0.015625)"/>
       </defs>
       <use xlink:href="#DejaVuSans-37"/>
       <use xlink:href="#DejaVuSans-30" x="63.623047"/>
      </g>
     </g>
    </g>
    <g id="ytick_2">
     <g id="line2d_5">
      <g>
       <use xlink:href="#m3794b24963" x="79.389688" y="264.08446" style="stroke: #000000; stroke-width: 1.875"/>
      </g>
     </g>
     <g id="text_5">
      <!-- 75 -->
      <g transform="translate(45.893438 270.353171)scale(0.165 -0.165)">
       <defs>
        <path id="DejaVuSans-35" d="M 691 4666 
L 3169 4666 
L 3169 4134 
L 1269 4134 
L 1269 2991 
Q 1406 3038 1543 3061 
Q 1681 3084 1819 3084 
Q 2600 3084 3056 2656 
Q 3513 2228 3513 1497 
Q 3513 744 3044 326 
Q 2575 -91 1722 -91 
Q 1428 -91 1123 -41 
Q 819 9 494 109 
L 494 744 
Q 775 591 1075 516 
Q 1375 441 1709 441 
Q 2250 441 2565 725 
Q 2881 1009 2881 1497 
Q 2881 1984 2565 2268 
Q 2250 2553 1709 2553 
Q 1456 2553 1204 2497 
Q 953 2441 691 2322 
L 691 4666 
z
" transform="scale(0.015625)"/>
       </defs>
       <use xlink:href="#DejaVuSans-37"/>
       <use xlink:href="#DejaVuSans-35" x="63.623047"/>
      </g>
     </g>
    </g>
    <g id="ytick_3">
     <g id="line2d_6">
      <g>
       <use xlink:href="#m3794b24963" x="79.389688" y="219.608097" style="stroke: #000000; stroke-width: 1.875"/>
      </g>
     </g>
     <g id="text_6">
      <!-- 80 -->
      <g transform="translate(45.893438 225.876808)scale(0.165 -0.165)">
       <defs>
        <path id="DejaVuSans-38" d="M 2034 2216 
Q 1584 2216 1326 1975 
Q 1069 1734 1069 1313 
Q 1069 891 1326 650 
Q 1584 409 2034 409 
Q 2484 409 2743 651 
Q 3003 894 3003 1313 
Q 3003 1734 2745 1975 
Q 2488 2216 2034 2216 
z
M 1403 2484 
Q 997 2584 770 2862 
Q 544 3141 544 3541 
Q 544 4100 942 4425 
Q 1341 4750 2034 4750 
Q 2731 4750 3128 4425 
Q 3525 4100 3525 3541 
Q 3525 3141 3298 2862 
Q 3072 2584 2669 2484 
Q 3125 2378 3379 2068 
Q 3634 1759 3634 1313 
Q 3634 634 3220 271 
Q 2806 -91 2034 -91 
Q 1263 -91 848 271 
Q 434 634 434 1313 
Q 434 1759 690 2068 
Q 947 2378 1403 2484 
z
M 1172 3481 
Q 1172 3119 1398 2916 
Q 1625 2713 2034 2713 
Q 2441 2713 2670 2916 
Q 2900 3119 2900 3481 
Q 2900 3844 2670 4047 
Q 2441 4250 2034 4250 
Q 1625 4250 1398 4047 
Q 1172 3844 1172 3481 
z
" transform="scale(0.015625)"/>
       </defs>
       <use xlink:href="#DejaVuSans-38"/>
       <use xlink:href="#DejaVuSans-30" x="63.623047"/>
      </g>
     </g>
    </g>
    <g id="ytick_4">
     <g id="line2d_7">
      <g>
       <use xlink:href="#m3794b24963" x="79.389688" y="175.131733" style="stroke: #000000; stroke-width: 1.875"/>
      </g>
     </g>
     <g id="text_7">
      <!-- 85 -->
      <g transform="translate(45.893438 181.400444)scale(0.165 -0.165)">
       <use xlink:href="#DejaVuSans-38"/>
       <use xlink:href="#DejaVuSans-35" x="63.623047"/>
      </g>
     </g>
    </g>
    <g id="ytick_5">
     <g id="line2d_8">
      <g>
       <use xlink:href="#m3794b24963" x="79.389688" y="130.655369" style="stroke: #000000; stroke-width: 1.875"/>
      </g>
     </g>
     <g id="text_8">
      <!-- 90 -->
      <g transform="translate(45.893438 136.92408)scale(0.165 -0.165)">
       <defs>
        <path id="DejaVuSans-39" d="M 703 97 
L 703 672 
Q 941 559 1184 500 
Q 1428 441 1663 441 
Q 2288 441 2617 861 
Q 2947 1281 2994 2138 
Q 2813 1869 2534 1725 
Q 2256 1581 1919 1581 
Q 1219 1581 811 2004 
Q 403 2428 403 3163 
Q 403 3881 828 4315 
Q 1253 4750 1959 4750 
Q 2769 4750 3195 4129 
Q 3622 3509 3622 2328 
Q 3622 1225 3098 567 
Q 2575 -91 1691 -91 
Q 1453 -91 1209 -44 
Q 966 3 703 97 
z
M 1959 2075 
Q 2384 2075 2632 2365 
Q 2881 2656 2881 3163 
Q 2881 3666 2632 3958 
Q 2384 4250 1959 4250 
Q 1534 4250 1286 3958 
Q 1038 3666 1038 3163 
Q 1038 2656 1286 2365 
Q 1534 2075 1959 2075 
z
" transform="scale(0.015625)"/>
       </defs>
       <use xlink:href="#DejaVuSans-39"/>
       <use xlink:href="#DejaVuSans-30" x="63.623047"/>
      </g>
     </g>
    </g>
    <g id="ytick_6">
     <g id="line2d_9">
      <g>
       <use xlink:href="#m3794b24963" x="79.389688" y="86.179006" style="stroke: #000000; stroke-width: 1.875"/>
      </g>
     </g>
     <g id="text_9">
      <!-- 95 -->
      <g transform="translate(45.893438 92.447717)scale(0.165 -0.165)">
       <use xlink:href="#DejaVuSans-39"/>
       <use xlink:href="#DejaVuSans-35" x="63.623047"/>
      </g>
     </g>
    </g>
    <g id="ytick_7">
     <g id="line2d_10">
      <g>
       <use xlink:href="#m3794b24963" x="79.389688" y="41.702642" style="stroke: #000000; stroke-width: 1.875"/>
      </g>
     </g>
     <g id="text_10">
      <!-- 100 -->
      <g transform="translate(35.395313 47.971353)scale(0.165 -0.165)">
       <defs>
        <path id="DejaVuSans-31" d="M 794 531 
L 1825 531 
L 1825 4091 
L 703 3866 
L 703 4441 
L 1819 4666 
L 2450 4666 
L 2450 531 
L 3481 531 
L 3481 0 
L 794 0 
L 794 531 
z
" transform="scale(0.015625)"/>
       </defs>
       <use xlink:href="#DejaVuSans-31"/>
       <use xlink:href="#DejaVuSans-30" x="63.623047"/>
       <use xlink:href="#DejaVuSans-30" x="127.246094"/>
      </g>
     </g>
    </g>
    <g id="text_11">
     <!-- Recall (%) -->
     <g transform="translate(26.196094 252.853672)rotate(-90)scale(0.25 -0.25)">
      <defs>
       <path id="DejaVuSans-52" d="M 2841 2188 
Q 3044 2119 3236 1894 
Q 3428 1669 3622 1275 
L 4263 0 
L 3584 0 
L 2988 1197 
Q 2756 1666 2539 1819 
Q 2322 1972 1947 1972 
L 1259 1972 
L 1259 0 
L 628 0 
L 628 4666 
L 2053 4666 
Q 2853 4666 3247 4331 
Q 3641 3997 3641 3322 
Q 3641 2881 3436 2590 
Q 3231 2300 2841 2188 
z
M 1259 4147 
L 1259 2491 
L 2053 2491 
Q 2509 2491 2742 2702 
Q 2975 2913 2975 3322 
Q 2975 3731 2742 3939 
Q 2509 4147 2053 4147 
L 1259 4147 
z
" transform="scale(0.015625)"/>
       <path id="DejaVuSans-63" d="M 3122 3366 
L 3122 2828 
Q 2878 2963 2633 3030 
Q 2388 3097 2138 3097 
Q 1578 3097 1268 2742 
Q 959 2388 959 1747 
Q 959 1106 1268 751 
Q 1578 397 2138 397 
Q 2388 397 2633 464 
Q 2878 531 3122 666 
L 3122 134 
Q 2881 22 2623 -34 
Q 2366 -91 2075 -91 
Q 1284 -91 818 406 
Q 353 903 353 1747 
Q 353 2603 823 3093 
Q 1294 3584 2113 3584 
Q 2378 3584 2631 3529 
Q 2884 3475 3122 3366 
z
" transform="scale(0.015625)"/>
       <path id="DejaVuSans-20" transform="scale(0.015625)"/>
       <path id="DejaVuSans-28" d="M 1984 4856 
Q 1566 4138 1362 3434 
Q 1159 2731 1159 2009 
Q 1159 1288 1364 580 
Q 1569 -128 1984 -844 
L 1484 -844 
Q 1016 -109 783 600 
Q 550 1309 550 2009 
Q 550 2706 781 3412 
Q 1013 4119 1484 4856 
L 1984 4856 
z
" transform="scale(0.015625)"/>
       <path id="DejaVuSans-25" d="M 4653 2053 
Q 4381 2053 4226 1822 
Q 4072 1591 4072 1178 
Q 4072 772 4226 539 
Q 4381 306 4653 306 
Q 4919 306 5073 539 
Q 5228 772 5228 1178 
Q 5228 1588 5073 1820 
Q 4919 2053 4653 2053 
z
M 4653 2450 
Q 5147 2450 5437 2106 
Q 5728 1763 5728 1178 
Q 5728 594 5436 251 
Q 5144 -91 4653 -91 
Q 4153 -91 3862 251 
Q 3572 594 3572 1178 
Q 3572 1766 3864 2108 
Q 4156 2450 4653 2450 
z
M 1428 4353 
Q 1159 4353 1004 4120 
Q 850 3888 850 3481 
Q 850 3069 1003 2837 
Q 1156 2606 1428 2606 
Q 1700 2606 1854 2837 
Q 2009 3069 2009 3481 
Q 2009 3884 1853 4118 
Q 1697 4353 1428 4353 
z
M 4250 4750 
L 4750 4750 
L 1831 -91 
L 1331 -91 
L 4250 4750 
z
M 1428 4750 
Q 1922 4750 2215 4408 
Q 2509 4066 2509 3481 
Q 2509 2891 2217 2550 
Q 1925 2209 1428 2209 
Q 931 2209 642 2551 
Q 353 2894 353 3481 
Q 353 4063 643 4406 
Q 934 4750 1428 4750 
z
" transform="scale(0.015625)"/>
       <path id="DejaVuSans-29" d="M 513 4856 
L 1013 4856 
Q 1481 4119 1714 3412 
Q 1947 2706 1947 2009 
Q 1947 1309 1714 600 
Q 1481 -109 1013 -844 
L 513 -844 
Q 928 -128 1133 580 
Q 1338 1288 1338 2009 
Q 1338 2731 1133 3434 
Q 928 4138 513 4856 
z
" transform="scale(0.015625)"/>
      </defs>
      <use xlink:href="#DejaVuSans-52"/>
      <use xlink:href="#DejaVuSans-65" x="64.982422"/>
      <use xlink:href="#DejaVuSans-63" x="126.505859"/>
      <use xlink:href="#DejaVuSans-61" x="181.486328"/>
      <use xlink:href="#DejaVuSans-6c" x="242.765625"/>
      <use xlink:href="#DejaVuSans-6c" x="270.548828"/>
      <use xlink:href="#DejaVuSans-20" x="298.332031"/>
      <use xlink:href="#DejaVuSans-28" x="330.119141"/>
      <use xlink:href="#DejaVuSans-25" x="369.132812"/>
      <use xlink:href="#DejaVuSans-29" x="464.152344"/>
     </g>
    </g>
   </g>
   <g id="line2d_11">
    <path d="M 145.189687 84.943551 
L 145.189687 63.323097 
" clip-path="url(#p6d6a726f6d)" style="fill: none; stroke: #39ad48; stroke-width: 4.05; stroke-linecap: square"/>
   </g>
   <g id="line2d_12">
    <path d="M 134.029687 84.943551 
L 156.349687 84.943551 
" clip-path="url(#p6d6a726f6d)" style="fill: none; stroke: #39ad48; stroke-width: 4.05; stroke-linecap: square"/>
   </g>
   <g id="line2d_13">
    <path d="M 134.029687 63.323097 
L 156.349687 63.323097 
" clip-path="url(#p6d6a726f6d)" style="fill: none; stroke: #39ad48; stroke-width: 4.05; stroke-linecap: square"/>
   </g>
   <g id="line2d_14">
    <path d="M 256.789687 152.893551 
L 256.789687 117.127142 
" clip-path="url(#p6d6a726f6d)" style="fill: none; stroke: #d9544d; stroke-width: 4.05; stroke-linecap: square"/>
   </g>
   <g id="line2d_15">
    <path d="M 245.629687 152.893551 
L 267.949687 152.893551 
" clip-path="url(#p6d6a726f6d)" style="fill: none; stroke: #d9544d; stroke-width: 4.05; stroke-linecap: square"/>
   </g>
   <g id="line2d_16">
    <path d="M 245.629687 117.127142 
L 267.949687 117.127142 
" clip-path="url(#p6d6a726f6d)" style="fill: none; stroke: #d9544d; stroke-width: 4.05; stroke-linecap: square"/>
   </g>
   <g id="line2d_17">
    <path d="M 368.389687 92.665142 
L 368.389687 72.589006 
" clip-path="url(#p6d6a726f6d)" style="fill: none; stroke: #3b5b92; stroke-width: 4.05; stroke-linecap: square"/>
   </g>
   <g id="line2d_18">
    <path d="M 357.229687 92.665142 
L 379.549687 92.665142 
" clip-path="url(#p6d6a726f6d)" style="fill: none; stroke: #3b5b92; stroke-width: 4.05; stroke-linecap: square"/>
   </g>
   <g id="line2d_19">
    <path d="M 357.229687 72.589006 
L 379.549687 72.589006 
" clip-path="url(#p6d6a726f6d)" style="fill: none; stroke: #3b5b92; stroke-width: 4.05; stroke-linecap: square"/>
   </g>
   <g id="patch_3">
    <path d="M 79.389688 308.560824 
L 79.389688 41.702642 
" style="fill: none; stroke: #000000; stroke-width: 1.875; stroke-linejoin: miter; stroke-linecap: square"/>
   </g>
   <g id="patch_4">
    <path d="M 145.189687 363.037187 
L 368.389687 363.037187 
" style="fill: none; stroke: #000000; stroke-width: 1.875; stroke-linejoin: miter; stroke-linecap: square"/>
   </g>
   <g id="text_12">
    <!-- Post-TNT memory performances -->
    <g transform="translate(94.341094 20.877187)scale(0.18 -0.18)">
     <defs>
      <path id="DejaVuSans-Bold-50" d="M 588 4666 
L 2584 4666 
Q 3475 4666 3951 4270 
Q 4428 3875 4428 3144 
Q 4428 2409 3951 2014 
Q 3475 1619 2584 1619 
L 1791 1619 
L 1791 0 
L 588 0 
L 588 4666 
z
M 1791 3794 
L 1791 2491 
L 2456 2491 
Q 2806 2491 2997 2661 
Q 3188 2831 3188 3144 
Q 3188 3456 2997 3625 
Q 2806 3794 2456 3794 
L 1791 3794 
z
" transform="scale(0.015625)"/>
      <path id="DejaVuSans-Bold-6f" d="M 2203 2784 
Q 1831 2784 1636 2517 
Q 1441 2250 1441 1747 
Q 1441 1244 1636 976 
Q 1831 709 2203 709 
Q 2569 709 2762 976 
Q 2956 1244 2956 1747 
Q 2956 2250 2762 2517 
Q 2569 2784 2203 2784 
z
M 2203 3584 
Q 3106 3584 3614 3096 
Q 4122 2609 4122 1747 
Q 4122 884 3614 396 
Q 3106 -91 2203 -91 
Q 1297 -91 786 396 
Q 275 884 275 1747 
Q 275 2609 786 3096 
Q 1297 3584 2203 3584 
z
" transform="scale(0.015625)"/>
      <path id="DejaVuSans-Bold-73" d="M 3272 3391 
L 3272 2541 
Q 2913 2691 2578 2766 
Q 2244 2841 1947 2841 
Q 1628 2841 1473 2761 
Q 1319 2681 1319 2516 
Q 1319 2381 1436 2309 
Q 1553 2238 1856 2203 
L 2053 2175 
Q 2913 2066 3209 1816 
Q 3506 1566 3506 1031 
Q 3506 472 3093 190 
Q 2681 -91 1863 -91 
Q 1516 -91 1145 -36 
Q 775 19 384 128 
L 384 978 
Q 719 816 1070 734 
Q 1422 653 1784 653 
Q 2113 653 2278 743 
Q 2444 834 2444 1013 
Q 2444 1163 2330 1236 
Q 2216 1309 1875 1350 
L 1678 1375 
Q 931 1469 631 1722 
Q 331 1975 331 2491 
Q 331 3047 712 3315 
Q 1094 3584 1881 3584 
Q 2191 3584 2531 3537 
Q 2872 3491 3272 3391 
z
" transform="scale(0.015625)"/>
      <path id="DejaVuSans-Bold-74" d="M 1759 4494 
L 1759 3500 
L 2913 3500 
L 2913 2700 
L 1759 2700 
L 1759 1216 
Q 1759 972 1856 886 
Q 1953 800 2241 800 
L 2816 800 
L 2816 0 
L 1856 0 
Q 1194 0 917 276 
Q 641 553 641 1216 
L 641 2700 
L 84 2700 
L 84 3500 
L 641 3500 
L 641 4494 
L 1759 4494 
z
" transform="scale(0.015625)"/>
      <path id="DejaVuSans-Bold-2d" d="M 347 2297 
L 2309 2297 
L 2309 1388 
L 347 1388 
L 347 2297 
z
" transform="scale(0.015625)"/>
      <path id="DejaVuSans-Bold-54" d="M 31 4666 
L 4331 4666 
L 4331 3756 
L 2784 3756 
L 2784 0 
L 1581 0 
L 1581 3756 
L 31 3756 
L 31 4666 
z
" transform="scale(0.015625)"/>
      <path id="DejaVuSans-Bold-4e" d="M 588 4666 
L 1931 4666 
L 3628 1466 
L 3628 4666 
L 4769 4666 
L 4769 0 
L 3425 0 
L 1728 3200 
L 1728 0 
L 588 0 
L 588 4666 
z
" transform="scale(0.015625)"/>
      <path id="DejaVuSans-Bold-20" transform="scale(0.015625)"/>
      <path id="DejaVuSans-Bold-6d" d="M 3781 2919 
Q 3994 3244 4286 3414 
Q 4578 3584 4928 3584 
Q 5531 3584 5847 3212 
Q 6163 2841 6163 2131 
L 6163 0 
L 5038 0 
L 5038 1825 
Q 5041 1866 5042 1909 
Q 5044 1953 5044 2034 
Q 5044 2406 4934 2573 
Q 4825 2741 4581 2741 
Q 4263 2741 4089 2478 
Q 3916 2216 3909 1719 
L 3909 0 
L 2784 0 
L 2784 1825 
Q 2784 2406 2684 2573 
Q 2584 2741 2328 2741 
Q 2006 2741 1831 2477 
Q 1656 2213 1656 1722 
L 1656 0 
L 531 0 
L 531 3500 
L 1656 3500 
L 1656 2988 
Q 1863 3284 2130 3434 
Q 2397 3584 2719 3584 
Q 3081 3584 3359 3409 
Q 3638 3234 3781 2919 
z
" transform="scale(0.015625)"/>
      <path id="DejaVuSans-Bold-65" d="M 4031 1759 
L 4031 1441 
L 1416 1441 
Q 1456 1047 1700 850 
Q 1944 653 2381 653 
Q 2734 653 3104 758 
Q 3475 863 3866 1075 
L 3866 213 
Q 3469 63 3072 -14 
Q 2675 -91 2278 -91 
Q 1328 -91 801 392 
Q 275 875 275 1747 
Q 275 2603 792 3093 
Q 1309 3584 2216 3584 
Q 3041 3584 3536 3087 
Q 4031 2591 4031 1759 
z
M 2881 2131 
Q 2881 2450 2695 2645 
Q 2509 2841 2209 2841 
Q 1884 2841 1681 2658 
Q 1478 2475 1428 2131 
L 2881 2131 
z
" transform="scale(0.015625)"/>
      <path id="DejaVuSans-Bold-72" d="M 3138 2547 
Q 2991 2616 2845 2648 
Q 2700 2681 2553 2681 
Q 2122 2681 1889 2404 
Q 1656 2128 1656 1613 
L 1656 0 
L 538 0 
L 538 3500 
L 1656 3500 
L 1656 2925 
Q 1872 3269 2151 3426 
Q 2431 3584 2822 3584 
Q 2878 3584 2943 3579 
Q 3009 3575 3134 3559 
L 3138 2547 
z
" transform="scale(0.015625)"/>
      <path id="DejaVuSans-Bold-79" d="M 78 3500 
L 1197 3500 
L 2138 1125 
L 2938 3500 
L 4056 3500 
L 2584 -331 
Q 2363 -916 2067 -1148 
Q 1772 -1381 1288 -1381 
L 641 -1381 
L 641 -647 
L 991 -647 
Q 1275 -647 1404 -556 
Q 1534 -466 1606 -231 
L 1638 -134 
L 78 3500 
z
" transform="scale(0.015625)"/>
      <path id="DejaVuSans-Bold-70" d="M 1656 506 
L 1656 -1331 
L 538 -1331 
L 538 3500 
L 1656 3500 
L 1656 2988 
Q 1888 3294 2169 3439 
Q 2450 3584 2816 3584 
Q 3463 3584 3878 3070 
Q 4294 2556 4294 1747 
Q 4294 938 3878 423 
Q 3463 -91 2816 -91 
Q 2450 -91 2169 54 
Q 1888 200 1656 506 
z
M 2400 2772 
Q 2041 2772 1848 2508 
Q 1656 2244 1656 1747 
Q 1656 1250 1848 986 
Q 2041 722 2400 722 
Q 2759 722 2948 984 
Q 3138 1247 3138 1747 
Q 3138 2247 2948 2509 
Q 2759 2772 2400 2772 
z
" transform="scale(0.015625)"/>
      <path id="DejaVuSans-Bold-66" d="M 2841 4863 
L 2841 4128 
L 2222 4128 
Q 1984 4128 1890 4042 
Q 1797 3956 1797 3744 
L 1797 3500 
L 2753 3500 
L 2753 2700 
L 1797 2700 
L 1797 0 
L 678 0 
L 678 2700 
L 122 2700 
L 122 3500 
L 678 3500 
L 678 3744 
Q 678 4316 997 4589 
Q 1316 4863 1984 4863 
L 2841 4863 
z
" transform="scale(0.015625)"/>
      <path id="DejaVuSans-Bold-61" d="M 2106 1575 
Q 1756 1575 1579 1456 
Q 1403 1338 1403 1106 
Q 1403 894 1545 773 
Q 1688 653 1941 653 
Q 2256 653 2472 879 
Q 2688 1106 2688 1447 
L 2688 1575 
L 2106 1575 
z
M 3816 1997 
L 3816 0 
L 2688 0 
L 2688 519 
Q 2463 200 2181 54 
Q 1900 -91 1497 -91 
Q 953 -91 614 226 
Q 275 544 275 1050 
Q 275 1666 698 1953 
Q 1122 2241 2028 2241 
L 2688 2241 
L 2688 2328 
Q 2688 2594 2478 2717 
Q 2269 2841 1825 2841 
Q 1466 2841 1156 2769 
Q 847 2697 581 2553 
L 581 3406 
Q 941 3494 1303 3539 
Q 1666 3584 2028 3584 
Q 2975 3584 3395 3211 
Q 3816 2838 3816 1997 
z
" transform="scale(0.015625)"/>
      <path id="DejaVuSans-Bold-6e" d="M 4056 2131 
L 4056 0 
L 2931 0 
L 2931 347 
L 2931 1631 
Q 2931 2084 2911 2256 
Q 2891 2428 2841 2509 
Q 2775 2619 2662 2680 
Q 2550 2741 2406 2741 
Q 2056 2741 1856 2470 
Q 1656 2200 1656 1722 
L 1656 0 
L 538 0 
L 538 3500 
L 1656 3500 
L 1656 2988 
Q 1909 3294 2193 3439 
Q 2478 3584 2822 3584 
Q 3428 3584 3742 3212 
Q 4056 2841 4056 2131 
z
" transform="scale(0.015625)"/>
      <path id="DejaVuSans-Bold-63" d="M 3366 3391 
L 3366 2478 
Q 3138 2634 2908 2709 
Q 2678 2784 2431 2784 
Q 1963 2784 1702 2511 
Q 1441 2238 1441 1747 
Q 1441 1256 1702 982 
Q 1963 709 2431 709 
Q 2694 709 2930 787 
Q 3166 866 3366 1019 
L 3366 103 
Q 3103 6 2833 -42 
Q 2563 -91 2291 -91 
Q 1344 -91 809 395 
Q 275 881 275 1747 
Q 275 2613 809 3098 
Q 1344 3584 2291 3584 
Q 2566 3584 2833 3536 
Q 3100 3488 3366 3391 
z
" transform="scale(0.015625)"/>
     </defs>
     <use xlink:href="#DejaVuSans-Bold-50"/>
     <use xlink:href="#DejaVuSans-Bold-6f" x="73.291016"/>
     <use xlink:href="#DejaVuSans-Bold-73" x="141.992188"/>
     <use xlink:href="#DejaVuSans-Bold-74" x="201.513672"/>
     <use xlink:href="#DejaVuSans-Bold-2d" x="249.316406"/>
     <use xlink:href="#DejaVuSans-Bold-54" x="276.070312"/>
     <use xlink:href="#DejaVuSans-Bold-4e" x="344.283203"/>
     <use xlink:href="#DejaVuSans-Bold-54" x="427.974609"/>
     <use xlink:href="#DejaVuSans-Bold-20" x="496.1875"/>
     <use xlink:href="#DejaVuSans-Bold-6d" x="531.001953"/>
     <use xlink:href="#DejaVuSans-Bold-65" x="635.201172"/>
     <use xlink:href="#DejaVuSans-Bold-6d" x="703.023438"/>
     <use xlink:href="#DejaVuSans-Bold-6f" x="807.222656"/>
     <use xlink:href="#DejaVuSans-Bold-72" x="875.923828"/>
     <use xlink:href="#DejaVuSans-Bold-79" x="925.240234"/>
     <use xlink:href="#DejaVuSans-Bold-20" x="990.425781"/>
     <use xlink:href="#DejaVuSans-Bold-70" x="1025.240234"/>
     <use xlink:href="#DejaVuSans-Bold-65" x="1096.822266"/>
     <use xlink:href="#DejaVuSans-Bold-72" x="1164.644531"/>
     <use xlink:href="#DejaVuSans-Bold-66" x="1213.960938"/>
     <use xlink:href="#DejaVuSans-Bold-6f" x="1257.466797"/>
     <use xlink:href="#DejaVuSans-Bold-72" x="1326.167969"/>
     <use xlink:href="#DejaVuSans-Bold-6d" x="1375.484375"/>
     <use xlink:href="#DejaVuSans-Bold-61" x="1479.683594"/>
     <use xlink:href="#DejaVuSans-Bold-6e" x="1547.164062"/>
     <use xlink:href="#DejaVuSans-Bold-63" x="1618.355469"/>
     <use xlink:href="#DejaVuSans-Bold-65" x="1677.632812"/>
     <use xlink:href="#DejaVuSans-Bold-73" x="1745.455078"/>
    </g>
   </g>
  </g>
 </g>
 <defs>
  <clipPath id="p6d6a726f6d">
   <rect x="89.389688" y="26.877187" width="334.8" height="326.16"/>
  </clipPath>
 </defs>
</svg>
