<?xml version="1.0" encoding="utf-8" standalone="no"?>
<!DOCTYPE svg PUBLIC "-//W3C//DTD SVG 1.1//EN"
  "http://www.w3.org/Graphics/SVG/1.1/DTD/svg11.dtd">
<!-- Created with matplotlib (https://matplotlib.org/) -->
<svg height="397.254375pt" version="1.1" viewBox="0 0 431.389687 397.254375" width="431.389687pt" xmlns="http://www.w3.org/2000/svg" xmlns:xlink="http://www.w3.org/1999/xlink">
 <metadata>
  <rdf:RDF xmlns:cc="http://creativecommons.org/ns#" xmlns:dc="http://purl.org/dc/elements/1.1/" xmlns:rdf="http://www.w3.org/1999/02/22-rdf-syntax-ns#">
   <cc:Work>
    <dc:type rdf:resource="http://purl.org/dc/dcmitype/StillImage"/>
    <dc:date>2021-03-20T03:17:21.488261</dc:date>
    <dc:format>image/svg+xml</dc:format>
    <dc:creator>
     <cc:Agent>
      <dc:title>Matplotlib v3.3.4, https://matplotlib.org/</dc:title>
     </cc:Agent>
    </dc:creator>
   </cc:Work>
  </rdf:RDF>
 </metadata>
 <defs>
  <style type="text/css">*{stroke-linecap:butt;stroke-linejoin:round;}</style>
 </defs>
 <g id="figure_1">
  <g id="patch_1">
   <path d="M 0 397.254375 
L 431.389687 397.254375 
L 431.389687 0 
L 0 0 
z
" style="fill:none;"/>
  </g>
  <g id="axes_1">
   <g id="patch_2">
    <path d="M 89.389688 353.037187 
L 424.189687 353.037187 
L 424.189687 26.877187 
L 89.389688 26.877187 
z
" style="fill:#ffffff;"/>
   </g>
   <g id="PathCollection_1">
    <defs>
     <path d="M 0 5 
C 1.326016 5 2.597899 4.473168 3.535534 3.535534 
C 4.473168 2.597899 5 1.326016 5 -0 
C 5 -1.326016 4.473168 -2.597899 3.535534 -3.535534 
C 2.597899 -4.473168 1.326016 -5 0 -5 
C -1.326016 -5 -2.597899 -4.473168 -3.535534 -3.535534 
C -4.473168 -2.597899 -5 -1.326016 -5 0 
C -5 1.326016 -4.473168 2.597899 -3.535534 3.535534 
C -2.597899 4.473168 -1.326016 5 0 5 
z
" id="C0_0_2fd7871f5b"/>
    </defs>
    <g clip-path="url(#pfeed80e4f9)">
     <use style="fill:#808080;fill-opacity:0.4;" x="149.558214" xlink:href="#C0_0_2fd7871f5b" y="78.766278"/>
    </g>
    <g clip-path="url(#pfeed80e4f9)">
     <use style="fill:#808080;fill-opacity:0.4;" x="137.481286" xlink:href="#C0_0_2fd7871f5b" y="152.893551"/>
    </g>
    <g clip-path="url(#pfeed80e4f9)">
     <use style="fill:#808080;fill-opacity:0.4;" x="136.782726" xlink:href="#C0_0_2fd7871f5b" y="115.829915"/>
    </g>
    <g clip-path="url(#pfeed80e4f9)">
     <use style="fill:#808080;fill-opacity:0.4;" x="140.431431" xlink:href="#C0_0_2fd7871f5b" y="78.766278"/>
    </g>
    <g clip-path="url(#pfeed80e4f9)">
     <use style="fill:#808080;fill-opacity:0.4;" x="138.275444" xlink:href="#C0_0_2fd7871f5b" y="41.702642"/>
    </g>
    <g clip-path="url(#pfeed80e4f9)">
     <use style="fill:#808080;fill-opacity:0.4;" x="153.43901" xlink:href="#C0_0_2fd7871f5b" y="41.702642"/>
    </g>
    <g clip-path="url(#pfeed80e4f9)">
     <use style="fill:#808080;fill-opacity:0.4;" x="146.986168" xlink:href="#C0_0_2fd7871f5b" y="41.702642"/>
    </g>
    <g clip-path="url(#pfeed80e4f9)">
     <use style="fill:#808080;fill-opacity:0.4;" x="154.591924" xlink:href="#C0_0_2fd7871f5b" y="41.702642"/>
    </g>
    <g clip-path="url(#pfeed80e4f9)">
     <use style="fill:#808080;fill-opacity:0.4;" x="154.172888" xlink:href="#C0_0_2fd7871f5b" y="41.702642"/>
    </g>
    <g clip-path="url(#pfeed80e4f9)">
     <use style="fill:#808080;fill-opacity:0.4;" x="155.446576" xlink:href="#C0_0_2fd7871f5b" y="41.702642"/>
    </g>
    <g clip-path="url(#pfeed80e4f9)">
     <use style="fill:#808080;fill-opacity:0.4;" x="154.035106" xlink:href="#C0_0_2fd7871f5b" y="115.829915"/>
    </g>
    <g clip-path="url(#pfeed80e4f9)">
     <use style="fill:#808080;fill-opacity:0.4;" x="145.323808" xlink:href="#C0_0_2fd7871f5b" y="41.702642"/>
    </g>
    <g clip-path="url(#pfeed80e4f9)">
     <use style="fill:#808080;fill-opacity:0.4;" x="149.461189" xlink:href="#C0_0_2fd7871f5b" y="41.702642"/>
    </g>
    <g clip-path="url(#pfeed80e4f9)">
     <use style="fill:#808080;fill-opacity:0.4;" x="138.432733" xlink:href="#C0_0_2fd7871f5b" y="41.702642"/>
    </g>
    <g clip-path="url(#pfeed80e4f9)">
     <use style="fill:#808080;fill-opacity:0.4;" x="135.63581" xlink:href="#C0_0_2fd7871f5b" y="41.702642"/>
    </g>
    <g clip-path="url(#pfeed80e4f9)">
     <use style="fill:#808080;fill-opacity:0.4;" x="146.916547" xlink:href="#C0_0_2fd7871f5b" y="78.766278"/>
    </g>
    <g clip-path="url(#pfeed80e4f9)">
     <use style="fill:#808080;fill-opacity:0.4;" x="147.193371" xlink:href="#C0_0_2fd7871f5b" y="189.957188"/>
    </g>
    <g clip-path="url(#pfeed80e4f9)">
     <use style="fill:#808080;fill-opacity:0.4;" x="135.007317" xlink:href="#C0_0_2fd7871f5b" y="78.766278"/>
    </g>
    <g clip-path="url(#pfeed80e4f9)">
     <use style="fill:#808080;fill-opacity:0.4;" x="141.446749" xlink:href="#C0_0_2fd7871f5b" y="41.702642"/>
    </g>
    <g clip-path="url(#pfeed80e4f9)">
     <use style="fill:#808080;fill-opacity:0.4;" x="143.248873" xlink:href="#C0_0_2fd7871f5b" y="227.020824"/>
    </g>
    <g clip-path="url(#pfeed80e4f9)">
     <use style="fill:#808080;fill-opacity:0.4;" x="141.846727" xlink:href="#C0_0_2fd7871f5b" y="41.702642"/>
    </g>
    <g clip-path="url(#pfeed80e4f9)">
     <use style="fill:#808080;fill-opacity:0.4;" x="151.71229" xlink:href="#C0_0_2fd7871f5b" y="41.702642"/>
    </g>
    <g clip-path="url(#pfeed80e4f9)">
     <use style="fill:#808080;fill-opacity:0.4;" x="148.448827" xlink:href="#C0_0_2fd7871f5b" y="115.829915"/>
    </g>
    <g clip-path="url(#pfeed80e4f9)">
     <use style="fill:#808080;fill-opacity:0.4;" x="134.291686" xlink:href="#C0_0_2fd7871f5b" y="41.702642"/>
    </g>
   </g>
   <g id="PathCollection_2">
    <defs>
     <path d="M 0 5 
C 1.326016 5 2.597899 4.473168 3.535534 3.535534 
C 4.473168 2.597899 5 1.326016 5 -0 
C 5 -1.326016 4.473168 -2.597899 3.535534 -3.535534 
C 2.597899 -4.473168 1.326016 -5 0 -5 
C -1.326016 -5 -2.597899 -4.473168 -3.535534 -3.535534 
C -4.473168 -2.597899 -5 -1.326016 -5 0 
C -5 1.326016 -4.473168 2.597899 -3.535534 3.535534 
C -2.597899 4.473168 -1.326016 5 0 5 
z
" id="C1_0_9dea13eea9"/>
    </defs>
    <g clip-path="url(#pfeed80e4f9)">
     <use style="fill:#808080;fill-opacity:0.4;" x="246.927475" xlink:href="#C1_0_9dea13eea9" y="115.829915"/>
    </g>
    <g clip-path="url(#pfeed80e4f9)">
     <use style="fill:#808080;fill-opacity:0.4;" x="250.728951" xlink:href="#C1_0_9dea13eea9" y="264.08446"/>
    </g>
    <g clip-path="url(#pfeed80e4f9)">
     <use style="fill:#808080;fill-opacity:0.4;" x="267.200509" xlink:href="#C1_0_9dea13eea9" y="78.766278"/>
    </g>
    <g clip-path="url(#pfeed80e4f9)">
     <use style="fill:#808080;fill-opacity:0.4;" x="246.847966" xlink:href="#C1_0_9dea13eea9" y="227.020824"/>
    </g>
    <g clip-path="url(#pfeed80e4f9)">
     <use style="fill:#808080;fill-opacity:0.4;" x="266.017801" xlink:href="#C1_0_9dea13eea9" y="115.829915"/>
    </g>
    <g clip-path="url(#pfeed80e4f9)">
     <use style="fill:#808080;fill-opacity:0.4;" x="256.074727" xlink:href="#C1_0_9dea13eea9" y="41.702642"/>
    </g>
    <g clip-path="url(#pfeed80e4f9)">
     <use style="fill:#808080;fill-opacity:0.4;" x="258.966065" xlink:href="#C1_0_9dea13eea9" y="41.702642"/>
    </g>
    <g clip-path="url(#pfeed80e4f9)">
     <use style="fill:#808080;fill-opacity:0.4;" x="254.663745" xlink:href="#C1_0_9dea13eea9" y="115.829915"/>
    </g>
    <g clip-path="url(#pfeed80e4f9)">
     <use style="fill:#808080;fill-opacity:0.4;" x="250.491046" xlink:href="#C1_0_9dea13eea9" y="227.020824"/>
    </g>
    <g clip-path="url(#pfeed80e4f9)">
     <use style="fill:#808080;fill-opacity:0.4;" x="256.973914" xlink:href="#C1_0_9dea13eea9" y="41.702642"/>
    </g>
    <g clip-path="url(#pfeed80e4f9)">
     <use style="fill:#808080;fill-opacity:0.4;" x="258.312201" xlink:href="#C1_0_9dea13eea9" y="152.893551"/>
    </g>
    <g clip-path="url(#pfeed80e4f9)">
     <use style="fill:#808080;fill-opacity:0.4;" x="250.509983" xlink:href="#C1_0_9dea13eea9" y="78.766278"/>
    </g>
    <g clip-path="url(#pfeed80e4f9)">
     <use style="fill:#808080;fill-opacity:0.4;" x="265.630779" xlink:href="#C1_0_9dea13eea9" y="78.766278"/>
    </g>
    <g clip-path="url(#pfeed80e4f9)">
     <use style="fill:#808080;fill-opacity:0.4;" x="251.773622" xlink:href="#C1_0_9dea13eea9" y="41.702642"/>
    </g>
    <g clip-path="url(#pfeed80e4f9)">
     <use style="fill:#808080;fill-opacity:0.4;" x="264.769288" xlink:href="#C1_0_9dea13eea9" y="115.829915"/>
    </g>
    <g clip-path="url(#pfeed80e4f9)">
     <use style="fill:#808080;fill-opacity:0.4;" x="265.182481" xlink:href="#C1_0_9dea13eea9" y="78.766278"/>
    </g>
    <g clip-path="url(#pfeed80e4f9)">
     <use style="fill:#808080;fill-opacity:0.4;" x="267.691126" xlink:href="#C1_0_9dea13eea9" y="338.211733"/>
    </g>
    <g clip-path="url(#pfeed80e4f9)">
     <use style="fill:#808080;fill-opacity:0.4;" x="256.796089" xlink:href="#C1_0_9dea13eea9" y="152.893551"/>
    </g>
    <g clip-path="url(#pfeed80e4f9)">
     <use style="fill:#808080;fill-opacity:0.4;" x="252.142858" xlink:href="#C1_0_9dea13eea9" y="78.766278"/>
    </g>
    <g clip-path="url(#pfeed80e4f9)">
     <use style="fill:#808080;fill-opacity:0.4;" x="249.480877" xlink:href="#C1_0_9dea13eea9" y="338.211733"/>
    </g>
    <g clip-path="url(#pfeed80e4f9)">
     <use style="fill:#808080;fill-opacity:0.4;" x="251.453685" xlink:href="#C1_0_9dea13eea9" y="78.766278"/>
    </g>
    <g clip-path="url(#pfeed80e4f9)">
     <use style="fill:#808080;fill-opacity:0.4;" x="263.060069" xlink:href="#C1_0_9dea13eea9" y="41.702642"/>
    </g>
    <g clip-path="url(#pfeed80e4f9)">
     <use style="fill:#808080;fill-opacity:0.4;" x="254.520668" xlink:href="#C1_0_9dea13eea9" y="227.020824"/>
    </g>
    <g clip-path="url(#pfeed80e4f9)">
     <use style="fill:#808080;fill-opacity:0.4;" x="249.769318" xlink:href="#C1_0_9dea13eea9" y="152.893551"/>
    </g>
   </g>
   <g id="PathCollection_3">
    <defs>
     <path d="M 0 5 
C 1.326016 5 2.597899 4.473168 3.535534 3.535534 
C 4.473168 2.597899 5 1.326016 5 -0 
C 5 -1.326016 4.473168 -2.597899 3.535534 -3.535534 
C 2.597899 -4.473168 1.326016 -5 0 -5 
C -1.326016 -5 -2.597899 -4.473168 -3.535534 -3.535534 
C -4.473168 -2.597899 -5 -1.326016 -5 0 
C -5 1.326016 -4.473168 2.597899 -3.535534 3.535534 
C -2.597899 4.473168 -1.326016 5 0 5 
z
" id="C2_0_97806cd76f"/>
    </defs>
    <g clip-path="url(#pfeed80e4f9)">
     <use style="fill:#808080;fill-opacity:0.4;" x="376.015049" xlink:href="#C2_0_97806cd76f" y="41.702642"/>
    </g>
    <g clip-path="url(#pfeed80e4f9)">
     <use style="fill:#808080;fill-opacity:0.4;" x="364.092465" xlink:href="#C2_0_97806cd76f" y="152.893551"/>
    </g>
    <g clip-path="url(#pfeed80e4f9)">
     <use style="fill:#808080;fill-opacity:0.4;" x="373.210582" xlink:href="#C2_0_97806cd76f" y="152.893551"/>
    </g>
    <g clip-path="url(#pfeed80e4f9)">
     <use style="fill:#808080;fill-opacity:0.4;" x="372.524595" xlink:href="#C2_0_97806cd76f" y="78.766278"/>
    </g>
    <g clip-path="url(#pfeed80e4f9)">
     <use style="fill:#808080;fill-opacity:0.4;" x="376.063854" xlink:href="#C2_0_97806cd76f" y="41.702642"/>
    </g>
    <g clip-path="url(#pfeed80e4f9)">
     <use style="fill:#808080;fill-opacity:0.4;" x="371.439941" xlink:href="#C2_0_97806cd76f" y="78.766278"/>
    </g>
    <g clip-path="url(#pfeed80e4f9)">
     <use style="fill:#808080;fill-opacity:0.4;" x="359.015495" xlink:href="#C2_0_97806cd76f" y="41.702642"/>
    </g>
    <g clip-path="url(#pfeed80e4f9)">
     <use style="fill:#808080;fill-opacity:0.4;" x="368.212206" xlink:href="#C2_0_97806cd76f" y="78.766278"/>
    </g>
    <g clip-path="url(#pfeed80e4f9)">
     <use style="fill:#808080;fill-opacity:0.4;" x="365.987182" xlink:href="#C2_0_97806cd76f" y="78.766278"/>
    </g>
    <g clip-path="url(#pfeed80e4f9)">
     <use style="fill:#808080;fill-opacity:0.4;" x="368.586646" xlink:href="#C2_0_97806cd76f" y="115.829915"/>
    </g>
    <g clip-path="url(#pfeed80e4f9)">
     <use style="fill:#808080;fill-opacity:0.4;" x="363.874063" xlink:href="#C2_0_97806cd76f" y="41.702642"/>
    </g>
    <g clip-path="url(#pfeed80e4f9)">
     <use style="fill:#808080;fill-opacity:0.4;" x="373.963595" xlink:href="#C2_0_97806cd76f" y="41.702642"/>
    </g>
    <g clip-path="url(#pfeed80e4f9)">
     <use style="fill:#808080;fill-opacity:0.4;" x="362.841079" xlink:href="#C2_0_97806cd76f" y="78.766278"/>
    </g>
    <g clip-path="url(#pfeed80e4f9)">
     <use style="fill:#808080;fill-opacity:0.4;" x="378.324701" xlink:href="#C2_0_97806cd76f" y="78.766278"/>
    </g>
    <g clip-path="url(#pfeed80e4f9)">
     <use style="fill:#808080;fill-opacity:0.4;" x="375.305361" xlink:href="#C2_0_97806cd76f" y="41.702642"/>
    </g>
    <g clip-path="url(#pfeed80e4f9)">
     <use style="fill:#808080;fill-opacity:0.4;" x="363.622372" xlink:href="#C2_0_97806cd76f" y="41.702642"/>
    </g>
    <g clip-path="url(#pfeed80e4f9)">
     <use style="fill:#808080;fill-opacity:0.4;" x="377.737666" xlink:href="#C2_0_97806cd76f" y="227.020824"/>
    </g>
    <g clip-path="url(#pfeed80e4f9)">
     <use style="fill:#808080;fill-opacity:0.4;" x="363.237515" xlink:href="#C2_0_97806cd76f" y="78.766278"/>
    </g>
    <g clip-path="url(#pfeed80e4f9)">
     <use style="fill:#808080;fill-opacity:0.4;" x="377.873873" xlink:href="#C2_0_97806cd76f" y="41.702642"/>
    </g>
    <g clip-path="url(#pfeed80e4f9)">
     <use style="fill:#808080;fill-opacity:0.4;" x="361.418138" xlink:href="#C2_0_97806cd76f" y="189.957188"/>
    </g>
    <g clip-path="url(#pfeed80e4f9)">
     <use style="fill:#808080;fill-opacity:0.4;" x="358.322202" xlink:href="#C2_0_97806cd76f" y="78.766278"/>
    </g>
    <g clip-path="url(#pfeed80e4f9)">
     <use style="fill:#808080;fill-opacity:0.4;" x="359.193828" xlink:href="#C2_0_97806cd76f" y="41.702642"/>
    </g>
    <g clip-path="url(#pfeed80e4f9)">
     <use style="fill:#808080;fill-opacity:0.4;" x="360.694308" xlink:href="#C2_0_97806cd76f" y="78.766278"/>
    </g>
    <g clip-path="url(#pfeed80e4f9)">
     <use style="fill:#808080;fill-opacity:0.4;" x="365.997214" xlink:href="#C2_0_97806cd76f" y="41.702642"/>
    </g>
   </g>
   <g id="PathCollection_4">
    <defs>
     <path d="M 0 5.075922 
C 1.34615 5.075922 2.637347 4.541091 3.589219 3.589219 
C 4.541091 2.637347 5.075922 1.34615 5.075922 -0 
C 5.075922 -1.34615 4.541091 -2.637347 3.589219 -3.589219 
C 2.637347 -4.541091 1.34615 -5.075922 0 -5.075922 
C -1.34615 -5.075922 -2.637347 -4.541091 -3.589219 -3.589219 
C -4.541091 -2.637347 -5.075922 -1.34615 -5.075922 0 
C -5.075922 1.34615 -4.541091 2.637347 -3.589219 3.589219 
C -2.637347 4.541091 -1.34615 5.075922 0 5.075922 
z
" id="C3_0_93c2e09e03"/>
    </defs>
    <g clip-path="url(#pfeed80e4f9)">
     <use style="fill:#39ad48;stroke:#39ad48;stroke-width:3.0375;" x="145.189687" xlink:href="#C3_0_93c2e09e03" y="75.677642"/>
    </g>
    <g clip-path="url(#pfeed80e4f9)">
     <use style="fill:#d9544d;stroke:#d9544d;stroke-width:3.0375;" x="256.789687" xlink:href="#C3_0_93c2e09e03" y="134.361733"/>
    </g>
    <g clip-path="url(#pfeed80e4f9)">
     <use style="fill:#3b5b92;stroke:#3b5b92;stroke-width:3.0375;" x="368.389687" xlink:href="#C3_0_93c2e09e03" y="81.854915"/>
    </g>
   </g>
   <g id="matplotlib.axis_1">
    <g id="xtick_1">
     <g id="line2d_1">
      <defs>
       <path d="M 0 0 
L 0 9 
" id="mcaccc7448b" style="stroke:#000000;stroke-width:1.875;"/>
      </defs>
      <g>
       <use style="stroke:#000000;stroke-width:1.875;" x="145.189687" xlink:href="#mcaccc7448b" y="363.037187"/>
      </g>
     </g>
     <g id="text_1">
      <!-- Think -->
      <g transform="translate(124.676016 386.934844)scale(0.15 -0.15)">
       <defs>
        <path d="M -0.296875 72.90625 
L 61.375 72.90625 
L 61.375 64.59375 
L 35.5 64.59375 
L 35.5 0 
L 25.59375 0 
L 25.59375 64.59375 
L -0.296875 64.59375 
z
" id="DejaVuSans-84"/>
        <path d="M 54.890625 33.015625 
L 54.890625 0 
L 45.90625 0 
L 45.90625 32.71875 
Q 45.90625 40.484375 42.875 44.328125 
Q 39.84375 48.1875 33.796875 48.1875 
Q 26.515625 48.1875 22.3125 43.546875 
Q 18.109375 38.921875 18.109375 30.90625 
L 18.109375 0 
L 9.078125 0 
L 9.078125 75.984375 
L 18.109375 75.984375 
L 18.109375 46.1875 
Q 21.34375 51.125 25.703125 53.5625 
Q 30.078125 56 35.796875 56 
Q 45.21875 56 50.046875 50.171875 
Q 54.890625 44.34375 54.890625 33.015625 
z
" id="DejaVuSans-104"/>
        <path d="M 9.421875 54.6875 
L 18.40625 54.6875 
L 18.40625 0 
L 9.421875 0 
z
M 9.421875 75.984375 
L 18.40625 75.984375 
L 18.40625 64.59375 
L 9.421875 64.59375 
z
" id="DejaVuSans-105"/>
        <path d="M 54.890625 33.015625 
L 54.890625 0 
L 45.90625 0 
L 45.90625 32.71875 
Q 45.90625 40.484375 42.875 44.328125 
Q 39.84375 48.1875 33.796875 48.1875 
Q 26.515625 48.1875 22.3125 43.546875 
Q 18.109375 38.921875 18.109375 30.90625 
L 18.109375 0 
L 9.078125 0 
L 9.078125 54.6875 
L 18.109375 54.6875 
L 18.109375 46.1875 
Q 21.34375 51.125 25.703125 53.5625 
Q 30.078125 56 35.796875 56 
Q 45.21875 56 50.046875 50.171875 
Q 54.890625 44.34375 54.890625 33.015625 
z
" id="DejaVuSans-110"/>
        <path d="M 9.078125 75.984375 
L 18.109375 75.984375 
L 18.109375 31.109375 
L 44.921875 54.6875 
L 56.390625 54.6875 
L 27.390625 29.109375 
L 57.625 0 
L 45.90625 0 
L 18.109375 26.703125 
L 18.109375 0 
L 9.078125 0 
z
" id="DejaVuSans-107"/>
       </defs>
       <use xlink:href="#DejaVuSans-84"/>
       <use x="61.083984" xlink:href="#DejaVuSans-104"/>
       <use x="124.462891" xlink:href="#DejaVuSans-105"/>
       <use x="152.246094" xlink:href="#DejaVuSans-110"/>
       <use x="215.625" xlink:href="#DejaVuSans-107"/>
      </g>
     </g>
    </g>
    <g id="xtick_2">
     <g id="line2d_2">
      <g>
       <use style="stroke:#000000;stroke-width:1.875;" x="256.789687" xlink:href="#mcaccc7448b" y="363.037187"/>
      </g>
     </g>
     <g id="text_2">
      <!-- No-Think -->
      <g transform="translate(223.913906 386.934844)scale(0.15 -0.15)">
       <defs>
        <path d="M 9.8125 72.90625 
L 23.09375 72.90625 
L 55.421875 11.921875 
L 55.421875 72.90625 
L 64.984375 72.90625 
L 64.984375 0 
L 51.703125 0 
L 19.390625 60.984375 
L 19.390625 0 
L 9.8125 0 
z
" id="DejaVuSans-78"/>
        <path d="M 30.609375 48.390625 
Q 23.390625 48.390625 19.1875 42.75 
Q 14.984375 37.109375 14.984375 27.296875 
Q 14.984375 17.484375 19.15625 11.84375 
Q 23.34375 6.203125 30.609375 6.203125 
Q 37.796875 6.203125 41.984375 11.859375 
Q 46.1875 17.53125 46.1875 27.296875 
Q 46.1875 37.015625 41.984375 42.703125 
Q 37.796875 48.390625 30.609375 48.390625 
z
M 30.609375 56 
Q 42.328125 56 49.015625 48.375 
Q 55.71875 40.765625 55.71875 27.296875 
Q 55.71875 13.875 49.015625 6.21875 
Q 42.328125 -1.421875 30.609375 -1.421875 
Q 18.84375 -1.421875 12.171875 6.21875 
Q 5.515625 13.875 5.515625 27.296875 
Q 5.515625 40.765625 12.171875 48.375 
Q 18.84375 56 30.609375 56 
z
" id="DejaVuSans-111"/>
        <path d="M 4.890625 31.390625 
L 31.203125 31.390625 
L 31.203125 23.390625 
L 4.890625 23.390625 
z
" id="DejaVuSans-45"/>
       </defs>
       <use xlink:href="#DejaVuSans-78"/>
       <use x="74.804688" xlink:href="#DejaVuSans-111"/>
       <use x="137.861328" xlink:href="#DejaVuSans-45"/>
       <use x="164.820312" xlink:href="#DejaVuSans-84"/>
       <use x="225.904297" xlink:href="#DejaVuSans-104"/>
       <use x="289.283203" xlink:href="#DejaVuSans-105"/>
       <use x="317.066406" xlink:href="#DejaVuSans-110"/>
       <use x="380.445312" xlink:href="#DejaVuSans-107"/>
      </g>
     </g>
    </g>
    <g id="xtick_3">
     <g id="line2d_3">
      <g>
       <use style="stroke:#000000;stroke-width:1.875;" x="368.389687" xlink:href="#mcaccc7448b" y="363.037187"/>
      </g>
     </g>
     <g id="text_3">
      <!-- Baseline -->
      <g transform="translate(336.590859 386.934844)scale(0.15 -0.15)">
       <defs>
        <path d="M 19.671875 34.8125 
L 19.671875 8.109375 
L 35.5 8.109375 
Q 43.453125 8.109375 47.28125 11.40625 
Q 51.125 14.703125 51.125 21.484375 
Q 51.125 28.328125 47.28125 31.5625 
Q 43.453125 34.8125 35.5 34.8125 
z
M 19.671875 64.796875 
L 19.671875 42.828125 
L 34.28125 42.828125 
Q 41.5 42.828125 45.03125 45.53125 
Q 48.578125 48.25 48.578125 53.8125 
Q 48.578125 59.328125 45.03125 62.0625 
Q 41.5 64.796875 34.28125 64.796875 
z
M 9.8125 72.90625 
L 35.015625 72.90625 
Q 46.296875 72.90625 52.390625 68.21875 
Q 58.5 63.53125 58.5 54.890625 
Q 58.5 48.1875 55.375 44.234375 
Q 52.25 40.28125 46.1875 39.3125 
Q 53.46875 37.75 57.5 32.78125 
Q 61.53125 27.828125 61.53125 20.40625 
Q 61.53125 10.640625 54.890625 5.3125 
Q 48.25 0 35.984375 0 
L 9.8125 0 
z
" id="DejaVuSans-66"/>
        <path d="M 34.28125 27.484375 
Q 23.390625 27.484375 19.1875 25 
Q 14.984375 22.515625 14.984375 16.5 
Q 14.984375 11.71875 18.140625 8.90625 
Q 21.296875 6.109375 26.703125 6.109375 
Q 34.1875 6.109375 38.703125 11.40625 
Q 43.21875 16.703125 43.21875 25.484375 
L 43.21875 27.484375 
z
M 52.203125 31.203125 
L 52.203125 0 
L 43.21875 0 
L 43.21875 8.296875 
Q 40.140625 3.328125 35.546875 0.953125 
Q 30.953125 -1.421875 24.3125 -1.421875 
Q 15.921875 -1.421875 10.953125 3.296875 
Q 6 8.015625 6 15.921875 
Q 6 25.140625 12.171875 29.828125 
Q 18.359375 34.515625 30.609375 34.515625 
L 43.21875 34.515625 
L 43.21875 35.40625 
Q 43.21875 41.609375 39.140625 45 
Q 35.0625 48.390625 27.6875 48.390625 
Q 23 48.390625 18.546875 47.265625 
Q 14.109375 46.140625 10.015625 43.890625 
L 10.015625 52.203125 
Q 14.9375 54.109375 19.578125 55.046875 
Q 24.21875 56 28.609375 56 
Q 40.484375 56 46.34375 49.84375 
Q 52.203125 43.703125 52.203125 31.203125 
z
" id="DejaVuSans-97"/>
        <path d="M 44.28125 53.078125 
L 44.28125 44.578125 
Q 40.484375 46.53125 36.375 47.5 
Q 32.28125 48.484375 27.875 48.484375 
Q 21.1875 48.484375 17.84375 46.4375 
Q 14.5 44.390625 14.5 40.28125 
Q 14.5 37.15625 16.890625 35.375 
Q 19.28125 33.59375 26.515625 31.984375 
L 29.59375 31.296875 
Q 39.15625 29.25 43.1875 25.515625 
Q 47.21875 21.78125 47.21875 15.09375 
Q 47.21875 7.46875 41.1875 3.015625 
Q 35.15625 -1.421875 24.609375 -1.421875 
Q 20.21875 -1.421875 15.453125 -0.5625 
Q 10.6875 0.296875 5.421875 2 
L 5.421875 11.28125 
Q 10.40625 8.6875 15.234375 7.390625 
Q 20.0625 6.109375 24.8125 6.109375 
Q 31.15625 6.109375 34.5625 8.28125 
Q 37.984375 10.453125 37.984375 14.40625 
Q 37.984375 18.0625 35.515625 20.015625 
Q 33.0625 21.96875 24.703125 23.78125 
L 21.578125 24.515625 
Q 13.234375 26.265625 9.515625 29.90625 
Q 5.8125 33.546875 5.8125 39.890625 
Q 5.8125 47.609375 11.28125 51.796875 
Q 16.75 56 26.8125 56 
Q 31.78125 56 36.171875 55.265625 
Q 40.578125 54.546875 44.28125 53.078125 
z
" id="DejaVuSans-115"/>
        <path d="M 56.203125 29.59375 
L 56.203125 25.203125 
L 14.890625 25.203125 
Q 15.484375 15.921875 20.484375 11.0625 
Q 25.484375 6.203125 34.421875 6.203125 
Q 39.59375 6.203125 44.453125 7.46875 
Q 49.3125 8.734375 54.109375 11.28125 
L 54.109375 2.78125 
Q 49.265625 0.734375 44.1875 -0.34375 
Q 39.109375 -1.421875 33.890625 -1.421875 
Q 20.796875 -1.421875 13.15625 6.1875 
Q 5.515625 13.8125 5.515625 26.8125 
Q 5.515625 40.234375 12.765625 48.109375 
Q 20.015625 56 32.328125 56 
Q 43.359375 56 49.78125 48.890625 
Q 56.203125 41.796875 56.203125 29.59375 
z
M 47.21875 32.234375 
Q 47.125 39.59375 43.09375 43.984375 
Q 39.0625 48.390625 32.421875 48.390625 
Q 24.90625 48.390625 20.390625 44.140625 
Q 15.875 39.890625 15.1875 32.171875 
z
" id="DejaVuSans-101"/>
        <path d="M 9.421875 75.984375 
L 18.40625 75.984375 
L 18.40625 0 
L 9.421875 0 
z
" id="DejaVuSans-108"/>
       </defs>
       <use xlink:href="#DejaVuSans-66"/>
       <use x="68.603516" xlink:href="#DejaVuSans-97"/>
       <use x="129.882812" xlink:href="#DejaVuSans-115"/>
       <use x="181.982422" xlink:href="#DejaVuSans-101"/>
       <use x="243.505859" xlink:href="#DejaVuSans-108"/>
       <use x="271.289062" xlink:href="#DejaVuSans-105"/>
       <use x="299.072266" xlink:href="#DejaVuSans-110"/>
       <use x="362.451172" xlink:href="#DejaVuSans-101"/>
      </g>
     </g>
    </g>
   </g>
   <g id="matplotlib.axis_2">
    <g id="ytick_1">
     <g id="line2d_4">
      <defs>
       <path d="M 0 0 
L -9 0 
" id="mca9c905b0c" style="stroke:#000000;stroke-width:1.875;"/>
      </defs>
      <g>
       <use style="stroke:#000000;stroke-width:1.875;" x="79.389688" xlink:href="#mca9c905b0c" y="308.560824"/>
      </g>
     </g>
     <g id="text_4">
      <!-- 70 -->
      <g transform="translate(45.893438 314.829535)scale(0.165 -0.165)">
       <defs>
        <path d="M 8.203125 72.90625 
L 55.078125 72.90625 
L 55.078125 68.703125 
L 28.609375 0 
L 18.3125 0 
L 43.21875 64.59375 
L 8.203125 64.59375 
z
" id="DejaVuSans-55"/>
        <path d="M 31.78125 66.40625 
Q 24.171875 66.40625 20.328125 58.90625 
Q 16.5 51.421875 16.5 36.375 
Q 16.5 21.390625 20.328125 13.890625 
Q 24.171875 6.390625 31.78125 6.390625 
Q 39.453125 6.390625 43.28125 13.890625 
Q 47.125 21.390625 47.125 36.375 
Q 47.125 51.421875 43.28125 58.90625 
Q 39.453125 66.40625 31.78125 66.40625 
z
M 31.78125 74.21875 
Q 44.046875 74.21875 50.515625 64.515625 
Q 56.984375 54.828125 56.984375 36.375 
Q 56.984375 17.96875 50.515625 8.265625 
Q 44.046875 -1.421875 31.78125 -1.421875 
Q 19.53125 -1.421875 13.0625 8.265625 
Q 6.59375 17.96875 6.59375 36.375 
Q 6.59375 54.828125 13.0625 64.515625 
Q 19.53125 74.21875 31.78125 74.21875 
z
" id="DejaVuSans-48"/>
       </defs>
       <use xlink:href="#DejaVuSans-55"/>
       <use x="63.623047" xlink:href="#DejaVuSans-48"/>
      </g>
     </g>
    </g>
    <g id="ytick_2">
     <g id="line2d_5">
      <g>
       <use style="stroke:#000000;stroke-width:1.875;" x="79.389688" xlink:href="#mca9c905b0c" y="264.08446"/>
      </g>
     </g>
     <g id="text_5">
      <!-- 75 -->
      <g transform="translate(45.893438 270.353171)scale(0.165 -0.165)">
       <defs>
        <path d="M 10.796875 72.90625 
L 49.515625 72.90625 
L 49.515625 64.59375 
L 19.828125 64.59375 
L 19.828125 46.734375 
Q 21.96875 47.46875 24.109375 47.828125 
Q 26.265625 48.1875 28.421875 48.1875 
Q 40.625 48.1875 47.75 41.5 
Q 54.890625 34.8125 54.890625 23.390625 
Q 54.890625 11.625 47.5625 5.09375 
Q 40.234375 -1.421875 26.90625 -1.421875 
Q 22.3125 -1.421875 17.546875 -0.640625 
Q 12.796875 0.140625 7.71875 1.703125 
L 7.71875 11.625 
Q 12.109375 9.234375 16.796875 8.0625 
Q 21.484375 6.890625 26.703125 6.890625 
Q 35.15625 6.890625 40.078125 11.328125 
Q 45.015625 15.765625 45.015625 23.390625 
Q 45.015625 31 40.078125 35.4375 
Q 35.15625 39.890625 26.703125 39.890625 
Q 22.75 39.890625 18.8125 39.015625 
Q 14.890625 38.140625 10.796875 36.28125 
z
" id="DejaVuSans-53"/>
       </defs>
       <use xlink:href="#DejaVuSans-55"/>
       <use x="63.623047" xlink:href="#DejaVuSans-53"/>
      </g>
     </g>
    </g>
    <g id="ytick_3">
     <g id="line2d_6">
      <g>
       <use style="stroke:#000000;stroke-width:1.875;" x="79.389688" xlink:href="#mca9c905b0c" y="219.608097"/>
      </g>
     </g>
     <g id="text_6">
      <!-- 80 -->
      <g transform="translate(45.893438 225.876808)scale(0.165 -0.165)">
       <defs>
        <path d="M 31.78125 34.625 
Q 24.75 34.625 20.71875 30.859375 
Q 16.703125 27.09375 16.703125 20.515625 
Q 16.703125 13.921875 20.71875 10.15625 
Q 24.75 6.390625 31.78125 6.390625 
Q 38.8125 6.390625 42.859375 10.171875 
Q 46.921875 13.96875 46.921875 20.515625 
Q 46.921875 27.09375 42.890625 30.859375 
Q 38.875 34.625 31.78125 34.625 
z
M 21.921875 38.8125 
Q 15.578125 40.375 12.03125 44.71875 
Q 8.5 49.078125 8.5 55.328125 
Q 8.5 64.0625 14.71875 69.140625 
Q 20.953125 74.21875 31.78125 74.21875 
Q 42.671875 74.21875 48.875 69.140625 
Q 55.078125 64.0625 55.078125 55.328125 
Q 55.078125 49.078125 51.53125 44.71875 
Q 48 40.375 41.703125 38.8125 
Q 48.828125 37.15625 52.796875 32.3125 
Q 56.78125 27.484375 56.78125 20.515625 
Q 56.78125 9.90625 50.3125 4.234375 
Q 43.84375 -1.421875 31.78125 -1.421875 
Q 19.734375 -1.421875 13.25 4.234375 
Q 6.78125 9.90625 6.78125 20.515625 
Q 6.78125 27.484375 10.78125 32.3125 
Q 14.796875 37.15625 21.921875 38.8125 
z
M 18.3125 54.390625 
Q 18.3125 48.734375 21.84375 45.5625 
Q 25.390625 42.390625 31.78125 42.390625 
Q 38.140625 42.390625 41.71875 45.5625 
Q 45.3125 48.734375 45.3125 54.390625 
Q 45.3125 60.0625 41.71875 63.234375 
Q 38.140625 66.40625 31.78125 66.40625 
Q 25.390625 66.40625 21.84375 63.234375 
Q 18.3125 60.0625 18.3125 54.390625 
z
" id="DejaVuSans-56"/>
       </defs>
       <use xlink:href="#DejaVuSans-56"/>
       <use x="63.623047" xlink:href="#DejaVuSans-48"/>
      </g>
     </g>
    </g>
    <g id="ytick_4">
     <g id="line2d_7">
      <g>
       <use style="stroke:#000000;stroke-width:1.875;" x="79.389688" xlink:href="#mca9c905b0c" y="175.131733"/>
      </g>
     </g>
     <g id="text_7">
      <!-- 85 -->
      <g transform="translate(45.893438 181.400444)scale(0.165 -0.165)">
       <use xlink:href="#DejaVuSans-56"/>
       <use x="63.623047" xlink:href="#DejaVuSans-53"/>
      </g>
     </g>
    </g>
    <g id="ytick_5">
     <g id="line2d_8">
      <g>
       <use style="stroke:#000000;stroke-width:1.875;" x="79.389688" xlink:href="#mca9c905b0c" y="130.655369"/>
      </g>
     </g>
     <g id="text_8">
      <!-- 90 -->
      <g transform="translate(45.893438 136.92408)scale(0.165 -0.165)">
       <defs>
        <path d="M 10.984375 1.515625 
L 10.984375 10.5 
Q 14.703125 8.734375 18.5 7.8125 
Q 22.3125 6.890625 25.984375 6.890625 
Q 35.75 6.890625 40.890625 13.453125 
Q 46.046875 20.015625 46.78125 33.40625 
Q 43.953125 29.203125 39.59375 26.953125 
Q 35.25 24.703125 29.984375 24.703125 
Q 19.046875 24.703125 12.671875 31.3125 
Q 6.296875 37.9375 6.296875 49.421875 
Q 6.296875 60.640625 12.9375 67.421875 
Q 19.578125 74.21875 30.609375 74.21875 
Q 43.265625 74.21875 49.921875 64.515625 
Q 56.59375 54.828125 56.59375 36.375 
Q 56.59375 19.140625 48.40625 8.859375 
Q 40.234375 -1.421875 26.421875 -1.421875 
Q 22.703125 -1.421875 18.890625 -0.6875 
Q 15.09375 0.046875 10.984375 1.515625 
z
M 30.609375 32.421875 
Q 37.25 32.421875 41.125 36.953125 
Q 45.015625 41.5 45.015625 49.421875 
Q 45.015625 57.28125 41.125 61.84375 
Q 37.25 66.40625 30.609375 66.40625 
Q 23.96875 66.40625 20.09375 61.84375 
Q 16.21875 57.28125 16.21875 49.421875 
Q 16.21875 41.5 20.09375 36.953125 
Q 23.96875 32.421875 30.609375 32.421875 
z
" id="DejaVuSans-57"/>
       </defs>
       <use xlink:href="#DejaVuSans-57"/>
       <use x="63.623047" xlink:href="#DejaVuSans-48"/>
      </g>
     </g>
    </g>
    <g id="ytick_6">
     <g id="line2d_9">
      <g>
       <use style="stroke:#000000;stroke-width:1.875;" x="79.389688" xlink:href="#mca9c905b0c" y="86.179006"/>
      </g>
     </g>
     <g id="text_9">
      <!-- 95 -->
      <g transform="translate(45.893438 92.447717)scale(0.165 -0.165)">
       <use xlink:href="#DejaVuSans-57"/>
       <use x="63.623047" xlink:href="#DejaVuSans-53"/>
      </g>
     </g>
    </g>
    <g id="ytick_7">
     <g id="line2d_10">
      <g>
       <use style="stroke:#000000;stroke-width:1.875;" x="79.389688" xlink:href="#mca9c905b0c" y="41.702642"/>
      </g>
     </g>
     <g id="text_10">
      <!-- 100 -->
      <g transform="translate(35.395313 47.971353)scale(0.165 -0.165)">
       <defs>
        <path d="M 12.40625 8.296875 
L 28.515625 8.296875 
L 28.515625 63.921875 
L 10.984375 60.40625 
L 10.984375 69.390625 
L 28.421875 72.90625 
L 38.28125 72.90625 
L 38.28125 8.296875 
L 54.390625 8.296875 
L 54.390625 0 
L 12.40625 0 
z
" id="DejaVuSans-49"/>
       </defs>
       <use xlink:href="#DejaVuSans-49"/>
       <use x="63.623047" xlink:href="#DejaVuSans-48"/>
       <use x="127.246094" xlink:href="#DejaVuSans-48"/>
      </g>
     </g>
    </g>
    <g id="text_11">
     <!-- Recall (%) -->
     <g transform="translate(26.196094 252.853672)rotate(-90)scale(0.25 -0.25)">
      <defs>
       <path d="M 44.390625 34.1875 
Q 47.5625 33.109375 50.5625 29.59375 
Q 53.5625 26.078125 56.59375 19.921875 
L 66.609375 0 
L 56 0 
L 46.6875 18.703125 
Q 43.0625 26.03125 39.671875 28.421875 
Q 36.28125 30.8125 30.421875 30.8125 
L 19.671875 30.8125 
L 19.671875 0 
L 9.8125 0 
L 9.8125 72.90625 
L 32.078125 72.90625 
Q 44.578125 72.90625 50.734375 67.671875 
Q 56.890625 62.453125 56.890625 51.90625 
Q 56.890625 45.015625 53.6875 40.46875 
Q 50.484375 35.9375 44.390625 34.1875 
z
M 19.671875 64.796875 
L 19.671875 38.921875 
L 32.078125 38.921875 
Q 39.203125 38.921875 42.84375 42.21875 
Q 46.484375 45.515625 46.484375 51.90625 
Q 46.484375 58.296875 42.84375 61.546875 
Q 39.203125 64.796875 32.078125 64.796875 
z
" id="DejaVuSans-82"/>
       <path d="M 48.78125 52.59375 
L 48.78125 44.1875 
Q 44.96875 46.296875 41.140625 47.34375 
Q 37.3125 48.390625 33.40625 48.390625 
Q 24.65625 48.390625 19.8125 42.84375 
Q 14.984375 37.3125 14.984375 27.296875 
Q 14.984375 17.28125 19.8125 11.734375 
Q 24.65625 6.203125 33.40625 6.203125 
Q 37.3125 6.203125 41.140625 7.25 
Q 44.96875 8.296875 48.78125 10.40625 
L 48.78125 2.09375 
Q 45.015625 0.34375 40.984375 -0.53125 
Q 36.96875 -1.421875 32.421875 -1.421875 
Q 20.0625 -1.421875 12.78125 6.34375 
Q 5.515625 14.109375 5.515625 27.296875 
Q 5.515625 40.671875 12.859375 48.328125 
Q 20.21875 56 33.015625 56 
Q 37.15625 56 41.109375 55.140625 
Q 45.0625 54.296875 48.78125 52.59375 
z
" id="DejaVuSans-99"/>
       <path id="DejaVuSans-32"/>
       <path d="M 31 75.875 
Q 24.46875 64.65625 21.28125 53.65625 
Q 18.109375 42.671875 18.109375 31.390625 
Q 18.109375 20.125 21.3125 9.0625 
Q 24.515625 -2 31 -13.1875 
L 23.1875 -13.1875 
Q 15.875 -1.703125 12.234375 9.375 
Q 8.59375 20.453125 8.59375 31.390625 
Q 8.59375 42.28125 12.203125 53.3125 
Q 15.828125 64.359375 23.1875 75.875 
z
" id="DejaVuSans-40"/>
       <path d="M 72.703125 32.078125 
Q 68.453125 32.078125 66.03125 28.46875 
Q 63.625 24.859375 63.625 18.40625 
Q 63.625 12.0625 66.03125 8.421875 
Q 68.453125 4.78125 72.703125 4.78125 
Q 76.859375 4.78125 79.265625 8.421875 
Q 81.6875 12.0625 81.6875 18.40625 
Q 81.6875 24.8125 79.265625 28.4375 
Q 76.859375 32.078125 72.703125 32.078125 
z
M 72.703125 38.28125 
Q 80.421875 38.28125 84.953125 32.90625 
Q 89.5 27.546875 89.5 18.40625 
Q 89.5 9.28125 84.9375 3.921875 
Q 80.375 -1.421875 72.703125 -1.421875 
Q 64.890625 -1.421875 60.34375 3.921875 
Q 55.8125 9.28125 55.8125 18.40625 
Q 55.8125 27.59375 60.375 32.9375 
Q 64.9375 38.28125 72.703125 38.28125 
z
M 22.3125 68.015625 
Q 18.109375 68.015625 15.6875 64.375 
Q 13.28125 60.75 13.28125 54.390625 
Q 13.28125 47.953125 15.671875 44.328125 
Q 18.0625 40.71875 22.3125 40.71875 
Q 26.5625 40.71875 28.96875 44.328125 
Q 31.390625 47.953125 31.390625 54.390625 
Q 31.390625 60.6875 28.953125 64.34375 
Q 26.515625 68.015625 22.3125 68.015625 
z
M 66.40625 74.21875 
L 74.21875 74.21875 
L 28.609375 -1.421875 
L 20.796875 -1.421875 
z
M 22.3125 74.21875 
Q 30.03125 74.21875 34.609375 68.875 
Q 39.203125 63.53125 39.203125 54.390625 
Q 39.203125 45.171875 34.640625 39.84375 
Q 30.078125 34.515625 22.3125 34.515625 
Q 14.546875 34.515625 10.03125 39.859375 
Q 5.515625 45.21875 5.515625 54.390625 
Q 5.515625 63.484375 10.046875 68.84375 
Q 14.59375 74.21875 22.3125 74.21875 
z
" id="DejaVuSans-37"/>
       <path d="M 8.015625 75.875 
L 15.828125 75.875 
Q 23.140625 64.359375 26.78125 53.3125 
Q 30.421875 42.28125 30.421875 31.390625 
Q 30.421875 20.453125 26.78125 9.375 
Q 23.140625 -1.703125 15.828125 -13.1875 
L 8.015625 -13.1875 
Q 14.5 -2 17.703125 9.0625 
Q 20.90625 20.125 20.90625 31.390625 
Q 20.90625 42.671875 17.703125 53.65625 
Q 14.5 64.65625 8.015625 75.875 
z
" id="DejaVuSans-41"/>
      </defs>
      <use xlink:href="#DejaVuSans-82"/>
      <use x="64.982422" xlink:href="#DejaVuSans-101"/>
      <use x="126.505859" xlink:href="#DejaVuSans-99"/>
      <use x="181.486328" xlink:href="#DejaVuSans-97"/>
      <use x="242.765625" xlink:href="#DejaVuSans-108"/>
      <use x="270.548828" xlink:href="#DejaVuSans-108"/>
      <use x="298.332031" xlink:href="#DejaVuSans-32"/>
      <use x="330.119141" xlink:href="#DejaVuSans-40"/>
      <use x="369.132812" xlink:href="#DejaVuSans-37"/>
      <use x="464.152344" xlink:href="#DejaVuSans-41"/>
     </g>
    </g>
   </g>
   <g id="line2d_11">
    <path clip-path="url(#pfeed80e4f9)" d="M 145.189687 86.487869 
L 145.189687 64.867415 
" style="fill:none;stroke:#39ad48;stroke-linecap:square;stroke-width:4.05;"/>
   </g>
   <g id="line2d_12">
    <path clip-path="url(#pfeed80e4f9)" d="M 134.029687 86.487869 
L 156.349687 86.487869 
" style="fill:none;stroke:#39ad48;stroke-linecap:square;stroke-width:4.05;"/>
   </g>
   <g id="line2d_13">
    <path clip-path="url(#pfeed80e4f9)" d="M 134.029687 64.867415 
L 156.349687 64.867415 
" style="fill:none;stroke:#39ad48;stroke-linecap:square;stroke-width:4.05;"/>
   </g>
   <g id="line2d_14">
    <path clip-path="url(#pfeed80e4f9)" d="M 256.789687 152.893551 
L 256.789687 115.829915 
" style="fill:none;stroke:#d9544d;stroke-linecap:square;stroke-width:4.05;"/>
   </g>
   <g id="line2d_15">
    <path clip-path="url(#pfeed80e4f9)" d="M 245.629687 152.893551 
L 267.949687 152.893551 
" style="fill:none;stroke:#d9544d;stroke-linecap:square;stroke-width:4.05;"/>
   </g>
   <g id="line2d_16">
    <path clip-path="url(#pfeed80e4f9)" d="M 245.629687 115.829915 
L 267.949687 115.829915 
" style="fill:none;stroke:#d9544d;stroke-linecap:square;stroke-width:4.05;"/>
   </g>
   <g id="line2d_17">
    <path clip-path="url(#pfeed80e4f9)" d="M 368.389687 91.120824 
L 368.389687 71.044687 
" style="fill:none;stroke:#3b5b92;stroke-linecap:square;stroke-width:4.05;"/>
   </g>
   <g id="line2d_18">
    <path clip-path="url(#pfeed80e4f9)" d="M 357.229687 91.120824 
L 379.549687 91.120824 
" style="fill:none;stroke:#3b5b92;stroke-linecap:square;stroke-width:4.05;"/>
   </g>
   <g id="line2d_19">
    <path clip-path="url(#pfeed80e4f9)" d="M 357.229687 71.044687 
L 379.549687 71.044687 
" style="fill:none;stroke:#3b5b92;stroke-linecap:square;stroke-width:4.05;"/>
   </g>
   <g id="patch_3">
    <path d="M 79.389688 308.560824 
L 79.389688 41.702642 
" style="fill:none;stroke:#000000;stroke-linecap:square;stroke-linejoin:miter;stroke-width:1.875;"/>
   </g>
   <g id="patch_4">
    <path d="M 145.189687 363.037187 
L 368.389687 363.037187 
" style="fill:none;stroke:#000000;stroke-linecap:square;stroke-linejoin:miter;stroke-width:1.875;"/>
   </g>
   <g id="text_12">
    <!-- Post-TNT memory performances -->
    <g transform="translate(94.341094 20.877187)scale(0.18 -0.18)">
     <defs>
      <path d="M 9.1875 72.90625 
L 40.375 72.90625 
Q 54.296875 72.90625 61.734375 66.71875 
Q 69.1875 60.546875 69.1875 49.125 
Q 69.1875 37.640625 61.734375 31.46875 
Q 54.296875 25.296875 40.375 25.296875 
L 27.984375 25.296875 
L 27.984375 0 
L 9.1875 0 
z
M 27.984375 59.28125 
L 27.984375 38.921875 
L 38.375 38.921875 
Q 43.84375 38.921875 46.828125 41.578125 
Q 49.8125 44.234375 49.8125 49.125 
Q 49.8125 54 46.828125 56.640625 
Q 43.84375 59.28125 38.375 59.28125 
z
" id="DejaVuSans-Bold-80"/>
      <path d="M 34.421875 43.5 
Q 28.609375 43.5 25.5625 39.328125 
Q 22.515625 35.15625 22.515625 27.296875 
Q 22.515625 19.4375 25.5625 15.25 
Q 28.609375 11.078125 34.421875 11.078125 
Q 40.140625 11.078125 43.15625 15.25 
Q 46.1875 19.4375 46.1875 27.296875 
Q 46.1875 35.15625 43.15625 39.328125 
Q 40.140625 43.5 34.421875 43.5 
z
M 34.421875 56 
Q 48.53125 56 56.46875 48.375 
Q 64.40625 40.765625 64.40625 27.296875 
Q 64.40625 13.8125 56.46875 6.1875 
Q 48.53125 -1.421875 34.421875 -1.421875 
Q 20.265625 -1.421875 12.28125 6.1875 
Q 4.296875 13.8125 4.296875 27.296875 
Q 4.296875 40.765625 12.28125 48.375 
Q 20.265625 56 34.421875 56 
z
" id="DejaVuSans-Bold-111"/>
      <path d="M 51.125 52.984375 
L 51.125 39.703125 
Q 45.515625 42.046875 40.28125 43.21875 
Q 35.0625 44.390625 30.421875 44.390625 
Q 25.4375 44.390625 23.015625 43.140625 
Q 20.609375 41.890625 20.609375 39.3125 
Q 20.609375 37.203125 22.4375 36.078125 
Q 24.265625 34.96875 29 34.421875 
L 32.078125 33.984375 
Q 45.515625 32.28125 50.140625 28.375 
Q 54.78125 24.46875 54.78125 16.109375 
Q 54.78125 7.375 48.328125 2.96875 
Q 41.890625 -1.421875 29.109375 -1.421875 
Q 23.6875 -1.421875 17.890625 -0.5625 
Q 12.109375 0.296875 6 2 
L 6 15.28125 
Q 11.234375 12.75 16.71875 11.46875 
Q 22.21875 10.203125 27.875 10.203125 
Q 33.015625 10.203125 35.59375 11.609375 
Q 38.1875 13.03125 38.1875 15.828125 
Q 38.1875 18.171875 36.40625 19.3125 
Q 34.625 20.453125 29.296875 21.09375 
L 26.21875 21.484375 
Q 14.546875 22.953125 9.859375 26.90625 
Q 5.171875 30.859375 5.171875 38.921875 
Q 5.171875 47.609375 11.125 51.796875 
Q 17.09375 56 29.390625 56 
Q 34.234375 56 39.546875 55.265625 
Q 44.875 54.546875 51.125 52.984375 
z
" id="DejaVuSans-Bold-115"/>
      <path d="M 27.484375 70.21875 
L 27.484375 54.6875 
L 45.515625 54.6875 
L 45.515625 42.1875 
L 27.484375 42.1875 
L 27.484375 19 
Q 27.484375 15.1875 29 13.84375 
Q 30.515625 12.5 35.015625 12.5 
L 44 12.5 
L 44 0 
L 29 0 
Q 18.65625 0 14.328125 4.3125 
Q 10.015625 8.640625 10.015625 19 
L 10.015625 42.1875 
L 1.3125 42.1875 
L 1.3125 54.6875 
L 10.015625 54.6875 
L 10.015625 70.21875 
z
" id="DejaVuSans-Bold-116"/>
      <path d="M 5.421875 35.890625 
L 36.078125 35.890625 
L 36.078125 21.6875 
L 5.421875 21.6875 
z
" id="DejaVuSans-Bold-45"/>
      <path d="M 0.484375 72.90625 
L 67.671875 72.90625 
L 67.671875 58.6875 
L 43.5 58.6875 
L 43.5 0 
L 24.703125 0 
L 24.703125 58.6875 
L 0.484375 58.6875 
z
" id="DejaVuSans-Bold-84"/>
      <path d="M 9.1875 72.90625 
L 30.171875 72.90625 
L 56.6875 22.90625 
L 56.6875 72.90625 
L 74.515625 72.90625 
L 74.515625 0 
L 53.515625 0 
L 27 50 
L 27 0 
L 9.1875 0 
z
" id="DejaVuSans-Bold-78"/>
      <path id="DejaVuSans-Bold-32"/>
      <path d="M 59.078125 45.609375 
Q 62.40625 50.6875 66.96875 53.34375 
Q 71.53125 56 77 56 
Q 86.421875 56 91.359375 50.1875 
Q 96.296875 44.390625 96.296875 33.296875 
L 96.296875 0 
L 78.71875 0 
L 78.71875 28.515625 
Q 78.765625 29.15625 78.78125 29.828125 
Q 78.8125 30.515625 78.8125 31.78125 
Q 78.8125 37.59375 77.09375 40.203125 
Q 75.390625 42.828125 71.578125 42.828125 
Q 66.609375 42.828125 63.890625 38.71875 
Q 61.1875 34.625 61.078125 26.859375 
L 61.078125 0 
L 43.5 0 
L 43.5 28.515625 
Q 43.5 37.59375 41.9375 40.203125 
Q 40.375 42.828125 36.375 42.828125 
Q 31.34375 42.828125 28.609375 38.703125 
Q 25.875 34.578125 25.875 26.90625 
L 25.875 0 
L 8.296875 0 
L 8.296875 54.6875 
L 25.875 54.6875 
L 25.875 46.6875 
Q 29.109375 51.3125 33.28125 53.65625 
Q 37.453125 56 42.484375 56 
Q 48.140625 56 52.484375 53.265625 
Q 56.84375 50.53125 59.078125 45.609375 
z
" id="DejaVuSans-Bold-109"/>
      <path d="M 62.984375 27.484375 
L 62.984375 22.515625 
L 22.125 22.515625 
Q 22.75 16.359375 26.5625 13.28125 
Q 30.375 10.203125 37.203125 10.203125 
Q 42.71875 10.203125 48.5 11.84375 
Q 54.296875 13.484375 60.40625 16.796875 
L 60.40625 3.328125 
Q 54.203125 0.984375 48 -0.21875 
Q 41.796875 -1.421875 35.59375 -1.421875 
Q 20.75 -1.421875 12.515625 6.125 
Q 4.296875 13.671875 4.296875 27.296875 
Q 4.296875 40.671875 12.375 48.328125 
Q 20.453125 56 34.625 56 
Q 47.515625 56 55.25 48.234375 
Q 62.984375 40.484375 62.984375 27.484375 
z
M 45.015625 33.296875 
Q 45.015625 38.28125 42.109375 41.328125 
Q 39.203125 44.390625 34.515625 44.390625 
Q 29.4375 44.390625 26.265625 41.53125 
Q 23.09375 38.671875 22.3125 33.296875 
z
" id="DejaVuSans-Bold-101"/>
      <path d="M 49.03125 39.796875 
Q 46.734375 40.875 44.453125 41.375 
Q 42.1875 41.890625 39.890625 41.890625 
Q 33.15625 41.890625 29.515625 37.5625 
Q 25.875 33.25 25.875 25.203125 
L 25.875 0 
L 8.40625 0 
L 8.40625 54.6875 
L 25.875 54.6875 
L 25.875 45.703125 
Q 29.25 51.078125 33.609375 53.53125 
Q 37.984375 56 44.09375 56 
Q 44.96875 56 45.984375 55.921875 
Q 47.015625 55.859375 48.96875 55.609375 
z
" id="DejaVuSans-Bold-114"/>
      <path d="M 1.21875 54.6875 
L 18.703125 54.6875 
L 33.40625 17.578125 
L 45.90625 54.6875 
L 63.375 54.6875 
L 40.375 -5.171875 
Q 36.921875 -14.3125 32.296875 -17.9375 
Q 27.6875 -21.578125 20.125 -21.578125 
L 10.015625 -21.578125 
L 10.015625 -10.109375 
L 15.484375 -10.109375 
Q 19.921875 -10.109375 21.9375 -8.6875 
Q 23.96875 -7.28125 25.09375 -3.609375 
L 25.59375 -2.09375 
z
" id="DejaVuSans-Bold-121"/>
      <path d="M 25.875 7.90625 
L 25.875 -20.796875 
L 8.40625 -20.796875 
L 8.40625 54.6875 
L 25.875 54.6875 
L 25.875 46.6875 
Q 29.5 51.46875 33.890625 53.734375 
Q 38.28125 56 44 56 
Q 54.109375 56 60.59375 47.96875 
Q 67.09375 39.9375 67.09375 27.296875 
Q 67.09375 14.65625 60.59375 6.609375 
Q 54.109375 -1.421875 44 -1.421875 
Q 38.28125 -1.421875 33.890625 0.84375 
Q 29.5 3.125 25.875 7.90625 
z
M 37.5 43.3125 
Q 31.890625 43.3125 28.875 39.1875 
Q 25.875 35.0625 25.875 27.296875 
Q 25.875 19.53125 28.875 15.40625 
Q 31.890625 11.28125 37.5 11.28125 
Q 43.109375 11.28125 46.0625 15.375 
Q 49.03125 19.484375 49.03125 27.296875 
Q 49.03125 35.109375 46.0625 39.203125 
Q 43.109375 43.3125 37.5 43.3125 
z
" id="DejaVuSans-Bold-112"/>
      <path d="M 44.390625 75.984375 
L 44.390625 64.5 
L 34.71875 64.5 
Q 31 64.5 29.53125 63.15625 
Q 28.078125 61.8125 28.078125 58.5 
L 28.078125 54.6875 
L 43.015625 54.6875 
L 43.015625 42.1875 
L 28.078125 42.1875 
L 28.078125 0 
L 10.59375 0 
L 10.59375 42.1875 
L 1.90625 42.1875 
L 1.90625 54.6875 
L 10.59375 54.6875 
L 10.59375 58.5 
Q 10.59375 67.4375 15.578125 71.703125 
Q 20.5625 75.984375 31 75.984375 
z
" id="DejaVuSans-Bold-102"/>
      <path d="M 32.90625 24.609375 
Q 27.4375 24.609375 24.671875 22.75 
Q 21.921875 20.90625 21.921875 17.28125 
Q 21.921875 13.96875 24.140625 12.078125 
Q 26.375 10.203125 30.328125 10.203125 
Q 35.25 10.203125 38.625 13.734375 
Q 42 17.28125 42 22.609375 
L 42 24.609375 
z
M 59.625 31.203125 
L 59.625 0 
L 42 0 
L 42 8.109375 
Q 38.484375 3.125 34.078125 0.84375 
Q 29.6875 -1.421875 23.390625 -1.421875 
Q 14.890625 -1.421875 9.59375 3.53125 
Q 4.296875 8.5 4.296875 16.40625 
Q 4.296875 26.03125 10.90625 30.515625 
Q 17.53125 35.015625 31.6875 35.015625 
L 42 35.015625 
L 42 36.375 
Q 42 40.53125 38.71875 42.453125 
Q 35.453125 44.390625 28.515625 44.390625 
Q 22.90625 44.390625 18.0625 43.265625 
Q 13.234375 42.140625 9.078125 39.890625 
L 9.078125 53.21875 
Q 14.703125 54.59375 20.359375 55.296875 
Q 26.03125 56 31.6875 56 
Q 46.484375 56 53.046875 50.171875 
Q 59.625 44.34375 59.625 31.203125 
z
" id="DejaVuSans-Bold-97"/>
      <path d="M 63.375 33.296875 
L 63.375 0 
L 45.796875 0 
L 45.796875 5.421875 
L 45.796875 25.484375 
Q 45.796875 32.5625 45.484375 35.25 
Q 45.171875 37.9375 44.390625 39.203125 
Q 43.359375 40.921875 41.59375 41.875 
Q 39.84375 42.828125 37.59375 42.828125 
Q 32.125 42.828125 29 38.59375 
Q 25.875 34.375 25.875 26.90625 
L 25.875 0 
L 8.40625 0 
L 8.40625 54.6875 
L 25.875 54.6875 
L 25.875 46.6875 
Q 29.828125 51.46875 34.265625 53.734375 
Q 38.71875 56 44.09375 56 
Q 53.5625 56 58.46875 50.1875 
Q 63.375 44.390625 63.375 33.296875 
z
" id="DejaVuSans-Bold-110"/>
      <path d="M 52.59375 52.984375 
L 52.59375 38.71875 
Q 49.03125 41.15625 45.4375 42.328125 
Q 41.84375 43.5 37.984375 43.5 
Q 30.671875 43.5 26.59375 39.234375 
Q 22.515625 34.96875 22.515625 27.296875 
Q 22.515625 19.625 26.59375 15.34375 
Q 30.671875 11.078125 37.984375 11.078125 
Q 42.09375 11.078125 45.78125 12.296875 
Q 49.46875 13.53125 52.59375 15.921875 
L 52.59375 1.609375 
Q 48.484375 0.09375 44.265625 -0.65625 
Q 40.046875 -1.421875 35.796875 -1.421875 
Q 21 -1.421875 12.640625 6.171875 
Q 4.296875 13.765625 4.296875 27.296875 
Q 4.296875 40.828125 12.640625 48.40625 
Q 21 56 35.796875 56 
Q 40.09375 56 44.265625 55.25 
Q 48.4375 54.5 52.59375 52.984375 
z
" id="DejaVuSans-Bold-99"/>
     </defs>
     <use xlink:href="#DejaVuSans-Bold-80"/>
     <use x="73.291016" xlink:href="#DejaVuSans-Bold-111"/>
     <use x="141.992188" xlink:href="#DejaVuSans-Bold-115"/>
     <use x="201.513672" xlink:href="#DejaVuSans-Bold-116"/>
     <use x="249.316406" xlink:href="#DejaVuSans-Bold-45"/>
     <use x="276.070312" xlink:href="#DejaVuSans-Bold-84"/>
     <use x="344.283203" xlink:href="#DejaVuSans-Bold-78"/>
     <use x="427.974609" xlink:href="#DejaVuSans-Bold-84"/>
     <use x="496.1875" xlink:href="#DejaVuSans-Bold-32"/>
     <use x="531.001953" xlink:href="#DejaVuSans-Bold-109"/>
     <use x="635.201172" xlink:href="#DejaVuSans-Bold-101"/>
     <use x="703.023438" xlink:href="#DejaVuSans-Bold-109"/>
     <use x="807.222656" xlink:href="#DejaVuSans-Bold-111"/>
     <use x="875.923828" xlink:href="#DejaVuSans-Bold-114"/>
     <use x="925.240234" xlink:href="#DejaVuSans-Bold-121"/>
     <use x="990.425781" xlink:href="#DejaVuSans-Bold-32"/>
     <use x="1025.240234" xlink:href="#DejaVuSans-Bold-112"/>
     <use x="1096.822266" xlink:href="#DejaVuSans-Bold-101"/>
     <use x="1164.644531" xlink:href="#DejaVuSans-Bold-114"/>
     <use x="1213.960938" xlink:href="#DejaVuSans-Bold-102"/>
     <use x="1257.466797" xlink:href="#DejaVuSans-Bold-111"/>
     <use x="1326.167969" xlink:href="#DejaVuSans-Bold-114"/>
     <use x="1375.484375" xlink:href="#DejaVuSans-Bold-109"/>
     <use x="1479.683594" xlink:href="#DejaVuSans-Bold-97"/>
     <use x="1547.164062" xlink:href="#DejaVuSans-Bold-110"/>
     <use x="1618.355469" xlink:href="#DejaVuSans-Bold-99"/>
     <use x="1677.632812" xlink:href="#DejaVuSans-Bold-101"/>
     <use x="1745.455078" xlink:href="#DejaVuSans-Bold-115"/>
    </g>
   </g>
  </g>
 </g>
 <defs>
  <clipPath id="pfeed80e4f9">
   <rect height="326.16" width="334.8" x="89.389688" y="26.877187"/>
  </clipPath>
 </defs>
</svg>
