<?xml version="1.0" encoding="utf-8" standalone="no"?>
<!DOCTYPE svg PUBLIC "-//W3C//DTD SVG 1.1//EN"
  "http://www.w3.org/Graphics/SVG/1.1/DTD/svg11.dtd">
<!-- Created with matplotlib (https://matplotlib.org/) -->
<svg height="432pt" version="1.1" viewBox="0 0 864 432" width="864pt" xmlns="http://www.w3.org/2000/svg" xmlns:xlink="http://www.w3.org/1999/xlink">
 <metadata>
  <rdf:RDF xmlns:cc="http://creativecommons.org/ns#" xmlns:dc="http://purl.org/dc/elements/1.1/" xmlns:rdf="http://www.w3.org/1999/02/22-rdf-syntax-ns#">
   <cc:Work>
    <dc:type rdf:resource="http://purl.org/dc/dcmitype/StillImage"/>
    <dc:date>2021-11-12T00:42:48.160546</dc:date>
    <dc:format>image/svg+xml</dc:format>
    <dc:creator>
     <cc:Agent>
      <dc:title>Matplotlib v3.3.4, https://matplotlib.org/</dc:title>
     </cc:Agent>
    </dc:creator>
   </cc:Work>
  </rdf:RDF>
 </metadata>
 <defs>
  <style type="text/css">*{stroke-linecap:butt;stroke-linejoin:round;}</style>
 </defs>
 <g id="figure_1">
  <g id="patch_1">
   <path d="M 0 432 
L 864 432 
L 864 0 
L 0 0 
z
" style="fill:none;"/>
  </g>
  <g id="axes_1">
   <g id="patch_2">
    <path d="M 108 378 
L 777.6 378 
L 777.6 51.84 
L 108 51.84 
z
" style="fill:#ffffff;"/>
   </g>
   <g id="PolyCollection_1">
    <defs>
     <path d="M 138.436364 -110.41379 
L 138.436364 -86.195053 
L 142.017112 -79.778974 
L 145.597861 -91.556293 
L 149.17861 -96.907521 
L 152.759358 -100.558574 
L 156.340107 -109.056978 
L 159.920856 -97.261241 
L 163.501604 -97.713208 
L 167.082353 -89.036021 
L 170.663102 -85.221561 
L 174.24385 -68.825455 
L 177.824599 -96.045754 
L 181.405348 -100.377187 
L 184.986096 -108.969859 
L 188.566845 -103.857767 
L 192.147594 -86.953942 
L 195.728342 -98.575329 
L 199.309091 -109.286062 
L 202.88984 -102.993821 
L 206.470588 -100.981333 
L 210.051337 -95.460395 
L 213.632086 -92.168302 
L 217.212834 -121.283708 
L 220.793583 -82.779048 
L 224.374332 -103.013527 
L 227.95508 -100.545915 
L 231.535829 -115.63716 
L 235.116578 -100.990611 
L 238.697326 -123.357421 
L 242.278075 -94.809818 
L 245.858824 -98.037495 
L 249.439572 -98.062287 
L 253.020321 -111.952879 
L 256.60107 -114.99078 
L 260.181818 -103.676225 
L 263.762567 -125.033378 
L 267.343316 -136.883974 
L 270.924064 -125.5619 
L 274.504813 -125.81712 
L 278.085561 -160.204812 
L 281.66631 -159.528642 
L 285.247059 -146.429215 
L 288.827807 -143.379661 
L 292.408556 -155.711021 
L 295.989305 -112.792163 
L 299.570053 -145.146317 
L 303.150802 -151.9626 
L 306.731551 -143.941331 
L 310.312299 -179.999038 
L 313.893048 -238.270127 
L 317.473797 -294.135429 
L 321.054545 -330.290049 
L 324.635294 -325.992579 
L 328.216043 -305.370988 
L 331.796791 -280.851522 
L 335.37754 -249.145353 
L 338.958289 -226.349826 
L 342.539037 -200.581375 
L 346.119786 -186.622188 
L 349.700535 -178.709415 
L 353.281283 -188.065154 
L 356.862032 -190.795127 
L 360.442781 -184.839237 
L 364.023529 -204.465795 
L 367.604278 -202.396677 
L 371.185027 -188.29106 
L 374.765775 -167.335334 
L 378.346524 -163.303941 
L 381.927273 -161.484157 
L 385.508021 -201.210027 
L 389.08877 -182.494821 
L 392.669519 -177.152401 
L 396.250267 -161.897761 
L 399.831016 -180.283071 
L 403.411765 -170.825477 
L 406.992513 -147.982209 
L 410.573262 -136.214932 
L 414.154011 -140.863614 
L 417.734759 -126.109892 
L 421.315508 -129.437563 
L 424.896257 -137.867375 
L 428.477005 -141.183084 
L 432.057754 -143.272579 
L 435.638503 -142.873952 
L 439.219251 -123.164292 
L 442.8 -126.287998 
L 446.380749 -133.171211 
L 449.961497 -141.835432 
L 453.542246 -130.902725 
L 457.122995 -124.365616 
L 460.703743 -125.812443 
L 464.284492 -152.582479 
L 467.865241 -136.153377 
L 471.445989 -122.668246 
L 475.026738 -157.828666 
L 478.607487 -132.465889 
L 482.188235 -121.869902 
L 485.768984 -114.568831 
L 489.349733 -136.603679 
L 492.930481 -101.63224 
L 496.51123 -105.601362 
L 500.091979 -128.598417 
L 503.672727 -117.868774 
L 507.253476 -118.959176 
L 510.834225 -149.715576 
L 514.414973 -144.492249 
L 517.995722 -113.817616 
L 521.576471 -134.089948 
L 525.157219 -140.194097 
L 528.737968 -131.056372 
L 532.318717 -123.916435 
L 535.899465 -125.906972 
L 539.480214 -149.504168 
L 543.060963 -127.718884 
L 546.641711 -121.256096 
L 550.22246 -113.596489 
L 553.803209 -138.527525 
L 557.383957 -140.78566 
L 560.964706 -113.331405 
L 564.545455 -122.153274 
L 568.126203 -129.652803 
L 571.706952 -124.392935 
L 575.287701 -96.85108 
L 578.868449 -109.994337 
L 582.449198 -109.997851 
L 586.029947 -110.406432 
L 589.610695 -117.702052 
L 593.191444 -138.611607 
L 596.772193 -140.358254 
L 600.352941 -129.438114 
L 603.93369 -105.782191 
L 607.514439 -123.05401 
L 611.095187 -114.691584 
L 614.675936 -97.036199 
L 618.256684 -101.093924 
L 621.837433 -96.162484 
L 625.418182 -115.820024 
L 628.99893 -108.554925 
L 632.579679 -105.567258 
L 636.160428 -111.292304 
L 639.741176 -100.45966 
L 643.321925 -115.313741 
L 646.902674 -127.122383 
L 650.483422 -142.066524 
L 654.064171 -141.269629 
L 657.64492 -125.264276 
L 661.225668 -101.696684 
L 664.806417 -96.23125 
L 668.387166 -126.258655 
L 671.967914 -123.509345 
L 675.548663 -106.173681 
L 679.129412 -112.423386 
L 682.71016 -123.807597 
L 686.290909 -90.884309 
L 689.871658 -117.15335 
L 693.452406 -120.455614 
L 697.033155 -121.533252 
L 700.613904 -115.709902 
L 704.194652 -117.130782 
L 707.775401 -103.260187 
L 711.35615 -97.918004 
L 714.936898 -107.016651 
L 718.517647 -112.150298 
L 722.098396 -103.125631 
L 725.679144 -98.736256 
L 729.259893 -99.272944 
L 732.840642 -104.540563 
L 736.42139 -86.837956 
L 740.002139 -98.657896 
L 743.582888 -114.183006 
L 747.163636 -124.911919 
L 747.163636 -150.384948 
L 747.163636 -150.384948 
L 743.582888 -137.494053 
L 740.002139 -120.20814 
L 736.42139 -114.047134 
L 732.840642 -125.474775 
L 729.259893 -131.008616 
L 725.679144 -125.825541 
L 722.098396 -139.786885 
L 718.517647 -140.084651 
L 714.936898 -135.445329 
L 711.35615 -125.666505 
L 707.775401 -125.606856 
L 704.194652 -148.402078 
L 700.613904 -133.690725 
L 697.033155 -144.704722 
L 693.452406 -145.759456 
L 689.871658 -138.663049 
L 686.290909 -123.32811 
L 682.71016 -154.976883 
L 679.129412 -137.828095 
L 675.548663 -127.745483 
L 671.967914 -145.794954 
L 668.387166 -150.374542 
L 664.806417 -132.272897 
L 661.225668 -128.350909 
L 657.64492 -149.125472 
L 654.064171 -162.83357 
L 650.483422 -163.946374 
L 646.902674 -153.802056 
L 643.321925 -136.746242 
L 639.741176 -128.70798 
L 636.160428 -140.539675 
L 632.579679 -130.8378 
L 628.99893 -132.715559 
L 625.418182 -144.348624 
L 621.837433 -125.031884 
L 618.256684 -135.846005 
L 614.675936 -123.619861 
L 611.095187 -142.3542 
L 607.514439 -150.8071 
L 603.93369 -130.683085 
L 600.352941 -153.052345 
L 596.772193 -157.741694 
L 593.191444 -159.361015 
L 589.610695 -144.307373 
L 586.029947 -140.349417 
L 582.449198 -132.3781 
L 578.868449 -133.242294 
L 575.287701 -125.914843 
L 571.706952 -155.944745 
L 568.126203 -159.502228 
L 564.545455 -151.740999 
L 560.964706 -143.100929 
L 557.383957 -166.266437 
L 553.803209 -154.97399 
L 550.22246 -137.379701 
L 546.641711 -147.408841 
L 543.060963 -157.418274 
L 539.480214 -178.899509 
L 535.899465 -150.692807 
L 532.318717 -160.280051 
L 528.737968 -160.837074 
L 525.157219 -163.569518 
L 521.576471 -161.181704 
L 517.995722 -138.635627 
L 514.414973 -165.229283 
L 510.834225 -180.336848 
L 507.253476 -150.27825 
L 503.672727 -147.364732 
L 500.091979 -155.622873 
L 496.51123 -136.337456 
L 492.930481 -135.186056 
L 489.349733 -169.193944 
L 485.768984 -148.853199 
L 482.188235 -143.188992 
L 478.607487 -152.172475 
L 475.026738 -188.741744 
L 471.445989 -153.213485 
L 467.865241 -167.319923 
L 464.284492 -178.115596 
L 460.703743 -153.913729 
L 457.122995 -151.402618 
L 453.542246 -157.073294 
L 449.961497 -165.154117 
L 446.380749 -160.14741 
L 442.8 -153.547553 
L 439.219251 -151.267073 
L 435.638503 -169.02423 
L 432.057754 -170.604669 
L 428.477005 -170.656655 
L 424.896257 -162.970166 
L 421.315508 -155.082402 
L 417.734759 -157.859935 
L 414.154011 -175.05192 
L 410.573262 -169.088274 
L 406.992513 -175.225921 
L 403.411765 -204.038222 
L 399.831016 -214.856504 
L 396.250267 -187.919233 
L 392.669519 -203.657953 
L 389.08877 -217.251657 
L 385.508021 -226.265891 
L 381.927273 -196.830758 
L 378.346524 -195.107163 
L 374.765775 -204.187475 
L 371.185027 -226.392938 
L 367.604278 -232.918473 
L 364.023529 -233.208821 
L 360.442781 -226.632641 
L 356.862032 -227.519698 
L 353.281283 -227.01881 
L 349.700535 -214.428271 
L 346.119786 -228.729123 
L 342.539037 -240.499641 
L 338.958289 -269.691057 
L 335.37754 -294.922828 
L 331.796791 -332.587604 
L 328.216043 -343.472809 
L 324.635294 -361.995827 
L 321.054545 -365.334545 
L 317.473797 -335.020243 
L 313.893048 -286.525135 
L 310.312299 -221.698245 
L 306.731551 -178.839527 
L 303.150802 -185.053523 
L 299.570053 -175.580714 
L 295.989305 -141.527492 
L 292.408556 -181.111615 
L 288.827807 -170.30008 
L 285.247059 -177.603845 
L 281.66631 -183.458984 
L 278.085561 -191.610807 
L 274.504813 -151.843547 
L 270.924064 -153.152555 
L 267.343316 -155.441516 
L 263.762567 -156.422162 
L 260.181818 -134.643966 
L 256.60107 -143.377915 
L 253.020321 -135.479204 
L 249.439572 -132.337277 
L 245.858824 -125.285247 
L 242.278075 -126.06714 
L 238.697326 -155.013428 
L 235.116578 -122.274469 
L 231.535829 -138.66448 
L 227.95508 -126.68874 
L 224.374332 -130.596941 
L 220.793583 -115.775425 
L 217.212834 -146.54156 
L 213.632086 -117.373493 
L 210.051337 -122.118399 
L 206.470588 -125.234062 
L 202.88984 -127.008028 
L 199.309091 -136.490537 
L 195.728342 -118.691849 
L 192.147594 -113.501699 
L 188.566845 -126.265916 
L 184.986096 -136.358488 
L 181.405348 -122.334678 
L 177.824599 -116.204644 
L 174.24385 -96.63263 
L 170.663102 -111.158929 
L 167.082353 -115.388501 
L 163.501604 -122.181831 
L 159.920856 -116.447699 
L 156.340107 -134.46535 
L 152.759358 -126.16583 
L 149.17861 -125.563433 
L 145.597861 -114.701517 
L 142.017112 -101.274321 
L 138.436364 -110.41379 
z
" id="m1de6946cdd" style="stroke:#4169e1;stroke-opacity:0.2;stroke-width:1.5;"/>
    </defs>
    <g clip-path="url(#p868cf554ae)">
     <use style="fill:#4169e1;fill-opacity:0.2;stroke:#4169e1;stroke-opacity:0.2;stroke-width:1.5;" x="0" xlink:href="#m1de6946cdd" y="432"/>
    </g>
   </g>
   <g id="PolyCollection_2">
    <defs>
     <path d="M 299.570053 -160.476505 
L 299.570053 -108.746183 
L 303.150802 -108.746183 
L 306.731551 -108.746183 
L 310.312299 -108.746183 
L 313.893048 -108.746183 
L 317.473797 -108.746183 
L 321.054545 -108.746183 
L 324.635294 -108.746183 
L 328.216043 -108.746183 
L 331.796791 -108.746183 
L 335.37754 -108.746183 
L 338.958289 -108.746183 
L 342.539037 -108.746183 
L 346.119786 -108.746183 
L 349.700535 -108.746183 
L 353.281283 -108.746183 
L 356.862032 -108.746183 
L 360.442781 -108.746183 
L 364.023529 -108.746183 
L 367.604278 -108.746183 
L 371.185027 -108.746183 
L 374.765775 -108.746183 
L 378.346524 -108.746183 
L 381.927273 -108.746183 
L 385.508021 -108.746183 
L 389.08877 -108.746183 
L 392.669519 -108.746183 
L 396.250267 -108.746183 
L 399.831016 -108.746183 
L 403.411765 -108.746183 
L 406.992513 -108.746183 
L 410.573262 -108.746183 
L 414.154011 -108.746183 
L 414.154011 -158.011456 
L 414.154011 -158.011456 
L 410.573262 -153.275174 
L 406.992513 -161.63207 
L 403.411765 -187.295396 
L 399.831016 -197.270076 
L 396.250267 -175.147883 
L 392.669519 -191.24196 
L 389.08877 -199.964517 
L 385.508021 -214.292034 
L 381.927273 -178.25152 
L 378.346524 -178.438841 
L 374.765775 -186.78777 
L 371.185027 -209.491262 
L 367.604278 -218.337519 
L 364.023529 -219.054462 
L 360.442781 -206.192354 
L 356.862032 -208.018005 
L 353.281283 -208.51605 
L 349.700535 -197.757342 
L 346.119786 -208.405521 
L 342.539037 -221.150611 
L 338.958289 -246.864005 
L 335.37754 -272.100458 
L 331.796791 -308.335757 
L 328.216043 -324.003522 
L 324.635294 -343.344262 
L 321.054545 -347.662878 
L 317.473797 -313.409344 
L 313.893048 -261.877707 
L 310.312299 -200.625764 
L 306.731551 -161.337275 
L 303.150802 -168.517045 
L 299.570053 -160.476505 
z
" id="mb83766ba23" style="stroke:#0000ff;stroke-opacity:0.2;stroke-width:1.5;"/>
    </defs>
    <g clip-path="url(#p868cf554ae)">
     <use style="fill:#0000ff;fill-opacity:0.2;stroke:#0000ff;stroke-opacity:0.2;stroke-width:1.5;" x="0" xlink:href="#mb83766ba23" y="432"/>
    </g>
   </g>
   <g id="matplotlib.axis_1">
    <g id="xtick_1">
     <g id="line2d_1">
      <defs>
       <path d="M 0 0 
L 0 9 
" id="m5737b1724c" style="stroke:#000000;stroke-width:1.875;"/>
      </defs>
      <g>
       <use style="stroke:#000000;stroke-width:1.875;" x="138.436364" xlink:href="#m5737b1724c" y="388"/>
      </g>
     </g>
     <g id="text_1">
      <!-- −0.2 -->
      <g transform="translate(118.403043 413.037422)scale(0.165 -0.165)">
       <defs>
        <path d="M 10.59375 35.5 
L 73.1875 35.5 
L 73.1875 27.203125 
L 10.59375 27.203125 
z
" id="DejaVuSans-8722"/>
        <path d="M 31.78125 66.40625 
Q 24.171875 66.40625 20.328125 58.90625 
Q 16.5 51.421875 16.5 36.375 
Q 16.5 21.390625 20.328125 13.890625 
Q 24.171875 6.390625 31.78125 6.390625 
Q 39.453125 6.390625 43.28125 13.890625 
Q 47.125 21.390625 47.125 36.375 
Q 47.125 51.421875 43.28125 58.90625 
Q 39.453125 66.40625 31.78125 66.40625 
z
M 31.78125 74.21875 
Q 44.046875 74.21875 50.515625 64.515625 
Q 56.984375 54.828125 56.984375 36.375 
Q 56.984375 17.96875 50.515625 8.265625 
Q 44.046875 -1.421875 31.78125 -1.421875 
Q 19.53125 -1.421875 13.0625 8.265625 
Q 6.59375 17.96875 6.59375 36.375 
Q 6.59375 54.828125 13.0625 64.515625 
Q 19.53125 74.21875 31.78125 74.21875 
z
" id="DejaVuSans-48"/>
        <path d="M 10.6875 12.40625 
L 21 12.40625 
L 21 0 
L 10.6875 0 
z
" id="DejaVuSans-46"/>
        <path d="M 19.1875 8.296875 
L 53.609375 8.296875 
L 53.609375 0 
L 7.328125 0 
L 7.328125 8.296875 
Q 12.9375 14.109375 22.625 23.890625 
Q 32.328125 33.6875 34.8125 36.53125 
Q 39.546875 41.84375 41.421875 45.53125 
Q 43.3125 49.21875 43.3125 52.78125 
Q 43.3125 58.59375 39.234375 62.25 
Q 35.15625 65.921875 28.609375 65.921875 
Q 23.96875 65.921875 18.8125 64.3125 
Q 13.671875 62.703125 7.8125 59.421875 
L 7.8125 69.390625 
Q 13.765625 71.78125 18.9375 73 
Q 24.125 74.21875 28.421875 74.21875 
Q 39.75 74.21875 46.484375 68.546875 
Q 53.21875 62.890625 53.21875 53.421875 
Q 53.21875 48.921875 51.53125 44.890625 
Q 49.859375 40.875 45.40625 35.40625 
Q 44.1875 33.984375 37.640625 27.21875 
Q 31.109375 20.453125 19.1875 8.296875 
z
" id="DejaVuSans-50"/>
       </defs>
       <use xlink:href="#DejaVuSans-8722"/>
       <use x="83.789062" xlink:href="#DejaVuSans-48"/>
       <use x="147.412109" xlink:href="#DejaVuSans-46"/>
       <use x="179.199219" xlink:href="#DejaVuSans-50"/>
      </g>
     </g>
    </g>
    <g id="xtick_2">
     <g id="line2d_2">
      <g>
       <use style="stroke:#000000;stroke-width:1.875;" x="210.051337" xlink:href="#m5737b1724c" y="388"/>
      </g>
     </g>
     <g id="text_2">
      <!-- 0.0 -->
      <g transform="translate(196.931259 413.037422)scale(0.165 -0.165)">
       <use xlink:href="#DejaVuSans-48"/>
       <use x="63.623047" xlink:href="#DejaVuSans-46"/>
       <use x="95.410156" xlink:href="#DejaVuSans-48"/>
      </g>
     </g>
    </g>
    <g id="xtick_3">
     <g id="line2d_3">
      <g>
       <use style="stroke:#000000;stroke-width:1.875;" x="281.66631" xlink:href="#m5737b1724c" y="388"/>
      </g>
     </g>
     <g id="text_3">
      <!-- 0.2 -->
      <g transform="translate(268.546232 413.037422)scale(0.165 -0.165)">
       <use xlink:href="#DejaVuSans-48"/>
       <use x="63.623047" xlink:href="#DejaVuSans-46"/>
       <use x="95.410156" xlink:href="#DejaVuSans-50"/>
      </g>
     </g>
    </g>
    <g id="xtick_4">
     <g id="line2d_4">
      <g>
       <use style="stroke:#000000;stroke-width:1.875;" x="353.281283" xlink:href="#m5737b1724c" y="388"/>
      </g>
     </g>
     <g id="text_4">
      <!-- 0.4 -->
      <g transform="translate(340.161205 413.037422)scale(0.165 -0.165)">
       <defs>
        <path d="M 37.796875 64.3125 
L 12.890625 25.390625 
L 37.796875 25.390625 
z
M 35.203125 72.90625 
L 47.609375 72.90625 
L 47.609375 25.390625 
L 58.015625 25.390625 
L 58.015625 17.1875 
L 47.609375 17.1875 
L 47.609375 0 
L 37.796875 0 
L 37.796875 17.1875 
L 4.890625 17.1875 
L 4.890625 26.703125 
z
" id="DejaVuSans-52"/>
       </defs>
       <use xlink:href="#DejaVuSans-48"/>
       <use x="63.623047" xlink:href="#DejaVuSans-46"/>
       <use x="95.410156" xlink:href="#DejaVuSans-52"/>
      </g>
     </g>
    </g>
    <g id="xtick_5">
     <g id="line2d_5">
      <g>
       <use style="stroke:#000000;stroke-width:1.875;" x="424.896257" xlink:href="#m5737b1724c" y="388"/>
      </g>
     </g>
     <g id="text_5">
      <!-- 0.6 -->
      <g transform="translate(411.776179 413.037422)scale(0.165 -0.165)">
       <defs>
        <path d="M 33.015625 40.375 
Q 26.375 40.375 22.484375 35.828125 
Q 18.609375 31.296875 18.609375 23.390625 
Q 18.609375 15.53125 22.484375 10.953125 
Q 26.375 6.390625 33.015625 6.390625 
Q 39.65625 6.390625 43.53125 10.953125 
Q 47.40625 15.53125 47.40625 23.390625 
Q 47.40625 31.296875 43.53125 35.828125 
Q 39.65625 40.375 33.015625 40.375 
z
M 52.59375 71.296875 
L 52.59375 62.3125 
Q 48.875 64.0625 45.09375 64.984375 
Q 41.3125 65.921875 37.59375 65.921875 
Q 27.828125 65.921875 22.671875 59.328125 
Q 17.53125 52.734375 16.796875 39.40625 
Q 19.671875 43.65625 24.015625 45.921875 
Q 28.375 48.1875 33.59375 48.1875 
Q 44.578125 48.1875 50.953125 41.515625 
Q 57.328125 34.859375 57.328125 23.390625 
Q 57.328125 12.15625 50.6875 5.359375 
Q 44.046875 -1.421875 33.015625 -1.421875 
Q 20.359375 -1.421875 13.671875 8.265625 
Q 6.984375 17.96875 6.984375 36.375 
Q 6.984375 53.65625 15.1875 63.9375 
Q 23.390625 74.21875 37.203125 74.21875 
Q 40.921875 74.21875 44.703125 73.484375 
Q 48.484375 72.75 52.59375 71.296875 
z
" id="DejaVuSans-54"/>
       </defs>
       <use xlink:href="#DejaVuSans-48"/>
       <use x="63.623047" xlink:href="#DejaVuSans-46"/>
       <use x="95.410156" xlink:href="#DejaVuSans-54"/>
      </g>
     </g>
    </g>
    <g id="xtick_6">
     <g id="line2d_6">
      <g>
       <use style="stroke:#000000;stroke-width:1.875;" x="496.51123" xlink:href="#m5737b1724c" y="388"/>
      </g>
     </g>
     <g id="text_6">
      <!-- 0.8 -->
      <g transform="translate(483.391152 413.037422)scale(0.165 -0.165)">
       <defs>
        <path d="M 31.78125 34.625 
Q 24.75 34.625 20.71875 30.859375 
Q 16.703125 27.09375 16.703125 20.515625 
Q 16.703125 13.921875 20.71875 10.15625 
Q 24.75 6.390625 31.78125 6.390625 
Q 38.8125 6.390625 42.859375 10.171875 
Q 46.921875 13.96875 46.921875 20.515625 
Q 46.921875 27.09375 42.890625 30.859375 
Q 38.875 34.625 31.78125 34.625 
z
M 21.921875 38.8125 
Q 15.578125 40.375 12.03125 44.71875 
Q 8.5 49.078125 8.5 55.328125 
Q 8.5 64.0625 14.71875 69.140625 
Q 20.953125 74.21875 31.78125 74.21875 
Q 42.671875 74.21875 48.875 69.140625 
Q 55.078125 64.0625 55.078125 55.328125 
Q 55.078125 49.078125 51.53125 44.71875 
Q 48 40.375 41.703125 38.8125 
Q 48.828125 37.15625 52.796875 32.3125 
Q 56.78125 27.484375 56.78125 20.515625 
Q 56.78125 9.90625 50.3125 4.234375 
Q 43.84375 -1.421875 31.78125 -1.421875 
Q 19.734375 -1.421875 13.25 4.234375 
Q 6.78125 9.90625 6.78125 20.515625 
Q 6.78125 27.484375 10.78125 32.3125 
Q 14.796875 37.15625 21.921875 38.8125 
z
M 18.3125 54.390625 
Q 18.3125 48.734375 21.84375 45.5625 
Q 25.390625 42.390625 31.78125 42.390625 
Q 38.140625 42.390625 41.71875 45.5625 
Q 45.3125 48.734375 45.3125 54.390625 
Q 45.3125 60.0625 41.71875 63.234375 
Q 38.140625 66.40625 31.78125 66.40625 
Q 25.390625 66.40625 21.84375 63.234375 
Q 18.3125 60.0625 18.3125 54.390625 
z
" id="DejaVuSans-56"/>
       </defs>
       <use xlink:href="#DejaVuSans-48"/>
       <use x="63.623047" xlink:href="#DejaVuSans-46"/>
       <use x="95.410156" xlink:href="#DejaVuSans-56"/>
      </g>
     </g>
    </g>
    <g id="xtick_7">
     <g id="line2d_7">
      <g>
       <use style="stroke:#000000;stroke-width:1.875;" x="568.126203" xlink:href="#m5737b1724c" y="388"/>
      </g>
     </g>
     <g id="text_7">
      <!-- 1.0 -->
      <g transform="translate(555.006125 413.037422)scale(0.165 -0.165)">
       <defs>
        <path d="M 12.40625 8.296875 
L 28.515625 8.296875 
L 28.515625 63.921875 
L 10.984375 60.40625 
L 10.984375 69.390625 
L 28.421875 72.90625 
L 38.28125 72.90625 
L 38.28125 8.296875 
L 54.390625 8.296875 
L 54.390625 0 
L 12.40625 0 
z
" id="DejaVuSans-49"/>
       </defs>
       <use xlink:href="#DejaVuSans-49"/>
       <use x="63.623047" xlink:href="#DejaVuSans-46"/>
       <use x="95.410156" xlink:href="#DejaVuSans-48"/>
      </g>
     </g>
    </g>
    <g id="xtick_8">
     <g id="line2d_8">
      <g>
       <use style="stroke:#000000;stroke-width:1.875;" x="639.741176" xlink:href="#m5737b1724c" y="388"/>
      </g>
     </g>
     <g id="text_8">
      <!-- 1.2 -->
      <g transform="translate(626.621098 413.037422)scale(0.165 -0.165)">
       <use xlink:href="#DejaVuSans-49"/>
       <use x="63.623047" xlink:href="#DejaVuSans-46"/>
       <use x="95.410156" xlink:href="#DejaVuSans-50"/>
      </g>
     </g>
    </g>
    <g id="xtick_9">
     <g id="line2d_9">
      <g>
       <use style="stroke:#000000;stroke-width:1.875;" x="711.35615" xlink:href="#m5737b1724c" y="388"/>
      </g>
     </g>
     <g id="text_9">
      <!-- 1.4 -->
      <g transform="translate(698.236072 413.037422)scale(0.165 -0.165)">
       <use xlink:href="#DejaVuSans-49"/>
       <use x="63.623047" xlink:href="#DejaVuSans-46"/>
       <use x="95.410156" xlink:href="#DejaVuSans-52"/>
      </g>
     </g>
    </g>
    <g id="text_10">
     <!-- Time (s) -->
     <g transform="translate(381.813281 443.264219)scale(0.3 -0.3)">
      <defs>
       <path d="M -0.296875 72.90625 
L 61.375 72.90625 
L 61.375 64.59375 
L 35.5 64.59375 
L 35.5 0 
L 25.59375 0 
L 25.59375 64.59375 
L -0.296875 64.59375 
z
" id="DejaVuSans-84"/>
       <path d="M 9.421875 54.6875 
L 18.40625 54.6875 
L 18.40625 0 
L 9.421875 0 
z
M 9.421875 75.984375 
L 18.40625 75.984375 
L 18.40625 64.59375 
L 9.421875 64.59375 
z
" id="DejaVuSans-105"/>
       <path d="M 52 44.1875 
Q 55.375 50.25 60.0625 53.125 
Q 64.75 56 71.09375 56 
Q 79.640625 56 84.28125 50.015625 
Q 88.921875 44.046875 88.921875 33.015625 
L 88.921875 0 
L 79.890625 0 
L 79.890625 32.71875 
Q 79.890625 40.578125 77.09375 44.375 
Q 74.3125 48.1875 68.609375 48.1875 
Q 61.625 48.1875 57.5625 43.546875 
Q 53.515625 38.921875 53.515625 30.90625 
L 53.515625 0 
L 44.484375 0 
L 44.484375 32.71875 
Q 44.484375 40.625 41.703125 44.40625 
Q 38.921875 48.1875 33.109375 48.1875 
Q 26.21875 48.1875 22.15625 43.53125 
Q 18.109375 38.875 18.109375 30.90625 
L 18.109375 0 
L 9.078125 0 
L 9.078125 54.6875 
L 18.109375 54.6875 
L 18.109375 46.1875 
Q 21.1875 51.21875 25.484375 53.609375 
Q 29.78125 56 35.6875 56 
Q 41.65625 56 45.828125 52.96875 
Q 50 49.953125 52 44.1875 
z
" id="DejaVuSans-109"/>
       <path d="M 56.203125 29.59375 
L 56.203125 25.203125 
L 14.890625 25.203125 
Q 15.484375 15.921875 20.484375 11.0625 
Q 25.484375 6.203125 34.421875 6.203125 
Q 39.59375 6.203125 44.453125 7.46875 
Q 49.3125 8.734375 54.109375 11.28125 
L 54.109375 2.78125 
Q 49.265625 0.734375 44.1875 -0.34375 
Q 39.109375 -1.421875 33.890625 -1.421875 
Q 20.796875 -1.421875 13.15625 6.1875 
Q 5.515625 13.8125 5.515625 26.8125 
Q 5.515625 40.234375 12.765625 48.109375 
Q 20.015625 56 32.328125 56 
Q 43.359375 56 49.78125 48.890625 
Q 56.203125 41.796875 56.203125 29.59375 
z
M 47.21875 32.234375 
Q 47.125 39.59375 43.09375 43.984375 
Q 39.0625 48.390625 32.421875 48.390625 
Q 24.90625 48.390625 20.390625 44.140625 
Q 15.875 39.890625 15.1875 32.171875 
z
" id="DejaVuSans-101"/>
       <path id="DejaVuSans-32"/>
       <path d="M 31 75.875 
Q 24.46875 64.65625 21.28125 53.65625 
Q 18.109375 42.671875 18.109375 31.390625 
Q 18.109375 20.125 21.3125 9.0625 
Q 24.515625 -2 31 -13.1875 
L 23.1875 -13.1875 
Q 15.875 -1.703125 12.234375 9.375 
Q 8.59375 20.453125 8.59375 31.390625 
Q 8.59375 42.28125 12.203125 53.3125 
Q 15.828125 64.359375 23.1875 75.875 
z
" id="DejaVuSans-40"/>
       <path d="M 44.28125 53.078125 
L 44.28125 44.578125 
Q 40.484375 46.53125 36.375 47.5 
Q 32.28125 48.484375 27.875 48.484375 
Q 21.1875 48.484375 17.84375 46.4375 
Q 14.5 44.390625 14.5 40.28125 
Q 14.5 37.15625 16.890625 35.375 
Q 19.28125 33.59375 26.515625 31.984375 
L 29.59375 31.296875 
Q 39.15625 29.25 43.1875 25.515625 
Q 47.21875 21.78125 47.21875 15.09375 
Q 47.21875 7.46875 41.1875 3.015625 
Q 35.15625 -1.421875 24.609375 -1.421875 
Q 20.21875 -1.421875 15.453125 -0.5625 
Q 10.6875 0.296875 5.421875 2 
L 5.421875 11.28125 
Q 10.40625 8.6875 15.234375 7.390625 
Q 20.0625 6.109375 24.8125 6.109375 
Q 31.15625 6.109375 34.5625 8.28125 
Q 37.984375 10.453125 37.984375 14.40625 
Q 37.984375 18.0625 35.515625 20.015625 
Q 33.0625 21.96875 24.703125 23.78125 
L 21.578125 24.515625 
Q 13.234375 26.265625 9.515625 29.90625 
Q 5.8125 33.546875 5.8125 39.890625 
Q 5.8125 47.609375 11.28125 51.796875 
Q 16.75 56 26.8125 56 
Q 31.78125 56 36.171875 55.265625 
Q 40.578125 54.546875 44.28125 53.078125 
z
" id="DejaVuSans-115"/>
       <path d="M 8.015625 75.875 
L 15.828125 75.875 
Q 23.140625 64.359375 26.78125 53.3125 
Q 30.421875 42.28125 30.421875 31.390625 
Q 30.421875 20.453125 26.78125 9.375 
Q 23.140625 -1.703125 15.828125 -13.1875 
L 8.015625 -13.1875 
Q 14.5 -2 17.703125 9.0625 
Q 20.90625 20.125 20.90625 31.390625 
Q 20.90625 42.671875 17.703125 53.65625 
Q 14.5 64.65625 8.015625 75.875 
z
" id="DejaVuSans-41"/>
      </defs>
      <use xlink:href="#DejaVuSans-84"/>
      <use x="57.958984" xlink:href="#DejaVuSans-105"/>
      <use x="85.742188" xlink:href="#DejaVuSans-109"/>
      <use x="183.154297" xlink:href="#DejaVuSans-101"/>
      <use x="244.677734" xlink:href="#DejaVuSans-32"/>
      <use x="276.464844" xlink:href="#DejaVuSans-40"/>
      <use x="315.478516" xlink:href="#DejaVuSans-115"/>
      <use x="367.578125" xlink:href="#DejaVuSans-41"/>
     </g>
    </g>
   </g>
   <g id="matplotlib.axis_2">
    <g id="ytick_1">
     <g id="line2d_10">
      <defs>
       <path d="M 0 0 
L -9 0 
" id="m7ea29287d7" style="stroke:#000000;stroke-width:1.875;"/>
      </defs>
      <g>
       <use style="stroke:#000000;stroke-width:1.875;" x="98" xlink:href="#m7ea29287d7" y="323.253817"/>
      </g>
     </g>
     <g id="text_11">
      <!-- 0.50 -->
      <g transform="translate(48.761719 329.522528)scale(0.165 -0.165)">
       <defs>
        <path d="M 10.796875 72.90625 
L 49.515625 72.90625 
L 49.515625 64.59375 
L 19.828125 64.59375 
L 19.828125 46.734375 
Q 21.96875 47.46875 24.109375 47.828125 
Q 26.265625 48.1875 28.421875 48.1875 
Q 40.625 48.1875 47.75 41.5 
Q 54.890625 34.8125 54.890625 23.390625 
Q 54.890625 11.625 47.5625 5.09375 
Q 40.234375 -1.421875 26.90625 -1.421875 
Q 22.3125 -1.421875 17.546875 -0.640625 
Q 12.796875 0.140625 7.71875 1.703125 
L 7.71875 11.625 
Q 12.109375 9.234375 16.796875 8.0625 
Q 21.484375 6.890625 26.703125 6.890625 
Q 35.15625 6.890625 40.078125 11.328125 
Q 45.015625 15.765625 45.015625 23.390625 
Q 45.015625 31 40.078125 35.4375 
Q 35.15625 39.890625 26.703125 39.890625 
Q 22.75 39.890625 18.8125 39.015625 
Q 14.890625 38.140625 10.796875 36.28125 
z
" id="DejaVuSans-53"/>
       </defs>
       <use xlink:href="#DejaVuSans-48"/>
       <use x="63.623047" xlink:href="#DejaVuSans-46"/>
       <use x="95.410156" xlink:href="#DejaVuSans-53"/>
       <use x="159.033203" xlink:href="#DejaVuSans-48"/>
      </g>
     </g>
    </g>
    <g id="ytick_2">
     <g id="line2d_11">
      <g>
       <use style="stroke:#000000;stroke-width:1.875;" x="98" xlink:href="#m7ea29287d7" y="261.63588"/>
      </g>
     </g>
     <g id="text_12">
      <!-- 0.55 -->
      <g transform="translate(48.761719 267.904591)scale(0.165 -0.165)">
       <use xlink:href="#DejaVuSans-48"/>
       <use x="63.623047" xlink:href="#DejaVuSans-46"/>
       <use x="95.410156" xlink:href="#DejaVuSans-53"/>
       <use x="159.033203" xlink:href="#DejaVuSans-53"/>
      </g>
     </g>
    </g>
    <g id="ytick_3">
     <g id="line2d_12">
      <g>
       <use style="stroke:#000000;stroke-width:1.875;" x="98" xlink:href="#m7ea29287d7" y="200.017943"/>
      </g>
     </g>
     <g id="text_13">
      <!-- 0.60 -->
      <g transform="translate(48.761719 206.286654)scale(0.165 -0.165)">
       <use xlink:href="#DejaVuSans-48"/>
       <use x="63.623047" xlink:href="#DejaVuSans-46"/>
       <use x="95.410156" xlink:href="#DejaVuSans-54"/>
       <use x="159.033203" xlink:href="#DejaVuSans-48"/>
      </g>
     </g>
    </g>
    <g id="ytick_4">
     <g id="line2d_13">
      <g>
       <use style="stroke:#000000;stroke-width:1.875;" x="98" xlink:href="#m7ea29287d7" y="138.400006"/>
      </g>
     </g>
     <g id="text_14">
      <!-- 0.65 -->
      <g transform="translate(48.761719 144.668717)scale(0.165 -0.165)">
       <use xlink:href="#DejaVuSans-48"/>
       <use x="63.623047" xlink:href="#DejaVuSans-46"/>
       <use x="95.410156" xlink:href="#DejaVuSans-54"/>
       <use x="159.033203" xlink:href="#DejaVuSans-53"/>
      </g>
     </g>
    </g>
    <g id="ytick_5">
     <g id="line2d_14">
      <g>
       <use style="stroke:#000000;stroke-width:1.875;" x="98" xlink:href="#m7ea29287d7" y="76.782069"/>
      </g>
     </g>
     <g id="text_15">
      <!-- 0.70 -->
      <g transform="translate(48.761719 83.05078)scale(0.165 -0.165)">
       <defs>
        <path d="M 8.203125 72.90625 
L 55.078125 72.90625 
L 55.078125 68.703125 
L 28.609375 0 
L 18.3125 0 
L 43.21875 64.59375 
L 8.203125 64.59375 
z
" id="DejaVuSans-55"/>
       </defs>
       <use xlink:href="#DejaVuSans-48"/>
       <use x="63.623047" xlink:href="#DejaVuSans-46"/>
       <use x="95.410156" xlink:href="#DejaVuSans-55"/>
       <use x="159.033203" xlink:href="#DejaVuSans-48"/>
      </g>
     </g>
    </g>
    <g id="text_16">
     <!-- AUC -->
     <g transform="translate(38.522656 246.633281)rotate(-90)scale(0.3 -0.3)">
      <defs>
       <path d="M 34.1875 63.1875 
L 20.796875 26.90625 
L 47.609375 26.90625 
z
M 28.609375 72.90625 
L 39.796875 72.90625 
L 67.578125 0 
L 57.328125 0 
L 50.6875 18.703125 
L 17.828125 18.703125 
L 11.1875 0 
L 0.78125 0 
z
" id="DejaVuSans-65"/>
       <path d="M 8.6875 72.90625 
L 18.609375 72.90625 
L 18.609375 28.609375 
Q 18.609375 16.890625 22.84375 11.734375 
Q 27.09375 6.59375 36.625 6.59375 
Q 46.09375 6.59375 50.34375 11.734375 
Q 54.59375 16.890625 54.59375 28.609375 
L 54.59375 72.90625 
L 64.5 72.90625 
L 64.5 27.390625 
Q 64.5 13.140625 57.4375 5.859375 
Q 50.390625 -1.421875 36.625 -1.421875 
Q 22.796875 -1.421875 15.734375 5.859375 
Q 8.6875 13.140625 8.6875 27.390625 
z
" id="DejaVuSans-85"/>
       <path d="M 64.40625 67.28125 
L 64.40625 56.890625 
Q 59.421875 61.53125 53.78125 63.8125 
Q 48.140625 66.109375 41.796875 66.109375 
Q 29.296875 66.109375 22.65625 58.46875 
Q 16.015625 50.828125 16.015625 36.375 
Q 16.015625 21.96875 22.65625 14.328125 
Q 29.296875 6.6875 41.796875 6.6875 
Q 48.140625 6.6875 53.78125 8.984375 
Q 59.421875 11.28125 64.40625 15.921875 
L 64.40625 5.609375 
Q 59.234375 2.09375 53.4375 0.328125 
Q 47.65625 -1.421875 41.21875 -1.421875 
Q 24.65625 -1.421875 15.125 8.703125 
Q 5.609375 18.84375 5.609375 36.375 
Q 5.609375 53.953125 15.125 64.078125 
Q 24.65625 74.21875 41.21875 74.21875 
Q 47.75 74.21875 53.53125 72.484375 
Q 59.328125 70.75 64.40625 67.28125 
z
" id="DejaVuSans-67"/>
      </defs>
      <use xlink:href="#DejaVuSans-65"/>
      <use x="68.408203" xlink:href="#DejaVuSans-85"/>
      <use x="141.601562" xlink:href="#DejaVuSans-67"/>
     </g>
    </g>
   </g>
   <g id="line2d_15">
    <path clip-path="url(#p868cf554ae)" d="M 138.436364 333.781736 
L 142.017112 341.176836 
L 145.597861 329.468714 
L 149.17861 320.361741 
L 152.759358 318.991514 
L 156.340107 309.843236 
L 159.920856 325.145953 
L 163.501604 321.618885 
L 167.082353 330.052827 
L 170.663102 333.912488 
L 174.24385 349.23764 
L 177.824599 325.573731 
L 181.405348 320.740604 
L 184.986096 309.361846 
L 188.566845 316.19802 
L 192.147594 332.181644 
L 195.728342 323.678732 
L 199.309091 309.232779 
L 202.88984 317.056226 
L 206.470588 318.852189 
L 210.051337 322.821532 
L 213.632086 327.09034 
L 217.212834 298.651523 
L 220.793583 331.453116 
L 224.374332 315.757798 
L 227.95508 318.086146 
L 231.535829 305.181205 
L 235.116578 320.139132 
L 238.697326 293.179233 
L 242.278075 321.238796 
L 245.858824 319.997928 
L 249.439572 317.675257 
L 253.020321 308.778222 
L 256.60107 302.839222 
L 260.181818 314.044354 
L 263.762567 291.741049 
L 267.343316 285.394077 
L 270.924064 292.494841 
L 274.504813 293.058638 
L 278.085561 254.837623 
L 281.66631 260.480994 
L 285.247059 269.813019 
L 288.827807 274.17704 
L 292.408556 264.696337 
L 295.989305 304.412276 
L 299.570053 271.523495 
L 303.150802 263.482955 
L 306.731551 270.662725 
L 310.312299 231.374236 
L 313.893048 170.122293 
L 317.473797 118.590656 
L 321.054545 84.337122 
L 324.635294 88.655738 
L 328.216043 107.996478 
L 331.796791 123.664243 
L 335.37754 159.899542 
L 342.539037 210.849389 
L 346.119786 223.594479 
L 349.700535 234.242658 
L 353.281283 223.48395 
L 356.862032 223.981995 
L 360.442781 225.807646 
L 364.023529 212.945538 
L 367.604278 213.662481 
L 371.185027 222.508738 
L 374.765775 245.21223 
L 378.346524 253.561159 
L 381.927273 253.74848 
L 385.508021 217.707966 
L 389.08877 232.035483 
L 392.669519 240.75804 
L 396.250267 256.852117 
L 399.831016 234.729924 
L 403.411765 244.704604 
L 406.992513 270.36793 
L 410.573262 278.724826 
L 414.154011 273.988544 
L 417.734759 290.660425 
L 421.315508 289.540525 
L 424.896257 281.241597 
L 428.477005 276.691562 
L 432.057754 274.970072 
L 435.638503 276.682514 
L 439.219251 295.659977 
L 442.8 292.510995 
L 446.380749 285.567782 
L 449.961497 278.337574 
L 453.542246 288.181969 
L 457.122995 294.101986 
L 460.703743 292.49454 
L 464.284492 266.314426 
L 467.865241 280.370278 
L 471.445989 293.177785 
L 475.026738 259.796746 
L 478.607487 289.813667 
L 482.188235 299.603849 
L 485.768984 300.30443 
L 489.349733 279.082773 
L 492.930481 314.534494 
L 496.51123 311.411149 
L 500.091979 289.880805 
L 503.672727 299.187625 
L 507.253476 297.811958 
L 510.834225 266.909651 
L 514.414973 277.072824 
L 517.995722 304.626873 
L 521.576471 284.612176 
L 525.157219 279.610646 
L 528.737968 286.908117 
L 532.318717 289.425096 
L 535.899465 293.252252 
L 539.480214 267.735275 
L 543.060963 290.122406 
L 546.641711 297.560405 
L 550.22246 307.579031 
L 553.803209 285.634266 
L 557.383957 278.533403 
L 560.964706 303.656503 
L 564.545455 295.141197 
L 568.126203 287.840523 
L 571.706952 291.016955 
L 575.287701 320.995358 
L 578.868449 310.114574 
L 582.449198 310.695848 
L 586.029947 306.612843 
L 589.610695 301.52291 
L 593.191444 282.933988 
L 596.772193 283.023374 
L 600.352941 289.979374 
L 603.93369 313.820278 
L 607.514439 295.278665 
L 611.095187 303.001577 
L 614.675936 320.898361 
L 618.256684 313.088668 
L 621.837433 321.404334 
L 625.418182 301.711514 
L 628.99893 311.481284 
L 632.579679 314.010905 
L 636.160428 306.767126 
L 639.741176 317.295787 
L 643.321925 305.939355 
L 646.902674 291.247727 
L 650.483422 279.613615 
L 654.064171 280.686801 
L 657.64492 294.440625 
L 661.225668 316.76115 
L 664.806417 318.18631 
L 668.387166 293.637001 
L 671.967914 297.440352 
L 675.548663 315.425766 
L 679.129412 307.141936 
L 682.71016 293.45523 
L 686.290909 324.741321 
L 689.871658 304.029212 
L 693.452406 300.348891 
L 697.033155 298.822342 
L 700.613904 307.516379 
L 704.194652 298.880267 
L 707.775401 317.673734 
L 711.35615 321.054664 
L 714.936898 310.039479 
L 718.517647 305.882174 
L 722.098396 311.388244 
L 725.679144 320.08861 
L 729.259893 317.015256 
L 732.840642 317.39294 
L 736.42139 332.024433 
L 740.002139 321.973364 
L 743.582888 306.020807 
L 747.163636 294.270933 
L 747.163636 294.270933 
" style="fill:none;stroke:#4169e1;stroke-linecap:square;stroke-width:2.25;"/>
   </g>
   <g id="line2d_16">
    <path clip-path="url(#p868cf554ae)" d="M 108 323.253817 
L 777.6 323.253817 
" style="fill:none;stroke:#808080;stroke-dasharray:8.325,3.6;stroke-dashoffset:0;stroke-width:2.25;"/>
   </g>
   <g id="line2d_17">
    <path clip-path="url(#p868cf554ae)" d="M 281.66631 378 
L 281.66631 51.84 
" style="fill:none;stroke:#ff0000;stroke-dasharray:8.325,3.6;stroke-dashoffset:0;stroke-width:2.25;"/>
   </g>
   <g id="line2d_18">
    <path clip-path="url(#p868cf554ae)" d="M 210.051337 378 
L 210.051337 51.84 
" style="fill:none;stroke:#000000;stroke-linecap:square;stroke-width:2.25;"/>
   </g>
   <g id="line2d_19">
    <path clip-path="url(#p868cf554ae)" d="M 299.570053 271.523495 
L 303.150802 263.482955 
L 306.731551 270.662725 
L 310.312299 231.374236 
L 313.893048 170.122293 
L 317.473797 118.590656 
L 321.054545 84.337122 
L 324.635294 88.655738 
L 328.216043 107.996478 
L 331.796791 123.664243 
L 335.37754 159.899542 
L 342.539037 210.849389 
L 346.119786 223.594479 
L 349.700535 234.242658 
L 353.281283 223.48395 
L 356.862032 223.981995 
L 360.442781 225.807646 
L 364.023529 212.945538 
L 367.604278 213.662481 
L 371.185027 222.508738 
L 374.765775 245.21223 
L 378.346524 253.561159 
L 381.927273 253.74848 
L 385.508021 217.707966 
L 389.08877 232.035483 
L 392.669519 240.75804 
L 396.250267 256.852117 
L 399.831016 234.729924 
L 403.411765 244.704604 
L 406.992513 270.36793 
L 410.573262 278.724826 
L 414.154011 273.988544 
L 414.154011 273.988544 
" style="fill:none;stroke:#000000;stroke-linecap:square;stroke-width:3;"/>
   </g>
   <g id="patch_3">
    <path d="M 98 323.253817 
L 98 76.782069 
" style="fill:none;stroke:#000000;stroke-linecap:square;stroke-linejoin:miter;stroke-width:1.875;"/>
   </g>
   <g id="patch_4">
    <path d="M 138.436364 388 
L 711.35615 388 
" style="fill:none;stroke:#000000;stroke-linecap:square;stroke-linejoin:miter;stroke-width:1.875;"/>
   </g>
  </g>
 </g>
 <defs>
  <clipPath id="p868cf554ae">
   <rect height="326.16" width="669.6" x="108" y="51.84"/>
  </clipPath>
 </defs>
</svg>
