<?xml version="1.0" encoding="utf-8" standalone="no"?>
<!DOCTYPE svg PUBLIC "-//W3C//DTD SVG 1.1//EN"
  "http://www.w3.org/Graphics/SVG/1.1/DTD/svg11.dtd">
<!-- Created with matplotlib (https://matplotlib.org/) -->
<svg height="432pt" version="1.1" viewBox="0 0 144 432" width="144pt" xmlns="http://www.w3.org/2000/svg" xmlns:xlink="http://www.w3.org/1999/xlink">
 <defs>
  <style type="text/css">
*{stroke-linecap:butt;stroke-linejoin:round;}
  </style>
 </defs>
 <g id="figure_1">
  <g id="patch_1">
   <path d="M 0 432 
L 144 432 
L 144 0 
L 0 0 
z
" style="fill:#ffffff;"/>
  </g>
  <g id="axes_1">
   <g id="patch_2">
    <path d="M 18 384.48 
L 129.6 384.48 
L 129.6 51.84 
L 18 51.84 
z
" style="fill:#ffffff;"/>
   </g>
   <g id="matplotlib.axis_1">
    <g id="xtick_1">
     <g id="line2d_1">
      <defs>
       <path d="M 0 0 
L 0 9 
" id="m0f4982f261" style="stroke:#262626;stroke-width:1.875;"/>
      </defs>
      <g>
       <use style="fill:#262626;stroke:#262626;stroke-width:1.875;" x="73.8" xlink:href="#m0f4982f261" y="384.48"/>
      </g>
     </g>
    </g>
   </g>
   <g id="matplotlib.axis_2">
    <g id="ytick_1">
     <g id="line2d_2">
      <defs>
       <path d="M 0 0 
L -9 0 
" id="m63c74b76ea" style="stroke:#262626;stroke-width:1.875;"/>
      </defs>
      <g>
       <use style="fill:#262626;stroke:#262626;stroke-width:1.875;" x="18" xlink:href="#m63c74b76ea" y="369.36"/>
      </g>
     </g>
     <g id="text_1">
      <!-- 0.5 -->
      <defs>
       <path d="M 4.15625 35.296875 
Q 4.15625 48 6.765625 55.734375 
Q 9.375 63.484375 14.515625 67.671875 
Q 19.671875 71.875 27.484375 71.875 
Q 33.25 71.875 37.59375 69.546875 
Q 41.9375 67.234375 44.765625 62.859375 
Q 47.609375 58.5 49.21875 52.21875 
Q 50.828125 45.953125 50.828125 35.296875 
Q 50.828125 22.703125 48.234375 14.96875 
Q 45.65625 7.234375 40.5 3 
Q 35.359375 -1.21875 27.484375 -1.21875 
Q 17.140625 -1.21875 11.234375 6.203125 
Q 4.15625 15.140625 4.15625 35.296875 
z
M 13.1875 35.296875 
Q 13.1875 17.671875 17.3125 11.828125 
Q 21.4375 6 27.484375 6 
Q 33.546875 6 37.671875 11.859375 
Q 41.796875 17.71875 41.796875 35.296875 
Q 41.796875 52.984375 37.671875 58.78125 
Q 33.546875 64.59375 27.390625 64.59375 
Q 21.34375 64.59375 17.71875 59.46875 
Q 13.1875 52.9375 13.1875 35.296875 
z
" id="ArialMT-48"/>
       <path d="M 9.078125 0 
L 9.078125 10.015625 
L 19.09375 10.015625 
L 19.09375 0 
z
" id="ArialMT-46"/>
       <path d="M 4.15625 18.75 
L 13.375 19.53125 
Q 14.40625 12.796875 18.140625 9.390625 
Q 21.875 6 27.15625 6 
Q 33.5 6 37.890625 10.78125 
Q 42.28125 15.578125 42.28125 23.484375 
Q 42.28125 31 38.0625 35.34375 
Q 33.84375 39.703125 27 39.703125 
Q 22.75 39.703125 19.328125 37.765625 
Q 15.921875 35.84375 13.96875 32.765625 
L 5.71875 33.84375 
L 12.640625 70.609375 
L 48.25 70.609375 
L 48.25 62.203125 
L 19.671875 62.203125 
L 15.828125 42.96875 
Q 22.265625 47.46875 29.34375 47.46875 
Q 38.71875 47.46875 45.15625 40.96875 
Q 51.609375 34.46875 51.609375 24.265625 
Q 51.609375 14.546875 45.953125 7.46875 
Q 39.0625 -1.21875 27.15625 -1.21875 
Q 17.390625 -1.21875 11.203125 4.25 
Q 5.03125 9.71875 4.15625 18.75 
z
" id="ArialMT-53"/>
      </defs>
      <g style="fill:#262626;" transform="translate(-17.435 375.265195)scale(0.165 -0.165)">
       <use xlink:href="#ArialMT-48"/>
       <use x="55.615234" xlink:href="#ArialMT-46"/>
       <use x="83.398438" xlink:href="#ArialMT-53"/>
      </g>
     </g>
    </g>
    <g id="ytick_2">
     <g id="line2d_3">
      <g>
       <use style="fill:#262626;stroke:#262626;stroke-width:1.875;" x="18" xlink:href="#m63c74b76ea" y="305.112982"/>
      </g>
     </g>
     <g id="text_2">
      <!-- 0.6 -->
      <defs>
       <path d="M 49.75 54.046875 
L 41.015625 53.375 
Q 39.84375 58.546875 37.703125 60.890625 
Q 34.125 64.65625 28.90625 64.65625 
Q 24.703125 64.65625 21.53125 62.3125 
Q 17.390625 59.28125 14.984375 53.46875 
Q 12.59375 47.65625 12.5 36.921875 
Q 15.671875 41.75 20.265625 44.09375 
Q 24.859375 46.4375 29.890625 46.4375 
Q 38.671875 46.4375 44.84375 39.96875 
Q 51.03125 33.5 51.03125 23.25 
Q 51.03125 16.5 48.125 10.71875 
Q 45.21875 4.9375 40.140625 1.859375 
Q 35.0625 -1.21875 28.609375 -1.21875 
Q 17.625 -1.21875 10.6875 6.859375 
Q 3.765625 14.9375 3.765625 33.5 
Q 3.765625 54.25 11.421875 63.671875 
Q 18.109375 71.875 29.4375 71.875 
Q 37.890625 71.875 43.28125 67.140625 
Q 48.6875 62.40625 49.75 54.046875 
z
M 13.875 23.1875 
Q 13.875 18.65625 15.796875 14.5 
Q 17.71875 10.359375 21.1875 8.171875 
Q 24.65625 6 28.46875 6 
Q 34.03125 6 38.03125 10.484375 
Q 42.046875 14.984375 42.046875 22.703125 
Q 42.046875 30.125 38.078125 34.390625 
Q 34.125 38.671875 28.125 38.671875 
Q 22.171875 38.671875 18.015625 34.390625 
Q 13.875 30.125 13.875 23.1875 
z
" id="ArialMT-54"/>
      </defs>
      <g style="fill:#262626;" transform="translate(-17.435 311.018177)scale(0.165 -0.165)">
       <use xlink:href="#ArialMT-48"/>
       <use x="55.615234" xlink:href="#ArialMT-46"/>
       <use x="83.398438" xlink:href="#ArialMT-54"/>
      </g>
     </g>
    </g>
    <g id="ytick_3">
     <g id="line2d_4">
      <g>
       <use style="fill:#262626;stroke:#262626;stroke-width:1.875;" x="18" xlink:href="#m63c74b76ea" y="240.865964"/>
      </g>
     </g>
     <g id="text_3">
      <!-- 0.7 -->
      <defs>
       <path d="M 4.734375 62.203125 
L 4.734375 70.65625 
L 51.078125 70.65625 
L 51.078125 63.8125 
Q 44.234375 56.546875 37.515625 44.484375 
Q 30.8125 32.421875 27.15625 19.671875 
Q 24.515625 10.6875 23.78125 0 
L 14.75 0 
Q 14.890625 8.453125 18.0625 20.40625 
Q 21.234375 32.375 27.171875 43.484375 
Q 33.109375 54.59375 39.796875 62.203125 
z
" id="ArialMT-55"/>
      </defs>
      <g style="fill:#262626;" transform="translate(-17.435 246.77116)scale(0.165 -0.165)">
       <use xlink:href="#ArialMT-48"/>
       <use x="55.615234" xlink:href="#ArialMT-46"/>
       <use x="83.398438" xlink:href="#ArialMT-55"/>
      </g>
     </g>
    </g>
    <g id="ytick_4">
     <g id="line2d_5">
      <g>
       <use style="fill:#262626;stroke:#262626;stroke-width:1.875;" x="18" xlink:href="#m63c74b76ea" y="176.618946"/>
      </g>
     </g>
     <g id="text_4">
      <!-- 0.8 -->
      <defs>
       <path d="M 17.671875 38.8125 
Q 12.203125 40.828125 9.5625 44.53125 
Q 6.9375 48.25 6.9375 53.421875 
Q 6.9375 61.234375 12.546875 66.546875 
Q 18.171875 71.875 27.484375 71.875 
Q 36.859375 71.875 42.578125 66.421875 
Q 48.296875 60.984375 48.296875 53.171875 
Q 48.296875 48.1875 45.671875 44.5 
Q 43.0625 40.828125 37.75 38.8125 
Q 44.34375 36.671875 47.78125 31.875 
Q 51.21875 27.09375 51.21875 20.453125 
Q 51.21875 11.28125 44.71875 5.03125 
Q 38.234375 -1.21875 27.640625 -1.21875 
Q 17.046875 -1.21875 10.546875 5.046875 
Q 4.046875 11.328125 4.046875 20.703125 
Q 4.046875 27.6875 7.59375 32.390625 
Q 11.140625 37.109375 17.671875 38.8125 
z
M 15.921875 53.71875 
Q 15.921875 48.640625 19.1875 45.40625 
Q 22.46875 42.1875 27.6875 42.1875 
Q 32.765625 42.1875 36.015625 45.375 
Q 39.265625 48.578125 39.265625 53.21875 
Q 39.265625 58.0625 35.90625 61.359375 
Q 32.5625 64.65625 27.59375 64.65625 
Q 22.5625 64.65625 19.234375 61.421875 
Q 15.921875 58.203125 15.921875 53.71875 
z
M 13.09375 20.65625 
Q 13.09375 16.890625 14.875 13.375 
Q 16.65625 9.859375 20.171875 7.921875 
Q 23.6875 6 27.734375 6 
Q 34.03125 6 38.125 10.046875 
Q 42.234375 14.109375 42.234375 20.359375 
Q 42.234375 26.703125 38.015625 30.859375 
Q 33.796875 35.015625 27.4375 35.015625 
Q 21.234375 35.015625 17.15625 30.90625 
Q 13.09375 26.8125 13.09375 20.65625 
z
" id="ArialMT-56"/>
      </defs>
      <g style="fill:#262626;" transform="translate(-17.435 182.524142)scale(0.165 -0.165)">
       <use xlink:href="#ArialMT-48"/>
       <use x="55.615234" xlink:href="#ArialMT-46"/>
       <use x="83.398438" xlink:href="#ArialMT-56"/>
      </g>
     </g>
    </g>
    <g id="ytick_5">
     <g id="line2d_6">
      <g>
       <use style="fill:#262626;stroke:#262626;stroke-width:1.875;" x="18" xlink:href="#m63c74b76ea" y="112.371929"/>
      </g>
     </g>
     <g id="text_5">
      <!-- 0.9 -->
      <defs>
       <path d="M 5.46875 16.546875 
L 13.921875 17.328125 
Q 14.984375 11.375 18.015625 8.6875 
Q 21.046875 6 25.78125 6 
Q 29.828125 6 32.875 7.859375 
Q 35.9375 9.71875 37.890625 12.8125 
Q 39.84375 15.921875 41.15625 21.1875 
Q 42.484375 26.46875 42.484375 31.9375 
Q 42.484375 32.515625 42.4375 33.6875 
Q 39.796875 29.5 35.234375 26.875 
Q 30.671875 24.265625 25.34375 24.265625 
Q 16.453125 24.265625 10.296875 30.703125 
Q 4.15625 37.15625 4.15625 47.703125 
Q 4.15625 58.59375 10.578125 65.234375 
Q 17 71.875 26.65625 71.875 
Q 33.640625 71.875 39.421875 68.109375 
Q 45.21875 64.359375 48.21875 57.390625 
Q 51.21875 50.4375 51.21875 37.25 
Q 51.21875 23.53125 48.234375 15.40625 
Q 45.265625 7.28125 39.375 3.03125 
Q 33.5 -1.21875 25.59375 -1.21875 
Q 17.1875 -1.21875 11.859375 3.4375 
Q 6.546875 8.109375 5.46875 16.546875 
z
M 41.453125 48.140625 
Q 41.453125 55.71875 37.421875 60.15625 
Q 33.40625 64.59375 27.734375 64.59375 
Q 21.875 64.59375 17.53125 59.8125 
Q 13.1875 55.03125 13.1875 47.40625 
Q 13.1875 40.578125 17.3125 36.296875 
Q 21.4375 32.03125 27.484375 32.03125 
Q 33.59375 32.03125 37.515625 36.296875 
Q 41.453125 40.578125 41.453125 48.140625 
z
" id="ArialMT-57"/>
      </defs>
      <g style="fill:#262626;" transform="translate(-17.435 118.277124)scale(0.165 -0.165)">
       <use xlink:href="#ArialMT-48"/>
       <use x="55.615234" xlink:href="#ArialMT-46"/>
       <use x="83.398438" xlink:href="#ArialMT-57"/>
      </g>
     </g>
    </g>
    <g id="text_6">
     <!-- AUC -->
     <defs>
      <path d="M -0.140625 0 
L 27.34375 71.578125 
L 37.546875 71.578125 
L 66.84375 0 
L 56.0625 0 
L 47.703125 21.6875 
L 17.78125 21.6875 
L 9.90625 0 
z
M 20.515625 29.390625 
L 44.78125 29.390625 
L 37.3125 49.21875 
Q 33.890625 58.25 32.234375 64.0625 
Q 30.859375 57.171875 28.375 50.390625 
z
" id="ArialMT-65"/>
      <path d="M 54.6875 71.578125 
L 64.15625 71.578125 
L 64.15625 30.21875 
Q 64.15625 19.4375 61.71875 13.078125 
Q 59.28125 6.734375 52.90625 2.75 
Q 46.53125 -1.21875 36.1875 -1.21875 
Q 26.125 -1.21875 19.71875 2.25 
Q 13.328125 5.71875 10.59375 12.28125 
Q 7.859375 18.84375 7.859375 30.21875 
L 7.859375 71.578125 
L 17.328125 71.578125 
L 17.328125 30.28125 
Q 17.328125 20.953125 19.0625 16.53125 
Q 20.796875 12.109375 25.015625 9.71875 
Q 29.25 7.328125 35.359375 7.328125 
Q 45.796875 7.328125 50.234375 12.0625 
Q 54.6875 16.796875 54.6875 30.28125 
z
" id="ArialMT-85"/>
      <path d="M 58.796875 25.09375 
L 68.265625 22.703125 
Q 65.28125 11.03125 57.546875 4.90625 
Q 49.8125 -1.21875 38.625 -1.21875 
Q 27.046875 -1.21875 19.796875 3.484375 
Q 12.546875 8.203125 8.765625 17.140625 
Q 4.984375 26.078125 4.984375 36.328125 
Q 4.984375 47.515625 9.25 55.828125 
Q 13.53125 64.15625 21.40625 68.46875 
Q 29.296875 72.796875 38.765625 72.796875 
Q 49.515625 72.796875 56.828125 67.328125 
Q 64.15625 61.859375 67.046875 51.953125 
L 57.71875 49.75 
Q 55.21875 57.5625 50.484375 61.125 
Q 45.75 64.703125 38.578125 64.703125 
Q 30.328125 64.703125 24.78125 60.734375 
Q 19.234375 56.78125 16.984375 50.109375 
Q 14.75 43.453125 14.75 36.375 
Q 14.75 27.25 17.40625 20.4375 
Q 20.0625 13.625 25.671875 10.25 
Q 31.296875 6.890625 37.84375 6.890625 
Q 45.796875 6.890625 51.3125 11.46875 
Q 56.84375 16.0625 58.796875 25.09375 
z
" id="ArialMT-67"/>
     </defs>
     <g style="fill:#262626;" transform="translate(-26.40375 244.552578)rotate(-90)scale(0.25 -0.25)">
      <use xlink:href="#ArialMT-65"/>
      <use x="66.699219" xlink:href="#ArialMT-85"/>
      <use x="138.916016" xlink:href="#ArialMT-67"/>
     </g>
    </g>
   </g>
   <g id="line2d_7">
    <path clip-path="url(#p2dc7050751)" d="M 18 369.36 
L 129.6 369.36 
" style="fill:none;stroke:#c44e52;stroke-dasharray:8.325,3.6;stroke-dashoffset:0;stroke-width:2.25;"/>
   </g>
   <g id="patch_3">
    <path d="M 18 384.48 
L 18 51.84 
" style="fill:none;stroke:#262626;stroke-linecap:square;stroke-linejoin:miter;stroke-width:1.875;"/>
   </g>
   <g id="patch_4">
    <path d="M 129.6 384.48 
L 129.6 51.84 
" style="fill:none;stroke:#262626;stroke-linecap:square;stroke-linejoin:miter;stroke-width:1.875;"/>
   </g>
   <g id="patch_5">
    <path d="M 18 384.48 
L 129.6 384.48 
" style="fill:none;stroke:#262626;stroke-linecap:square;stroke-linejoin:miter;stroke-width:1.875;"/>
   </g>
   <g id="patch_6">
    <path d="M 18 51.84 
L 129.6 51.84 
" style="fill:none;stroke:#262626;stroke-linecap:square;stroke-linejoin:miter;stroke-width:1.875;"/>
   </g>
   <g id="PathCollection_1">
    <defs>
     <path d="M 0 4 
C 1.060812 4 2.078319 3.578535 2.828427 2.828427 
C 3.578535 2.078319 4 1.060812 4 0 
C 4 -1.060812 3.578535 -2.078319 2.828427 -2.828427 
C 2.078319 -3.578535 1.060812 -4 0 -4 
C -1.060812 -4 -2.078319 -3.578535 -2.828427 -2.828427 
C -3.578535 -2.078319 -4 -1.060812 -4 0 
C -4 1.060812 -3.578535 2.078319 -2.828427 2.828427 
C -2.078319 3.578535 -1.060812 4 0 4 
z
" id="C0_0_fdf02f7c19"/>
    </defs>
    <g clip-path="url(#p2dc7050751)">
     <use style="fill:#4c72b0;fill-opacity:0.7;stroke:#4c4c4c;stroke-opacity:0.7;stroke-width:1.5;" x="57.920572" xlink:href="#C0_0_fdf02f7c19" y="301.736524"/>
    </g>
    <g clip-path="url(#p2dc7050751)">
     <use style="fill:#4c72b0;fill-opacity:0.7;stroke:#4c4c4c;stroke-opacity:0.7;stroke-width:1.5;" x="83.312831" xlink:href="#C0_0_fdf02f7c19" y="276.296305"/>
    </g>
    <g clip-path="url(#p2dc7050751)">
     <use style="fill:#4c72b0;fill-opacity:0.7;stroke:#4c4c4c;stroke-opacity:0.7;stroke-width:1.5;" x="54.181517" xlink:href="#C0_0_fdf02f7c19" y="239.448751"/>
    </g>
    <g clip-path="url(#p2dc7050751)">
     <use style="fill:#4c72b0;fill-opacity:0.7;stroke:#4c4c4c;stroke-opacity:0.7;stroke-width:1.5;" x="61.398735" xlink:href="#C0_0_fdf02f7c19" y="285.648984"/>
    </g>
    <g clip-path="url(#p2dc7050751)">
     <use style="fill:#4c72b0;fill-opacity:0.7;stroke:#4c4c4c;stroke-opacity:0.7;stroke-width:1.5;" x="73.107673" xlink:href="#C0_0_fdf02f7c19" y="300.842408"/>
    </g>
    <g clip-path="url(#p2dc7050751)">
     <use style="fill:#4c72b0;fill-opacity:0.7;stroke:#4c4c4c;stroke-opacity:0.7;stroke-width:1.5;" x="86.882983" xlink:href="#C0_0_fdf02f7c19" y="290.061979"/>
    </g>
    <g clip-path="url(#p2dc7050751)">
     <use style="fill:#4c72b0;fill-opacity:0.7;stroke:#4c4c4c;stroke-opacity:0.7;stroke-width:1.5;" x="59.675837" xlink:href="#C0_0_fdf02f7c19" y="317.666997"/>
    </g>
    <g clip-path="url(#p2dc7050751)">
     <use style="fill:#4c72b0;fill-opacity:0.7;stroke:#4c4c4c;stroke-opacity:0.7;stroke-width:1.5;" x="85.469049" xlink:href="#C0_0_fdf02f7c19" y="302.984172"/>
    </g>
    <g clip-path="url(#p2dc7050751)">
     <use style="fill:#4c72b0;fill-opacity:0.7;stroke:#4c4c4c;stroke-opacity:0.7;stroke-width:1.5;" x="84.243633" xlink:href="#C0_0_fdf02f7c19" y="314.864762"/>
    </g>
    <g clip-path="url(#p2dc7050751)">
     <use style="fill:#4c72b0;fill-opacity:0.7;stroke:#4c4c4c;stroke-opacity:0.7;stroke-width:1.5;" x="62.542979" xlink:href="#C0_0_fdf02f7c19" y="334.293931"/>
    </g>
    <g clip-path="url(#p2dc7050751)">
     <use style="fill:#4c72b0;fill-opacity:0.7;stroke:#4c4c4c;stroke-opacity:0.7;stroke-width:1.5;" x="90.581652" xlink:href="#C0_0_fdf02f7c19" y="228.361511"/>
    </g>
    <g clip-path="url(#p2dc7050751)">
     <use style="fill:#4c72b0;fill-opacity:0.7;stroke:#4c4c4c;stroke-opacity:0.7;stroke-width:1.5;" x="66.092064" xlink:href="#C0_0_fdf02f7c19" y="326.219573"/>
    </g>
    <g clip-path="url(#p2dc7050751)">
     <use style="fill:#4c72b0;fill-opacity:0.7;stroke:#4c4c4c;stroke-opacity:0.7;stroke-width:1.5;" x="92.287378" xlink:href="#C0_0_fdf02f7c19" y="277.517331"/>
    </g>
    <g clip-path="url(#p2dc7050751)">
     <use style="fill:#4c72b0;fill-opacity:0.7;stroke:#4c4c4c;stroke-opacity:0.7;stroke-width:1.5;" x="79.786864" xlink:href="#C0_0_fdf02f7c19" y="312.607812"/>
    </g>
    <g clip-path="url(#p2dc7050751)">
     <use style="fill:#4c72b0;fill-opacity:0.7;stroke:#4c4c4c;stroke-opacity:0.7;stroke-width:1.5;" x="93.705081" xlink:href="#C0_0_fdf02f7c19" y="323.745856"/>
    </g>
    <g clip-path="url(#p2dc7050751)">
     <use style="fill:#4c72b0;fill-opacity:0.7;stroke:#4c4c4c;stroke-opacity:0.7;stroke-width:1.5;" x="73.346582" xlink:href="#C0_0_fdf02f7c19" y="324.719568"/>
    </g>
    <g clip-path="url(#p2dc7050751)">
     <use style="fill:#4c72b0;fill-opacity:0.7;stroke:#4c4c4c;stroke-opacity:0.7;stroke-width:1.5;" x="91.130518" xlink:href="#C0_0_fdf02f7c19" y="340.315869"/>
    </g>
    <g clip-path="url(#p2dc7050751)">
     <use style="fill:#4c72b0;fill-opacity:0.7;stroke:#4c4c4c;stroke-opacity:0.7;stroke-width:1.5;" x="90.477425" xlink:href="#C0_0_fdf02f7c19" y="321.225087"/>
    </g>
    <g clip-path="url(#p2dc7050751)">
     <use style="fill:#4c72b0;fill-opacity:0.7;stroke:#4c4c4c;stroke-opacity:0.7;stroke-width:1.5;" x="72.160412" xlink:href="#C0_0_fdf02f7c19" y="330.073817"/>
    </g>
    <g clip-path="url(#p2dc7050751)">
     <use style="fill:#4c72b0;fill-opacity:0.7;stroke:#4c4c4c;stroke-opacity:0.7;stroke-width:1.5;" x="52.057433" xlink:href="#C0_0_fdf02f7c19" y="266.071308"/>
    </g>
    <g clip-path="url(#p2dc7050751)">
     <use style="fill:#4c72b0;fill-opacity:0.7;stroke:#4c4c4c;stroke-opacity:0.7;stroke-width:1.5;" x="93.538083" xlink:href="#C0_0_fdf02f7c19" y="294.560977"/>
    </g>
    <g clip-path="url(#p2dc7050751)">
     <use style="fill:#4c72b0;fill-opacity:0.7;stroke:#4c4c4c;stroke-opacity:0.7;stroke-width:1.5;" x="82.418773" xlink:href="#C0_0_fdf02f7c19" y="285.37697"/>
    </g>
    <g clip-path="url(#p2dc7050751)">
     <use style="fill:#4c72b0;fill-opacity:0.7;stroke:#4c4c4c;stroke-opacity:0.7;stroke-width:1.5;" x="92.211622" xlink:href="#C0_0_fdf02f7c19" y="324.45617"/>
    </g>
    <g clip-path="url(#p2dc7050751)">
     <use style="fill:#4c72b0;fill-opacity:0.7;stroke:#4c4c4c;stroke-opacity:0.7;stroke-width:1.5;" x="95.369411" xlink:href="#C0_0_fdf02f7c19" y="72.522512"/>
    </g>
    <g clip-path="url(#p2dc7050751)">
     <use style="fill:#4c72b0;fill-opacity:0.7;stroke:#4c4c4c;stroke-opacity:0.7;stroke-width:1.5;" x="55.319464" xlink:href="#C0_0_fdf02f7c19" y="314.485122"/>
    </g>
    <g clip-path="url(#p2dc7050751)">
     <use style="fill:#4c72b0;fill-opacity:0.7;stroke:#4c4c4c;stroke-opacity:0.7;stroke-width:1.5;" x="51.747012" xlink:href="#C0_0_fdf02f7c19" y="307.789941"/>
    </g>
    <g clip-path="url(#p2dc7050751)">
     <use style="fill:#4c72b0;fill-opacity:0.7;stroke:#4c4c4c;stroke-opacity:0.7;stroke-width:1.5;" x="83.707274" xlink:href="#C0_0_fdf02f7c19" y="321.735602"/>
    </g>
   </g>
  </g>
 </g>
 <defs>
  <clipPath id="p2dc7050751">
   <rect height="332.64" width="111.6" x="18" y="51.84"/>
  </clipPath>
 </defs>
</svg>
