<?xml version="1.0" encoding="utf-8" standalone="no"?>
<!DOCTYPE svg PUBLIC "-//W3C//DTD SVG 1.1//EN"
  "http://www.w3.org/Graphics/SVG/1.1/DTD/svg11.dtd">
<!-- Created with matplotlib (https://matplotlib.org/) -->
<svg height="432pt" version="1.1" viewBox="0 0 144 432" width="144pt" xmlns="http://www.w3.org/2000/svg" xmlns:xlink="http://www.w3.org/1999/xlink">
 <metadata>
  <rdf:RDF xmlns:cc="http://creativecommons.org/ns#" xmlns:dc="http://purl.org/dc/elements/1.1/" xmlns:rdf="http://www.w3.org/1999/02/22-rdf-syntax-ns#">
   <cc:Work>
    <dc:type rdf:resource="http://purl.org/dc/dcmitype/StillImage"/>
    <dc:date>2022-04-19T14:27:30.271473</dc:date>
    <dc:format>image/svg+xml</dc:format>
    <dc:creator>
     <cc:Agent>
      <dc:title>Matplotlib v3.3.4, https://matplotlib.org/</dc:title>
     </cc:Agent>
    </dc:creator>
   </cc:Work>
  </rdf:RDF>
 </metadata>
 <defs>
  <style type="text/css">*{stroke-linecap:butt;stroke-linejoin:round;}</style>
 </defs>
 <g id="figure_1">
  <g id="patch_1">
   <path d="M 0 432 
L 144 432 
L 144 0 
L 0 0 
z
" style="fill:#ffffff;"/>
  </g>
  <g id="axes_1">
   <g id="patch_2">
    <path d="M 18 384.48 
L 129.6 384.48 
L 129.6 51.84 
L 18 51.84 
z
" style="fill:#ffffff;"/>
   </g>
   <g id="matplotlib.axis_1">
    <g id="xtick_1">
     <g id="line2d_1">
      <defs>
       <path d="M 0 0 
L 0 9 
" id="m55ec5504f9" style="stroke:#000000;stroke-width:1.875;"/>
      </defs>
      <g>
       <use style="stroke:#000000;stroke-width:1.875;" x="35.039307" xlink:href="#m55ec5504f9" y="384.48"/>
      </g>
     </g>
     <g id="text_1">
      <!-- 0.6 -->
      <g transform="translate(21.919229 409.517422)scale(0.165 -0.165)">
       <defs>
        <path d="M 31.78125 66.40625 
Q 24.171875 66.40625 20.328125 58.90625 
Q 16.5 51.421875 16.5 36.375 
Q 16.5 21.390625 20.328125 13.890625 
Q 24.171875 6.390625 31.78125 6.390625 
Q 39.453125 6.390625 43.28125 13.890625 
Q 47.125 21.390625 47.125 36.375 
Q 47.125 51.421875 43.28125 58.90625 
Q 39.453125 66.40625 31.78125 66.40625 
z
M 31.78125 74.21875 
Q 44.046875 74.21875 50.515625 64.515625 
Q 56.984375 54.828125 56.984375 36.375 
Q 56.984375 17.96875 50.515625 8.265625 
Q 44.046875 -1.421875 31.78125 -1.421875 
Q 19.53125 -1.421875 13.0625 8.265625 
Q 6.59375 17.96875 6.59375 36.375 
Q 6.59375 54.828125 13.0625 64.515625 
Q 19.53125 74.21875 31.78125 74.21875 
z
" id="DejaVuSans-48"/>
        <path d="M 10.6875 12.40625 
L 21 12.40625 
L 21 0 
L 10.6875 0 
z
" id="DejaVuSans-46"/>
        <path d="M 33.015625 40.375 
Q 26.375 40.375 22.484375 35.828125 
Q 18.609375 31.296875 18.609375 23.390625 
Q 18.609375 15.53125 22.484375 10.953125 
Q 26.375 6.390625 33.015625 6.390625 
Q 39.65625 6.390625 43.53125 10.953125 
Q 47.40625 15.53125 47.40625 23.390625 
Q 47.40625 31.296875 43.53125 35.828125 
Q 39.65625 40.375 33.015625 40.375 
z
M 52.59375 71.296875 
L 52.59375 62.3125 
Q 48.875 64.0625 45.09375 64.984375 
Q 41.3125 65.921875 37.59375 65.921875 
Q 27.828125 65.921875 22.671875 59.328125 
Q 17.53125 52.734375 16.796875 39.40625 
Q 19.671875 43.65625 24.015625 45.921875 
Q 28.375 48.1875 33.59375 48.1875 
Q 44.578125 48.1875 50.953125 41.515625 
Q 57.328125 34.859375 57.328125 23.390625 
Q 57.328125 12.15625 50.6875 5.359375 
Q 44.046875 -1.421875 33.015625 -1.421875 
Q 20.359375 -1.421875 13.671875 8.265625 
Q 6.984375 17.96875 6.984375 36.375 
Q 6.984375 53.65625 15.1875 63.9375 
Q 23.390625 74.21875 37.203125 74.21875 
Q 40.921875 74.21875 44.703125 73.484375 
Q 48.484375 72.75 52.59375 71.296875 
z
" id="DejaVuSans-54"/>
       </defs>
       <use xlink:href="#DejaVuSans-48"/>
       <use x="63.623047" xlink:href="#DejaVuSans-46"/>
       <use x="95.410156" xlink:href="#DejaVuSans-54"/>
      </g>
     </g>
    </g>
    <g id="xtick_2">
     <g id="line2d_2">
      <g>
       <use style="stroke:#000000;stroke-width:1.875;" x="85.356384" xlink:href="#m55ec5504f9" y="384.48"/>
      </g>
     </g>
     <g id="text_2">
      <!-- 0.8 -->
      <g transform="translate(72.236306 409.517422)scale(0.165 -0.165)">
       <defs>
        <path d="M 31.78125 34.625 
Q 24.75 34.625 20.71875 30.859375 
Q 16.703125 27.09375 16.703125 20.515625 
Q 16.703125 13.921875 20.71875 10.15625 
Q 24.75 6.390625 31.78125 6.390625 
Q 38.8125 6.390625 42.859375 10.171875 
Q 46.921875 13.96875 46.921875 20.515625 
Q 46.921875 27.09375 42.890625 30.859375 
Q 38.875 34.625 31.78125 34.625 
z
M 21.921875 38.8125 
Q 15.578125 40.375 12.03125 44.71875 
Q 8.5 49.078125 8.5 55.328125 
Q 8.5 64.0625 14.71875 69.140625 
Q 20.953125 74.21875 31.78125 74.21875 
Q 42.671875 74.21875 48.875 69.140625 
Q 55.078125 64.0625 55.078125 55.328125 
Q 55.078125 49.078125 51.53125 44.71875 
Q 48 40.375 41.703125 38.8125 
Q 48.828125 37.15625 52.796875 32.3125 
Q 56.78125 27.484375 56.78125 20.515625 
Q 56.78125 9.90625 50.3125 4.234375 
Q 43.84375 -1.421875 31.78125 -1.421875 
Q 19.734375 -1.421875 13.25 4.234375 
Q 6.78125 9.90625 6.78125 20.515625 
Q 6.78125 27.484375 10.78125 32.3125 
Q 14.796875 37.15625 21.921875 38.8125 
z
M 18.3125 54.390625 
Q 18.3125 48.734375 21.84375 45.5625 
Q 25.390625 42.390625 31.78125 42.390625 
Q 38.140625 42.390625 41.71875 45.5625 
Q 45.3125 48.734375 45.3125 54.390625 
Q 45.3125 60.0625 41.71875 63.234375 
Q 38.140625 66.40625 31.78125 66.40625 
Q 25.390625 66.40625 21.84375 63.234375 
Q 18.3125 60.0625 18.3125 54.390625 
z
" id="DejaVuSans-56"/>
       </defs>
       <use xlink:href="#DejaVuSans-48"/>
       <use x="63.623047" xlink:href="#DejaVuSans-46"/>
       <use x="95.410156" xlink:href="#DejaVuSans-56"/>
      </g>
     </g>
    </g>
    <g id="text_3">
     <!-- AUC -->
     <g transform="translate(54.772031 430.626094)scale(0.18 -0.18)">
      <defs>
       <path d="M 34.1875 63.1875 
L 20.796875 26.90625 
L 47.609375 26.90625 
z
M 28.609375 72.90625 
L 39.796875 72.90625 
L 67.578125 0 
L 57.328125 0 
L 50.6875 18.703125 
L 17.828125 18.703125 
L 11.1875 0 
L 0.78125 0 
z
" id="DejaVuSans-65"/>
       <path d="M 8.6875 72.90625 
L 18.609375 72.90625 
L 18.609375 28.609375 
Q 18.609375 16.890625 22.84375 11.734375 
Q 27.09375 6.59375 36.625 6.59375 
Q 46.09375 6.59375 50.34375 11.734375 
Q 54.59375 16.890625 54.59375 28.609375 
L 54.59375 72.90625 
L 64.5 72.90625 
L 64.5 27.390625 
Q 64.5 13.140625 57.4375 5.859375 
Q 50.390625 -1.421875 36.625 -1.421875 
Q 22.796875 -1.421875 15.734375 5.859375 
Q 8.6875 13.140625 8.6875 27.390625 
z
" id="DejaVuSans-85"/>
       <path d="M 64.40625 67.28125 
L 64.40625 56.890625 
Q 59.421875 61.53125 53.78125 63.8125 
Q 48.140625 66.109375 41.796875 66.109375 
Q 29.296875 66.109375 22.65625 58.46875 
Q 16.015625 50.828125 16.015625 36.375 
Q 16.015625 21.96875 22.65625 14.328125 
Q 29.296875 6.6875 41.796875 6.6875 
Q 48.140625 6.6875 53.78125 8.984375 
Q 59.421875 11.28125 64.40625 15.921875 
L 64.40625 5.609375 
Q 59.234375 2.09375 53.4375 0.328125 
Q 47.65625 -1.421875 41.21875 -1.421875 
Q 24.65625 -1.421875 15.125 8.703125 
Q 5.609375 18.84375 5.609375 36.375 
Q 5.609375 53.953125 15.125 64.078125 
Q 24.65625 74.21875 41.21875 74.21875 
Q 47.75 74.21875 53.53125 72.484375 
Q 59.328125 70.75 64.40625 67.28125 
z
" id="DejaVuSans-67"/>
      </defs>
      <use xlink:href="#DejaVuSans-65"/>
      <use x="68.408203" xlink:href="#DejaVuSans-85"/>
      <use x="141.601562" xlink:href="#DejaVuSans-67"/>
     </g>
    </g>
   </g>
   <g id="matplotlib.axis_2">
    <g id="ytick_1">
     <g id="line2d_3">
      <defs>
       <path d="M 0 0 
L -9 0 
" id="m98cacee21a" style="stroke:#000000;stroke-width:1.875;"/>
      </defs>
      <g>
       <use style="stroke:#000000;stroke-width:1.875;" x="18" xlink:href="#m98cacee21a" y="218.16"/>
      </g>
     </g>
    </g>
    <g id="text_4">
     <!-- AUC -->
     <g transform="translate(-3.699219 244.587734)rotate(-90)scale(0.25 -0.25)">
      <use xlink:href="#DejaVuSans-65"/>
      <use x="68.408203" xlink:href="#DejaVuSans-85"/>
      <use x="141.601562" xlink:href="#DejaVuSans-67"/>
     </g>
    </g>
   </g>
   <g id="line2d_4">
    <path clip-path="url(#p6324fb5040)" d="M 18 384.48 
L 129.6 384.48 
" style="fill:none;stroke:#ff0000;stroke-dasharray:8.325,3.6;stroke-dashoffset:0;stroke-width:2.25;"/>
   </g>
   <g id="patch_3">
    <path d="M 18 384.48 
L 18 51.84 
" style="fill:none;stroke:#000000;stroke-linecap:square;stroke-linejoin:miter;stroke-width:1.875;"/>
   </g>
   <g id="patch_4">
    <path d="M 129.6 384.48 
L 129.6 51.84 
" style="fill:none;stroke:#000000;stroke-linecap:square;stroke-linejoin:miter;stroke-width:1.875;"/>
   </g>
   <g id="patch_5">
    <path d="M 18 384.48 
L 129.6 384.48 
" style="fill:none;stroke:#000000;stroke-linecap:square;stroke-linejoin:miter;stroke-width:1.875;"/>
   </g>
   <g id="patch_6">
    <path d="M 18 51.84 
L 129.6 51.84 
" style="fill:none;stroke:#000000;stroke-linecap:square;stroke-linejoin:miter;stroke-width:1.875;"/>
   </g>
   <g id="PathCollection_1">
    <defs>
     <path d="M 0 4 
C 1.060812 4 2.078319 3.578535 2.828427 2.828427 
C 3.578535 2.078319 4 1.060812 4 -0 
C 4 -1.060812 3.578535 -2.078319 2.828427 -2.828427 
C 2.078319 -3.578535 1.060812 -4 0 -4 
C -1.060812 -4 -2.078319 -3.578535 -2.828427 -2.828427 
C -3.578535 -2.078319 -4 -1.060812 -4 0 
C -4 1.060812 -3.578535 2.078319 -2.828427 2.828427 
C -2.078319 3.578535 -1.060812 4 0 4 
z
" id="C0_0_4cd4ab9d13"/>
    </defs>
    <g clip-path="url(#p6324fb5040)">
     <use style="fill:#1f77b4;fill-opacity:0.7;stroke:#3f3f3f;stroke-opacity:0.7;stroke-width:1.5;" x="38.355862" xlink:href="#C0_0_4cd4ab9d13" y="177.793051"/>
    </g>
    <g clip-path="url(#p6324fb5040)">
     <use style="fill:#1f77b4;fill-opacity:0.7;stroke:#3f3f3f;stroke-opacity:0.7;stroke-width:1.5;" x="55.758104" xlink:href="#C0_0_4cd4ab9d13" y="262.019072"/>
    </g>
    <g clip-path="url(#p6324fb5040)">
     <use style="fill:#1f77b4;fill-opacity:0.7;stroke:#3f3f3f;stroke-opacity:0.7;stroke-width:1.5;" x="39.59387" xlink:href="#C0_0_4cd4ab9d13" y="244.349417"/>
    </g>
    <g clip-path="url(#p6324fb5040)">
     <use style="fill:#1f77b4;fill-opacity:0.7;stroke:#3f3f3f;stroke-opacity:0.7;stroke-width:1.5;" x="30.686364" xlink:href="#C0_0_4cd4ab9d13" y="183.415848"/>
    </g>
    <g clip-path="url(#p6324fb5040)">
     <use style="fill:#1f77b4;fill-opacity:0.7;stroke:#3f3f3f;stroke-opacity:0.7;stroke-width:1.5;" x="45.754715" xlink:href="#C0_0_4cd4ab9d13" y="180.333693"/>
    </g>
    <g clip-path="url(#p6324fb5040)">
     <use style="fill:#1f77b4;fill-opacity:0.7;stroke:#3f3f3f;stroke-opacity:0.7;stroke-width:1.5;" x="35.665861" xlink:href="#C0_0_4cd4ab9d13" y="227.77122"/>
    </g>
    <g clip-path="url(#p6324fb5040)">
     <use style="fill:#1f77b4;fill-opacity:0.7;stroke:#3f3f3f;stroke-opacity:0.7;stroke-width:1.5;" x="28.660691" xlink:href="#C0_0_4cd4ab9d13" y="168.830549"/>
    </g>
    <g clip-path="url(#p6324fb5040)">
     <use style="fill:#1f77b4;fill-opacity:0.7;stroke:#3f3f3f;stroke-opacity:0.7;stroke-width:1.5;" x="26.852799" xlink:href="#C0_0_4cd4ab9d13" y="262.449406"/>
    </g>
    <g clip-path="url(#p6324fb5040)">
     <use style="fill:#1f77b4;fill-opacity:0.7;stroke:#3f3f3f;stroke-opacity:0.7;stroke-width:1.5;" x="32.314287" xlink:href="#C0_0_4cd4ab9d13" y="240.235971"/>
    </g>
    <g clip-path="url(#p6324fb5040)">
     <use style="fill:#1f77b4;fill-opacity:0.7;stroke:#3f3f3f;stroke-opacity:0.7;stroke-width:1.5;" x="71.510746" xlink:href="#C0_0_4cd4ab9d13" y="179.197246"/>
    </g>
    <g clip-path="url(#p6324fb5040)">
     <use style="fill:#1f77b4;fill-opacity:0.7;stroke:#3f3f3f;stroke-opacity:0.7;stroke-width:1.5;" x="29.974367" xlink:href="#C0_0_4cd4ab9d13" y="188.242081"/>
    </g>
    <g clip-path="url(#p6324fb5040)">
     <use style="fill:#1f77b4;fill-opacity:0.7;stroke:#3f3f3f;stroke-opacity:0.7;stroke-width:1.5;" x="41.930219" xlink:href="#C0_0_4cd4ab9d13" y="232.29822"/>
    </g>
    <g clip-path="url(#p6324fb5040)">
     <use style="fill:#1f77b4;fill-opacity:0.7;stroke:#3f3f3f;stroke-opacity:0.7;stroke-width:1.5;" x="31.257053" xlink:href="#C0_0_4cd4ab9d13" y="249.818575"/>
    </g>
    <g clip-path="url(#p6324fb5040)">
     <use style="fill:#1f77b4;fill-opacity:0.7;stroke:#3f3f3f;stroke-opacity:0.7;stroke-width:1.5;" x="35.748938" xlink:href="#C0_0_4cd4ab9d13" y="254.40812"/>
    </g>
    <g clip-path="url(#p6324fb5040)">
     <use style="fill:#1f77b4;fill-opacity:0.7;stroke:#3f3f3f;stroke-opacity:0.7;stroke-width:1.5;" x="23.072727" xlink:href="#C0_0_4cd4ab9d13" y="247.089632"/>
    </g>
    <g clip-path="url(#p6324fb5040)">
     <use style="fill:#1f77b4;fill-opacity:0.7;stroke:#3f3f3f;stroke-opacity:0.7;stroke-width:1.5;" x="27.047463" xlink:href="#C0_0_4cd4ab9d13" y="259.804594"/>
    </g>
    <g clip-path="url(#p6324fb5040)">
     <use style="fill:#1f77b4;fill-opacity:0.7;stroke:#3f3f3f;stroke-opacity:0.7;stroke-width:1.5;" x="31.55451" xlink:href="#C0_0_4cd4ab9d13" y="202.752703"/>
    </g>
    <g clip-path="url(#p6324fb5040)">
     <use style="fill:#1f77b4;fill-opacity:0.7;stroke:#3f3f3f;stroke-opacity:0.7;stroke-width:1.5;" x="42.844517" xlink:href="#C0_0_4cd4ab9d13" y="164.389804"/>
    </g>
    <g clip-path="url(#p6324fb5040)">
     <use style="fill:#1f77b4;fill-opacity:0.7;stroke:#3f3f3f;stroke-opacity:0.7;stroke-width:1.5;" x="39.427664" xlink:href="#C0_0_4cd4ab9d13" y="258.572077"/>
    </g>
    <g clip-path="url(#p6324fb5040)">
     <use style="fill:#1f77b4;fill-opacity:0.7;stroke:#3f3f3f;stroke-opacity:0.7;stroke-width:1.5;" x="30.950265" xlink:href="#C0_0_4cd4ab9d13" y="190.860091"/>
    </g>
    <g clip-path="url(#p6324fb5040)">
     <use style="fill:#1f77b4;fill-opacity:0.7;stroke:#3f3f3f;stroke-opacity:0.7;stroke-width:1.5;" x="124.527273" xlink:href="#C0_0_4cd4ab9d13" y="283.968852"/>
    </g>
    <g clip-path="url(#p6324fb5040)">
     <use style="fill:#1f77b4;fill-opacity:0.7;stroke:#3f3f3f;stroke-opacity:0.7;stroke-width:1.5;" x="44.924887" xlink:href="#C0_0_4cd4ab9d13" y="194.128629"/>
    </g>
    <g clip-path="url(#p6324fb5040)">
     <use style="fill:#1f77b4;fill-opacity:0.7;stroke:#3f3f3f;stroke-opacity:0.7;stroke-width:1.5;" x="30.14737" xlink:href="#C0_0_4cd4ab9d13" y="207.845472"/>
    </g>
    <g clip-path="url(#p6324fb5040)">
     <use style="fill:#1f77b4;fill-opacity:0.7;stroke:#3f3f3f;stroke-opacity:0.7;stroke-width:1.5;" x="31.792382" xlink:href="#C0_0_4cd4ab9d13" y="218.20566"/>
    </g>
   </g>
  </g>
 </g>
 <defs>
  <clipPath id="p6324fb5040">
   <rect height="332.64" width="111.6" x="18" y="51.84"/>
  </clipPath>
 </defs>
</svg>
